<?xml version="1.0" encoding="utf-8"?>
<!-- Generator: Adobe Illustrator 19.0.0, SVG Export Plug-In . SVG Version: 6.00 Build 0)  -->
<svg version="1.1" xmlns="http://www.w3.org/2000/svg" xmlns:xlink="http://www.w3.org/1999/xlink" x="0px" y="0px"
	 viewBox="0 0 520.7 616.8" enable-background="new 0 0 470.7 616.8" xml:space="preserve">
<g id="Tie-Back">
	<path id="XMLID_135_" fill="#0071BC" d="M324.2,326.1c-0.7-8.9-14.1-16.7-19.4-17.2c0,6.2,0,43,0,48.3c7.2,3,17.2,9.2,19.4,13.5
		C324.2,362.1,324.8,334.3,324.2,326.1z"/>
</g>

<g id="Man-Big-Arm">
    <g>
    <!--           <animateMotion path="M 0 200 L 40 0" dur="10s" repeatCount="indefinite"  fill="freeze"/>-->
    <animateTransform attributeName="transform"
                    attributeType="XML"
                    type="rotate"
                    from="3 0 0"
                    to="5 30 650"
                    dur="0.001s"
                    begin="0s"
                        fill="freeze"
                    />
                     <animateTransform attributeName="transform"
                                        attributeType="XML"
                                        type="rotate"
                                        from="5 30 650"
                                        to="3 0 0"
                                        dur="1s"
                                        begin="1s"
                                        fill="freeze" />
<!--
         <animateMotion dur="6s" repeatCount="indefinite">
           <mpath xlink:href="#theMotionPath"/>
        </animateMotion>
-->

        <g id="XMLID_128_">
            <path id="XMLID_134_" fill="#B6E1E9" d="M299.7,100.6c-6.4,0-16.8,7.1-29,7.1c-9.4,0-14-3.4-17.3-3.4V93.9c0,0-21.4,0-31.6,0
                c-2.7,0-4.8-2.2-4.8-4.8v0c0-2.8,2.3-5.1,5.1-5.1h77.6C299.7,84,299.7,96.4,299.7,100.6z"/>
            <path id="XMLID_131_" fill="#B6E1E9" d="M232.2,99.6c0-2.6,2.1-4.7,4.7-4.7h20v9.3h-20C234.3,104.3,232.2,102.2,232.2,99.6z"/>
        </g>
        <g id="XMLID_99_">
            <path id="XMLID_100_" fill="#0D1272" d="M284.7,290.1c-52.5,20-74.5-67.8-27.1-83.4c99.6-32.9,141.5-46.4,141.5-46.4
                s-39.8-18.2-115.8-44.1l11.1-40.9C428.5,111.9,463,121.6,468.6,164C473.2,198.9,395.7,247.7,284.7,290.1z"/>

        </g>
    </g>
</g>
<g id="Man-Big">
    <g id="XMLID_116_">
        <path id="XMLID_117_" fill="#0D1272" d="M57.3,230.7c-73.8,83.9-59.1,278.5-31.5,413.6l27.6-0.6
            c-3.4-124.4-8.4-273.4,69.2-350.6C154,261.9,83.3,201.1,57.3,230.7z"/>
    </g>
    <g id="XMLID_111_">
        <g id="XMLID_113_">
            <g id="XMLID_114_">
                <path id="XMLID_115_" fill="#B6E1E9" d="M234.8,138.8c3.7-2,8.8-4.6,8.8-4.6s-13.4-23.6-23.3-37.8
                    c-8.3-12-21.5-18.3-37.6-9.8c-18.3,9.7-28,62.7-21,85.8l-8.6,39.6h80.5C233.6,212.1,234.1,164.1,234.8,138.8z"/>
            </g>
        </g>
        <path id="XMLID_112_" fill="#0071BC" d="M161.2,101.1c1-20.6,31.7-24,39.4-25.6c7.7-1.5,10.6-5.3,5.5-11.7
            c14.6,3.2,18.6,15.2,17.3,28.6c-0.7,7.4-4.3,24.1-4.3,24.1s3.5,32.9,3.4,38c-1.4,0.3-5.6,2-7.1,2.2c-1.7-7.9-5.5-29-11.3-25.5
            c-4.2,2.6,2.5,25.1-4.2,41.2c-8.1,0-35.5,0-38.2,0C155.4,157.4,141,111.2,161.2,101.1z"/>
    </g>
    <path id="XMLID_102_" fill="#0D1272" d="M174.7,179.8c-24.9,0-30.4,14.6-33.5,25.5c19.3,0,108.3,0,108.3,0
        C246.7,196.8,221.5,179.8,174.7,179.8z"/>
    <path id="XMLID_101_" fill="#0D1272" d="M287.6,210.6c21.6,7.7,25.7,21.2,25.2,37.2c-0.5,18.2,18.4,328,18.4,395.4
        c-56.4,0.5-218.2,2.2-257.5,2.2c0-30.2,17-74.5,16.7-122.9C90.1,474,53.9,296.7,50.1,249.9c-2-25,30.4-32.1,46.7-38.7
        C142.7,192.8,245.8,195.7,287.6,210.6z"/>
</g>

<!--
    <g>
   <animateTransform attributeType="xml"
                            attributeName="transform"
                            type="rotate"
                            from="0 90 90"
                            to="0 0 0"
                            dur="4s"
                            begin="1s"
                            repeatCount="indefinite"/>
 <rect x="120.764" y="232.475" fill="#C6E7EE" width="53.06" height="117.4"/>

 <path fill="#DBF0F4" d="M167.113,259.268c0,10.943-8.875,19.818-19.818,19.818c-10.946,0-19.819-8.875-19.819-19.818v-19.771
  h39.637V259.268z"/>
 <path fill="#FFFFFF" d="M136.231,275.711c3.159,2.131,6.966,3.375,11.062,3.375c4.1,0,7.904-1.244,11.066-3.375
  c-3.162-2.129-6.967-3.373-11.066-3.373C143.197,272.338,139.39,273.582,136.231,275.711"/>
 <path fill="#FFFFFF" d="M167.09,298.041c-5.053-0.9-12.268-1.416-19.795-1.416c-7.529,0-14.744,0.516-19.796,1.416l-0.045-0.252
  c5.066-0.902,12.299-1.418,19.841-1.418c7.543,0,14.773,0.516,19.84,1.418L167.09,298.041z"/>
 <path fill="#FFFFFF" d="M167.09,306.275c-5.053-0.9-12.268-1.416-19.795-1.416c-7.529,0-14.744,0.516-19.796,1.416l-0.045-0.252
  c5.066-0.902,12.299-1.42,19.841-1.42c7.543,0,14.773,0.518,19.84,1.42L167.09,306.275z"/>
 <path fill="#FFFFFF" d="M167.09,302.158c-5.053-0.9-12.268-1.416-19.795-1.416c-7.529,0-14.744,0.516-19.796,1.416l-0.045-0.252
  c5.066-0.902,12.299-1.418,19.841-1.418c7.543,0,14.773,0.516,19.84,1.418L167.09,302.158z"/>
  </g>
-->
<!--    fill="freeze" -->

<g id="Ladder">
	<g id="XMLID_41_">
		<polygon id="XMLID_62_" fill="#0091D1" points="43.1,485.5 40.5,485.3 93.2,228.5 95.8,228.7 		"/>
		<g id="XMLID_52_">
			<polygon id="XMLID_61_" fill="#0091D1" points="55.9,416.6 56.3,414.7 86.2,416.5 85.8,418.5 			"/>
			<polygon id="XMLID_60_" fill="#0091D1" points="52.9,431.3 53.3,429.3 83.2,431.2 82.8,433.1 			"/>
			<polygon id="XMLID_59_" fill="#0091D1" points="49.9,445.9 50.3,444 80.2,445.8 79.8,447.8 			"/>
			<polygon id="XMLID_58_" fill="#0091D1" points="46.9,460.6 47.3,458.6 77.2,460.5 76.8,462.4 			"/>
			<polygon id="XMLID_57_" fill="#0091D1" points="43.9,475.2 44.3,473.3 74.2,475.1 73.8,477.1 			"/>
			<polygon id="XMLID_56_" fill="#0091D1" points="67.9,358 68.3,356.1 98.2,357.9 97.8,359.9 			"/>
			<polygon id="XMLID_55_" fill="#0091D1" points="64.9,372.7 65.3,370.7 95.2,372.6 94.8,374.5 			"/>
			<polygon id="XMLID_54_" fill="#0091D1" points="61.9,387.3 62.3,385.4 92.2,387.2 91.8,389.2 			"/>
			<polygon id="XMLID_53_" fill="#0091D1" points="58.9,402 59.3,400 89.2,401.9 88.8,403.8 			"/>
		</g>
		<g id="XMLID_43_">
			<polygon id="XMLID_51_" fill="#0091D1" points="80,299.4 80.3,297.5 110.2,299.3 109.8,301.2 			"/>
			<polygon id="XMLID_50_" fill="#0091D1" points="76.9,314 77.3,312.1 107.2,314 106.8,315.9 			"/>
			<polygon id="XMLID_49_" fill="#0091D1" points="73.9,328.7 74.3,326.8 104.2,328.6 103.8,330.5 			"/>
			<polygon id="XMLID_48_" fill="#0091D1" points="70.9,343.3 71.3,341.4 101.2,343.3 100.8,345.2 			"/>
			<polygon id="XMLID_47_" fill="#0091D1" points="92,240.8 92.4,238.9 122.3,240.7 121.9,242.6 			"/>
			<polygon id="XMLID_46_" fill="#0091D1" points="89,255.4 89.4,253.5 119.3,255.4 118.9,257.3 			"/>
			<polygon id="XMLID_45_" fill="#0091D1" points="86,270.1 86.4,268.2 116.2,270 115.9,271.9 			"/>
			<polygon id="XMLID_44_" fill="#0091D1" points="83,284.7 83.3,282.8 113.2,284.7 112.9,286.6 			"/>
		</g>
		<polygon id="XMLID_42_" fill="#0091D1" points="73.1,487.3 70.5,487.2 123.2,230.4 125.8,230.5 		"/>
	</g>
	<g id="XMLID_19_">
		<polygon id="XMLID_40_" fill="#0091D1" points="-5,720.4 -7.6,720.2 45.1,463.4 47.7,463.6 		"/>
		<g id="XMLID_30_">
			<polygon id="XMLID_39_" fill="#0091D1" points="7.8,651.5 8.2,649.6 38.1,651.5 37.7,653.4 			"/>
			<polygon id="XMLID_38_" fill="#0091D1" points="4.8,666.2 5.2,664.2 35.1,666.1 34.7,668 			"/>
			<polygon id="XMLID_37_" fill="#0091D1" points="1.8,680.8 2.2,678.9 32.1,680.8 31.7,682.7 			"/>
			<polygon id="XMLID_36_" fill="#0091D1" points="-1.2,695.5 -0.8,693.6 29.1,695.4 28.7,697.3 			"/>
			<polygon id="XMLID_35_" fill="#0091D1" points="-4.2,710.1 -3.8,708.2 26.1,710.1 25.7,712 			"/>
			<polygon id="XMLID_34_" fill="#0091D1" points="19.8,592.9 20.2,591 50.1,592.8 49.7,594.8 			"/>
			<polygon id="XMLID_33_" fill="#0091D1" points="16.8,607.6 17.2,605.6 47.1,607.5 46.7,609.4 			"/>
			<polygon id="XMLID_32_" fill="#0091D1" points="13.8,622.2 14.2,620.3 44.1,622.2 43.7,624.1 			"/>
			<polygon id="XMLID_31_" fill="#0091D1" points="10.8,636.9 11.2,634.9 41.1,636.8 40.7,638.7 			"/>
		</g>
		<g id="XMLID_21_">
			<polygon id="XMLID_29_" fill="#0091D1" points="31.8,534.3 32.2,532.4 62.1,534.2 61.7,536.2 			"/>
			<polygon id="XMLID_28_" fill="#0091D1" points="28.8,549 29.2,547 59.1,548.9 58.7,550.8 			"/>
			<polygon id="XMLID_27_" fill="#0091D1" points="25.8,563.6 26.2,561.7 56.1,563.5 55.7,565.5 			"/>
			<polygon id="XMLID_26_" fill="#0091D1" points="22.8,578.3 23.2,576.3 53.1,578.2 52.7,580.1 			"/>
			<polygon id="XMLID_25_" fill="#0091D1" points="43.8,475.7 44.2,473.8 74.1,475.6 73.7,477.5 			"/>
			<polygon id="XMLID_24_" fill="#0091D1" points="40.8,490.3 41.2,488.4 71.1,490.3 70.7,492.2 			"/>
			<polygon id="XMLID_23_" fill="#0091D1" points="37.8,505 38.2,503.1 68.1,504.9 67.7,506.9 			"/>
			<polygon id="XMLID_22_" fill="#0091D1" points="34.8,519.7 35.2,517.7 65.1,519.6 64.7,521.5 			"/>
		</g>
		<polygon id="XMLID_20_" fill="#0091D1" points="25,722.2 22.4,722.1 75,465.3 77.6,465.4 		"/>
	</g>
</g>
<!--    A rx,ry xAxisRotate LargeArcFlag,SweepFlag x,y  A120,120 -45 0,1 110 10-->

<!--
   <path d="M0,0 A 120,120 500 0,1 20 20"
          stroke="lightgrey" stroke-width="2"
          fill="none" id="theMotionPath"/>
-->
<!--
    <circle cx="10" cy="110" r="3" fill="lightgrey"  />
    <circle cx="110" cy="10" r="3" fill="lightgrey"  />
-->

    <!-- Here is a red circle which will be moved along the motion path. -->
<!--
    <circle cx="" cy="" r="5" fill="red">

         Define the motion path animation
        <animateMotion dur="6s" begin="1s" repeatCount="indefinite">
           <mpath xlink:href="#theMotionPath"/>
        </animateMotion>
    </circle>
-->

<g id="Man-Small">
    <g transform="translate(-20,110)">
<!--        <animateMotion path="M 0 200 L 40 0" dur="5s" begin ="2s"repeatCount="indefinite" />-->
        <!--animateMotion dur="1s" repeatCount="2" fill="freeze">
           <mpath xlink:href="#theMotionPath"/>
        </animateMotion-->
        <g>
            <animateMotion path="M 0 0 L 20 -110" dur="1s" begin = "1s" fill="freeze"/>
            <g id="XMLID_73_">
              <!--animateTransform attributeName="transform"
                                                        attributeType="XML"
                                                        type="rotate"
                                                        from="0.3 0 0"
                                                        to="-0.3"
                                                        begin="1s"
                                                        dur="0.5s"
                                                        fill="freeze"
                                                        repeatCount="3"/-->

                <path id="XMLID_96_" fill="#601A7A" d="M124.4,214.1c0.3,0.6,2.3,1.3,3.2,0.8c0.9-0.5,2.8,0.4,1.2,1.3c-1.5,0.9-4.9,0.6-5.6-0.2
                    c0,0.3,0,0.7,0,0.7h-2.7l0.3-2.7L124.4,214.1z"/>


              <g id="foot-right">
              <!--animateTransform attributeName="transform"
                                                                      attributeType="XML"
                                                                      type="rotate"
                                                                      from="0 0 0"
                                                                      to="0.8 0 0"
                                                                      begin="1s"
                                                                      dur="0.5s"
                                                                      fill="freeze"
                                                                      repeatCount="3"/-->
                <g id="XMLID_94_">
                    <path id="XMLID_95_" fill="#601A7A" d="M126.7,163.3c-0.8-9.7-13.8-9.8-11.8-0.2c2.7,12.5,5.3,36.5,6.1,50.1l3.2,0.2
                        C126,200.1,127.8,175.9,126.7,163.3z"/>
                </g>
              </g>





                <path id="XMLID_93_" fill="#601A7A" d="M101.7,213.7c0.2,0.7,2,1.8,3,1.5c1-0.3,2.6,1,0.9,1.6c-1.7,0.6-5-0.4-5.4-1.4
                    c-0.1,0.3-0.1,0.7-0.1,0.7l-2.6-0.6l0.8-2.5L101.7,213.7z"/>


               <g id="foot-left">
                <!--animateTransform attributeName="transform"
                                                                                     attributeType="XML"
                                                                                     type="rotate"
                                                                                     from="0 0 0"
                                                                                     to="-0.8 0 0"
                                                                                     begin="2s"
                                                                                     dur="0.5s"
                                                                                     fill="remove"
                                                                                     repeatCount="3"/-->
                <g id="XMLID_91_">
                    <path id="XMLID_92_" fill="#601A7A" d="M114.4,164.5c1.2-9.7-11.5-12.5-11.5-2.7c0.1,15.3,0,35.6-4.5,50.3l2.9,0.7
                        C108.9,199.8,112.5,179.8,114.4,164.5z"/>
                </g>

                </g>



<g id="body_humans_rotate">



                                                                                      <path id="XMLID_97_" fill="#B6E1E9" d="M118.8,112.3c0.3-0.1,1-0.3,1-0.3s-1.4-2.6-2.3-3.8c-0.9-1.2-2,0.5-3.8,1.1
                                                                                                         c-2.1,0.7-2.1,4.9-2.1,6.2c0,1.2-0.2,3.5-1.3,4.9l6.8,1.7C117.9,120.1,119.3,114.2,118.8,112.3z"/>
                <path id="XMLID_90_" fill="#601A7A" d="M127.4,120.7c-3.1-4.2-23.9-2.8-26.9,0.1c-4.2,4.1-0.1,25.3,1.2,32.4
                    c-0.9,3.8-2.4,8.3-2.9,11.7l29.1,1.3C128.6,155.3,129.1,123,127.4,120.7z"/>
                <path id="XMLID_89_" fill="#601A7A" d="M118.1,112c0-0.6-0.5-3.3-0.7-3.9c0.2-0.8-0.4-2.8-1.4-3.4c-0.2,1-2.6,0.5-4.6,2.4
                    c-1.9,1.8-0.1,5.6,0,8.6c0,1,3.6,0.7,4-0.2c0.5-0.9,0.4-4.5,0.9-5.3c0.5-0.8,1.1,0.5,1.3,1.8C118,112,118,112,118.1,112z"/>
                <g id="XMLID_87_">
                    <path id="XMLID_88_" fill="#601A7A" d="M127.4,120.7c6.5,11.2,19.2,29.1,31.3,31.2l-1.5,3.3c-11-1.4-24.2-12-35.3-26.3
                        C116.4,121.7,126.1,118.4,127.4,120.7z"/>
                        <g id="XMLID_66_">
                                        <path id="XMLID_72_" fill="#B6E1E9" d="M157.5,156c-0.3-0.1-0.5-0.5-0.3-0.8l1.5-3.3c0.1-0.3,0.5-0.5,0.8-0.3l1.8,0.8
                                            c0.3,0.1,0.5,0.5,0.3,0.8l-1.5,3.3c-0.1,0.3-0.5,0.5-0.8,0.3L157.5,156z"/>
                                        <path id="XMLID_71_" fill="#B6E1E9" d="M160.4,157.3c0.3,0.1,0.6,0,0.7-0.3c0.1-0.3,0-0.6-0.3-0.7l-0.9-0.4
                                            c-0.3-0.1-0.6,0-0.7,0.3c-0.1,0.3,0,0.6,0.3,0.7L160.4,157.3z"/>
                                        <path id="XMLID_70_" fill="#B6E1E9" d="M161.9,153.8c0.3,0.1,0.6,0,0.7-0.3c0.1-0.3,0-0.6-0.3-0.7l-0.9-0.4
                                            c-0.3-0.1-0.6,0-0.7,0.3c-0.1,0.3,0,0.6,0.3,0.7L161.9,153.8z"/>
                                        <path id="XMLID_69_" fill="#B6E1E9" d="M161.4,154.9c0.3,0.1,0.6,0,0.7-0.3c0.1-0.3,0-0.6-0.3-0.7l-0.9-0.4
                                            c-0.3-0.1-0.6,0-0.7,0.3c-0.1,0.3,0,0.6,0.3,0.7L161.4,154.9z"/>
                                        <path id="XMLID_68_" fill="#B6E1E9" d="M160.9,156.1c0.3,0.1,0.6,0,0.7-0.3c0.1-0.3,0-0.6-0.3-0.7l-0.9-0.4
                                            c-0.3-0.1-0.6,0-0.7,0.3c-0.1,0.3,0,0.6,0.3,0.7L160.9,156.1z"/>
                                        <path id="XMLID_67_" fill="#B6E1E9" d="M161.2,151.8c0.3-0.1,0.4-0.4,0.3-0.7c-0.1-0.3-0.4-0.4-0.7-0.3l-1.8,0.7
                                            c-0.3,0.1-0.4,0.4-0.3,0.7c0.1,0.3,0.4,0.4,0.7,0.3L161.2,151.8z"/>
                                    </g>
                </g>




                <g id="XMLID_74_">
                    <g id="XMLID_76_">
                        <path id="XMLID_86_" fill="#B6E1E9" d="M83.5,162.4c0-0.3,0.3-0.6,0.6-0.6l3.7,0c0.4,0,0.6,0.3,0.6,0.6v1.9
                            c0,0.4-0.3,0.6-0.6,0.6h-3.7c-0.4,0-0.6-0.3-0.6-0.6L83.5,162.4z"/>
                        <g id="XMLID_84_">
                            <path id="XMLID_85_" fill="#0071BC" d="M80.8,164c0.3-0.3,0.7-0.5,1.2-0.5l7.8,0c0.9,0,1.6,0.7,1.6,1.5v3.7h-1.1l0-3.7
                                c0-0.3-0.3-0.4-0.5-0.4l-7.8,0c-0.3,0-0.6,0.2-0.6,0.4l0,3.7l-1.1,0V165C80.3,164.6,80.5,164.3,80.8,164z"/>
                        </g>
                        <path id="XMLID_83_" fill="#B6E1E9" d="M83.5,165.5c0,0.3,0.2,0.5,0.5,0.5c0.3,0,0.5-0.2,0.5-0.5v-1c0-0.3-0.2-0.5-0.5-0.5
                            c-0.3,0-0.5,0.2-0.5,0.5V165.5z"/>
                        <path id="XMLID_82_" fill="#B6E1E9" d="M87.4,165.5c0,0.3,0.2,0.5,0.5,0.5c0.3,0,0.5-0.2,0.5-0.5v-1c0-0.3-0.2-0.5-0.5-0.5
                            c-0.3,0-0.5,0.2-0.5,0.5V165.5z"/>
                        <path id="XMLID_81_" fill="#B6E1E9" d="M86.1,165.5c0,0.3,0.2,0.5,0.5,0.5c0.3,0,0.5-0.2,0.5-0.5v-1c0-0.3-0.2-0.5-0.5-0.5
                            c-0.3,0-0.5,0.2-0.5,0.5L86.1,165.5z"/>
                        <path id="XMLID_80_" fill="#B6E1E9" d="M84.8,165.5c0,0.3,0.2,0.5,0.5,0.5c0.3,0,0.5-0.2,0.5-0.5v-1c0-0.3-0.2-0.5-0.5-0.5
                            c-0.3,0-0.5,0.2-0.5,0.5V165.5z"/>
                        <g id="XMLID_78_">
                            <path id="XMLID_79_" fill="#0071BC" d="M98,182.4c0,1.2-1,2.2-2.2,2.2H75.9c-1.2,0-2.2-1-2.2-2.2v-12.9c0-1.2,1-2.2,2.2-2.2
                                l19.9,0c1.2,0,2.2,1,2.2,2.2V182.4z"/>
                        </g>
                        <path id="XMLID_77_" fill="#B6E1E9" d="M88.8,164c0.2,0.2,0.5,0.2,0.7,0c0.2-0.2,0.2-0.5,0-0.7l-1.3-1.3
                            c-0.2-0.2-0.5-0.2-0.7,0c-0.2,0.2-0.2,0.5,0,0.7L88.8,164z"/>
                    </g>
                    <path id="XMLID_75_" fill="#601A7A" d="M100.9,120.5c-11.1,7.2-15.9,21.9-16.8,41.3l3.7,0c2.6-14.6,6.6-23.8,15.6-30.8
                        C108.6,127,103.7,118.6,100.9,120.5z"/>
                </g>
<!--animateTransform attributeName="transform"
                                                                                     attributeType="XML"
                                                                                     type="rotate"
                                                                                     from="-2 40 50"
                                                                                     to="1"
                                                                                     begin="1s"
                                                                                     dur="2s"
fill="remove"
                                                                                     repeatCount="1"/-->
                </g>
            </g>


        </g>
    </g>
</g>
<path d="M10,110 A120,120 -59 0,1 13 120 A120,120 -45 0,1 10,110"
fill="none" id="theMotionPath"/>
<g id="Tie-Front" transform="translate(1,0)">
    <animateMotion path="M 0 0 L -2 -7" begin="2s" dur="1s" fill="freeze" />
<!--
    <animateTransform attributeName="transform"
                attributeType="XML"
                type="rotate"
                from="5 0 500"
                to="0 0 0"
                dur="2s"
                begin="1s"
                fill="freeze" />
-->
	<path id="XMLID_18_" fill="#0091D1" d="M324.2,326.1c-2.6,15.3-17.9,30.1-33.9,36.4c-6.5,17.4-10.4,29.5-14.3,38.6
		c7,4.7,14.8,11.7,20,15.4c14.8-8.3,29.9-33.7,29.7-42.5C325.5,359.2,324.2,326.1,324.2,326.1z"/>
</g>

</svg>