<?xml version="1.0" encoding="utf-8"?>
<!-- Generator: Adobe Illustrator 16.0.0, SVG Export Plug-In . SVG Version: 6.00 Build 0)  -->
<!DOCTYPE svg PUBLIC "-//W3C//DTD SVG 1.1//EN" "http://www.w3.org/Graphics/SVG/1.1/DTD/svg11.dtd">
<svg version="1.1" id="Слой_1" xmlns="http://www.w3.org/2000/svg" xmlns:xlink="http://www.w3.org/1999/xlink" x="0px" y="0px"
	 width="300px" height="620px" viewBox="0 0 300 580" enable-background="new 0 0 300 580" xml:space="preserve">
<g>

    <g id="palci">
        <rect x="70.873" y="308.688" fill="#B6E1E9" width="49.156" height="96.523"/>
        <path fill="#C6E7EE" d="M86.835,397.807H70.873v-52.234c8.816,0,15.963,7.146,15.963,15.963V397.807z"/>
        <rect x="81.092" y="288.865" fill="#B8DDE7" width="49.156" height="96.525"/>
        <path fill="#C6E7EE" d="M97.055,377.984H81.092V325.75c8.816,0,15.963,7.146,15.963,15.963V377.984z"/>
    </g>

	<g id="hands">
            <polygon fill="#C6E7EE" points="250.777,335.809 230.582,270.793 120.764,270.793 120.764,349.875 83.447,471.344 85.667,578.535
                221.727,578.535 192.354,471.344 	"/>
	</g>



<g id="cards">
  <g id="tuz" transform = "rotate(1 1250 900)">
	<!--path fill="#80CAD9" d="M120.765,270.791v78.262l97.651-13.725c2.965-0.416,5.031-3.156,4.613-6.123l-1.123-7.998l11.053-1.162
		c2.979-0.314,5.139-2.98,4.824-5.959l-0.762-7.246l4.656-0.326l-11.096-35.723H120.765z"/-->
	<path fill="#FFFFFF" d="M177.355,52.186c2.967-0.416,5.707,1.648,6.123,4.613l38.023,270.539c0.416,2.965-1.65,5.705-4.615,6.123
		L50.131,356.896c-2.965,0.416-5.706-1.648-6.123-4.615L5.986,81.746c-0.416-2.965,1.649-5.707,4.614-6.123L177.355,52.186z"/>
	<path fill="#601A7A" d="M24.535,113.783c-0.089-0.252-0.272-0.438-0.531-0.4l-3.825,0.537c-0.155,0.021-0.237,0.191-0.26,0.406
		l0.023,5.797c-0.001,0.367,0.146,0.664,0.39,0.893l1.305,1.031c0.243,0.227,0.583,0.393,0.604,0.545
		c0.021,0.156-0.061,0.326-0.319,0.363l-5.945,0.834c-0.206,0.029-0.332-0.109-0.354-0.266c-0.021-0.154,0.156-0.391,0.29-0.566
		l1.243-1.652c0.267-0.355,0.246-0.879,0.232-1.352l-0.179-35.404c0.016-0.266,0.09-0.486,0.349-0.523l1.913-0.27
		c0.258-0.037,0.45,0.201,0.545,0.504l9.788,34.002c0.124,0.51,0.358,1.057,0.765,1.316l1.688,1.133
		c0.178,0.135,0.354,0.266,0.377,0.422c0.021,0.156-0.061,0.324-0.319,0.361l-7.444,1.045c-0.259,0.037-0.385-0.104-0.406-0.258
		c-0.021-0.156,0.163-0.34,0.297-0.518l1.199-1.592c0.178-0.234,0.23-0.611,0.114-1.07L24.535,113.783z M23.36,110.68
		c0.155-0.023,0.237-0.193,0.156-0.393l-3.59-12.412l-0.103,0.016l0.08,12.957c-0.021,0.215,0.096,0.303,0.199,0.289L23.36,110.68z"
		/>
	<path fill="#601A7A" d="M25.592,127.221l4,28.455l-2.957,0.416c1.317-2.5,1.246-7.229,0.852-10.025
		c-0.276,2.623-1.706,4.332-3.975,4.652c-2.271,0.318-4.009-1.699-4.387-4.393c-0.379-2.691,1.13-5.416,2.635-8.068
		C23.487,135.215,24.886,130.26,25.592,127.221"/>
	<path fill="#601A7A" d="M25.592,127.221l4,28.455l2.956-0.414c-1.956-2.041-3.188-6.604-3.583-9.404
		c0.99,2.447,2.834,3.695,5.105,3.375c2.27-0.318,3.383-2.736,3.005-5.428c-0.378-2.693-2.579-4.896-4.757-7.031
		C29.821,134.326,27.11,129.947,25.592,127.221"/>
			<animateTransform attributeName="transform"
                                                                              attributeType="XML"
                                                                              type="rotate"
                                                                              from="0"
                                                                              to="0"
                                                                              begin="3s"
                                                                              dur="0.4s"
                                                                              fill="freeze"
                                                                              repeatCount="1"/>

		</g>




		<g id="ten" transform="rotate(-5 100 200)">

	<!--path fill="#601A7A" d="M202.953,295.301c0.088,0.25,0.271,0.436,0.529,0.4l3.826-0.539c0.156-0.021,0.236-0.191,0.258-0.404
		l-0.021-5.797c0-0.369-0.146-0.664-0.391-0.895l-1.305-1.029c-0.242-0.229-0.582-0.393-0.604-0.549
		c-0.021-0.154,0.061-0.324,0.318-0.359l5.945-0.836c0.207-0.029,0.332,0.111,0.354,0.266c0.021,0.156-0.156,0.393-0.289,0.568
		l-1.244,1.652c-0.266,0.352-0.246,0.877-0.23,1.35l0.178,35.404c-0.016,0.266-0.092,0.488-0.35,0.525l-1.912,0.27
		c-0.26,0.035-0.451-0.203-0.547-0.506l-9.785-34c-0.125-0.51-0.359-1.059-0.766-1.316l-1.688-1.133
		c-0.178-0.135-0.355-0.268-0.377-0.424c-0.021-0.154,0.061-0.324,0.318-0.359l7.445-1.047c0.258-0.035,0.383,0.104,0.406,0.26
		c0.021,0.154-0.164,0.34-0.297,0.516l-1.199,1.592c-0.178,0.236-0.23,0.611-0.113,1.07L202.953,295.301z M204.127,298.404
		c-0.156,0.021-0.236,0.191-0.156,0.391l3.59,12.414l0.102-0.018l-0.08-12.957c0.023-0.215-0.096-0.303-0.199-0.289L204.127,298.404
		z"/-->
	<path fill="#601A7A" d="M201.895,281.861l-4-28.457l2.957-0.414c-1.318,2.5-1.246,7.227-0.852,10.025
		c0.277-2.623,1.705-4.332,3.977-4.65c2.27-0.318,4.008,1.697,4.385,4.391c0.379,2.693-1.129,5.418-2.635,8.068
		C204.002,273.867,202.602,278.822,201.895,281.861"/>
	<path fill="#601A7A" d="M201.895,281.861l-4-28.457l-2.957,0.418c1.957,2.039,3.189,6.604,3.584,9.4
		c-0.99-2.443-2.834-3.693-5.105-3.373c-2.27,0.318-3.383,2.736-3.004,5.428c0.377,2.693,2.578,4.896,4.754,7.031
		C197.666,274.758,200.377,279.135,201.895,281.861"/>
	<path fill="#B6E1E9" d="M177.357,52.186L28.385,73.123l27.238,259.15c0.313,2.977,2.98,5.137,5.958,4.824l158.944-16.705
		L183.479,56.801C183.063,53.836,180.32,51.77,177.357,52.186"/>
	<path fill="#FFFFFF" d="M201.74,35.693c2.977-0.313,5.645,1.848,5.957,4.824l28.557,271.699c0.314,2.979-1.848,5.645-4.822,5.959
		L63.958,335.777c-2.978,0.313-5.645-1.846-5.958-4.824L29.442,59.254c-0.313-2.979,1.848-5.646,4.825-5.959L201.74,35.693z"/>
	<path fill="#601A7A" d="M36.961,68.705c-0.026-0.26-0.148-0.51-0.393-0.588l-2.239-1.078c-0.151-0.09-0.256-0.184-0.272-0.338
		c-0.016-0.156,0.154-0.332,0.424-0.465c1.799-0.871,3.463-2.57,4.055-3.682c0.118-0.223,0.195-0.389,0.383-0.408l0.561-0.059
		c0.14-0.016,0.25,0.131,0.261,0.236c0.131,1.246,0.193,3.182,0.455,5.674l3.078,29.283c0.065,0.625,0.208,1.082,0.572,1.412
		l1.561,1.357c0.157,0.141,0.359,0.277,0.377,0.432c0.017,0.156-0.015,0.318-0.248,0.342l-7.011,0.738
		c-0.187,0.018-0.297-0.127-0.313-0.283c-0.017-0.154,0.153-0.33,0.278-0.502l1.243-1.652c0.289-0.398,0.334-0.875,0.268-1.498
		L36.961,68.705z"/>
	<path fill="#601A7A" d="M54.953,78.049c1.32,12.566,1.097,21.67-3.577,22.162c-4.72,0.496-6.832-8.363-8.153-20.93
		c-0.884-8.412-0.659-17.518,4.06-18.014C51.956,60.777,54.069,69.637,54.953,78.049 M51.478,78.256
		c-1.157-11.008-2.193-14.574-3.923-14.391c-1.775,0.186-2.048,3.889-0.891,14.896c1.626,15.475,2.662,19.039,4.438,18.852
		C52.832,97.434,53.104,93.729,51.478,78.256"/>
	<path fill="#601A7A" d="M47.45,105.385l3.003,28.578l-2.969,0.313c1.404-2.451,1.497-7.18,1.201-9.99
		c-0.368,2.611-1.855,4.27-4.136,4.51s-3.946-1.836-4.229-4.541c-0.285-2.705,1.317-5.375,2.914-7.973
		C45.065,113.303,46.637,108.398,47.45,105.385"/>
	<path fill="#601A7A" d="M47.45,105.385l3.003,28.578l2.97-0.313c-1.883-2.105-2.957-6.711-3.252-9.52
		c0.903,2.477,2.704,3.789,4.982,3.549c2.28-0.238,3.479-2.617,3.194-5.32c-0.285-2.703-2.407-4.982-4.51-7.191
		C51.427,112.633,48.871,108.164,47.45,105.385"/>
		<animateTransform attributeName="transform"
                                                                      attributeType="XML"
                                                                      type="rotate"
                                                                      from="-5 100 200"
                                                                      to="-1"
                                                                      begin="3s"
                                                                      dur="0.4s"
                                                                      fill="freeze"
                                                                      repeatCount="1"/>


		</g>


		<g id ="valet" transform="rotate(-5 350 530)">
	<!--path fill="#601A7A" d="M228.734,302.764c0.027,0.262,0.148,0.512,0.393,0.59l2.238,1.078c0.152,0.088,0.256,0.184,0.273,0.338
		c0.016,0.156-0.154,0.332-0.424,0.465c-1.799,0.871-3.463,2.57-4.055,3.682c-0.119,0.221-0.195,0.387-0.383,0.406l-0.561,0.059
		c-0.141,0.016-0.25-0.131-0.262-0.234c-0.131-1.246-0.191-3.182-0.453-5.674l-3.08-29.285c-0.064-0.623-0.207-1.08-0.572-1.41
		l-1.561-1.357c-0.156-0.143-0.359-0.277-0.375-0.434c-0.018-0.156,0.014-0.316,0.246-0.34l7.012-0.738
		c0.186-0.018,0.297,0.127,0.313,0.283c0.016,0.154-0.154,0.33-0.279,0.502l-1.242,1.652c-0.289,0.398-0.334,0.875-0.27,1.498
		L228.734,302.764z"/-->
	<!--path fill="#601A7A" d="M210.742,293.422c-1.32-12.566-1.096-21.67,3.578-22.162c4.719-0.496,6.832,8.363,8.152,20.93
		c0.885,8.412,0.66,17.518-4.059,18.012C213.74,310.693,211.627,301.834,210.742,293.422 M214.217,293.213
		c1.158,11.01,2.193,14.574,3.924,14.393c1.775-0.186,2.047-3.889,0.891-14.896c-1.627-15.475-2.662-19.039-4.438-18.854
		C212.863,274.037,212.592,277.74,214.217,293.213"/-->
	<path fill="#601A7A" d="M218.246,266.086l-3.004-28.578l2.971-0.313c-1.404,2.451-1.498,7.18-1.201,9.988
		c0.367-2.611,1.855-4.27,4.135-4.508c2.281-0.24,3.945,1.836,4.23,4.541c0.285,2.703-1.318,5.373-2.914,7.971
		C220.631,258.17,219.059,263.072,218.246,266.086"/>
	<path fill="#601A7A" d="M218.246,266.086l-3.004-28.578l-2.969,0.313c1.885,2.105,2.957,6.709,3.252,9.52
		c-0.902-2.479-2.703-3.789-4.982-3.549c-2.279,0.238-3.477,2.615-3.193,5.318c0.283,2.705,2.406,4.984,4.508,7.193
		C214.27,258.836,216.826,263.307,218.246,266.086"/>
	<path fill="#B6E1E9" d="M201.74,35.693L55.818,51.031l18.246,260.947c0.209,2.986,2.8,5.238,5.787,5.029l155.762-10.893
		L207.697,40.518C207.385,37.541,204.717,35.381,201.74,35.693"/>
	<path fill="#FFFFFF" d="M230.398,20.596c2.986-0.209,5.576,2.043,5.785,5.029l19.059,272.531c0.209,2.986-2.045,5.576-5.029,5.785
		L82.227,315.688c-2.986,0.209-5.577-2.041-5.786-5.029L57.383,38.129c-0.208-2.986,2.043-5.578,5.03-5.787L230.398,20.596z"/>

		<rect x="93.13" y="52.558" transform="matrix(0.9976 -0.0698 0.0698 0.9976 -11.3502 11.3156)" fill="#B6E1E9" width="126.365" height="231.167"/>
	<path fill="#601A7A" d="M66.583,42.148c-0.168-0.146-0.388-0.289-0.397-0.443c-0.012-0.158,0.029-0.316,0.29-0.336l8.125-0.566
		c0.209-0.016,0.324,0.133,0.334,0.289c0.012,0.156-0.186,0.328-0.331,0.494l-1.458,1.619c-0.339,0.391-0.409,0.867-0.366,1.492
		l1.872,26.77c0.531,7.605-2.268,8.742-5.132,8.943c-4.53,0.316-5.929-5.447-6.278-10.447c-0.028-0.418,0.06-0.633,0.373-0.654
		c0.261-0.018,0.484,0.176,0.558,0.484c1.266,6.139,3.03,8.162,4.489,8.061c1.405-0.1,2.315-1.314,2.133-3.918l-2.025-28.957
		c-0.044-0.625-0.128-1.092-0.519-1.43L66.583,42.148z"/>
	<path fill="#601A7A" d="M73.77,84.861l2.005,28.664l-2.979,0.209c1.488-2.402,1.746-7.123,1.549-9.941
		c-0.459,2.598-2.004,4.201-4.291,4.361s-3.88-1.973-4.068-4.686c-0.19-2.713,1.505-5.324,3.191-7.865
		C71.111,92.689,72.853,87.844,73.77,84.861"/>
	<path fill="#601A7A" d="M73.77,84.861l2.005,28.664l2.978-0.207c-1.809-2.172-2.721-6.811-2.918-9.629
		c0.816,2.508,2.57,3.881,4.856,3.721c2.287-0.16,3.566-2.494,3.377-5.205c-0.189-2.713-2.231-5.063-4.254-7.346
		C77.493,92.242,75.092,87.686,73.77,84.861"/>

<path fill="#601A7A" d="M100.825,70.654l1.003,28.719l-2.984,0.105c1.573-2.35,1.994-7.061,1.896-9.883
		c-0.55,2.58-2.15,4.129-4.441,4.209c-2.29,0.08-3.808-2.107-3.902-4.824s1.689-5.27,3.464-7.75
		C97.894,78.385,99.805,73.604,100.825,70.654"/>
	<path fill="#601A7A" d="M100.825,70.654l1.003,28.719l2.984-0.105c-1.732-2.232-2.481-6.902-2.581-9.725
		c0.729,2.535,2.434,3.969,4.724,3.889c2.292-0.08,3.651-2.367,3.557-5.084s-2.052-5.139-3.995-7.488
		C104.288,78.162,102.049,73.523,100.825,70.654"/>


		<animateTransform attributeName="transform"
                                                              attributeType="XML"
                                                              type="rotate"
                                                              from="-3 350 530"
                                                              to="-2"
                                                              begin="3s"
                                                              dur="0.4s"
                                                              fill="freeze"
                                                              repeatCount="1"/>
</g>


		<g id="dama" transform="rotate(-8 350 580)">


	<path fill="#601A7A" d="M246.041,294.137c0.166,0.145,0.387,0.287,0.396,0.443c0.012,0.156-0.029,0.314-0.291,0.334l-8.123,0.566
		c-0.209,0.016-0.324-0.133-0.334-0.291c-0.012-0.154,0.186-0.326,0.33-0.494l1.457-1.619c0.34-0.391,0.41-0.865,0.367-1.49
		l-1.873-26.771c-0.531-7.604,2.268-8.742,5.133-8.941c4.531-0.316,5.928,5.447,6.277,10.447c0.031,0.416-0.061,0.633-0.373,0.654
		c-0.26,0.02-0.482-0.176-0.557-0.484c-1.268-6.141-3.029-8.162-4.488-8.061c-1.406,0.1-2.316,1.313-2.135,3.918l2.025,28.959
		c0.043,0.623,0.129,1.088,0.52,1.428L246.041,294.137z"/>
	<path fill="#601A7A" d="M238.854,251.424l-2.004-28.666l2.979-0.209c-1.488,2.4-1.746,7.123-1.549,9.941
		c0.459-2.598,2.004-4.201,4.291-4.361s3.879,1.975,4.068,4.686s-1.504,5.324-3.191,7.865
		C241.514,243.596,239.771,248.439,238.854,251.424"/>
	<path fill="#601A7A" d="M238.854,251.424l-2.004-28.666l-2.977,0.207c1.807,2.172,2.719,6.811,2.916,9.631
		c-0.816-2.51-2.568-3.883-4.855-3.723s-3.566,2.494-3.377,5.207c0.189,2.711,2.23,5.063,4.254,7.344
		C235.133,244.041,237.531,248.596,238.854,251.424"/>
	<path fill="#B6E1E9" d="M230.398,20.596L83.918,30.838l9.319,266.891c0.104,2.992,2.615,5.334,5.607,5.229l156.35-5.461
		L236.184,25.625C235.977,22.639,233.385,20.387,230.398,20.596"/>
	<path fill="#FFFFFF" d="M259.6,11.895c2.992-0.104,5.504,2.236,5.607,5.229l9.535,273.029c0.104,2.992-2.236,5.502-5.229,5.607
		l-168.292,5.877c-2.992,0.105-5.502-2.236-5.606-5.229L86.08,23.379c-0.104-2.992,2.236-5.502,5.229-5.605L259.6,11.895z"/>

		<rect x="117.229" y="41.183" transform="matrix(0.9994 -0.0349 0.0349 0.9994 -5.3613 6.3919)" fill="#B6E1E9" width="126.364" height="231.166"/>


	<path fill="#601A7A" d="M105.875,45.104c0.215,6.156,0.182,12.689-1.401,16.715c0.221,0.357,0.753,0.6,1.535,0.572
		c0.835-0.029,1.819-1.734,1.981-3.098c0.04-0.316,0.511-0.332,0.521-0.02c0.111,3.184-1.083,6.412-3.274,6.488
		c-1.096,0.039-1.997-0.35-2.747-0.898c-0.709,0.652-1.688,1.053-2.888,1.094c-6.262,0.219-7.315-10.506-7.659-20.367
		c-0.263-7.514,0.032-18.547,6.293-18.766C104.55,26.604,105.613,37.59,105.875,45.104 M96.224,45.494
		c0.189,5.426,0.537,9.383,0.972,12.867c0.504-0.539,1.115-0.979,1.897-1.006c0.783-0.025,1.629,0.258,2.282,1.018
		c0.325-2.676,0.437-6.963,0.224-13.068c-0.405-11.582-1.706-15.926-3.271-15.871C96.815,29.486,95.82,33.908,96.224,45.494
		 M100.665,61.951c-0.363-1.451-0.922-2.477-1.913-2.441c-0.574,0.021-1.027,0.506-1.002,1.236c0.047,1.357,1.084,2.627,1.763,2.602
		C99.981,63.332,100.334,62.953,100.665,61.951"/>
		<animateTransform attributeName="transform"
                                                      attributeType="XML"
                                                      type="rotate"
                                                      from="-5 350 580"
                                                      to="-2"
                                                      begin="3s"
                                                      dur="0.4s"
                                                      fill="freeze"
                                                      repeatCount="1"/>

</g>








	<g id ="king" transform="rotate(-10 380 610)">


	<path fill="#601A7A" d="M254.945,268.428c-0.215-6.158-0.182-12.689,1.402-16.715c-0.223-0.357-0.754-0.6-1.535-0.574
		c-0.836,0.029-1.822,1.736-1.982,3.1c-0.041,0.314-0.51,0.332-0.521,0.018c-0.111-3.182,1.082-6.41,3.273-6.486
		c1.096-0.039,1.998,0.348,2.748,0.896c0.707-0.652,1.688-1.051,2.887-1.094c6.262-0.219,7.314,10.506,7.66,20.369
		c0.262,7.512-0.031,18.545-6.293,18.766C256.27,286.926,255.207,275.939,254.945,268.428 M264.598,268.039
		c-0.191-5.428-0.539-9.387-0.975-12.871c-0.502,0.539-1.115,0.979-1.896,1.008c-0.783,0.025-1.629-0.258-2.281-1.02
		c-0.324,2.676-0.438,6.965-0.223,13.07c0.402,11.582,1.705,15.926,3.27,15.871C264.006,284.045,265,279.621,264.598,268.039
		 M260.156,251.58c0.363,1.449,0.922,2.477,1.912,2.441c0.574-0.021,1.029-0.508,1.002-1.236c-0.047-1.357-1.084-2.627-1.762-2.604
		C260.838,250.197,260.486,250.576,260.156,251.58"/>
	<path fill="#601A7A" d="M259.996,242.877l-1.002-28.719l2.982-0.104c-1.57,2.35-1.994,7.059-1.895,9.881
		c0.549-2.58,2.15-4.129,4.439-4.209c2.291-0.08,3.809,2.107,3.904,4.824c0.094,2.719-1.691,5.27-3.465,7.75
		C262.928,235.146,261.018,239.928,259.996,242.877"/>
	<path fill="#601A7A" d="M259.996,242.877l-1.002-28.719l-2.984,0.104c1.73,2.234,2.482,6.902,2.58,9.727
		c-0.729-2.533-2.434-3.969-4.725-3.891c-2.291,0.082-3.65,2.371-3.555,5.086c0.094,2.719,2.053,5.139,3.996,7.49
		C256.533,235.369,258.773,240.006,259.996,242.877"/>
	<path fill="#B6E1E9" d="M259.6,11.895L112.83,17.02v266.822c0,2.994,2.427,5.42,5.421,5.42h156.46l-9.504-272.139
		C265.104,14.131,262.592,11.791,259.6,11.895"/>
	<path fill="#FFFFFF" d="M289.021,3.904c2.994,0,5.42,2.426,5.42,5.42v273.197c0,2.994-2.426,5.42-5.42,5.42H120.625
		c-2.993,0-5.42-2.426-5.42-5.42V9.324c0-2.994,2.427-5.42,5.42-5.42H289.021z"/>
	<rect x="141.641" y="30.34" fill="#B6E1E9" width="126.365" height="231.166"/>
	<polygon fill="#FFFFFF" points="227.127,136.5 204.824,145.922 182.521,136.5 182.521,95.166 227.127,95.166 	"/>
	<path fill="#FFFFFF" d="M206.82,42.34c9.854,0,16.178,2.732,19.412,9.969c3.236,7.238,5.529,13.561,5.529,13.561h-5.381
		c0,0,0.385,2.869,0.494,4.08s-0.771,1.703-2.041,2.119c0.992,0.25,1.932,0.9,2.082,2.246c0.188,1.664-1.047,2.516-0.977,3.215
		c0.162,1.615-0.127,12.414-0.127,12.414s-5.816,13.926-20.988,13.926s-20.988-13.926-20.988-13.926s2.799-20.764,4.363-30.572
		C189.691,49.996,195.645,42.34,206.82,42.34"/>
	<path fill="#601A7A" d="M192.621,42.15c0.34-4.826,5.691-8.311,10.406-6.951c4.713,1.359,8.857,0.256,8.527-2.123
		c3.916,3.396,2.555,9.771-1.438,12.148c-3.99,2.377-14.268,2.377-16.137,2.207c0.852,2.549-3.07,12.07-5.783,11.939
		C184.043,54.82,185.4,42.391,192.621,42.15"/>
	<path fill="#0091D1" d="M220.9,59.189c1.344,0,2.438-1.092,2.438-2.436s-1.094-2.434-2.438-2.434c-1.342,0-2.436,1.09-2.436,2.434
		S219.559,59.189,220.9,59.189"/>
	<path fill="#0091D1" d="M212.686,59.189c1.342,0,2.436-1.092,2.436-2.436s-1.094-2.434-2.436-2.434
		c-1.344,0-2.438,1.09-2.438,2.434S211.342,59.189,212.686,59.189"/>
	<path fill="#601A7A" d="M220.67,66.566l-0.459,1.918c-2.713,0-5.424,2.045-7.803,2.045c-2.377,0-3.67-1.459-3.67-2.586
		c0-1.377,1.125-2.295,2.336-2.295c1.209,0,1.793,0.834,1.793,1.627s-0.584,1.25-1.377,1.168c0.543-0.166,0.793-0.709,0.793-1.127
		s-0.625-0.918-1.252-0.918c-0.625,0-1.209,0.625-1.209,1.418c0,0.795,0.793,1.586,2.504,1.586
		C214.035,69.402,217.164,66.566,220.67,66.566"/>
	<path fill="#601A7A" d="M225.926,66.566l0.354,1.918c2.096,0,4.191,2.045,6.029,2.045s2.93-1.555,2.93-2.68
		c0-1.377-0.844-2.201-1.898-2.201c-1.115,0-1.648,0.834-1.648,1.627s0.715,1.25,1.326,1.168c-0.42-0.166-0.877-0.709-0.877-1.127
		s0.523-0.918,1.148-0.918s1.111,0.531,1.111,1.326c0,0.793-0.705,1.678-2.027,1.678S228.633,66.566,225.926,66.566"/>
	<path fill="#601A7A" d="M212.289,103.869l-2.246-9.545c-1.746-0.031-3.488-0.045-5.219-0.045c-1.838,0-3.689,0.016-5.547,0.051
		l-1.918,9.539H212.289z"/>
	<polygon fill="#601A7A" points="201.645,103.869 208.004,103.869 215.744,145.922 193.904,145.922 	"/>
	<polygon fill="#B6E1E9" points="204.824,94.277 183.836,89.943 182.521,95.166 197.535,106.918 	"/>
	<polygon fill="#B6E1E9" points="204.824,94.277 225.813,89.943 227.127,95.166 212.113,106.918 	"/>
	<path fill="#0091D1" d="M141.641,107.994v37.928h63.183c-2.045-10.482-15.764-41.381-22.303-50.756
		C170.973,100.592,154.619,105.746,141.641,107.994"/>
	<g>
		<defs>
			<path id="SVGID_1_" d="M141.641,107.994v37.928h63.183c-2.045-10.482-15.764-41.381-22.303-50.756
				C170.971,100.592,154.619,105.746,141.641,107.994"/>
		</defs>
		<clipPath id="SVGID_2_">
			<use xlink:href="#SVGID_1_"  overflow="visible"/>
		</clipPath>
		<rect x="146.452" y="95.166" clip-path="url(#SVGID_2_)" fill="#FFFFFF" width="0.132" height="50.756"/>
		<rect x="151.738" y="95.166" clip-path="url(#SVGID_2_)" fill="#FFFFFF" width="0.133" height="50.756"/>
		<rect x="157.025" y="95.166" clip-path="url(#SVGID_2_)" fill="#FFFFFF" width="0.133" height="50.756"/>
		<rect x="162.313" y="95.166" clip-path="url(#SVGID_2_)" fill="#FFFFFF" width="0.133" height="50.756"/>
		<rect x="167.602" y="95.166" clip-path="url(#SVGID_2_)" fill="#FFFFFF" width="0.131" height="50.756"/>
		<rect x="172.887" y="95.166" clip-path="url(#SVGID_2_)" fill="#FFFFFF" width="0.133" height="50.756"/>
		<rect x="178.176" y="95.166" clip-path="url(#SVGID_2_)" fill="#FFFFFF" width="0.133" height="50.756"/>
		<rect x="183.463" y="95.166" clip-path="url(#SVGID_2_)" fill="#FFFFFF" width="0.131" height="50.756"/>
		<rect x="188.748" y="95.166" clip-path="url(#SVGID_2_)" fill="#FFFFFF" width="0.133" height="50.756"/>
		<rect x="194.037" y="95.166" clip-path="url(#SVGID_2_)" fill="#FFFFFF" width="0.131" height="50.756"/>
		<rect x="199.324" y="95.166" clip-path="url(#SVGID_2_)" fill="#FFFFFF" width="0.133" height="50.756"/>
	</g>
	<path fill="#0D1272" d="M176.324,94.643l0.504,12.807l8.85,3.041l-5.738,5.814c0,0,22.355,26.609,24.885,29.619
		c-4.113-16.979-13.828-42.424-22.807-54.258C180.227,92.602,176.324,94.643,176.324,94.643"/>
	<path fill="#0091D1" d="M268.006,107.994v37.928h-63.182c2.045-10.482,15.762-41.381,22.303-50.756
		C238.678,100.592,255.029,105.746,268.006,107.994"/>
	<g>
		<defs>
			<path id="SVGID_3_" d="M204.824,145.922h63.182v-37.928c-12.977-2.248-29.33-7.402-40.879-12.828
				C220.586,104.541,206.867,135.439,204.824,145.922"/>
		</defs>
		<clipPath id="SVGID_4_">
			<use xlink:href="#SVGID_3_"  overflow="visible"/>
		</clipPath>
		<rect x="263.064" y="95.166" clip-path="url(#SVGID_4_)" fill="#FFFFFF" width="0.133" height="50.756"/>
		<rect x="257.777" y="95.166" clip-path="url(#SVGID_4_)" fill="#FFFFFF" width="0.133" height="50.756"/>
		<rect x="252.49" y="95.166" clip-path="url(#SVGID_4_)" fill="#FFFFFF" width="0.131" height="50.756"/>
		<rect x="247.203" y="95.166" clip-path="url(#SVGID_4_)" fill="#FFFFFF" width="0.133" height="50.756"/>
		<rect x="241.916" y="95.166" clip-path="url(#SVGID_4_)" fill="#FFFFFF" width="0.131" height="50.756"/>
		<rect x="236.627" y="95.166" clip-path="url(#SVGID_4_)" fill="#FFFFFF" width="0.133" height="50.756"/>
		<rect x="231.342" y="95.166" clip-path="url(#SVGID_4_)" fill="#FFFFFF" width="0.133" height="50.756"/>
		<rect x="226.055" y="95.166" clip-path="url(#SVGID_4_)" fill="#FFFFFF" width="0.131" height="50.756"/>
		<rect x="220.766" y="95.166" clip-path="url(#SVGID_4_)" fill="#FFFFFF" width="0.133" height="50.756"/>
		<rect x="215.479" y="95.166" clip-path="url(#SVGID_4_)" fill="#FFFFFF" width="0.133" height="50.756"/>
		<rect x="210.191" y="95.166" clip-path="url(#SVGID_4_)" fill="#FFFFFF" width="0.133" height="50.756"/>
	</g>
	<path fill="#0D1272" d="M233.324,94.643l-0.504,12.807l-8.85,3.041l5.736,5.814c0,0-22.354,26.609-24.883,29.619
		c4.111-16.979,13.826-42.424,22.805-54.258C229.42,92.602,233.324,94.643,233.324,94.643"/>
	<path fill="#601A7A" d="M121.857,16.951c0-0.625-0.052-1.096-0.47-1.461l-1.566-1.463c-0.209-0.156-0.366-0.363-0.366-0.572
		c0-0.105,0.105-0.262,0.262-0.262h8.302c0.156,0,0.26,0.156,0.26,0.262c0,0.209-0.155,0.416-0.313,0.572l-1.617,1.463
		c-0.366,0.365-0.471,0.836-0.471,1.461v15.193h0.104l5.116-15.348c0.209-0.576,0.104-1.047-0.313-1.41l-1.618-1.359
		c-0.209-0.207-0.366-0.363-0.366-0.572c0-0.158,0.157-0.262,0.366-0.262h7.622c0.209,0,0.366,0.104,0.366,0.262
		c0,0.209-0.209,0.416-0.418,0.625l-1.775,1.775c-0.469,0.471-0.835,1.15-1.148,2.141l-4.021,12.113l4.543,18.377
		c0.157,0.523,0.365,0.992,0.679,1.254l1.774,1.723c0.209,0.209,0.366,0.418,0.366,0.627s-0.053,0.26-0.262,0.26h-7.778
		c-0.209,0-0.314-0.051-0.314-0.26c0-0.158,0.21-0.314,0.419-0.574l1.357-1.828c0.313-0.471,0.313-0.889,0.157-1.41l-2.925-11.955
		h-0.104l-1.827,5.586v6.682c0,0.627,0.104,1.098,0.471,1.463l1.617,1.463c0.157,0.156,0.313,0.365,0.313,0.574
		c0,0.105-0.104,0.26-0.26,0.26h-8.302c-0.156,0-0.262-0.154-0.262-0.26c0-0.209,0.157-0.418,0.313-0.574l1.619-1.463
		c0.365-0.365,0.47-0.836,0.47-1.463V16.951z"/>
	<path fill="#601A7A" d="M128.292,57.086v28.736h-2.985c1.652-2.293,2.238-6.984,2.238-9.809c-0.639,2.559-2.292,4.051-4.583,4.051
		c-2.293,0-3.732-2.24-3.732-4.959c0-2.717,1.872-5.205,3.732-7.623C125.092,64.711,127.169,59.998,128.292,57.086"/>
	<path fill="#601A7A" d="M128.292,57.086v28.736h2.986c-1.652-2.293-2.239-6.984-2.239-9.809c0.64,2.559,2.292,4.051,4.585,4.051
		s3.732-2.24,3.732-4.959c0-2.717-1.874-5.205-3.732-7.623C131.491,64.711,129.416,59.998,128.292,57.086"/>
	<polygon fill="#FFFFFF" points="182.521,155.346 204.824,145.922 227.127,155.346 227.127,196.682 182.521,196.682 	"/>
	<path fill="#FFFFFF" d="M202.826,249.506c-9.852,0-16.176-2.732-19.412-9.969c-3.234-7.238-5.527-13.563-5.527-13.563h5.381
		c0,0-0.385-2.867-0.494-4.078c-0.111-1.211,0.771-1.703,2.039-2.119c-0.992-0.25-1.932-0.9-2.082-2.246
		c-0.186-1.664,1.049-2.516,0.979-3.215c-0.162-1.617,0.129-12.414,0.129-12.414s5.814-13.926,20.986-13.926
		s20.986,13.926,20.986,13.926s-2.797,20.764-4.361,30.572C219.955,241.85,214.004,249.506,202.826,249.506"/>
	<path fill="#601A7A" d="M217.025,249.695c-0.338,4.828-5.691,8.309-10.404,6.951c-4.715-1.359-8.857-0.256-8.527,2.125
		c-3.918-3.4-2.555-9.773,1.436-12.15s14.27-2.377,16.137-2.205c-0.85-2.549,3.072-12.074,5.783-11.941
		C225.605,237.025,224.246,249.455,217.025,249.695"/>
	<path fill="#0091D1" d="M188.748,232.656c-1.344,0-2.438,1.092-2.438,2.436c0,1.342,1.094,2.436,2.438,2.436
		c1.342,0,2.436-1.094,2.436-2.436C191.184,233.748,190.09,232.656,188.748,232.656"/>
	<path fill="#0091D1" d="M196.963,232.656c-1.344,0-2.436,1.092-2.436,2.436c0,1.342,1.092,2.436,2.436,2.436
		s2.436-1.094,2.436-2.436C199.398,233.748,198.307,232.656,196.963,232.656"/>
	<path fill="#601A7A" d="M188.979,225.279l0.459-1.92c2.713,0,5.424-2.043,7.803-2.043c2.377,0,3.67,1.461,3.67,2.586
		c0,1.377-1.127,2.295-2.336,2.295s-1.793-0.834-1.793-1.625c0-0.795,0.584-1.254,1.375-1.17c-0.541,0.168-0.791,0.709-0.791,1.127
		s0.625,0.918,1.252,0.918c0.625,0,1.209-0.627,1.209-1.42s-0.793-1.584-2.504-1.584S192.482,225.279,188.979,225.279"/>
	<path fill="#601A7A" d="M183.723,225.279l-0.355-1.92c-2.094,0-4.191-2.043-6.027-2.043c-1.838,0-2.932,1.555-2.932,2.68
		c0,1.377,0.846,2.201,1.9,2.201c1.115,0,1.648-0.834,1.648-1.625c0-0.795-0.715-1.254-1.326-1.17
		c0.418,0.168,0.875,0.709,0.875,1.127s-0.521,0.918-1.146,0.918c-0.627,0-1.113-0.533-1.113-1.326c0-0.791,0.707-1.678,2.027-1.678
		C178.596,222.443,181.014,225.279,183.723,225.279"/>
	<path fill="#601A7A" d="M197.359,187.977l2.244,9.545c1.748,0.031,3.488,0.045,5.221,0.045c1.838,0,3.689-0.016,5.547-0.051
		l1.918-9.539H197.359z"/>
	<polygon fill="#601A7A" points="208.004,187.977 201.645,187.977 193.904,145.922 215.744,145.922 	"/>
	<polygon fill="#B6E1E9" points="204.824,197.566 225.813,201.902 227.127,196.68 212.113,184.928 	"/>
	<polygon fill="#B6E1E9" points="204.824,197.566 183.836,201.902 182.521,196.68 197.535,184.928 	"/>
	<path fill="#0091D1" d="M268.006,183.852v-37.93h-63.182c2.045,10.484,15.762,41.381,22.303,50.758
		C238.678,191.254,255.029,186.102,268.006,183.852"/>
	<g>
		<defs>
			<path id="SVGID_5_" d="M204.824,145.922c2.043,10.484,15.762,41.381,22.303,50.76c11.549-5.428,27.902-10.58,40.879-12.83v-37.93
				H204.824z"/>
		</defs>
		<clipPath id="SVGID_6_">
			<use xlink:href="#SVGID_5_"  overflow="visible"/>
		</clipPath>
		<rect x="263.064" y="145.924" clip-path="url(#SVGID_6_)" fill="#FFFFFF" width="0.133" height="50.758"/>
		<rect x="257.777" y="145.924" clip-path="url(#SVGID_6_)" fill="#FFFFFF" width="0.133" height="50.758"/>
		<rect x="252.49" y="145.924" clip-path="url(#SVGID_6_)" fill="#FFFFFF" width="0.131" height="50.758"/>
		<rect x="247.203" y="145.924" clip-path="url(#SVGID_6_)" fill="#FFFFFF" width="0.133" height="50.758"/>
		<rect x="241.916" y="145.924" clip-path="url(#SVGID_6_)" fill="#FFFFFF" width="0.131" height="50.758"/>
		<rect x="236.627" y="145.924" clip-path="url(#SVGID_6_)" fill="#FFFFFF" width="0.133" height="50.758"/>
		<rect x="231.342" y="145.924" clip-path="url(#SVGID_6_)" fill="#FFFFFF" width="0.133" height="50.758"/>
		<rect x="226.055" y="145.924" clip-path="url(#SVGID_6_)" fill="#FFFFFF" width="0.131" height="50.758"/>
		<rect x="220.766" y="145.924" clip-path="url(#SVGID_6_)" fill="#FFFFFF" width="0.133" height="50.758"/>
		<rect x="215.479" y="145.924" clip-path="url(#SVGID_6_)" fill="#FFFFFF" width="0.133" height="50.758"/>
		<rect x="210.191" y="145.924" clip-path="url(#SVGID_6_)" fill="#FFFFFF" width="0.133" height="50.758"/>
	</g>
	<path fill="#0D1272" d="M233.324,197.203l-0.504-12.807l-8.85-3.041l5.736-5.814c0,0-22.354-26.609-24.883-29.619
		c4.111,16.98,13.826,42.424,22.805,54.258C229.42,199.244,233.324,197.203,233.324,197.203"/>
	<path fill="#0091D1" d="M141.641,183.852v-37.93h63.183c-2.045,10.484-15.764,41.381-22.303,50.758
		C170.973,191.254,154.619,186.102,141.641,183.852"/>
	<g>
		<defs>
			<path id="SVGID_7_" d="M141.641,145.922v37.93c12.978,2.25,29.33,7.402,40.88,12.83c6.539-9.379,20.258-40.275,22.303-50.76
				H141.641z"/>
		</defs>
		<clipPath id="SVGID_8_">
			<use xlink:href="#SVGID_7_"  overflow="visible"/>
		</clipPath>
		<rect x="146.452" y="145.924" clip-path="url(#SVGID_8_)" fill="#FFFFFF" width="0.132" height="50.758"/>
		<rect x="151.738" y="145.924" clip-path="url(#SVGID_8_)" fill="#FFFFFF" width="0.133" height="50.758"/>
		<rect x="157.025" y="145.924" clip-path="url(#SVGID_8_)" fill="#FFFFFF" width="0.133" height="50.758"/>
		<rect x="162.313" y="145.924" clip-path="url(#SVGID_8_)" fill="#FFFFFF" width="0.133" height="50.758"/>
		<rect x="167.602" y="145.924" clip-path="url(#SVGID_8_)" fill="#FFFFFF" width="0.131" height="50.758"/>
		<rect x="172.887" y="145.924" clip-path="url(#SVGID_8_)" fill="#FFFFFF" width="0.133" height="50.758"/>
		<rect x="178.176" y="145.924" clip-path="url(#SVGID_8_)" fill="#FFFFFF" width="0.133" height="50.758"/>
		<rect x="183.463" y="145.924" clip-path="url(#SVGID_8_)" fill="#FFFFFF" width="0.131" height="50.758"/>
		<rect x="188.748" y="145.924" clip-path="url(#SVGID_8_)" fill="#FFFFFF" width="0.133" height="50.758"/>
		<rect x="194.037" y="145.924" clip-path="url(#SVGID_8_)" fill="#FFFFFF" width="0.131" height="50.758"/>
		<rect x="199.324" y="145.924" clip-path="url(#SVGID_8_)" fill="#FFFFFF" width="0.133" height="50.758"/>
	</g>


	<path fill="#0D1272" d="M176.324,197.203l0.504-12.807l8.85-3.041l-5.738-5.814c0,0,22.355-26.609,24.885-29.619
		c-4.113,16.98-13.828,42.424-22.807,54.258C180.227,199.244,176.324,197.203,176.324,197.203"/>
	<path fill="#601A7A" d="M287.789,274.893c0,0.627,0.053,1.098,0.471,1.463l1.566,1.461c0.209,0.156,0.365,0.365,0.365,0.574
		c0,0.105-0.104,0.262-0.262,0.262h-8.301c-0.156,0-0.26-0.156-0.26-0.262c0-0.209,0.156-0.418,0.313-0.574l1.619-1.461
		c0.363-0.365,0.469-0.836,0.469-1.463v-15.193h-0.105l-5.115,15.35c-0.209,0.576-0.105,1.045,0.313,1.41l1.619,1.357
		c0.209,0.209,0.367,0.365,0.367,0.574c0,0.156-0.158,0.262-0.367,0.262h-7.623c-0.207,0-0.365-0.105-0.365-0.262
		c0-0.209,0.209-0.418,0.418-0.627l1.775-1.773c0.469-0.471,0.836-1.15,1.148-2.141l4.02-12.113l-4.541-18.379
		c-0.158-0.521-0.367-0.992-0.68-1.252l-1.775-1.723c-0.207-0.211-0.365-0.418-0.365-0.627s0.053-0.262,0.262-0.262h7.779
		c0.209,0,0.314,0.053,0.314,0.262c0,0.156-0.211,0.314-0.42,0.574l-1.357,1.828c-0.313,0.469-0.313,0.887-0.156,1.408l2.924,11.957
		h0.104l1.828-5.586v-6.684c0-0.627-0.105-1.096-0.469-1.463l-1.619-1.461c-0.156-0.158-0.313-0.365-0.313-0.574
		c0-0.105,0.104-0.262,0.26-0.262h8.301c0.158,0,0.262,0.156,0.262,0.262c0,0.209-0.156,0.416-0.313,0.574l-1.619,1.461
		c-0.365,0.367-0.471,0.836-0.471,1.463V274.893z"/>
	<path fill="#601A7A" d="M281.355,234.76v-28.736h2.986c-1.652,2.293-2.24,6.984-2.24,9.811c0.641-2.561,2.293-4.053,4.586-4.053
		c2.291,0,3.732,2.24,3.732,4.959s-1.873,5.205-3.732,7.623C284.555,227.135,282.479,231.848,281.355,234.76"/>
	<path fill="#601A7A" d="M281.355,234.76v-28.736h-2.984c1.652,2.293,2.238,6.984,2.238,9.811c-0.639-2.561-2.293-4.053-4.586-4.053
		c-2.291,0-3.73,2.24-3.73,4.959s1.873,5.205,3.73,7.623C278.156,227.135,280.234,231.848,281.355,234.76"/>
	<path fill="#A0D7E3" d="M251.705,127.998v-8.818c0-1.67-1.355-3.025-3.027-3.025c-1.67,0-3.025,1.355-3.025,3.025v8.818
		c0,0.223-0.18,0.4-0.4,0.4c-0.223,0-0.402-0.178-0.402-0.4v-21.506c0-1.67-1.355-3.025-3.025-3.025
		c-1.674,0-3.027,1.355-3.027,3.025v21.506h-0.006l-0.002,9.768c0,0,2.129,5.617,3.033,8.16h19.135l-0.01-0.004
		c2.48-0.076,4.469-2.111,4.469-4.613v-13.311v-8.818c0-1.67-1.354-3.025-3.027-3.025c-1.67,0-3.025,1.355-3.025,3.025v8.818
		c0,0.223-0.18,0.4-0.402,0.4c-0.221,0-0.4-0.178-0.4-0.4v-8.818c0-1.67-1.355-3.025-3.025-3.025c-1.672,0-3.027,1.355-3.027,3.025
		v8.818c0,0.223-0.18,0.4-0.4,0.4C251.885,128.398,251.705,128.221,251.705,127.998"/>
	<path fill="#C5E6EE" d="M252.508,119.182v5.512c0,1.672,1.355,3.027,3.027,3.027c1.67,0,3.025-1.355,3.025-3.027v-5.512
		c0-1.672-1.355-3.027-3.025-3.027C253.863,116.154,252.508,117.51,252.508,119.182"/>
	<path fill="#C5E6EE" d="M259.363,119.182v5.512c0,1.672,1.355,3.027,3.027,3.027c1.67,0,3.025-1.355,3.025-3.027v-5.512
		c0-1.672-1.355-3.027-3.025-3.027C260.719,116.154,259.363,117.51,259.363,119.182"/>
	<path fill="#D6EEF3" d="M255.535,126.117c0.785,0,1.422-0.639,1.422-1.424v-2.143h-2.846v2.143
		C254.111,125.479,254.75,126.117,255.535,126.117"/>
	<path fill="#D6EEF3" d="M262.391,126.117c0.783,0,1.422-0.639,1.422-1.424v-2.143h-2.846v2.143
		C260.967,125.479,261.605,126.117,262.391,126.117"/>
	<path fill="#C5E6EE" d="M245.652,117.795v5.514c0,1.67,1.354,3.025,3.025,3.025s3.027-1.355,3.027-3.025v-5.514
		c0-1.672-1.355-3.027-3.027-3.027S245.652,116.123,245.652,117.795"/>
	<path fill="#D6EEF3" d="M248.678,124.73c0.785,0,1.424-0.639,1.424-1.422v-2.143h-2.846v2.143
		C247.256,124.092,247.893,124.73,248.678,124.73"/>
	<path fill="#D6EEF3" d="M242.207,133.387c9.883,0,10.939,7.684,10.939,12.539h-11.324c-1.166-2.539-3.484-4.563-5.932-5.428
		c-1.498-0.529-2.502-1.945-2.502-3.533v-6.885c0-2.068,1.68-3.746,3.748-3.746h11.301c1.838,0,3.328,1.492,3.328,3.328
		c0,1.838-1.49,3.33-3.328,3.33h-6.23V133.387z"/>
	<rect id="rect-pal" x="240.102" y="145.928" fill="#FFFFFF" width="24.32" height="3.021"/>

	<path fill="#A0D7E3" d="M152.025,159.633h-5.511c-1.672,0-3.027,1.355-3.027,3.029c0,1.67,1.355,3.025,3.027,3.025h5.511
		c0.223,0,0.402,0.18,0.402,0.4c0,0.223-0.18,0.402-0.402,0.402h-5.511c-1.672,0-3.027,1.354-3.027,3.027
		c0,1.672,1.355,3.025,3.027,3.025h5.511v0.006l9.768,0.002c0,0,5.619-2.131,8.162-3.033v-19.137l-0.004,0.012
		c-0.078-2.482-2.113-4.471-4.613-4.471h-13.313h-5.511c-1.673,0-3.027,1.355-3.027,3.027s1.354,3.027,3.027,3.027h5.511
		c0.223,0,0.402,0.18,0.402,0.4s-0.18,0.4-0.402,0.4h-5.512c-1.672,0-3.026,1.357-3.026,3.027c0,1.672,1.354,3.027,3.026,3.027
		h5.512c0.223,0,0.402,0.18,0.402,0.4S152.248,159.633,152.025,159.633"/>
	<path fill="#C5E6EE" d="M146.514,158.832h5.511c1.672,0,3.027-1.355,3.027-3.027s-1.355-3.027-3.027-3.027h-5.511
		c-1.673,0-3.027,1.355-3.027,3.027S144.841,158.832,146.514,158.832"/>
	<path fill="#C5E6EE" d="M146.514,151.977h5.511c1.672,0,3.027-1.355,3.027-3.027c0-1.67-1.355-3.027-3.027-3.027h-5.511
		c-1.673,0-3.027,1.357-3.027,3.027C143.487,150.621,144.841,151.977,146.514,151.977"/>
	<path fill="#D6EEF3" d="M153.449,155.805c0-0.785-0.639-1.422-1.424-1.422h-2.143v2.846h2.143
		C152.811,157.229,153.449,156.592,153.449,155.805"/>
	<path fill="#D6EEF3" d="M153.449,148.949c0-0.783-0.639-1.422-1.424-1.422h-2.143v2.846h2.143
		C152.811,150.373,153.449,149.734,153.449,148.949"/>
	<path fill="#C5E6EE" d="M146.514,165.689h5.511c1.672,0,3.027-1.357,3.027-3.027c0-1.672-1.355-3.029-3.027-3.029h-5.511
		c-1.673,0-3.027,1.357-3.027,3.029C143.487,164.332,144.841,165.689,146.514,165.689"/>
	<path fill="#D6EEF3" d="M153.449,162.662c0-0.785-0.639-1.424-1.424-1.424h-2.143v2.846h2.143
		C152.811,164.084,153.449,163.445,153.449,162.662"/>
	<path fill="#C5E6EE" d="M146.514,172.543h5.511c1.672,0,3.027-1.354,3.027-3.025s-1.355-3.027-3.027-3.027h-5.511
		c-1.673,0-3.027,1.355-3.027,3.027S144.841,172.543,146.514,172.543"/>
	<path fill="#D6EEF3" d="M153.449,169.518c0-0.785-0.639-1.424-1.424-1.424h-2.143v2.846h2.143
		C152.811,170.939,153.449,170.301,153.449,169.518"/>
	<path fill="#0091B0" d="M157.15,172.543v0.008h4.645c0,0,5.617-2.131,8.16-3.033v-11.59c-2.756,0-5.926,1.357-8.271,3.541
		C159.615,163.393,157.15,166.877,157.15,172.543"/>
	<path fill="#C5E6EE" d="M157.416,172.543v10.721c0,1.838,1.49,3.33,3.328,3.33c1.84,0,3.33-1.492,3.33-3.33v-5.314
		c0.002-3.236,2.479-6.867,5.881-8.432v-11.324C165.1,158.193,157.416,162.662,157.416,172.543"/>
	<path fill="#B6E1E9" d="M150.428,165.332c0.084,0,0.084-0.133,0-0.133C150.342,165.199,150.342,165.332,150.428,165.332"/>
	<rect x="169.955" y="145.922" fill="#FFFFFF" width="3.023" height="24.322"/>

<animateTransform attributeName="transform"
                                              attributeType="XML"
                                              type="rotate"
                                              from="-5 430 990"
                                              to="-1.2"
                                              begin="3s"
                                              dur="0.4s"
                                              fill="freeze"
                                              repeatCount="1"/>


	</g>



</g>
    <g id="theMotionPath" transform="rotate(-15 230 400)">

	   <rect x="120.764" y="232.475" fill="#C6E7EE" width="53.06" height="117.4"/>
	    <path fill="#DBF0F4" d="M167.113,259.268c0,10.943-8.875,19.818-19.818,19.818c-10.946,0-19.819-8.875-19.819-19.818v-19.771
		h39.637V259.268z"/>
		<path fill="#FFFFFF" d="M136.231,275.711c3.159,2.131,6.966,3.375,11.062,3.375c4.1,0,7.904-1.244,11.066-3.375
        		c-3.162-2.129-6.967-3.373-11.066-3.373C143.197,272.338,139.39,273.582,136.231,275.711"/>
        	<path fill="#FFFFFF" d="M167.09,298.041c-5.053-0.9-12.268-1.416-19.795-1.416c-7.529,0-14.744,0.516-19.796,1.416l-0.045-0.252
        		c5.066-0.902,12.299-1.418,19.841-1.418c7.543,0,14.773,0.516,19.84,1.418L167.09,298.041z"/>
        	<path fill="#FFFFFF" d="M167.09,306.275c-5.053-0.9-12.268-1.416-19.795-1.416c-7.529,0-14.744,0.516-19.796,1.416l-0.045-0.252
        		c5.066-0.902,12.299-1.42,19.841-1.42c7.543,0,14.773,0.518,19.84,1.42L167.09,306.275z"/>
        	<path fill="#FFFFFF" d="M167.09,302.158c-5.053-0.9-12.268-1.416-19.795-1.416c-7.529,0-14.744,0.516-19.796,1.416l-0.045-0.252
        		c5.066-0.902,12.299-1.418,19.841-1.418c7.543,0,14.773,0.516,19.84,1.418L167.09,302.158z"/>

        		<animateTransform attributeName="transform"
                                          attributeType="XML"
                                          type="rotate"
                                          from="-5 230 400"
                                          to="-1"
                                          begin="3s"
                                          dur="0.4s"
                                          fill="freeze"
                                          repeatCount="1"/>
	</g>

</g>
</svg>