<?xml version="1.0" encoding="utf-8"?>
<!-- Generator: Adobe Illustrator 16.0.0, SVG Export Plug-In . SVG Version: 6.00 Build 0)  -->
<!DOCTYPE svg PUBLIC "-//W3C//DTD SVG 1.1//EN" "http://www.w3.org/Graphics/SVG/1.1/DTD/svg11.dtd">

<svg version="1.1" id="Слой_1" xmlns="http://www.w3.org/2000/svg" xmlns:xlink="http://www.w3.org/1999/xlink" x="0px" y="0px"
	 width="710px" height="630px" viewBox="0 0 710 630" enable-background="new 0 0 710 630" xml:space="preserve">
<g id="Arrow-4">
<animateTransform attributeName="transform" xlink:href="#Arrow-4"
    type="translate"
    from="-630 320"
    to="0 0"
    begin="0s"
    dur="0.9s"
    repeatCount="1"
    />
	<polygon id="XMLID_71_" fill="#0091D1" points="620.89,231.34 630.61,216.38 612.77,215.42 614.58,219.05 -398.37,734.93
		-382.56,737.92 619.07,227.82 	"/>
</g>
<g id="Arrow-3">
 <animateTransform attributeName="transform" xlink:href="#Arrow-3"
    type="translate"
    from="-830 420"
    to="0 0"
    begin="0s"
    dur="1.2s"
    repeatCount="1"
    />
	<polygon id="XMLID_73_" fill="#0091D1" points="678.27,89.12 710,15.4 630.72,2.79 642.68,24.48 -487.48,596.35 -498.27,654.26
		665.23,65.4 	"/>
</g>
<g id="Arrow-2">

 <animateTransform attributeName="transform" xlink:href="#Arrow-2"
    type="translate"
    from="-230 120"
    to="0 0"
    begin="0s"
    dur="0.5s"
    repeatCount="1"
    />
	<polygon id="XMLID_70_" fill="#5F2A79" points="149.46,422.5 152.98,417.16 146.47,416.73 147.11,418.12 -336.71,663.66
		-337.46,668.15 148.82,421.22 	"/>
</g>
<g id="Man">
<animateTransform attributeName="transform"
    type="translate"
    from="-630 320"
    to="0 0"
    begin="0s"
    dur="1.2s"

    repeatCount="1"
     restart="whenNotActive"
    />
	<g id="XMLID_7_">
		<path id="XMLID_68_" fill="#B6E1E9" d="M294.88,275.9c0.32-2.24,0.53-6.52,0.75-7.48c3.42-1.28,4.49-10.68,4.06-17.84
			c0,0-9.3,4.7-14,7.05c-2.14-1.07-5.45-1.18-7.8-0.21c0,0-1.61-3.53-3.1-6.2c0,0-2.35,0.21-4.81,0.85
			c1.07,2.89,2.03,13.36,2.03,13.36s10.47,2.67,12.4,2.99c0.43,3.1-0.22,5.45-0.54,7.37C283.56,278.04,294.67,278.14,294.88,275.9z"
			/>
		<g id="XMLID_64_">
			<path id="XMLID_67_" fill="#FFFFFF" d="M294.88,275.9c0.32-2.24,0.53-6.52,0.75-7.48c3.42-1.28,4.49-10.68,4.06-17.84
				c0,0-0.53,0.32-1.49,0.75c-0.21,2.35-2.24,3.95-4.6,5.77c1.39-0.43,4.06-1.6,4.27,0c0.21,1.6-0.21,6.09-2.03,8.44
				c-1.5,1.93-4.17,2.57-6.73,3.1c1.6,0.11,3.42,0.11,4.49,0c-0.11,1.71-0.21,6.09-0.54,8.55
				C294.14,276.86,294.88,276.43,294.88,275.9z"/>
			<g id="XMLID_65_">
				<path id="XMLID_66_" fill="#FFFFFF" d="M284.3,258.59c2.78,0.75,4.17,2.46,5.45,4.17c-0.54-2.03-2.14-4.28-4.06-5.13
					c-2.14-1.07-5.45-1.18-7.8-0.21c0,0-1.61-3.53-3.1-6.2c0,0-0.43,0-1.17,0.11c0,0,2.99,5.34,3.95,7.48
					C279.17,257.84,281.53,257.84,284.3,258.59z"/>
			</g>
		</g>
		<path id="XMLID_63_" fill="#FFFFFF" d="M296.7,270.88l-13.47,0.64c0.86,17.84-12.82,36.97-7.48,49.26
			c-7.27,2.46-13.57,10.9-15.28,19.13c-4.17,0.64-12.18,8.55-13.14,14.42c-1.71,9.83-4.49,25.86,15.06,15.71
			c8.12-4.17,19.02-22.01,22.23-32.7c1.81-6.2,5.55-10.04,7.48-12.29C290.71,319.71,296.16,275.58,296.7,270.88z"/>
		<g id="XMLID_61_">
			<path id="XMLID_62_" fill="#B6E1E9" d="M262.29,370.04c8.12-4.17,19.02-22.01,22.23-32.7c1.82-6.2,3.95-9.94,5.88-12.18
				c-6.52-11.54,2.57-43.17,3.63-54.17l-10.9,0.53c0.85,17.84-12.82,36.86-7.48,49.26l0,0c0.11,0,0.11,0.11,0.21,0.11
				c10.69,3.63,2.46,17.31-4.06,16.99c-5.77-0.32-7.91-3.1-6.62-8.55c-2.24,3.21-3.95,6.95-4.7,10.69c2.89,2.14,4.91,3.52,5.45,6.95
				c0.43,3.42-2.67,13.78-10.9,14c-7.27,0.11-7.16,7.27-3.96,12.39C253.53,373.56,257.17,372.71,262.29,370.04z"/>
		</g>
		<path id="XMLID_60_" fill="#FFFFFF" d="M247.44,354.22c5.45,1.82,13.36,3.31,14.21,8.12c2.46,12.93-4.49,32.91-13.57,37.83
			c-3.63,10.26-28.1,44.34-28.1,44.34l-25.54-6.2c4.49-9.62,11.75-45.95-5.02-57.27c-3.31-2.24-8.23,1.39-18.27-1.39
			c-0.32-6.63,12.5-18.59,14.64-21.37c2.99-3.63,14.96-4.49,19.02,0.43c3.1-1.93,10.58-2.78,12.61-1.07
			C224.58,355.93,241.24,352.19,247.44,354.22z"/>
		<g id="XMLID_58_">
			<path id="XMLID_59_" fill="#B6E1E9" d="M251.61,397.6c-10.47,2.14-9.72-2.24-10.58-5.88c-3.85,3.42-11.33,5.56-16.45,5.88
				c-5.13,0.32-13.04-7.48-13.04-7.48l-7.37-6.41l-5.98,9.62c4.81,15.49-0.11,37.72-3.42,44.99l3.21,0.75l0,0
				c14.96-28.42,34.09-29.28,45.73-29.7l0,0c2.24-3.74,3.85-6.95,4.7-9.19C249.36,399.53,250.43,398.67,251.61,397.6z"/>
		</g>
		<g id="XMLID_53_">
			<g id="XMLID_56_">
				<path id="XMLID_57_" fill="#B6E1E9" d="M225.96,400.17c8.76-0.64,20.84-3.42,16.99-22.87c0.64,16.13-6.2,19.77-15.07,16.88
					c-7.16-2.35-10.68-11-11.54-16.67c-0.86-5.88-10.68-11.54-11-16.88c-0.43,5.66,2.03,7.05,3.42,10.36
					c-2.14,0.43-4.06,3.63-7.48,3.63c-3.31,0-6.41-1.5-9.19-4.38c2.56-5.45,2.03-9.72,0.43-11.97
					c0.86,10.58-11.11,16.56-16.35,15.71c-0.11-2.99-0.43-6.52-0.32-9.08c-1.39,4.06-2.03,6.73-2.77,8.76
					c-0.54-5.66,0-12.07,0.85-17.95c-1.5,6.63-2.78,17.31-2.78,23.94c0.85,0.42,1.82,0.64,2.89,0.64c8.12,1.5,12.4-1.28,15.39,0.75
					c9.83,6.62,11.43,21.91,10.15,35.26c2.78-9.83,3.63-17.74,6.95-24.36C211.54,399.1,220.09,400.6,225.96,400.17z"/>
			</g>
			<path id="XMLID_55_" fill="#FFFFFF" d="M208.12,387.45c-3.31,5.66,0.85,8.97,5.66,7.37
				C209.72,393.97,207.37,390.02,208.12,387.45z"/>
			<path id="XMLID_54_" fill="#FFFFFF" d="M208.44,393.54c-3.31,5.66,0.86,8.98,5.67,7.37
				C210.04,400.06,207.69,396.11,208.44,393.54z"/>
		</g>
		<polygon id="XMLID_52_" fill="#B6E1E9" points="239.53,370.78 245.09,375.17 237.61,364.05 		"/>
		<g id="XMLID_50_">
			<path id="XMLID_51_" fill="#B6E1E9" d="M239.53,370.78l-19.66-13.68c-0.86,0.21-1.61,0.43-2.35,0.53
				c-0.86-0.75-2.67-0.96-4.81-0.86l23.93,26.71L239.53,370.78z"/>
		</g>
		<path id="XMLID_49_" fill="#5F2A79" d="M239.43,376.98c0.54,5.66-15.39,19.87-44.77,17.52c-5.02,3.96-8.65,7.27-8.65,7.27
			s4.38,3.96,8.23,7.05c28.42-0.96,48.94-21.8,48.3-32.7C242.2,370.89,239.1,373.67,239.43,376.98z"/>
		<polygon id="XMLID_48_" fill="#5F2A79" points="242.85,370.14 235.05,371.64 239,377.41 242.95,376.45 		"/>
		<polygon id="XMLID_47_" fill="#FFFFFF" points="239.53,370.78 245.41,373.45 237.93,362.34 		"/>
		<path id="XMLID_46_" fill="#B6E1E9" d="M237.5,348.77l2.03,22.01c0,0-16.77-9.72-22.01-13.14c3.31-7.48,3.42-9.72,4.17-13.14
			C222.54,341.08,236.43,342.89,237.5,348.77z"/>
		<polygon id="XMLID_45_" fill="#FFFFFF" points="223.93,345.25 225.11,358.07 222.12,343.75 		"/>
		<polygon id="XMLID_44_" fill="#FFFFFF" points="235.69,349.63 237.18,366.51 230.24,348.24 227.24,346.74 233.23,363.84
			225.75,362.66 228.53,364.37 238.47,368.65 236.86,349.52 		"/>
		<g id="XMLID_36_">
			<g id="XMLID_42_">
				<path id="XMLID_43_" fill="#28286B" d="M190.06,496.12l2.89,12.5c0,0-14.75,13.47-17.1,24.15c-2.56-3.2-4.81-8.12,3.63-25.22
					c-0.11-0.96-1.82-2.35-1.82-2.35l8.01-10.58L190.06,496.12z"/>
			</g>
			<path id="XMLID_41_" fill="#28286B" d="M187.71,444.4c-13.46,14.21-28,33.87-32.8,51.61c-5.88,0.86-16.88,8.33-22.12,12.4
				c-2.35,14.63-19.55,32.27-24.15,37.5c5.88,3.52,9.94,7.37,9.94,7.37c15.6-16.13,44.13-43.49,50.54-50
				c8.55-10.79,32.91-37.18,41.35-47.12C218.91,446.22,194.44,437.46,187.71,444.4z"/>
			<g id="XMLID_39_">
				<path id="XMLID_40_" fill="#28286B" d="M211.43,449.11c-14.75,18.38-34.51,44.13-42.1,54.17c8.55-10.79,32.91-37.18,41.35-47.12
					C212.72,453.7,212.72,451.24,211.43,449.11z"/>
			</g>
			<path id="XMLID_38_" fill="#28286B" d="M191.34,434.36l95.1,21.69l-91.14,52.04l-3.31-12.4c0,0,29.07-19.45,27.36-29.6
				c10.68-3.21,30.67-5.02,30.67-5.02c-10.26,1.92-53.32,2.03-73.52-8.44C181.73,446.76,191.34,434.36,191.34,434.36z"/>
			<path id="XMLID_37_" fill="#28286B" d="M107.15,547.41c0,0,9.94,6.41,9.72,6.62c-6.84,8.66-11.54,19.98-13.25,23.3
				c-1.71,3.21-5.13,0.64-5.34-2.78c-0.32-4.28,3.2-13.57,3.2-13.57l-3.2-2.67C98.28,558.31,102.66,550.72,107.15,547.41z"/>
		</g>
		<g id="XMLID_30_">
			<path id="XMLID_35_" fill="#FFFFFF" d="M231.63,324.94l5.45,3.31l-0.54,2.46l7.59,1.92l-2.99,2.46l2.14,2.88l-0.43,1.28
				l1.49,0.96l-0.43,1.28l3.42,5.13c-5.56,3.74-13.57,3.74-17.1,3.85c-2.03,0-5.56-2.67-8.55-4.49c-2.35-1.39-5.34-3.85-6.84-5.98
				C211.54,334.99,222.76,319.49,231.63,324.94z"/>
			<g id="XMLID_33_">
				<path id="XMLID_34_" fill="#B6E1E9" d="M215.07,340.01c1.5,2.14,4.49,4.59,6.84,5.98c2.99,1.82,6.52,4.49,8.55,4.49
					c1.92,0,5.34-0.11,8.87-0.75c4.17-1.39,6.62-3.31,6.62-3.31l-2.56-4.81l0.11-1.07l-2.88,0.11l-0.96,1.07l0.54-2.24l0.32,0.64
					l2.35-2.24l-1.92-2.78l2.14-2.03l-6.73-2.14l-0.32-2.56l-5.24-2.78c0,0-0.32-0.64-0.75-1.61
					C221.15,321.74,211.75,335.42,215.07,340.01z"/>
			</g>
			<path id="XMLID_32_" fill="#28286B" d="M224.25,330.29l1.92,11.43l-0.96,0.32c0,0-4.06-6.62-6.3-4.59
				c-2.57,2.35,1.28,7.58,2.89,8.55c0,2.78-1.28,5.56-2.46,7.16c-0.75-3.42-0.86-6.84-3.63-8.23c-2.88-1.39-5.13-4.7-6.95-8.98
				c0.21-4.7,1.82-10.04,7.59-11.75c4.92-1.49,12.08-4.49,9.73-7.58c4.81,0.42,6.2,4.38,5.66,8.23
				C227.89,326.76,226.18,328.58,224.25,330.29z"/>
			<polygon id="XMLID_31_" fill="#FFFFFF" points="236.33,333.38 232.37,333.92 238.36,338.41 			"/>
		</g>
		<g id="XMLID_28_">
			<path id="XMLID_29_" fill="#FFFFFF" d="M218.91,337.45c-0.86,0.85-0.96,1.92-0.75,3.2c0,0-0.21-1.6,0.43-2.14
				c1.39-1.07,4.59,1.82,6.52,3.53C225.21,342.04,221.26,335.42,218.91,337.45z"/>
		</g>
		<g id="XMLID_26_">
			<path id="XMLID_27_" fill="#2C327D" d="M230.34,325.59L230.34,325.59c0.43-0.21,0.86-0.43,1.28-0.64
				c0.64-3.85-0.75-7.8-5.67-8.23C230.88,318.43,230.56,323.02,230.34,325.59z"/>
		</g>
		<path id="XMLID_25_" fill="#FFFFFF" d="M192.63,359.99c0.54-9.94-5.24-18.38,1.6-41.14l-13.79-4.06
			c-2.57,7.8-11.22,47.87-9.19,64.75C179.48,383.39,192.09,369.93,192.63,359.99z"/>
		<g id="XMLID_17_">
			<g id="XMLID_23_">
				<path id="XMLID_24_" fill="#B6E1E9" d="M171.25,379.55c3.42,1.6,7.59,0.21,11.33-2.67c-10.26-10.9,1.39-46.59,7.05-59.41
					l-9.19-2.67C177.88,322.59,169.12,362.66,171.25,379.55z"/>
			</g>
			<path id="XMLID_22_" fill="#B6E1E9" d="M192.95,318.43c0.86-5.77-2.78-11.33-4.81-11.54c-2.03-0.21-7.37,3.1-7.37,3.1
				c-4.81-4.6-9.72-7.91-9.72-7.91l-2.46,2.57l-2.56-1.71l-3.1,3.53l-1.82-1.71l-3.31,2.24l0.64,1.17l-2.24,1.39l5.88,12.93
				l3.53-0.75l0.64,1.18c0,0,8.34-0.75,13.04-1.5C183.86,320.56,189.21,319.28,192.95,318.43z"/>
			<polygon id="XMLID_21_" fill="#FFFFFF" points="168.58,304.64 177.45,315.54 183.54,314.48 178.09,314.37 169.33,303.79 			"/>
			<g id="XMLID_18_">
				<polygon id="XMLID_20_" fill="#FFFFFF" points="176.49,318.32 171.15,318.21 163.67,305.5 162.92,306.35 170.51,319.39 				"/>
				<polygon id="XMLID_19_" fill="#FFFFFF" points="158.43,308.06 157.47,308.6 164.42,321.84 165.59,321.53 				"/>
			</g>
		</g>
		<g id="XMLID_15_">
			<path id="XMLID_16_" fill="#B6E1E9" d="M254.6,393.76L254.6,393.76c-2.89,2.24-9.3,1.17-12.82-3.53
				c-0.43,0.64-1.71,2.78-1.71,2.78c1.82,3.42,3.63,6.41,8.12,7.27C250.54,398.99,252.68,396.64,254.6,393.76z"/>
		</g>
		<path id="XMLID_14_" fill="#B6E1E9" d="M230.24,418.01c-4.17,4.7-6.52,9.08-15.17,6.09C224.04,429.23,228.21,424.32,230.24,418.01
			z"/>
		<path id="XMLID_13_" fill="#B6E1E9" d="M225.75,424.74c-4.17,4.7-6.52,9.08-15.17,6.09C219.66,435.96,223.83,431.16,225.75,424.74
			z"/>
		<polygon id="XMLID_12_" fill="#FFFFFF" points="218.16,353.9 214.74,356.79 236.22,380.72 239.53,370.78 		"/>
		<g id="XMLID_10_">
			<path id="XMLID_11_" fill="#FFFFFF" d="M188.14,306.89c-2.03-0.32-7.37,3.1-7.37,3.1c-4.81-4.6-9.72-7.91-9.72-7.91l-0.85,0.85
				l0,0l9.94,8.12c0,0,5.45-2.14,7.37-2.14c1.93,0.11,3.63,6.2,2.78,10.04c0.96-0.21,1.81-0.43,2.67-0.53
				C193.8,312.66,190.17,307.21,188.14,306.89z"/>
		</g>
		<g id="XMLID_8_">
			<polygon id="XMLID_9_" fill="#28286B" points="205.77,437.67 280.14,457.44 250.97,476.35 250.97,476.35 286.44,456.05 			"/>
		</g>
	</g>
	<path id="XMLID_6_" fill="#28286B" d="M235.47,329.33c0,0-5.24,1.71-6.3,2.46c-1.07,0.75-0.11,2.99,0.64,3.21
		c0.86,0.21,6.52-1.5,6.52-1.5L235.47,329.33z"/>
</g>
<g id="Arrow-1">
 <animateTransform attributeName="transform" xlink:href="#Arrow-1"
    type="translate"
    from="-430 220"
    to="0 0"
    begin="0s"
    dur="0.5s"
    repeatCount="1"
  />
	<polygon id="XMLID_72_" opacity="0.25" fill="#0390CF" enable-background="new    " points="430.8,464.07 454.3,427.84
		411.14,425.6 415.52,434.25 -333.19,824.69 -365.24,868.5 426.42,455.52 	"/>
</g>
</svg>

