<?xml version="1.0" encoding="utf-8"?>
<!-- Generator: Adobe Illustrator 16.0.0, SVG Export Plug-In . SVG Version: 6.00 Build 0)  -->
<!DOCTYPE svg PUBLIC "-//W3C//DTD SVG 1.1//EN" "http://www.w3.org/Graphics/SVG/1.1/DTD/svg11.dtd">
<svg version="1.1" id="Seyran" xmlns="http://www.w3.org/2000/svg" xmlns:xlink="http://www.w3.org/1999/xlink" x="0px" y="0px"
	 width="440px" height="510px" viewBox="0 0 440 510" enable-background="new 0 0 440 510" xml:space="preserve">
<g>
<g id="man">
	    <animateMotion dur="3s" repeatCount="1">
                        <mpath xlink:href="#man-motion"/>
                         </animateMotion>
                            <path d="M0,400 L 0,0"
                                  stroke-width="2"
                                  begin="30s"
                                  fill="remove" id="man-motion"/>
		<g>
			<g>
				<path fill="#601A7A" d="M249.698,171.485c-9.262,14.947-11.018,34.248,3.156,59.082c0.963-0.041,3.744-0.156,4.908-0.203
					c-9.715-27.871-2.826-45.551,13.707-58.766C283.729,161.8,257.935,158.19,249.698,171.485z"/>
			</g>
			<path fill="#601A7A" d="M252.929,232.353c-0.422,0.816-3.107,1.743-4.295,1.093c-1.189-0.652-3.736,0.55-1.652,1.815
				c2.082,1.267,6.631,0.824,7.527-0.313c0,0.453,0.002,0.977,0.002,0.977h3.576l-0.371-3.57L252.929,232.353z"/>
		</g>
		<g>
			<g>
				<path fill="#601A7A" d="M265.851,171.565c-7.715,12.445-12.422,39.111,6.051,58.994c0.963-0.033,3.744-0.125,4.908-0.163
					c-12.527-20.502,1.25-44.275,7.035-58.714S274.089,158.272,265.851,171.565z"/>
			</g>
			<path fill="#601A7A" d="M271.96,232.345c-0.428,0.813-3.121,1.718-4.303,1.057c-1.186-0.661-2.912,0.739-0.838,2.021
				c2.072,1.284,5.795,0.66,6.699-0.47c-0.004,0.454-0.008,0.978-0.008,0.978l3.578,0.029l-0.344-3.574L271.96,232.345z"/>
		</g>
		<g>
			<g>
				<path fill="#B6E1E9" d="M230.905,91.372c-2.496,0.101-7.334,0.377-8.541,4.14c-1.065,3.317-0.827,5.74,1.258,7.611
					c2.088,1.872,3.969,3.329,3.969,3.329l0.58-1.814c0,0,0.924,0.438,1.32,0.607c0.396,0.167,0.656-0.077,0.934-0.457
					c-0.023,0.362,0.094,0.746,0.529,0.941c0.541,0.244,0.961-0.08,1.189,0.019c0.379,0.163,5.471-0.167,6.52,4.097l13.33-3.747
					C250.345,99.22,238.87,91.049,230.905,91.372z"/>
			</g>
			<g>
				<path fill="#601A7A" d="M225.087,102.344c0.354,0.248,0.84,0.161,1.084-0.194c0.246-0.354,0.158-0.838-0.195-1.083
					s-0.838-0.156-1.084,0.199C224.647,101.615,224.733,102.102,225.087,102.344z"/>
				<circle fill="#601A7A" cx="226.079" cy="99.998" r="0.777"/>
				<path fill="#601A7A" d="M224.632,90.999c-1.662-0.408-3.413,1.018-3.466,2.752c-0.051,1.733-0.871,3.008-1.635,2.64
					c0.72,1.685,3.013,1.917,4.246,0.829c1.232-1.085,2.34-4.545,2.486-5.191c0.766,0.559,4.395,0.27,4.643-0.656
					C229.823,89.479,225.491,88.596,224.632,90.999z"/>
			</g>
		</g>
		<g>
			<path fill="#601A7A" d="M247.856,97.956c-3.813,4.096-6.326,6.795-9.76,10.483c-1.9,2.229,22.861,17.351,6.201,63.035
				c11.781,0,36.602,0.208,45.398,0.208C293.126,125.79,285.104,105.656,247.856,97.956z"/>
		</g>
		<g>
			<path fill="#0D1272" d="M259.083,137.329c3.668-4.412,6.189-12.248,3.689-25.696c-1.51-8.126-10.961-5.896-9.631,1.098
				c1.369,7.204-0.893,13.728-4.242,18.063c0.822,3.766,1.293,8.094,1.168,13.046C253.583,142.427,256.683,140.216,259.083,137.329z
				"/>
		</g>
		<path fill="#FFFFFF" d="M243.358,107.786c-0.256,0.212-0.68,0.564-0.941,0.781c4.82,9.295,2.771,33.303-0.523,46.895
			c1.205,1.488,4.92,4.652,4.92,4.652l4.52-5.682C251.089,141.882,249.802,115.878,243.358,107.786z"/>
		<polygon fill="#FFFFFF" points="241.69,104.579 240.155,106.229 241.507,109.324 244.362,106.953 		"/>
		<g>
    		<g>
    			<path fill="#B6E1E9" d="M213.504,126.433c0.268,0.283,0.714,0.297,0.995,0.029l2.978-2.811c0.283-0.269,0.297-0.714,0.025-0.996
    				l-1.934-2.05c-0.269-0.282-0.713-0.3-0.998-0.03l-2.977,2.81c-0.281,0.268-0.297,0.715-0.03,0.997L213.504,126.433z"/>
    			<path fill="#B6E1E9" d="M213.088,121.984c-0.246-0.259-0.232-0.667,0.026-0.911l0.063-0.06c0.259-0.245,0.666-0.23,0.911,0.024
    				l1.807,1.918c0.245,0.258,0.234,0.664-0.024,0.91l-0.063,0.059c-0.262,0.246-0.668,0.233-0.912-0.026L213.088,121.984z"/>
    			<path fill="#B6E1E9" d="M214.088,121.038c-0.245-0.255-0.235-0.664,0.024-0.908l0.064-0.059c0.258-0.246,0.664-0.233,0.911,0.025
    				l1.807,1.916c0.246,0.256,0.234,0.665-0.024,0.909l-0.063,0.059c-0.258,0.244-0.667,0.233-0.912-0.024L214.088,121.038z"/>
    			<path fill="#B6E1E9" d="M212.086,122.931c-0.244-0.26-0.233-0.668,0.029-0.915l0.063-0.059c0.256-0.241,0.664-0.231,0.91,0.027
    				l1.808,1.914c0.244,0.26,0.233,0.668-0.026,0.913l-0.063,0.06c-0.258,0.244-0.666,0.229-0.913-0.025L212.086,122.931z"/>
    			<path fill="#B6E1E9" d="M211.086,123.874c-0.244-0.26-0.232-0.668,0.027-0.911l0.063-0.06c0.259-0.245,0.666-0.232,0.91,0.027
    				l1.808,1.915c0.247,0.255,0.232,0.667-0.026,0.912l-0.063,0.06c-0.256,0.24-0.665,0.23-0.91-0.029L211.086,123.874z"/>
    			<path fill="#B6E1E9" d="M216.042,121.186c-0.054-0.352,0.19-0.678,0.545-0.729l0.082-0.013c0.355-0.053,0.68,0.194,0.733,0.545
    				l0.303,2.069c0.049,0.354-0.193,0.682-0.544,0.732l-0.087,0.013c-0.351,0.05-0.68-0.193-0.732-0.544L216.042,121.186z"/>
    		</g>
    		<g>
    			<path fill="#601A7A" d="M262.772,111.633c-2.332-12.55-11.203-7.169-9.631,1.098c5.006,26.336-21.715,34.63-35.665,10.921
    				l-2.978,2.811C227.198,154.634,269.753,149.196,262.772,111.633z"/>
    		</g>
    	</g>

             <g>
                <g>
                    <path fill="#B6E1E9" d="M205.407,124.273c0.268,0.283,0.714,0.296,0.995,0.029l2.977-2.811c0.284-0.269,0.297-0.714,0.025-0.996
                        l-1.933-2.05c-0.27-0.283-0.713-0.3-0.998-0.03l-2.977,2.81c-0.281,0.268-0.297,0.715-0.03,0.997L205.407,124.273z"/>
                    <path fill="#B6E1E9" d="M204.99,119.825c-0.245-0.259-0.232-0.667,0.027-0.912l0.062-0.059c0.26-0.245,0.667-0.23,0.911,0.024
                        l1.807,1.917c0.245,0.259,0.234,0.665-0.023,0.91l-0.063,0.06c-0.262,0.246-0.669,0.232-0.913-0.026L204.99,119.825z"/>
                    <path fill="#B6E1E9" d="M205.99,118.879c-0.244-0.255-0.235-0.665,0.025-0.908l0.063-0.06c0.258-0.245,0.664-0.232,0.912,0.025
                        l1.806,1.916c0.246,0.256,0.234,0.666-0.023,0.909l-0.064,0.06c-0.258,0.244-0.667,0.233-0.912-0.025L205.99,118.879z"/>
                    <path fill="#B6E1E9" d="M203.988,120.771c-0.243-0.259-0.232-0.667,0.029-0.914l0.063-0.059c0.257-0.242,0.665-0.231,0.91,0.027
                        l1.808,1.914c0.244,0.259,0.233,0.668-0.026,0.912l-0.062,0.061c-0.259,0.244-0.667,0.229-0.914-0.025L203.988,120.771z"/>
                    <path fill="#B6E1E9" d="M202.989,121.715c-0.244-0.26-0.232-0.668,0.027-0.911l0.063-0.06c0.259-0.245,0.666-0.232,0.909,0.026
                        l1.808,1.916c0.247,0.255,0.233,0.666-0.025,0.912l-0.063,0.059c-0.256,0.24-0.664,0.231-0.909-0.028L202.989,121.715z"/>
                    <path fill="#B6E1E9" d="M207.944,119.026c-0.054-0.352,0.189-0.678,0.545-0.73l0.081-0.012c0.356-0.053,0.681,0.194,0.734,0.545
                        l0.302,2.069c0.05,0.354-0.192,0.682-0.543,0.732l-0.088,0.013c-0.35,0.05-0.679-0.193-0.732-0.544L207.944,119.026z"/>
                </g>
                <g>
                    <path fill="#601A7A" d="M249.271,110.957c-2.332-12.55-11.203-7.168-9.631,1.098c5.006,26.336-16.313,33.146-30.261,9.438
                        l-2.977,2.811C219.1,152.475,256.251,148.521,249.271,110.957z"/>
                </g>
	       </g>
	</g>

<g id ="telescope">

	 <animateMotion id="t" dur="3s" repeatCount="1">
                    <mpath xlink:href="#telescope-motion"/>
                     </animateMotion>
                        <path d="M20,400 L 0,0"
                              stroke-width="2"
                              begin="30s"
                              fill="remove" id="telescope-motion"/>
		<g>
			<g>
				<rect x="141.068" y="132.597" fill="#0071BC" width="8.326" height="60.688"/>
				<polygon fill="#0D1272" points="149.394,193.285 141.068,193.285 141.569,198.573 148.893,198.573 				"/>
			</g>
			<g>
				<rect x="142.444" y="198.573" fill="#0071BC" width="5.574" height="32.276"/>
				<polygon fill="#0D1272" points="140.516,236.138 149.946,236.138 148.893,230.85 141.569,230.85 				"/>
			</g>
		</g>
		<g>
			<g>
				<g>

						<rect x="101.859" y="157.907" transform="matrix(-0.3404 0.9403 -0.9403 -0.3404 329.5987 92.9351)" fill="#0091D1" width="60.689" height="8.326"/>
					<polygon fill="#0D1272" points="125.79,192.02 117.959,189.185 116.631,194.328 123.518,196.821 					"/>
				</g>
				<g>
					<polygon fill="#0091D1" points="104.625,229.512 117.454,194.626 122.695,196.523 109.866,231.409 					"/>
					<polygon fill="#0D1272" points="100.78,236.138 110.209,236.138 110.689,231.706 103.803,229.214 					"/>
				</g>
			</g>
			<g>
				<g>

						<rect x="127.941" y="157.907" transform="matrix(0.3404 0.9403 -0.9403 0.3404 256.794 -41.9328)" fill="#0091D1" width="60.689" height="8.327"/>
					<polygon fill="#0D1272" points="164.701,192.02 172.53,189.185 173.859,194.328 166.972,196.821 					"/>
				</g>
				<g>
					<polygon fill="#0091D1" points="185.864,229.512 173.036,194.626 167.794,196.523 180.623,231.409 					"/>
					<polygon fill="#0D1272" points="189.709,236.138 180.279,236.138 179.799,231.706 186.687,229.214 					"/>
				</g>
			</g>
		</g>
		<g>
			<g>

					<rect x="141.529" y="120.522" transform="matrix(0.9258 0.378 -0.378 0.9258 57.6117 -47.2136)" fill="#0091D1" width="15.109" height="5.276"/>
				<g>
					<g>
						<g>
							<g>
								<g>

										<rect x="175.5" y="103.741" transform="matrix(0.9258 0.378 -0.378 0.9258 56.096 -63.6367)" fill="#0091D1" width="29.347" height="14.711"/>
								</g>
							</g>
						</g>
					</g>
					<g>
						<g>
							<g>
								<g>
									<polygon fill="#0D1272" points="213.057,123.514 202.684,119.278 204.835,114.007 211.628,116.78 									"/>
								</g>
							</g>
						</g>
					</g>
					<g>
						<g>
							<g>
								<g>
									<polygon fill="#0D1272" points="213.057,123.514 225.771,108.644 220.499,106.491 211.628,116.78 									"/>
								</g>
							</g>
						</g>
					</g>

						<rect x="109.816" y="76.196" transform="matrix(0.9258 0.378 -0.378 0.9258 45.6615 -47.7556)" fill="#0091D1" width="69.345" height="32.498"/>

            <g id = "up-tel" >
            <animateMotion dur="2.2s" begin="1.4s" repeatCount="1">
                                <mpath xlink:href="#teley"/>
                                 </animateMotion>
                                    <path d="M50,15 0,0"
                                          fill="remove" id="teley"/>

						<rect x="49.729" y="41.417" transform="matrix(0.9258 0.378 -0.378 0.9258 31.442 -26.1206)" fill="#0091D1" width="65.073" height="51.247"/>

						<rect x="42.606" y="23.724" transform="matrix(-0.9258 -0.378 0.378 -0.9258 71.605 119.7963)" fill="#0D1272" width="9.904" height="58.295"/>
					<polygon fill="#0D1272" points="122.074,55.617 102.704,103.062 110.829,103.049 127.868,61.313 					"/>
           </g>


					<polygon fill="#0D1272" points="166.018,118.786 140.049,108.184 143.055,117.941 157.075,123.573 					"/>
					<polygon fill="#0D1272" points="182.731,90.507 170.404,120.698 175.86,120.807 186.704,94.247 					"/>
				</g>
				<g>

						<rect x="139.105" y="125.323" transform="matrix(0.9258 0.378 -0.378 0.9258 59.6811 -45.8586)" fill="#0D1272" width="15.108" height="7.554"/>
					<circle fill="#0D1272" cx="145.231" cy="132.597" r="7.554"/>
					<circle fill="#0091D1" cx="145.231" cy="132.596" r="3.729"/>
				</g>
			</g>
			<g>
				<g>
					<g>
						<g>
							<g>
								<g>

										<rect x="180.897" y="60.273" transform="matrix(0.9258 0.3779 -0.3779 0.9258 37.4969 -65.6978)" fill="#0091D1" width="10.47" height="4.824"/>
								</g>
							</g>
						</g>
					</g>
					<g>
						<g>
							<g>
								<g>

										<rect x="190.899" y="61.74" transform="matrix(0.9258 0.3779 -0.3779 0.9258 38.8288 -67.7247)" fill="#0D1272" width="2.132" height="6.652"/>
								</g>
							</g>
						</g>
					</g>

						<rect x="158.477" y="52.175" transform="matrix(0.9258 0.378 -0.378 0.9258 33.8889 -60.2059)" fill="#0091D1" width="23.687" height="8.11"/>

						<rect x="138.655" y="41.297" transform="matrix(0.9258 0.378 -0.378 0.9258 29.112 -52.9362)" fill="#0091D1" width="21.497" height="12.789"/>

						<rect x="137.026" y="36.07" transform="matrix(-0.9258 -0.3781 0.3781 -0.9258 249.9951 135.3805)" fill="#0D1272" width="2.521" height="14.162"/>

						<rect x="169.188" y="51.242" transform="matrix(0.9258 0.378 -0.378 0.9258 38.4283 -59.8724)" fill="#0D1272" width="5.105" height="33.438"/>
					<polygon fill="#0D1272" points="170.744,85.612 154.276,78.89 160.161,74.497 173.122,79.788 					"/>
					<polygon fill="#0D1272" points="161.772,45.833 156.938,57.674 160.166,58.16 164.418,47.744 					"/>
					<polygon fill="#0D1272" points="182.818,56.952 179.741,64.487 181.989,64.876 184.694,58.247 					"/>
				</g>
			</g>
		</g>
	</g>
    
    
<g id = "rainbow" opacity="0">   
	  <animate
          attributeName="opacity"
          from="0" to="1" dur="0.01s"
          fill="freeze"
          begin="2s"/>
        
        
    
    <g transform="rotate(180,254,75)" >     
        <circle fill="none" id="circle" stroke-dasharray="0 490 290 0" stroke-dashoffset="290" class="stat-outline-circle" stroke="#B6E1E9" stroke-width="1" stroke-miterlimit="10" cx="154" cy="75" r="72"/>
        <circle fill="none" id="circle2" stroke-dasharray="0 490 290 0" stroke-dashoffset="290" class="stat-outline-circle" stroke="#B6E1E9" stroke-width="1" stroke-miterlimit="10" cx="154" cy="77" r="65"/>
        <circle fill="none" id="circle3" stroke-dasharray="0 490 290 0" stroke-dashoffset="290" class="stat-outline-circle" stroke="#B6E1E9" stroke-width="1" stroke-miterlimit="10" cx="154" cy="79" r="58"/>
        <circle fill="none" id="circle4" stroke-dasharray="0 490 290 0" stroke-dashoffset="290" class="stat-outline-circle" stroke="#B6E1E9" stroke-width="1" stroke-miterlimit="10" cx="154" cy="81" r="51"/>
        <circle fill="none" id="circle5" stroke-dasharray="0 490 290 0" stroke-dashoffset="290" class="stat-outline-circle" stroke="#B6E1E9" stroke-width="1" stroke-miterlimit="10" cx="154" cy="83" r="44"/>
        <circle fill="none" id="circle6" stroke-dasharray="0 490 290 0" stroke-dashoffset="290" class="stat-outline-circle" stroke="#B6E1E9" stroke-width="1" stroke-miterlimit="10" cx="154" cy="81" r="39"/>  
      
  <animate attributeType="XML"
                xlink:href="#circle"
                id="circleanimate"
                attributeName="stroke-dashoffset" 
                from="0" to="-220" 
                begin="2s"
                dur="1.5s"
                fill="freeze"/>
      
  <animate attributeType="XML"
                xlink:href="#circle2"
                id="circleanimate"
                attributeName="stroke-dashoffset" 
                from="0" to="-220" 
                begin="2s"
                dur="1.7s"
                fill="freeze"/>  
      
  <animate attributeType="XML"
                xlink:href="#circle3"
                id="circleanimate"
                attributeName="stroke-dashoffset" 
                from="0" to="-220" 
                begin="2s"
                dur="1.9s"
                fill="freeze"/>   
      
  <animate attributeType="XML"
                xlink:href="#circle4"
                id="circleanimate"
                attributeName="stroke-dashoffset" 
                from="0" to="-220" 
                begin="2s"
                dur="2.1s"
                fill="freeze"/>
      
  <animate attributeType="XML"
                xlink:href="#circle5"
                id="circleanimate"
                attributeName="stroke-dashoffset" 
                from="0" to="-180"
                begin="2s"
                dur="1.9s"
                fill="freeze"/>
      
  <animate attributeType="XML"
                xlink:href="#circle6"
                id="circleanimate"
                attributeName="stroke-dashoffset" 
                from="0" to="-130" 
                begin="2s"
                dur="1.5s"
                fill="freeze"/>
  </g>  
    
 <!--
		<g>
			<path id="rainbow-1" fill="#B6E1E9" stroke-dasharray="0 610 610 0" stroke-dashoffset="610" d="M422.819,72.143c-0.441,0-0.799-0.358-0.799-0.8c0-37.905-30.838-68.744-68.744-68.744
				c-37.904,0-68.744,30.839-68.744,68.744c0,0.441-0.357,0.8-0.799,0.8s-0.799-0.358-0.799-0.8c0-18.789,7.316-36.454,20.602-49.74
				C316.823,8.316,334.487,1,353.276,1s36.455,7.316,49.74,20.603s20.604,30.951,20.604,49.74
				C423.62,71.784,423.261,72.143,422.819,72.143L422.819,72.143z"/>
                      
		</g>
		<g>
			<path fill="#B6E1E9" d="M417.47,72.143c-0.441,0-0.799-0.358-0.799-0.8c0-34.956-28.439-63.395-63.395-63.395
				s-63.395,28.438-63.395,63.395c0,0.441-0.357,0.8-0.799,0.8s-0.799-0.358-0.799-0.8c0-17.36,6.76-33.682,19.035-45.957
				S335.917,6.35,353.276,6.35c17.361,0,33.682,6.761,45.957,19.036s19.037,28.597,19.037,45.957
				C418.271,71.784,417.911,72.143,417.47,72.143L417.47,72.143z"/>
		</g>
		<g>
			<path fill="#B6E1E9" d="M412.12,72.143c-0.441,0-0.799-0.358-0.799-0.8c0-32.006-26.039-58.045-58.045-58.045
				s-58.045,26.039-58.045,58.045c0,0.441-0.357,0.8-0.799,0.8s-0.799-0.358-0.799-0.8c0-15.932,6.203-30.909,17.469-42.175
				c11.266-11.265,26.242-17.47,42.174-17.47s30.91,6.205,42.176,17.47c11.264,11.266,17.469,26.243,17.469,42.175
				C412.921,71.784,412.562,72.143,412.12,72.143L412.12,72.143z"/>
		</g>
		<g>
			<path fill="#B6E1E9" d="M406.771,72.143c-0.441,0-0.799-0.358-0.799-0.8c0-29.057-23.639-52.695-52.695-52.695
				s-52.695,23.639-52.695,52.695c0,0.441-0.357,0.8-0.799,0.8s-0.799-0.358-0.799-0.8c0-14.503,5.646-28.137,15.902-38.393
				c10.254-10.254,23.889-15.902,38.391-15.902c14.504,0,28.137,5.648,38.393,15.902c10.254,10.256,15.902,23.89,15.902,38.393
				C407.571,71.784,407.214,72.143,406.771,72.143L406.771,72.143z"/>
		</g>
		<g>
			<path fill="#B6E1E9" d="M401.423,72.143c-0.441,0-0.801-0.358-0.801-0.8c0-26.106-21.238-47.346-47.346-47.346
				c-26.105,0-47.346,21.239-47.346,47.346c0,0.441-0.357,0.8-0.799,0.8s-0.801-0.358-0.801-0.8
				c0-13.074,5.092-25.365,14.336-34.609s21.535-14.336,34.609-14.336s25.365,5.092,34.609,14.336s14.336,21.535,14.336,34.609
				C402.222,71.784,401.864,72.143,401.423,72.143L401.423,72.143z"/>
		</g>
		<g>
			<path fill="#B6E1E9" d="M396.073,72.143c-0.441,0-0.801-0.358-0.801-0.8c0-23.157-18.838-41.996-41.996-41.996
				c-23.156,0-41.996,18.839-41.996,41.996c0,0.441-0.357,0.8-0.799,0.8s-0.801-0.358-0.801-0.8
				c0-24.039,19.557-43.596,43.596-43.596s43.596,19.557,43.596,43.596C396.872,71.784,396.515,72.143,396.073,72.143
				L396.073,72.143z"/>
		</g>
-->
	</g>
  
	 <g id="sky-three" opacity="0">
                <path fill="#0091D1" d="M321.769,61.024c-0.924-8.291-9.457-13.476-17.238-10.515c-2.822-5.249-8.365-8.817-14.742-8.817
                    c-8.596,0-15.678,6.486-16.617,14.832c-7.691,0.662-13.729,7.111-13.729,14.974c0,8.304,6.732,15.034,15.035,15.034h44.801
                    c7.111,0,12.877-5.765,12.877-12.876C332.155,67.397,327.688,62.185,321.769,61.024z"/>

                 <animate id="animation1"
                  attributeName="opacity"
                  from="0" to="1" dur="0.2s"
                  fill="freeze"
                  begin="1s"/>
		</g>


	  <g id="sky-two" opacity="0">
                <path fill="#0091D1" d="M76.65,226.021c-1.037-9.301-10.607-15.09-19.313-11.777c-3.161-5.879-9.369-9.877-16.512-9.877
                    c-9.63,0-17.562,7.266-18.615,16.613c-8.614,0.742-15.377,7.967-15.377,16.774c0,9.301,7.54,16.841,16.841,16.841H73.86
                    c7.966,0,14.423-6.458,14.423-14.424C88.283,233.161,83.279,227.32,76.65,226.021z"/>
                           <animate id="animation1"
                                         attributeName="opacity"
                                         from="0" to="1" dur="2s"
                                         fill="freeze"
                                         begin="2s"/>
            </g>

            <g id="sky-one" opacity="0">
                <path fill="#0091D1" d="M417.681,452.726c-1.678-15.049-17.166-24.424-31.254-19.061c-5.117-9.516-15.164-15.984-26.725-15.984
                    c-15.584,0-28.42,11.758-30.125,26.887c-13.943,1.201-24.887,12.893-24.887,27.146c0,15.053,12.203,27.255,27.254,27.255h81.221
                    c12.893,0,23.342-10.45,23.342-23.342C436.507,464.28,428.409,454.829,417.681,452.726z"/>
                            <animate id="animation1"
                             attributeName="opacity"
                             from="0" to="1" dur="2s"
                              fill="freeze"
                             begin="1.4s"/>
            </g>
	<g>

	<g id="cal">
		<path fill="#B6E1E9" d="M 190.55178,176.00927 C 131.91445,175.85672 89.475588,199.28255 61.678199,235.64412 l 249.348321,0.64741 C 288.48429,199.49206 247.26334,176.1553 190.55178,176.00927 Z">
            
                                    <animate
                                dur="1s"
                                begin="1s"
                                fill="freeze"
                                attributeName="d"
                                values="  
                                        M 190.55178,176.00927 C 131.91445,175.85672 89.475588,199.28255 61.678199,235.64412 l 249.348321,0.64741 C 288.48429,199.49206 247.26334,176.1553 190.55178,176.00927 Z;
                                        M 198.43043,163.84177 C 140.13027,157.5608 95.475231,176.42223 64.0293,209.67899 l 247.91469,26.70786 C 293.37184,197.43267 254.81606,169.91499 198.43043,163.84177 Z;
                                        M 213.63147,146.14951 C 157.3077,129.84025 110.05582,140.66086 73.312649,167.95185 l 239.510541,69.35204 c -11.52568,-41.5874 -44.71731,-75.38216 -99.19172,-91.15438 z;
                                        M 230.43984,130.07043 C 177.80383,104.22843 129.39083,106.67944 88.466838,127.17544 L 312.29582,237.06443 c -4.129,-42.95701 -30.94798,-82.00201 -81.85598,-106.994 z;
                                        M 249.16079,116.99596 C 201.81186,82.406409 153.70875,76.41335 109.84739,89.491593 l 201.3465,147.087027 c 3.39313,-43.02139 -16.23832,-86.13027 -62.0331,-119.58266 z;
                                        M 270.96544,110.03788 C 230.34226,67.751766 184.01062,53.496736 138.5446,58.759846 L 311.2908,238.57574 c 10.81217,-41.77858 -1.03526,-87.64151 -40.32536,-128.53786 z;
                                        M 293.70126,105.7581 C 261.03815,57.060263 217.88575,34.976394 172.19653,32.264453 L 311.09363,239.34561 C 328.99631,200.07925 325.29288,152.8558 293.70126,105.7581 Z;
                                        M 317.83321,103.49612 C 294.12261,49.866223 255.46062,20.624523 210.93644,10.019932 L 311.76412,238.07429 c 24.44923,-35.56104 29.00233,-82.71016 6.06909,-134.57817 z;
                                        M 340.14451,106.77707 C 326.10686,49.844634 293.11,14.333597 251.10371,-3.8414302 L 310.79837,238.25682 c 30.2529,-30.77523 42.92419,-76.41741 29.34614,-131.47975 z;
                                        M 362.05306,112.68338 C 358.11488,54.178259 331.78575,13.476871 293.57369,-11.716352 l 16.74784,248.786102 c 35.13735,-25.05432 55.54182,-67.80275 51.73153,-124.38637 z;
                                        M 384.46655,124.09277 C 390.74751,65.792619 371.8861,21.137571 338.62933,-10.308364 L 311.92147,237.60635 c 38.95418,-18.57215 66.47184,-57.12794 72.54508,-113.51358 z;
                                        M 400.92285,139.29381 C 417.2321,82.970049 406.41151,35.718163 379.12051,-1.0250161 L 309.76847,238.48555 c 41.5874,-11.52568 75.38214,-44.71733 91.15438,-99.19174 z;
                                        M418.53,154.282c25.842-52.636,23.391-101.049,2.895-141.973L311.536,236.138
			C354.493,232.009,393.538,205.19,418.53,154.282z" />
        
        </path>
       


</g>


		<path fill="#B6E1E9" d="M311.536,236.138H62.187c-8.099,10.65-14.946,22.4-20.575,34.991
			C16.73,326.788-0.905,375.422-0.905,375.422h41.386c0,0-2.953,22.064-3.802,31.372c-0.848,9.309,5.938,13.104,15.692,16.295
			c-7.635,1.92-14.861,6.923-16.016,17.266c-1.429,12.812,8.059,19.36,7.519,24.736c-1.249,12.423-7.569,46.167-7.569,46.167
			h318.719C355.024,511.258,342.485,320.922,311.536,236.138z"/>
	</g>
	<g>
		<circle fill="#0091D1" cx="81.587" cy="288.13" r="12.159"/>
		<g>
			<g>
				<g>
					<path fill="#0091D1" d="M161.169,310.073l-7.315-7.314c-2.63,4.705-6.532,8.606-11.237,11.237l7.315,7.314
						c3.103,3.104,8.134,3.104,11.237,0C164.272,318.208,164.272,313.177,161.169,310.073z"/>
				</g>
				<path fill="#0091D1" d="M128.5,264.229c-13.462,0-24.414,10.952-24.414,24.414s10.952,24.414,24.414,24.414
					s24.414-10.952,24.414-24.414S141.962,264.229,128.5,264.229z M128.5,307.568c-10.436,0-18.926-8.49-18.926-18.926
					s8.49-18.926,18.926-18.926s18.926,8.49,18.926,18.926S138.936,307.568,128.5,307.568z"/>
			</g>
		</g>
		<g>
			<path fill="#0091D1" d="M128.5,274.328c-7.893,0-14.314,6.422-14.314,14.314c0,7.894,6.422,14.314,14.314,14.314
				s14.314-6.421,14.314-14.314C142.815,280.75,136.393,274.328,128.5,274.328z M128.5,282.014c-3.655,0-6.629,2.974-6.629,6.629
				c0,1.273-1.032,2.306-2.306,2.306s-2.306-1.032-2.306-2.306c0-6.198,5.043-11.24,11.24-11.24c1.273,0,2.306,1.032,2.306,2.306
				S129.774,282.014,128.5,282.014z"/>
		</g>
	</g>


	<g>
		<g>
			<path fill="#0091D1" d="M311.665,294.3v117.871c32.547,0,58.934-26.387,58.934-58.936S344.212,294.3,311.665,294.3z"/>
		</g>
		<path fill="#FFFFFF" d="M311.665,397.418v-5.983c21.063,0,38.199-17.136,38.199-38.199s-17.137-38.199-38.199-38.199v-5.983
			c24.361,0,44.182,19.82,44.182,44.183S336.026,397.418,311.665,397.418L311.665,397.418z"/>
		<path fill="#FFFFFF" d="M311.665,380.41v-5.982c11.684,0,21.191-9.507,21.191-21.192s-9.508-21.192-21.191-21.192v-5.982
			c14.982,0,27.174,12.19,27.174,27.175S326.647,380.41,311.665,380.41L311.665,380.41z"/>
	</g>




</g>
</svg>