<?xml version="1.0" encoding="utf-8"?>
<!-- Generator: Adobe Illustrator 16.0.0, SVG Export Plug-In . SVG Version: 6.00 Build 0)  -->
<!DOCTYPE svg PUBLIC "-//W3C//DTD SVG 1.1//EN" "http://www.w3.org/Graphics/SVG/1.1/DTD/svg11.dtd">
<svg version="1.1" id="Слой_1" xmlns="http://www.w3.org/2000/svg" xmlns:xlink="http://www.w3.org/1999/xlink" x="0px" y="0px"
    width="518.711px" height="279.5px" viewBox="139.681 0 518.711 279.5" enable-background="new 139.681 0 518.711 279.5"
    xml:space="preserve" onload="init(evt)">
    <script type="text/ecmascript"><![CDATA[
        var svgNS = "http://www.w3.org/2000/svg";







        function init(evt)
        {
                if ( window.svgDocument == null )
                {
                        svgDocument = evt.target.ownerDocument;
                }

                          addRotateTransform('gear1', 9, 1, "freeze");
                          addRotateTransform('gear1', 8, 1.5);
                          addRotateTransform('gear1', 7, 2);


                         addRotateTransform('gear2', 9, -0.2,"freeze");
                         addRotateTransform('gear2', 8, -0.6);
                         addRotateTransform('gear2', 6.5, -1);

                         addRotateTransform('gear3', 9, -0.2,"freeze");
                         addRotateTransform('gear3', 8, -0.8);
                         addRotateTransform('gear3', 6, -1);

                         addRotateTransform('gear4', 9, 1.5,"freeze");
                         addRotateTransform('gear4', 7, 2);
                         addRotateTransform('gear4', 6, 3);

                         addRotateTransform('gear5', 9, -0.2,"freeze");
                         addRotateTransform('gear5', 7, -0.8);
                         addRotateTransform('gear5', 6, -1);

                          addRotateTransform('gear7', 9, 0.2,"freeze");
                          addRotateTransform('gear7', 7, 0.7);
                          addRotateTransform('gear7', 6, 1);

                          addRotateTransform('gear8', 9, 0.3,"freeze");
                          addRotateTransform('gear8', 8, 0.7);
                          addRotateTransform('gear8', 7, 1);


                         addRotateTransform('gear9', 6, 0.2,"freeze");
                         addRotateTransform('gear9', 5, 0.8);
                         addRotateTransform('gear9', 3, 1);

                         addRotateTransform('gear10', 9, 0.7,"freeze");
                         addRotateTransform('gear10', 7, 1.2);
                         addRotateTransform('gear10', 6, 1.7);


                         addRotateTransform('gear11', 9, 0.5,"freeze");
                         addRotateTransform('gear11', 8, 0.7);
                         addRotateTransform('gear11', 6.5, 1);

                         addRotateTransform('gear12', 9, 0.2,"freeze");
                         addRotateTransform('gear12', 7, 0.7);
                         addRotateTransform('gear12', 5, 1);


                         addRotateTransform('gear13', 8, 0.5,"freeze");
                         addRotateTransform('gear13', 6, 1.2);
                         addRotateTransform('gear13', 4, 1.6);







        }

        function addRotateTransform(target_id, speed, direction,item)
        {
        var element_to_rotate = svgDocument.getElementById(target_id);
        var my_transform = svgDocument.createElementNS(svgNS, "animateTransform");

        var bb = element_to_rotate.getBBox();
        var cx = bb.x + bb.width/2;
        var cy = bb.y + bb.height/2;



        my_transform.setAttributeNS(null, "attributeName", "transform");
        my_transform.setAttributeNS(null, "attributeType", "XML");
        my_transform.setAttributeNS(null, "type", "rotate");
        my_transform.setAttributeNS(null, "dur", speed + "s");
        my_transform.setAttributeNS(null, "repeatCount", "0.6");
        my_transform.setAttributeNS(null, "from", "0 "+cx+" "+cy);
        my_transform.setAttributeNS(null, "to", 360*direction+" "+cx+" "+cy);
                my_transform.setAttributeNS(null, "fill", item);



        element_to_rotate.appendChild(my_transform);
        my_transform.beginElement();
        }
        ]]>
    </script>
    <style type="text/css">
        .st0{fill:#0D1272;}
        .st1{fill:#B6E1E9;}
        .st2{fill:#601A7A;}
        .st3{fill:#0091B0;}
        .st4{fill:#FFFFFF;}
        .st5{fill:#82577F;}
        .st6{fill:#80C7D6;}
        .st7{fill:#55B8CC;}
        .st8{fill:#0094B3;}
        .st9{fill:#0091D1;}
        .st10{fill:url(#XMLID_2_);}
        .st11{fill:#C6E7EE;}
        .st12{fill:#ffffff;}
    </style>
    <g transform="scale(1.15,1.15), translate(128,6)">
        <path class="st0" id="gear3" d="M235.4,154.1l4.2-4.9l-2.1-3l-6.1,2.3c-0.9-1.1-1.8-2.2-2.8-3.3l3.3-5.5l-2.6-2.6l-5.6,3.3   c-1.1-1-2.2-1.9-3.3-2.8l2.3-6l-3-2.1l-4.9,4.2c-1.2-0.8-2.5-1.5-3.7-2.1l1.2-6.3l-3.3-1.6l-4.1,5c-1.3-0.5-2.7-1-4-1.4l0.1-6.5   l-3.6-1l-3.2,5.7c-1.4-0.3-2.8-0.5-4.2-0.7l-1-6.4l-3.7-0.3l-2.2,6.1c-1.4,0-2.9,0-4.3,0l-2.1-6.1l-3.7,0.3l-1.1,6.4   c-1.4,0.2-2.8,0.5-4.2,0.8l-3.2-5.6l-3.6,0.9l0.1,6.5c-1.4,0.5-2.7,1-4,1.5l-4.1-5l-3.3,1.6l1.2,6.4c-1.3,0.7-2.5,1.4-3.7,2.2   l-4.9-4.2l-3,2.1l2.3,6.1c-1.1,0.9-2.2,1.8-3.3,2.8l-5.5-3.3l-2.6,2.6l3.3,5.6c-1,1.1-1.9,2.2-2.8,3.3l-6-2.3l-2.1,3l4.2,4.9   c-0.8,1.2-1.5,2.5-2.1,3.7l-6.3-1.2l-1.6,3.3l5,4.1c-0.5,1.3-1,2.7-1.4,4l-6.5-0.1l-1,3.6l5.7,3.2c-0.3,1.4-0.5,2.8-0.7,4.2l-6.4,1   l-0.3,3.7l6.1,2.2c0,1.4,0,2.9,0,4.3L111,193l0.3,3.7l6.4,1.1c0.2,1.4,0.5,2.8,0.8,4.2l-5.6,3.2l1,3.6l6.5-0.1c0.5,1.4,1,2.7,1.5,4   l-5,4.1l1.6,3.3l6.4-1.2c0.7,1.3,1.4,2.5,2.2,3.7l-4.2,4.9l2.1,3l6.1-2.3c0.9,1.1,1.8,2.2,2.8,3.3l-3.3,5.5l2.6,2.6l5.6-3.3   c1.1,1,2.2,1.9,3.3,2.8l-2.3,6l3,2.1l4.9-4.2c1.2,0.8,2.5,1.5,3.7,2.1l-1.2,6.3l3.3,1.6l4.1-5c1.3,0.5,2.7,1,4,1.4l-0.1,6.5l3.6,1   l3.2-5.7c1.4,0.3,2.8,0.5,4.2,0.7l1,6.4l3.7,0.3l2.2-6.1c1.4,0,2.9,0,4.3,0l2.1,6.1l3.7-0.3l1.1-6.4c1.4-0.2,2.8-0.5,4.2-0.8   l3.2,5.6l3.6-1l-0.1-6.5c1.4-0.4,2.7-0.9,4-1.5l4.1,5l3.3-1.6l-1.2-6.4c1.3-0.7,2.5-1.4,3.7-2.2l4.9,4.2l3-2.1l-2.3-6.1   c1.1-0.9,2.2-1.8,3.3-2.8l5.5,3.3l2.6-2.6l-3.3-5.6c1-1.1,1.9-2.2,2.8-3.3l6,2.3l2.1-3l-4.2-4.9c0.8-1.2,1.5-2.5,2.1-3.7l6.3,1.2   l1.6-3.3l-5-4.1c0.5-1.3,1-2.7,1.4-4.1l6.5,0.1l1-3.6l-5.7-3.2c0.3-1.4,0.5-2.8,0.7-4.2l6.4-1l0.3-3.7l-6.1-2.2c0-1.4,0-2.9,0-4.3   l6.1-2.1L251,180l-6.4-1.1c-0.2-1.4-0.5-2.8-0.8-4.2l5.6-3.2l-1-3.6l-6.5,0.1c-0.5-1.4-0.9-2.7-1.5-4l5-4.1l-1.6-3.3l-6.4,1.2   C236.9,156.6,236.2,155.4,235.4,154.1z M212.1,232.6c-24.4,17.1-58.1,11.1-75.2-13.3c-17.1-24.4-11.2-58.1,13.3-75.2   c24.4-17.1,58.1-11.1,75.2,13.3S236.5,215.5,212.1,232.6z" fill-opacity="0.0">
            <animate attributeName="fill-opacity" attributeType="XML" begin="0.46s" repeatCount="1" dur="0.3s" fill="freeze" from="0" to="1"/>
        </path>
    </g>
    <g id="Gear8Inner">
        <g transform="translate(566.7,-23.7), scale(1.15)">
            <path id="gear13" fill="#0D1272" d="M32.3,214v-1.8l-3.4-0.9c-0.1-1.1-0.4-2.1-0.8-3.1l2.5-2.4l-0.9-1.5l-3.3,0.9   c-0.7-0.9-1.4-1.6-2.3-2.3l0.9-3.3l-1.5-0.9l-2.4,2.5c-1-0.4-2-0.7-3.1-0.8l-1-3.4h-1.8l-0.9,3.4c-1.1,0.1-2.1,0.4-3.1,0.8   l-2.4-2.5l-1.5,0.9l0.9,3.3c-0.9,0.7-1.6,1.4-2.3,2.3l-3.3-0.9l-0.9,1.5l2.5,2.4c-0.4,1-0.7,2-0.8,3.1L0,212.2v1.8l3.4,0.9   c0.1,1.1,0.4,2.1,0.8,3.1l-2.5,2.4l0.9,1.5l3.3-0.9c0.7,0.9,1.4,1.6,2.3,2.3l-0.9,3.3l1.5,0.9l2.4-2.5c1,0.4,2,0.7,3.1,0.8l0.9,3.4   H17l0.9-3.4c1.1-0.1,2.1-0.4,3.1-0.8l2.4,2.5l1.5-0.9l-0.9-3.3c0.9-0.7,1.6-1.4,2.3-2.3l3.3,0.9l0.9-1.5L28,218   c0.4-1,0.7-2,0.8-3.1L32.3,214z M16.2,223c-5.5,0-9.9-4.4-9.9-9.9s4.4-9.9,9.9-9.9s9.9,4.4,9.9,9.9S21.6,223,16.2,223z" fill-opacity="0.0">
                <animate attributeName="fill-opacity" attributeType="XML" begin="0.65s" dur="0.3s" fill="freeze" from="0" to="1" repeatCount="1"/>
            </path>
        </g>
    </g>
    <g id="Gear7path">
        <path id="XMLID_265_" fill="#B6E1E9" d="M504.79,170.817c-13.724,0-24.798,11.075-24.798,24.798
            c0,13.724,11.074,24.798,24.798,24.798c13.723,0,24.798-11.074,24.798-24.798C529.708,181.892,518.512,170.817,504.79,170.817z
            M504.79,201.393c-3.13,0-5.778-2.527-5.778-5.778c0-3.13,2.528-5.778,5.778-5.778c3.13,0,5.778,2.528,5.778,5.778
            C510.568,198.865,507.92,201.393,504.79,201.393z" fill-opacity="0.0">
            <animate attributeName="fill-opacity" attributeType="XML"  repeatCount="1" begin="0.58s" dur="0.3s" fill="freeze" from="0" to="1"/>
        </path>
        <g transform="translate(474.5,-207), scale(1.89)">
            <path id="gear11" fill="#B6E1E9" d="M32.3,214v-1.8l-3.4-0.9c-0.1-1.1-0.4-2.1-0.8-3.1l2.5-2.4l-0.9-1.5l-3.3,0.9   c-0.7-0.9-1.4-1.6-2.3-2.3l0.9-3.3l-1.5-0.9l-2.4,2.5c-1-0.4-2-0.7-3.1-0.8l-1-3.4h-1.8l-0.9,3.4c-1.1,0.1-2.1,0.4-3.1,0.8   l-2.4-2.5l-1.5,0.9l0.9,3.3c-0.9,0.7-1.6,1.4-2.3,2.3l-3.3-0.9l-0.9,1.5l2.5,2.4c-0.4,1-0.7,2-0.8,3.1L0,212.2v1.8l3.4,0.9   c0.1,1.1,0.4,2.1,0.8,3.1l-2.5,2.4l0.9,1.5l3.3-0.9c0.7,0.9,1.4,1.6,2.3,2.3l-0.9,3.3l1.5,0.9l2.4-2.5c1,0.4,2,0.7,3.1,0.8l0.9,3.4   H17l0.9-3.4c1.1-0.1,2.1-0.4,3.1-0.8l2.4,2.5l1.5-0.9l-0.9-3.3c0.9-0.7,1.6-1.4,2.3-2.3l3.3,0.9l0.9-1.5L28,218   c0.4-1,0.7-2,0.8-3.1L32.3,214z M16.2,223c-5.5,0-9.9-4.4-9.9-9.9s4.4-9.9,9.9-9.9s9.9,4.4,9.9,9.9S21.6,223,16.2,223z" fill-opacity="0.0">
                <animate attributeName="fill-opacity" attributeType="XML" repeatCount="1"  begin="0.58s" dur="0.3s" fill="freeze" from="0" to="1"/>
            </path>
        </g>
    </g>
    <path fill="#B6E1E9" d="M480.23,249.06c0,0.98-0.021,1.94-0.051,2.891H336.55c-0.03-0.95-0.05-1.91-0.05-2.891
        c0-37.189,31.78-70.18,71.87-70.18C448.57,178.88,480.23,211.87,480.23,249.06z" fill-opacity="0.0">
        <animate attributeName="fill-opacity" attributeType="XML" begin="0.2" repeatCount="1" dur="1s" fill="freeze" from="0" to="1"/>
    </path>
    <g id="Gear2Inner">
        <path id="gear5" fill="#C6E7EE" d="M217.206,235.099v-1.324l-2.287-0.481c0-0.602-0.121-1.204-0.241-1.806l2.047-1.204
            l-0.361-1.203l-2.408,0.24c-0.24-0.602-0.481-1.083-0.842-1.686l1.564-1.806l-0.723-1.083l-2.166,0.963
            c-0.361-0.481-0.843-0.843-1.324-1.324l0.963-2.167l-1.084-0.722l-1.806,1.564c-0.481-0.361-1.083-0.602-1.685-0.843l0.24-2.407
            l-1.203-0.361l-1.204,2.047c-0.602-0.12-1.204-0.241-1.806-0.241l-0.481-2.407h-1.324l-0.481,2.287
            c-0.603,0-1.204,0.12-1.806,0.241l-1.204-2.047l-1.204,0.361l0.241,2.407c-0.602,0.241-1.083,0.481-1.686,0.843l-1.806-1.564
            l-1.083,0.722l0.963,2.167c-0.481,0.361-0.843,0.843-1.324,1.324l-2.167-0.963l-0.722,1.083l1.564,1.806
            c-0.361,0.481-0.602,1.084-0.843,1.686l-2.407-0.241l-0.361,1.204l2.047,1.204c-0.121,0.602-0.241,1.203-0.241,1.806l-2.407,0.481
            v1.324l2.287,0.481c0,0.602,0.12,1.203,0.24,1.806l-2.046,1.203l0.361,1.204l2.407-0.24c0.24,0.602,0.481,1.083,0.843,1.685
            l-1.565,1.806l0.723,1.084l2.167-0.963c0.361,0.481,0.843,0.842,1.324,1.324l-0.963,2.166l1.083,0.723l1.806-1.564
            c0.481,0.36,1.083,0.602,1.686,0.842l-0.241,2.408l1.204,0.361l1.203-2.047c0.603,0.12,1.204,0.241,1.806,0.241l0.482,2.407h1.324
            l0.481-2.287c0.602,0,1.203-0.12,1.806-0.241l1.203,2.047l1.204-0.361l-0.241-2.407c0.603-0.241,1.084-0.481,1.686-0.843
            l1.806,1.564l1.084-0.722l-0.964-2.167c0.482-0.361,0.843-0.843,1.324-1.324l2.167,0.963l0.723-1.083l-1.565-1.806
            c0.361-0.481,0.603-1.084,0.843-1.686l2.408,0.24l0.36-1.203l-2.046-1.204c0.12-0.602,0.24-1.204,0.24-1.806L217.206,235.099z
            M201.556,244.489c-5.537,0-10.112-4.454-10.112-10.112c0-5.537,4.454-10.111,10.112-10.111c5.537,0,10.111,4.454,10.111,10.111
            C211.548,239.914,207.094,244.489,201.556,244.489z" fill-opacity="0.0">
            <animate attributeName="fill-opacity" attributeType="XML" begin="1s" dur="0.2s" fill="freeze" from="0" to="1" repeatCount="1"/>
        </path>
    </g>
    <g transform="translate(137.7,0), scale(1.2)">
        <path id="gear8" class="st11" d="M32.3,214v-1.8l-3.4-0.9c-0.1-1.1-0.4-2.1-0.8-3.1l2.5-2.4l-0.9-1.5l-3.3,0.9   c-0.7-0.9-1.4-1.6-2.3-2.3l0.9-3.3l-1.5-0.9l-2.4,2.5c-1-0.4-2-0.7-3.1-0.8l-1-3.4h-1.8l-0.9,3.4c-1.1,0.1-2.1,0.4-3.1,0.8   l-2.4-2.5l-1.5,0.9l0.9,3.3c-0.9,0.7-1.6,1.4-2.3,2.3l-3.3-0.9l-0.9,1.5l2.5,2.4c-0.4,1-0.7,2-0.8,3.1L0,212.2v1.8l3.4,0.9   c0.1,1.1,0.4,2.1,0.8,3.1l-2.5,2.4l0.9,1.5l3.3-0.9c0.7,0.9,1.4,1.6,2.3,2.3l-0.9,3.3l1.5,0.9l2.4-2.5c1,0.4,2,0.7,3.1,0.8l0.9,3.4   H17l0.9-3.4c1.1-0.1,2.1-0.4,3.1-0.8l2.4,2.5l1.5-0.9l-0.9-3.3c0.9-0.7,1.6-1.4,2.3-2.3l3.3,0.9l0.9-1.5L28,218   c0.4-1,0.7-2,0.8-3.1L32.3,214z M16.2,223c-5.5,0-9.9-4.4-9.9-9.9s4.4-9.9,9.9-9.9s9.9,4.4,9.9,9.9S21.6,223,16.2,223z" fill-opacity="0.0">
            <animate attributeName="fill-opacity" attributeType="XML" begin="1.2s" dur="0.3s" repeatCount="1" fill="freeze" from="0" to="1"/>
        </path>
    </g>
    <g transform="translate(139,1), scale(1.2)">
        <path id="gear10" class="st2" d="M435.9,216.2v-2.9l-4.6-1.2c-0.2-1-0.6-1.9-1.1-2.7l2.4-4.1l-2-2l-4.1,2.4   c-0.8-0.5-1.7-0.9-2.7-1.1l-1.2-4.6h-2.9l-1.2,4.6c-1,0.2-1.9,0.6-2.7,1.1l-4.1-2.4l-2,2l2.4,4.1c-0.5,0.8-0.9,1.7-1.1,2.7   l-4.6,1.2v2.9l4.6,1.2c0.2,1,0.6,1.9,1.1,2.7l-2.4,4.1l2,2l4.1-2.4c0.8,0.5,1.7,0.9,2.7,1.1l1.2,4.6h2.9l1.2-4.6   c1-0.2,1.9-0.6,2.7-1.1l4.1,2.4l2-2l-2.4-4.1c0.5-0.8,0.9-1.7,1.1-2.7L435.9,216.2z M414.9,214.7c0-3.5,2.8-6.3,6.3-6.3   s6.3,2.8,6.3,6.3s-2.8,6.3-6.3,6.3S414.9,218.2,414.9,214.7z" fill-opacity="0.0">
            <animate attributeName="fill-opacity" attributeType="XML" begin="1.2s" dur="0.3s" repeatCount="1" fill="freeze" from="0" to="1"/>
        </path>
    </g>

    <g transform="translate(139,0), scale(1.2)">
        <path  id="gear2" class="st9" d="M415.5,185.8v-3.7l-6.5-1.5c-0.1-1.7-0.4-3.4-0.8-5.1l5.8-3.4l-1.1-3.5l-6.7,0.6   c-0.7-1.6-1.4-3.1-2.3-4.6l4.4-5.1l-2.1-3l-6.2,2.6c-1.1-1.3-2.3-2.5-3.6-3.6l2.7-6.2l-3-2.1l-5,4.4c-1.5-0.9-3-1.7-4.5-2.4   l0.6-6.7l-3.5-1.1l-3.4,5.8c-1.6-0.4-3.3-0.7-5-0.8l-1.5-6.6h-3.7l-1.5,6.5c-1.7,0.1-3.4,0.4-5.1,0.8l-3.4-5.8l-3.5,1.1l0.6,6.7   c-1.6,0.7-3.1,1.4-4.6,2.3l-5.1-4.4l-3,2.1l2.6,6.2c-1.3,1.1-2.5,2.3-3.6,3.6l-6.2-2.7l-2.1,3l4.4,5c-0.9,1.5-1.7,3-2.4,4.5   l-6.7-0.6l-1.1,3.5l5.8,3.4c-0.4,1.6-0.7,3.3-0.8,5l-6.6,1.5v3.7l6.5,1.5c0.1,1.7,0.4,3.4,0.8,5.1l-5.8,3.4l1.1,3.5l6.7-0.6   c0.7,1.6,1.4,3.1,2.3,4.6l-4.5,5.1l2.1,3l6.2-2.6c1.1,1.3,2.3,2.5,3.6,3.6l-2.7,6.2l3,2.1l5-4.4c1.5,0.9,3,1.7,4.5,2.4l-0.6,6.7   l3.5,1.1l3.4-5.8c1.6,0.4,3.3,0.7,5,0.8l1.5,6.6h3.7l1.5-6.5c1.7-0.1,3.4-0.4,5.1-0.8l3.4,5.8l3.5-1.1l-0.6-6.7   c1.6-0.7,3.1-1.4,4.6-2.3l5.1,4.4l3-2.1L396,212c1.3-1.1,2.5-2.3,3.6-3.6l6.2,2.7l2.1-3l-4.4-5c0.9-1.5,1.7-3,2.4-4.5l6.7,0.6   l1.1-3.5l-5.8-3.4c0.4-1.6,0.7-3.3,0.8-5L415.5,185.8z M371.7,211.8c-15.5,0-28.1-12.6-28.1-28.1s12.6-28.1,28.1-28.1   s28.1,12.6,28.1,28.1S387.2,211.8,371.7,211.8z" fill-opacity="0.0">
            <animate attributeName="fill-opacity" attributeType="XML" begin="0.62s" dur="0.3s" repeatCount="1" fill="freeze" from="0" to="1"/>
        </path>
    </g>
    <g>
        <path fill="#0091D1" d="M299.673,251.526l-0.008,0.426h1.108C300.407,251.807,300.043,251.659,299.673,251.526z"/>
        <g transform="translate(237,76)">
            <path id="gear12" class="st12" d="M78.3,198l0.3-1.8l-3.4-1.5l0,0c0-1.4-0.1-2.8-0.4-4.1l3.1-1.4l-0.3-1.8l-3.7-0.3   c-0.5-1.3-1.1-2.5-1.8-3.7l2.4-2.4l-0.9-1.6l-3.6,1l0,0c-0.9-1.1-1.9-2-2.9-2.9l1.5-3.1l-1.4-1.2l-3,2.2l0,0   c-1.2-0.7-2.4-1.3-3.8-1.7l0.3-3.4l-1.7-0.6l-2.1,3.1H57c-1.3-0.2-2.5-0.3-3.9-0.3c-0.1,0-0.2,0-0.3,0l-0.8-3.3h-1.9l-0.9,3.6h0.1   c-1.4,0.2-2.7,0.6-4,1.1l-1.9-2.8l-1.7,0.6l0.4,3.7l0,0c-1.2,0.7-2.3,1.5-3.4,2.4l-2.8-2l-1.4,1.2l1.6,3.4l0,0   c-0.9,1.1-1.7,2.2-2.4,3.4l-3.3-0.9l-0.9,1.6l2.7,2.6l0,0c-0.5,1.3-0.8,2.6-1,4l-3.4,0.3l-0.3,1.8l3.4,1.5l0,0   c0,1.4,0.1,2.8,0.4,4.1l-3.1,1.4l0.3,1.8l3.7,0.3c0.5,1.3,1.1,2.5,1.8,3.7l-2.4,2.4l0.9,1.6l3.6-1l0,0c0.9,1.1,1.9,2,2.9,2.9   l-1.5,3.1l1.4,1.2l3-2.2l0,0c1.2,0.7,2.4,1.3,3.8,1.7l-0.3,3.4l1.7,0.6l2.1-3.1l0,0c1.3,0.2,2.5,0.3,3.9,0.3c0.1,0,0.2,0,0.3,0   l0.8,3.3h1.9l0.9-3.6h-0.1c1.4-0.2,2.7-0.6,4-1.1l1.9,2.8l1.7-0.6l-0.4-3.7l0,0c1.2-0.7,2.3-1.5,3.4-2.4l2.8,2l1.4-1.2l-1.6-3.4   l0,0c0.9-1.1,1.7-2.2,2.4-3.4l3.3,0.9l0.9-1.6l-2.7-2.6l0,0c0.5-1.3,0.8-2.6,1-4L78.3,198z M53.1,213.4c-10.3,0-18.7-8.4-18.7-18.7   S42.8,176,53.1,176c10.3,0,18.7,8.4,18.7,18.7C71.7,205,63.4,213.4,53.1,213.4z" fill-opacity="0.0">
                <animate attributeName="fill-opacity" attributeType="XML" begin="0.58s" dur="0.5s" repeatCount="1" fill="freeze" from="0" to="1"/>
            </path>
        </g>
    </g>
    <g  transform="translate(138,0), scale(1.2)">
        <path id="gear7" class="st12" d="M78.3,198l0.3-1.8l-3.4-1.5l0,0c0-1.4-0.1-2.8-0.4-4.1l3.1-1.4l-0.3-1.8l-3.7-0.3   c-0.5-1.3-1.1-2.5-1.8-3.7l2.4-2.4l-0.9-1.6l-3.6,1l0,0c-0.9-1.1-1.9-2-2.9-2.9l1.5-3.1l-1.4-1.2l-3,2.2l0,0   c-1.2-0.7-2.4-1.3-3.8-1.7l0.3-3.4l-1.7-0.6l-2.1,3.1H57c-1.3-0.2-2.5-0.3-3.9-0.3c-0.1,0-0.2,0-0.3,0l-0.8-3.3h-1.9l-0.9,3.6h0.1   c-1.4,0.2-2.7,0.6-4,1.1l-1.9-2.8l-1.7,0.6l0.4,3.7l0,0c-1.2,0.7-2.3,1.5-3.4,2.4l-2.8-2l-1.4,1.2l1.6,3.4l0,0   c-0.9,1.1-1.7,2.2-2.4,3.4l-3.3-0.9l-0.9,1.6l2.7,2.6l0,0c-0.5,1.3-0.8,2.6-1,4l-3.4,0.3l-0.3,1.8l3.4,1.5l0,0   c0,1.4,0.1,2.8,0.4,4.1l-3.1,1.4l0.3,1.8l3.7,0.3c0.5,1.3,1.1,2.5,1.8,3.7l-2.4,2.4l0.9,1.6l3.6-1l0,0c0.9,1.1,1.9,2,2.9,2.9   l-1.5,3.1l1.4,1.2l3-2.2l0,0c1.2,0.7,2.4,1.3,3.8,1.7l-0.3,3.4l1.7,0.6l2.1-3.1l0,0c1.3,0.2,2.5,0.3,3.9,0.3c0.1,0,0.2,0,0.3,0   l0.8,3.3h1.9l0.9-3.6h-0.1c1.4-0.2,2.7-0.6,4-1.1l1.9,2.8l1.7-0.6l-0.4-3.7l0,0c1.2-0.7,2.3-1.5,3.4-2.4l2.8,2l1.4-1.2l-1.6-3.4   l0,0c0.9-1.1,1.7-2.2,2.4-3.4l3.3,0.9l0.9-1.6l-2.7-2.6l0,0c0.5-1.3,0.8-2.6,1-4L78.3,198z M53.1,213.4c-10.3,0-18.7-8.4-18.7-18.7   S42.8,176,53.1,176c10.3,0,18.7,8.4,18.7,18.7C71.7,205,63.4,213.4,53.1,213.4z" fill-opacity="0.0">
            <animate attributeName="fill-opacity" attributeType="XML" begin="0.85s" dur="0.3s" repeatCount="1" fill="freeze" from="0" to="1"/>
        </path>
    </g>
    <g  transform="translate(138,0.5), scale(1.2)">
        <path id="gear9" class="st0" d="M96.2,210.8v-2.1l-3.3-0.9c-0.2-0.7-0.5-1.4-0.8-2l1.8-3l-1.5-1.5l-3,1.8   c-0.6-0.4-1.3-0.6-2-0.8l-0.9-3.3h-2.1l-0.9,3.3c-0.7,0.2-1.4,0.5-2,0.8l-3-1.8l-1.5,1.5l1.8,3c-0.4,0.6-0.6,1.3-0.8,2l-3.3,0.9   v2.1l3.3,0.9c0.2,0.7,0.5,1.4,0.8,2l-1.8,3l1.5,1.5l3-1.8c0.6,0.4,1.3,0.6,2,0.8l0.9,3.3h2.1l0.9-3.3c0.7-0.2,1.4-0.5,2-0.8l3,1.8   l1.5-1.5l-1.8-3c0.4-0.6,0.6-1.3,0.8-2L96.2,210.8z M81,209.8c0-2.5,2-4.6,4.6-4.6c2.5,0,4.6,2,4.6,4.6c0,2.5-2,4.6-4.6,4.6   C83,214.3,81,212.3,81,209.8z" fill-opacity="0.0">
            <animate attributeName="fill-opacity" attributeType="XML" begin="0.62s" dur="0.3s" repeatCount="1" fill="freeze" from="0" to="1"/>
        </path>
    </g>
    <g transform="scale(2.27), translate(127,-85)">
        <path  id="gear4" class="st4" d="M78.3,198l0.3-1.8l-3.4-1.5l0,0c0-1.4-0.1-2.8-0.4-4.1l3.1-1.4l-0.3-1.8l-3.7-0.3   c-0.5-1.3-1.1-2.5-1.8-3.7l2.4-2.4l-0.9-1.6l-3.6,1l0,0c-0.9-1.1-1.9-2-2.9-2.9l1.5-3.1l-1.4-1.2l-3,2.2l0,0   c-1.2-0.7-2.4-1.3-3.8-1.7l0.3-3.4l-1.7-0.6l-2.1,3.1H57c-1.3-0.2-2.5-0.3-3.9-0.3c-0.1,0-0.2,0-0.3,0l-0.8-3.3h-1.9l-0.9,3.6h0.1   c-1.4,0.2-2.7,0.6-4,1.1l-1.9-2.8l-1.7,0.6l0.4,3.7l0,0c-1.2,0.7-2.3,1.5-3.4,2.4l-2.8-2l-1.4,1.2l1.6,3.4l0,0   c-0.9,1.1-1.7,2.2-2.4,3.4l-3.3-0.9l-0.9,1.6l2.7,2.6l0,0c-0.5,1.3-0.8,2.6-1,4l-3.4,0.3l-0.3,1.8l3.4,1.5l0,0   c0,1.4,0.1,2.8,0.4,4.1l-3.1,1.4l0.3,1.8l3.7,0.3c0.5,1.3,1.1,2.5,1.8,3.7l-2.4,2.4l0.9,1.6l3.6-1l0,0c0.9,1.1,1.9,2,2.9,2.9   l-1.5,3.1l1.4,1.2l3-2.2l0,0c1.2,0.7,2.4,1.3,3.8,1.7l-0.3,3.4l1.7,0.6l2.1-3.1l0,0c1.3,0.2,2.5,0.3,3.9,0.3c0.1,0,0.2,0,0.3,0   l0.8,3.3h1.9l0.9-3.6h-0.1c1.4-0.2,2.7-0.6,4-1.1l1.9,2.8l1.7-0.6l-0.4-3.7l0,0c1.2-0.7,2.3-1.5,3.4-2.4l2.8,2l1.4-1.2l-1.6-3.4   l0,0c0.9-1.1,1.7-2.2,2.4-3.4l3.3,0.9l0.9-1.6l-2.7-2.6l0,0c0.5-1.3,0.8-2.6,1-4L78.3,198z M53.1,213.4c-10.3,0-18.7-8.4-18.7-18.7   S42.8,176,53.1,176c10.3,0,18.7,8.4,18.7,18.7C71.7,205,63.4,213.4,53.1,213.4z" fill-opacity="0.0">
            <animate attributeName="fill-opacity" attributeType="XML" begin="0.21s" dur="0.2s" repeatCount="1" fill="freeze" from="0" to="1"/>
        </path>
    </g>
    <rect x="140" y="252" width="519" height="28" fill="white"/>
    <path id="gear1" fill="#0D1272" d="M435.452,240.153l-2.408-4.936l-8.907,1.926c-1.204-1.444-2.648-2.647-4.214-3.731
        l0.723-9.148l-5.177-1.806l-5.056,7.704c-1.806-0.12-3.731,0-5.658,0.361l-5.898-6.982l-4.936,2.408l1.927,8.907
        c-1.445,1.204-2.648,2.648-3.732,4.214l-9.148-0.723l-1.806,5.177l7.704,5.056c-0.12,1.806,0,3.731,0.361,5.657l-6.982,5.899
        l2.408,4.936l8.907-1.927c1.204,1.444,2.648,2.648,4.214,3.732l-0.723,9.148l5.177,1.806l5.056-7.704
        c1.806,0.12,3.731,0,5.657-0.361l5.899,6.981l4.936-2.407l-1.926-8.908c1.444-1.203,2.647-2.648,3.731-4.213l9.148,0.723
        l1.806-5.177l-7.704-5.056c0.12-1.806,0-3.731-0.361-5.658L435.452,240.153z M397.893,255.441
        c-2.889-6.019-0.481-13.241,5.537-16.131c6.02-2.889,13.242-0.481,16.131,5.538c2.89,6.019,0.481,13.241-5.537,16.13
        C408.126,263.867,400.903,261.46,397.893,255.441z" fill-opacity="0.0">
        <animate attributeName="fill-opacity" attributeType="XML" dur="0.3s" repeatCount="1" fill="freeze" from="0" to="1"/>
    </path>
    <path d="M2,0 A120,0 2 0,1 2 1 A120,0 7 0,1 0,0"
        stroke="lightgrey" stroke-width="2"
        fill="none" id="theMotionPath"/>

    <g class="woman3" fill-opacity="0.0">
        <g transform="rotate(25, 600, 250)">
            <animateTransform attributeName="transform"
                attributeType="XML"
                type="rotate"
                from="25 600 250"
                to="15 600 150"
                dur="1.5s"
                repeatCount="1"
                fill="freeze" />
            <animate attributeName="fill-opacity"
                attributeType="XML"
                begin="0.755"
                dur="0.5s"
                fill="freeze"
                repeatCount="1"
                from="0"
                to="1"/>
            <g id="Woman3ArmLeft">
                <polygon id="XMLID_128_" fill="#B6E1E9" points="559.201,102.563 549.931,90.163 548.607,91.246 557.395,103.405 561.488,108.701
                    563.655,107.498 	"/>
                <g id="XMLID_118_">
                    <path id="XMLID_126_" fill="#B6E1E9" d="M549.811,90.163c-0.12,0-0.241-0.12-0.241-0.361l0.121-0.963c0-0.12,0.12-0.24,0.36-0.24
                        l0,0c0.121,0,0.241,0.12,0.241,0.36l-0.12,0.964C550.052,90.163,549.931,90.283,549.811,90.163z"/>
                    <g id="XMLID_119_">
                        <g id="XMLID_120_">
                            <path id="XMLID_125_" fill="#B6E1E9" d="M548.246,91.246c0.121,0.121,0.241,0.121,0.481,0l1.324-1.083
                                c0.121-0.12,0.121-0.24,0-0.481l-0.602-0.723c-0.12-0.12-0.241-0.12-0.481,0l-1.324,1.084c-0.12,0.12-0.12,0.24,0,0.481
                                L548.246,91.246z"/>
                            <path id="XMLID_124_" fill="#B6E1E9" d="M549.45,89.441c0.12-0.12,0.12-0.24,0-0.36l-0.723-0.964c-0.12-0.12-0.24-0.12-0.36,0
                                c-0.121,0.121-0.121,0.241,0,0.361l0.722,0.963C549.089,89.562,549.33,89.562,549.45,89.441z"/>
                            <path id="XMLID_123_" fill="#B6E1E9" d="M548.969,89.802c0.12-0.12,0.12-0.24,0-0.361l-0.723-0.963c-0.12-0.12-0.24-0.12-0.36,0
                                c-0.121,0.121-0.121,0.241,0,0.361l0.722,0.963C548.607,89.922,548.848,89.922,548.969,89.802z"/>
                            <path id="XMLID_122_" fill="#B6E1E9" d="M548.487,90.163c0.12-0.12,0.12-0.24,0-0.361l-0.723-0.963
                                c-0.12-0.12-0.24-0.12-0.361,0c-0.12,0.12-0.12,0.241,0,0.361l0.723,0.963C548.246,90.283,548.367,90.283,548.487,90.163z"/>
                            <path id="XMLID_121_" fill="#B6E1E9" d="M548.006,90.525c0.12-0.12,0.12-0.241,0-0.361l-0.723-0.963
                                c-0.12-0.12-0.24-0.12-0.361,0c-0.12,0.12-0.12,0.24,0,0.361l0.723,0.963C547.764,90.645,547.885,90.645,548.006,90.525z"/>
                        </g>
                    </g>
                </g>
            </g>
            <g id="Woman3ArmLeftSleeve">
                <polygon id="XMLID_127_" fill="#601A7A" points="568.711,112.915 561.969,105.09 559.682,107.016 566.905,114.961 	"/>
            </g>
            <g id="Woman3LegRight">
                <g id="XMLID_113_">
                    <path id="XMLID_116_" fill="#B6E1E9" d="M585.804,147.103c1.926,1.203,22.391,12.037,22.391,12.037l-1.324-1.685
                        c-3.251-1.565-7.344-4.695-10.112-7.224c-2.769-2.647-3.731-3.129-4.334-3.37c-0.722-0.241-3.37-1.564-3.37-1.564l-5.297-1.084
                        L585.804,147.103z"/>
                    <path id="XMLID_115_" fill="#601A7A" d="M605.787,156.853c0,0,0.361-0.481,0.963-0.481c0.603,0.723,2.287,1.926,2.287,1.926
                        l-0.12,0.241L605.787,156.853z"/>
                    <polygon id="XMLID_114_" fill="#601A7A" points="608.195,159.14 607.352,160.946 607.593,158.779 		"/>
                </g>
            </g>
            <g id="Woman3LegLeft">
                <g id="XMLID_109_">
                    <path id="XMLID_112_" fill="#B6E1E9" d="M573.525,147.103c-0.481,2.166-2.527,22.631-2.527,22.631l1.083-1.806
                        c0.241-3.611,1.565-8.547,2.89-12.158s1.444-4.574,1.444-5.297s-0.12-3.01-0.12-3.01L573.525,147.103z"/>
                    <path id="XMLID_111_" fill="#601A7A" d="M572.202,166.604c0,0,0.602,0.24,0.722,0.722c-0.481,0.723-0.963,2.89-0.963,2.89h-0.24
                        L572.202,166.604z"/>
                    <polygon id="XMLID_110_" fill="#601A7A" points="570.998,169.734 569.072,169.614 571.118,169.131 		"/>
                </g>
            </g>
            <g id="Woman3Skirt">
                <path id="XMLID_108_" fill="#601A7A" d="M582.313,126.999c0.843,1.204,2.889,1.926,3.973,5.297
                    c1.083,3.49,4.454,13.001,4.454,13.001l-18.178,3.009c0,0,4.214-18.418,4.574-20.344
                    C577.498,125.675,581.832,126.398,582.313,126.999z"/>
            </g>
            <g id="Woman3Head">
                <g id="XMLID_98_">
                    <g id="XMLID_99_">
                        <path id="XMLID_106_" fill="#601A7A" d="M563.052,98.229c-1.444,0.723-4.093,3.973-4.093,5.778c0,1.083,1.806,2.527,2.769,2.769
                            C562.812,107.016,564.858,97.266,563.052,98.229z"/>
                        <g id="XMLID_104_">
                            <path id="XMLID_105_" fill="#FFFFFF" d="M566.785,106.656c2.769-2.769,1.083-6.621-0.482-7.825
                                c-1.324-0.963-2.407-0.722-3.25-0.361c-1.324,0.603-3.37,4.454-3.37,4.454h0.722c0,0-0.12,1.806,0.361,2.648
                                c1.204,2.047,3.371,1.686,6.26,5.056c1.083,1.204,1.083-0.12,1.083-0.722C566.905,108.581,566.062,107.377,566.785,106.656z"/>
                        </g>
                        <path id="XMLID_103_" fill="#601A7A" d="M562.812,98.71c-0.361,1.324,1.324,2.407,2.769,3.611
                            c1.564,1.324,0.963,4.815-0.241,5.537c2.648-0.36,4.936-0.843,6.14-1.203c0.602-6.14-3.731-8.788-5.417-9.028
                            c-2.047-0.241-3.491,0.24-4.695,2.407C561.849,99.673,561.969,99.553,562.812,98.71z"/>
                        <g id="XMLID_100_">
                            <circle id="XMLID_102_" fill="#601A7A" cx="561.728" cy="101.118" r="0.361"/>
                            <circle id="XMLID_101_" fill="#601A7A" cx="562.691" cy="101.359" r="0.361"/>
                        </g>
                    </g>
                </g>
            </g>
            <g id="Woman3Body">
                <path id="XMLID_107_" fill="#55B8CC" d="M566.182,111.23c0.603-0.481,2.287-1.565,3.01-2.047
                    c4.213,4.815,6.38,16.011,13.241,17.937c-0.963,0.723-4.694,1.926-5.778,2.648c-0.36-2.047-4.333-6.621-6.62-9.27
                    C568.951,120.619,566.905,113.156,566.182,111.23z"/>
                <polygon id="XMLID_97_" fill="#FFFFFF" points="566.302,111.11 567.386,112.674 569.432,117.971 567.868,112.313 568.469,109.664
                    "/>
                <path id="XMLID_96_" fill="#601A7A" d="M570.636,108.22l-2.167,1.444l0.723,8.668l-3.01-7.103l-0.481,0.361
                    c0,0,2.528,6.5,1.686,8.065c0.602,0.842,1.686,1.323,2.648,0.963c2.407,3.009,5.176,8.306,6.38,10.231
                    c0.723-0.481,6.621-3.37,7.584-3.972c-4.093-0.121-9.51-9.149-11.075-14.446C571.841,108.701,570.636,108.22,570.636,108.22z"/>
                <polygon id="XMLID_91_" fill="#0094B3" points="569.432,117.61 570.396,113.276 570.396,113.276 569.192,112.674 570.155,111.951
                    568.951,109.785 568.831,109.785 570.155,111.951 569.072,112.674 569.192,112.794 570.396,113.276 	"/>
            </g>
            <g id="Woman3ArmRight">
                <g id="XMLID_52_">
                    <rect id="XMLID_90_" x="586.455" y="112.999" transform="matrix(0.5679 -0.8231 0.8231 0.5679 159.3215 539.4615)" fill="#601A7A" width="13.964" height="9.992"/>
                    <polygon id="XMLID_89_" fill="#FFFFFF" points="598.203,113.156 598.203,113.035 590.98,123.388 586.526,120.258 586.526,120.378
                        591.101,123.508 		"/>
                    <g id="XMLID_86_">
                        <path id="XMLID_88_" fill="#601A7A" d="M591.703,113.276l-1.565-1.083c-0.36-0.241-0.843-0.12-1.083,0.24l-2.287,3.251
                            c-0.241,0.361-0.241,0.843,0.12,1.083l1.565,1.084l0.36-0.482l-1.564-1.083c-0.12-0.12-0.12-0.24,0-0.361l2.287-3.25
                            c0.12-0.12,0.241-0.12,0.361-0.12l1.564,1.083L591.703,113.276z"/>
                    </g>
                    <g id="XMLID_53_">
                        <polygon id="XMLID_85_" fill="#B6E1E9" points="596.638,119.656 585.563,111.591 579.063,110.146 578.822,112.554
                            585.082,113.637 595.796,121.101 			"/>
                        <path id="XMLID_84_" fill="#601A7A" d="M571.479,107.98c1.204,0.12,12.398,2.647,12.398,2.647l-0.24,3.371
                            c0,0-10.834-1.686-12.64-1.926C569.192,111.831,569.432,107.739,571.479,107.98z"/>
                        <g id="XMLID_54_">
                            <g id="XMLID_55_">
                                <path id="XMLID_83_" fill="#B6E1E9" d="M595.916,120.98c0.121,0,0.361,0.121,0.361,0.241l0.241,0.963
                                    c0,0.12-0.121,0.361-0.241,0.361l0,0c-0.12,0-0.361-0.12-0.361-0.241l-0.24-0.963
                                    C595.676,121.221,595.796,120.98,595.916,120.98z"/>
                                <g id="XMLID_56_">
                                    <g id="XMLID_57_">
                                        <path id="XMLID_82_" fill="#B6E1E9" d="M597.12,119.535c-0.12-0.12-0.361,0-0.361,0.121l-0.963,1.444
                                            c-0.12,0.12,0,0.361,0.12,0.361l0.723,0.481c0.12,0.12,0.361,0,0.361-0.121l0.963-1.444c0.12-0.12,0-0.361-0.121-0.361
                                            L597.12,119.535z"/>
                                        <g id="XMLID_58_">
                                            <path id="XMLID_81_" fill="#B6E1E9" d="M596.879,121.582c-0.12-0.12-0.12-0.241-0.12-0.361c0.12-0.12,0.241-0.12,0.361-0.12
                                                l0.481,0.361c0.12,0.12,0.12,0.24,0.12,0.36l0,0c-0.12,0.121-0.24,0.121-0.361,0.121L596.879,121.582z"/>
                                            <path id="XMLID_80_" fill="#B6E1E9" d="M596.638,122.064c-0.12-0.12-0.12-0.241-0.12-0.361c0.12-0.12,0.24-0.12,0.36-0.12
                                                l0.481,0.361c0.121,0.12,0.121,0.24,0.121,0.36l0,0c-0.121,0.121-0.241,0.121-0.361,0.121L596.638,122.064z"/>
                                            <path id="XMLID_79_" fill="#B6E1E9" d="M597.12,120.619c0.12-0.121,0.24-0.121,0.361-0.121l0.481,0.361
                                                c0.12,0.12,0.12,0.241,0.12,0.361l0,0c-0.12,0.12-0.241,0.12-0.361,0.12l-0.481-0.361
                                                C597.12,120.98,597,120.74,597.12,120.619z"/>
                                            <path id="XMLID_60_" fill="#B6E1E9" d="M597.601,120.498c-0.12-0.12-0.12-0.24-0.12-0.36c0.12-0.121,0.24-0.121,0.36-0.121
                                                l0.482,0.361c0.12,0.12,0.12,0.241,0.12,0.361c-0.12,0.12-0.241,0.12-0.361,0.12L597.601,120.498z"/>
                                        </g>
                                    </g>
                                </g>
                            </g>
                        </g>
                    </g>
                </g>
            </g>
        </g>
    </g>
    <g class="woman2" fill-opacity="0.0">
        <g transform="rotate(0, 440, 300)">
            <animateTransform attributeName="transform"
                attributeType="XML"
                type="rotate"
                from="-15 440 300"
                to="0 440 300"
                dur="1.5s"
                repeatCount="1"
                fill="freeze" />
            <animate attributeName="fill-opacity"
                attributeType="XML"
                begin="0.65"
                dur="0.7s"
                fill="freeze"
                from="0"
                repeatCount="1"
                to="1"/>
            <g id="Woman2Head">
                <g id="XMLID_622_">
                    <g id="XMLID_623_">
                        <g id="XMLID_624_">
                            <path id="XMLID_632_" fill="#601A7A" d="M399.819,85.589c0.723-0.481,2.408-0.602,3.371,0.481
                                C404.273,87.154,398.736,86.311,399.819,85.589z"/>
                            <g id="XMLID_630_">
                                <path id="XMLID_631_" fill="#FFFFFF" d="M403.792,93.655c-4.333,0.843-6.26-3.01-5.537-5.056
                                    c0.361-1.084,0.722-2.77,1.564-3.01c1.565-0.361,6.02,1.324,6.02,1.324l-0.603,0.481c0,0,1.445,1.444,1.565,2.528
                                    c0.361,1.926-0.963,3.852-0.963,7.343c0,1.686-1.324,1.444-1.324,0.12C404.394,96.303,403.912,94.376,403.792,93.655z"/>
                            </g>
                            <g id="XMLID_627_">
                                <path id="XMLID_629_" fill="#601A7A" d="M403.31,86.672c0.241,0.121,0.241,0.361,0.12,0.603c-0.12,0.24-0.36,0.24-0.602,0.12
                                    c-0.24-0.12-0.24-0.361-0.12-0.602C402.829,86.552,403.07,86.432,403.31,86.672z"/>
                                <circle id="XMLID_628_" fill="#601A7A" cx="402.347" cy="87.635" r="0.481"/>
                            </g>
                            <path id="XMLID_626_" fill="#601A7A" d="M403.792,93.655c-2.889,0.361-4.093-1.324-2.527-1.565c0-2.527,0.24-6.26-1.324-6.5
                                c-2.408-0.481-4.695,2.287-4.334,4.936C396.088,93.895,401.143,95.219,403.792,93.655z"/>
                            <path id="XMLID_625_" fill="#601A7A" d="M396.93,92.33c0-1.084,0.481-3.731-1.686-4.093c-1.203-0.121-2.407,0.481-2.167,1.685
                                C393.559,91.608,395.726,93.173,396.93,92.33z"/>
                        </g>
                    </g>
                </g>
            </g>
            <g id="Woman2LegRight">
                <g id="XMLID_618_">
                    <path id="XMLID_621_" fill="#B6E1E9" d="M403.552,137.953l4.574-2.046l0.481,4.814c1.083,1.565,6.019,25.762,6.019,25.762
                        l-1.444-1.806c-0.963-3.853-3.13-10.594-5.658-13.964c-2.287-3.01-0.602-6.14-0.842-7.945L403.552,137.953z"/>
                    <path id="XMLID_620_" fill="#601A7A" d="M412.82,163.233c0,0-0.602,0.361-0.722,0.843c0.602,0.723,1.564,2.89,1.564,2.89
                        l0.241-0.121L412.82,163.233z"/>
                    <polygon id="XMLID_619_" fill="#601A7A" points="414.626,166.484 416.793,166.001 414.506,165.761 		"/>
                </g>
            </g>
            <g id="Woman2LegLeft">
                <g id="XMLID_614_">
                    <path id="XMLID_617_" fill="#B6E1E9" d="M399.94,137.352l4.694,1.564l-2.889,3.853c-0.361,1.806-13.001,22.992-13.001,22.992
                        l0.12-2.287c1.926-3.491,4.936-9.871,5.417-14.084c0.361-3.853,3.731-4.936,4.815-6.381L399.94,137.352z"/>
                    <path id="XMLID_616_" fill="#601A7A" d="M389.588,162.15c0,0-0.723-0.12-1.084,0.12c-0.12,0.963-0.843,3.25-0.843,3.25
                        l0.241,0.121L389.588,162.15z"/>
                    <polygon id="XMLID_615_" fill="#601A7A" points="388.745,165.881 390.551,166.844 388.985,165.159 		"/>
                </g>
            </g>
            <g id="Woman2Skirt">
                <path id="XMLID_613_" fill="#601A7A" d="M403.31,119.777c-1.806,2.046-3.973,1.686-5.778,5.657
                    c-1.685,3.611,0.603,17.094,0.603,17.094l12.158,0.843l-3.732-23.594H403.31z"/>
            </g>
            <g id="Woman2Body">
                <path id="XMLID_609_" fill="#0091D1" d="M406.922,97.747c-0.843-0.12-3.01-0.361-3.973-0.481
                    c-4.093,7.103,3.371,10.834,4.574,9.991C408.607,106.896,407.283,100.034,406.922,97.747z"/>
                <polygon id="XMLID_608_" fill="#FFFFFF" points="406.32,97.747 407.283,105.813 403.912,97.386 	"/>
                <path id="XMLID_607_" fill="#601A7A" d="M401.264,97.266c1.083-0.241,2.647,0.12,2.647,0.12l3.732,8.788l-0.723-8.547h0.602
                    c0,0,0.843,7.704,2.528,8.667c-0.12,1.083-0.963,2.167-2.046,2.287c0.36,4.454-0.482,9.871,0.24,13.482
                    c-0.963,0-8.186-0.361-9.51-0.361c3.731-2.528,2.287-15.408,1.444-21.307C400.06,98.229,400.542,97.386,401.264,97.266z"/>
                <polygon id="XMLID_606_" fill="#0094B3" points="407.523,107.377 402.949,102.201 404.273,100.877 402.709,100.155 403.552,97.627
                    403.552,97.627 402.829,100.155 404.394,100.757 403.07,102.201 407.644,107.257 	"/>
            </g>
            <g id="Woman2Arms__x26__Flag_Pole">
                <polygon id="XMLID_610_" fill="#B6E1E9" points="427.868,87.635 414.024,97.266 406.922,97.988 407.163,100.034 414.506,99.312
                    428.108,89.08 	"/>
                <g id="Layer_56">
                    <rect id="XMLID_602_" x="430.198" y="-0.004" transform="matrix(0.999 0.0456 -0.0456 0.999 2.6764 -19.6043)" fill="#0D1272" width="0.963" height="97.629"/>
                </g>
                <g id="Layer_55">
                    <g id="XMLID_596_">
                        <path id="XMLID_601_" fill="#B6E1E9" d="M429.432,79.329h0.603c0.12,0,0.24,0.12,0.24,0.24c0,0.121-0.12,0.241-0.24,0.241h-0.603
                            c-0.12,0-0.24-0.12-0.24-0.241C429.192,79.449,429.312,79.329,429.432,79.329z"/>
                        <path id="XMLID_600_" fill="#B6E1E9" d="M429.432,78.848h0.603c0.12,0,0.24,0.12,0.24,0.24c0,0.121-0.12,0.241-0.24,0.241h-0.603
                            c-0.12,0-0.24-0.12-0.24-0.241C429.192,78.968,429.312,78.848,429.432,78.848z"/>
                        <path id="XMLID_599_" fill="#B6E1E9" d="M429.432,78.246h0.603c0.12,0,0.24,0.12,0.24,0.24s-0.12,0.241-0.24,0.241h-0.603
                            c-0.12,0-0.24-0.121-0.24-0.241S429.312,78.246,429.432,78.246z"/>
                        <path id="XMLID_598_" fill="#B6E1E9" d="M428.349,77.764l0.723-0.602c0.12-0.12,0.24-0.12,0.36,0c0.121,0.12,0.121,0.241,0,0.361
                            l-0.722,0.602c-0.121,0.121-0.241,0.121-0.361,0C428.229,78.005,428.229,77.885,428.349,77.764z"/>
                        <path id="XMLID_597_" fill="#B6E1E9" d="M429.432,77.764h0.603c0.12,0,0.24,0.121,0.24,0.241s-0.12,0.241-0.24,0.241h-0.603
                            c-0.12,0-0.24-0.121-0.24-0.241S429.312,77.764,429.432,77.764z"/>
                    </g>
                </g>
                <g id="Layer_54">
                    <path id="XMLID_595_" fill="#B6E1E9" d="M428.108,87.275h1.084c0.12,0,0.24,0.12,0.24,0.24l-0.12,1.565
                        c0,0.12-0.12,0.24-0.24,0.24h-1.084c-0.12,0-0.24-0.12-0.24-0.24l0.12-1.565C427.868,87.395,427.988,87.275,428.108,87.275z"/>
                    <g id="XMLID_590_">
                        <path id="XMLID_594_" fill="#B6E1E9" d="M428.951,88.839h0.603c0.12,0,0.24,0.12,0.24,0.241c0,0.12-0.12,0.24-0.24,0.24h-0.603
                            c-0.12,0-0.24-0.12-0.24-0.24C428.711,88.959,428.831,88.839,428.951,88.839z"/>
                        <path id="XMLID_593_" fill="#B6E1E9" d="M428.951,88.358h0.603c0.12,0,0.24,0.12,0.24,0.241c0,0.12-0.12,0.24-0.24,0.24h-0.603
                            c-0.12,0-0.24-0.12-0.24-0.24C428.711,88.478,428.831,88.358,428.951,88.358z"/>
                        <path id="XMLID_592_" fill="#B6E1E9" d="M429.072,87.876h0.602c0.12,0,0.24,0.12,0.24,0.24c0,0.121-0.12,0.241-0.24,0.241h-0.602
                            c-0.121,0-0.241-0.12-0.241-0.241C428.831,87.876,428.951,87.876,429.072,87.876z"/>
                        <path id="XMLID_591_" fill="#B6E1E9" d="M429.072,87.275h0.602c0.12,0,0.24,0.12,0.24,0.24s-0.12,0.241-0.24,0.241h-0.602
                            c-0.121,0-0.241-0.121-0.241-0.241S428.951,87.275,429.072,87.275z"/>
                    </g>
                </g>
                <path id="XMLID_603_" fill="#B6E1E9" d="M427.868,87.275l0.723-0.603c0.12-0.12,0.24-0.12,0.36,0c0.121,0.121,0.121,0.241,0,0.361
                    l-0.722,0.602c-0.121,0.121-0.241,0.121-0.361,0C427.748,87.515,427.748,87.395,427.868,87.275z"/>
                <path id="XMLID_604_" fill="#B6E1E9" d="M428.469,77.764h1.084c0.12,0,0.24,0.121,0.24,0.241l-0.12,1.564
                    c0,0.121-0.12,0.241-0.241,0.241h-1.083c-0.12,0-0.241-0.12-0.241-0.241l0.121-1.564C428.229,77.764,428.349,77.764,428.469,77.764
                    z"/>
                <polygon id="XMLID_612_" fill="#B6E1E9" points="428.229,78.366 414.987,92.571 408.126,97.266 409.57,98.71 416.431,94.376
                    429.072,79.449 	"/>
            </g>
            <g id="Woman2ArmLeftSleeve">
                <path id="XMLID_611_" fill="#601A7A" d="M404.755,98.229c0.963-0.481,9.51-6.14,9.51-6.14l1.927,3.371c0,0-7.344,4.936-8.908,5.898
                    C406.44,101.84,403.672,98.71,404.755,98.229z"/>
            </g>
            <g id="Woman2ArmRightSleeve">
                <path id="XMLID_605_" fill="#601A7A" d="M401.264,97.266c1.083-0.12,11.556-0.481,11.556-0.481l0.481,3.49
                    c0,0-9.269,0.843-11.436,0.843C401.143,101.117,400.18,97.506,401.264,97.266z"/>
            </g>
            <g id="Woman2Flag">
                <animateMotion dur="0.5s" repeatCount="1" >
                </animateMotion>
                <path id="XMLID_589_" fill="#B6E1E9" d="M432.442,0l-1.806,38.521c-8.547,9.992-23.474,13.362-35.15,4.093
                    c-11.437-9.028-26.725-4.694-34.429,5.297c-3.37-6.861,2.769-21.788-2.769-32.141c7.824-10.353,23.835-13.001,37.438-5.417
                    C409.45,17.937,423.294,11.436,432.442,0z"/>
            </g>
        </g>
    </g>
    <g class="woman1" fill-opacity="0.0">
        <g transform="rotate(-5, 240, 400)">
            <animateTransform attributeName="transform"
                attributeType="XML"
                type="rotate"
                from="-5 280 400"
                to="5 240 400"
                dur="1.5s"
                repeatCount="1"
                fill="freeze" />
            <animate attributeName="fill-opacity"
                attributeType="XML"
                begin="0.85"
                dur="0.5s"
                fill="freeze"
                repeatCount="1"
                from="0"
                to="1"/>
            <g id="Woman1ArmRight">
                <polygon id="XMLID_453_" fill="#B6E1E9" points="278.96,179.364 282.33,179.123 276.673,170.817 273.783,170.335 273.663,169.854
                    274.506,169.614 273.543,169.252 273.663,168.168 275.469,167.687 277.394,169.011 286.664,179.845 280.043,181.531 	"/>
            </g>
            <g id="Woman1ArmRightSleeve">
                <linearGradient id="XMLID_2_" gradientUnits="userSpaceOnUse" x1="1189.7087" y1="502.0237" x2="1192.1444" y2="506.7669" gradientTransform="matrix(0.4467 -1.1178 1.1178 0.4467 -818.1082 1286.6095)">
                    <stop  offset="0" style="stop-color:#84567E"/>
                    <stop  offset="1" style="stop-color:#63295C"/>
                </linearGradient>
                <path id="XMLID_451_" fill="url(#XMLID_2_)" d="M266.922,179.725l13.482-0.602l0.602,2.648c0,0-10.353,1.806-12.64,1.685
                    C265.959,183.216,266.922,179.725,266.922,179.725z"/>
            </g>
            <g id="Woman1LegRight">
                <g id="XMLID_454_">
                    <path id="XMLID_457_" fill="#B6E1E9" d="M280.284,214.274c1.564,1.806,14.084,19.621,14.084,19.621l-1.926-1.203
                        c-2.047-3.13-5.778-7.103-8.908-9.631c-3.13-2.648-3.731-3.49-4.093-4.213s-1.324-2.89-1.324-2.89L280.284,214.274z"/>
                    <path id="XMLID_456_" fill="#601A7A" d="M291.719,231.608c0,0-0.481,0.481-0.361,0.963c0.843,0.481,2.287,2.167,2.287,2.167
                        l0.241-0.24L291.719,231.608z"/>
                    <polygon id="XMLID_455_" fill="#601A7A" points="294.368,233.895 296.174,232.692 294.007,233.293 		"/>
                </g>
            </g>
            <g id="Woman1LegLeft">
                <g id="XMLID_458_">
                    <path id="XMLID_461_" fill="#B6E1E9" d="M263.07,220.052l3.49-1.324v5.417c-0.481,1.083-20.344,15.408-20.344,15.408l1.084-1.926
                        c3.129-2.167,6.981-6.02,9.51-9.149c2.527-3.13,3.37-3.731,4.093-4.093c0.722-0.361,2.769-1.444,2.769-1.444L263.07,220.052z"/>
                    <path id="XMLID_460_" fill="#601A7A" d="M248.384,236.663c0,0-0.481-0.481-1.083-0.36c-0.482,0.843-2.167,2.407-2.167,2.407
                        l0.24,0.241L248.384,236.663z"/>
                    <polygon id="XMLID_459_" fill="#601A7A" points="246.217,239.433 247.301,241.239 246.698,239.072 		"/>
                </g>
            </g>
            <g id="Woman1Skirt">
                <path id="XMLID_452_" fill="#601A7A" d="M263.43,202.837c-0.602,1.445-2.769,2.408-3.25,6.26
                    c-0.481,3.732,1.926,13.724,1.926,13.724l20.345-7.584c0,0-11.798-10.232-12.399-12.52S263.792,202.115,263.43,202.837z"/>
            </g>
            <g id="Woman1Body">
                <path id="XMLID_449_" fill="#0091D1" d="M266.32,179.725c-0.843,0.12-2.89,0.241-3.732,0.241
                    c-2.527,7.102,5.297,17.334,0.964,23.594c1.324-0.12,5.537-0.361,6.861-0.481c-1.084-1.926-1.204-9.39-0.963-13.121
                    C270.172,189.235,267.042,181.772,266.32,179.725z"/>
                <polygon id="XMLID_448_" fill="#FFFFFF" points="265.718,179.725 268.006,187.309 263.43,179.966 	"/>
                <path id="XMLID_447_" fill="#601A7A" d="M262.468,180.086l0.963-0.12l5.177,7.583l-2.287-7.824l0.602-0.12
                    c0,0,2.167,7.102,3.973,7.704c0,1.083-0.481,2.167-1.565,2.527c0,4.094,1.324,11.437,1.565,13.724
                    c-0.963,0.12-7.824,0.602-9.028,0.723c3.25-2.89,1.686-13.604-0.481-18.899C261.625,181.41,262.468,180.086,262.468,180.086z"/>
                <polygon id="XMLID_446_" fill="#0094B3" points="268.607,188.633 263.31,184.66 264.273,183.095 262.709,182.735 262.949,180.206
                    263.07,180.206 262.829,182.614 264.514,182.975 263.43,184.54 	"/>
            </g>
            <g id="Woman1Head">
                <path id="XMLID_481_" fill="#601A7A" d="M259.579,167.928c0.722-0.361,2.407-0.361,3.25,0.843
                    C263.552,169.854,258.495,168.409,259.579,167.928z"/>
                <g id="XMLID_479_">
                    <path id="XMLID_480_" fill="#FFFFFF" d="M262.347,175.993c-4.213,0.24-5.658-3.491-4.694-5.417
                        c0.481-0.963,0.963-2.528,1.806-2.648c1.444-0.241,5.537,1.926,5.537,1.926l-0.602,0.481c0,0,1.203,1.444,1.323,2.528
                        c0.121,1.926-1.203,3.37-0.602,6.62c0.361,1.686-1.083,1.565-1.324,0.361C263.43,176.956,262.829,176.475,262.347,175.993z"/>
                </g>
                <g id="XMLID_476_">
                    <circle id="XMLID_478_" fill="#601A7A" cx="262.468" cy="169.613" r="0.361"/>
                    <circle id="XMLID_477_" fill="#601A7A" cx="261.625" cy="170.215" r="0.361"/>
                </g>
                <path id="XMLID_475_" fill="#601A7A" d="M262.347,175.993c-2.769,0-3.731-1.806-2.287-1.806c0.361-2.408,0.963-5.898-0.602-6.38
                    c-2.288-0.723-4.695,1.685-4.575,4.213C255.005,175.512,259.819,177.197,262.347,175.993z"/>
                <path id="XMLID_474_" fill="#601A7A" d="M256.088,173.947c0.12-0.963,0.843-3.491-1.204-4.093c-1.203-0.24-2.407,0.12-2.166,1.444
                    C252.958,172.984,254.884,174.669,256.088,173.947z"/>
            </g>
            <g id="Woman1Bag">
                <g id="XMLID_467_">
                    <path id="XMLID_468_" fill="#601A7A" d="M233.337,200.31l0.12-0.481l1.686,0.602c0.12,0,0.12,0,0.12,0l0.12-0.12l1.204-3.611
                        c0-0.121,0-0.241-0.121-0.361l-1.685-0.602l0.12-0.482l1.686,0.603c0.361,0.12,0.602,0.602,0.481,0.963l-1.204,3.611
                        c0,0.241-0.24,0.361-0.361,0.481c-0.24,0.12-0.36,0.12-0.602,0.12L233.337,200.31L233.337,200.31z"/>
                </g>
                <g id="XMLID_463_">
                    <path id="XMLID_464_" fill="#601A7A" d="M229.966,190.319c-0.602-0.121-1.204,0.12-1.324,0.722l-2.889,9.148
                        c-0.121,0.603,0.12,1.204,0.722,1.324l6.02,1.927c0.602,0.12,1.203-0.121,1.324-0.723l2.889-9.148
                        c0.12-0.603-0.12-1.204-0.723-1.324L229.966,190.319z"/>
                </g>
            </g>
            <g id="Woman1ArmLeft">
                <polygon id="XMLID_462_" fill="#B6E1E9" points="235.262,199.226 235.744,197.42 236.948,197.18 239.475,197.781 252.235,191.04
                    254.643,188.753 256.208,189.957 253.078,193.087 239.114,199.707 235.744,201.273 235.503,200.791 236.707,199.828 	"/>
            </g>
            <g id="Woman1ArmLeftSleeve">
                <path id="XMLID_450_" fill="#601A7A" d="M262.468,179.966c-1.083-0.241-10.353,9.87-10.353,9.87l2.408,2.528
                    c0,0,6.38-6.26,6.861-6.981C261.746,184.781,263.552,180.206,262.468,179.966z"/>
            </g>
        </g>
    </g>
</svg>