<?xml version="1.0" encoding="utf-8"?>
<!-- Generator: Adobe Illustrator 18.0.0, SVG Export Plug-In . SVG Version: 6.00 Build 0)  -->
<!DOCTYPE svg PUBLIC "-//W3C//DTD SVG 1.1//EN" "http://www.w3.org/Graphics/SVG/1.1/DTD/svg11.dtd">
<svg version="1.1" id="Layer_1" xmlns="http://www.w3.org/2000/svg" xmlns:xlink="http://www.w3.org/1999/xlink" x="0px" y="0px"
	 viewBox="0 0 1600 1000" enable-background="new 0 0 1600 1000" xml:space="preserve">
<path id="gapfiller" fill="#0D1272" d="M958,475.3c0,23.9-10.1,50.3-44,46.3c-63-7.5-79.5-22.4-79.5-46.3s30.9-45.8,65-45.8
	S958,451.4,958,475.3z"/>
<g>
	<g>
		<g>
			<path fill="#0D1272" d="M1042.6,212.6c-13.3-57.9-83.6-38.5-72.4,11.5c27.4,120.3,2.4,217.5-78.4,204.3L878.5,490
				C1041.7,560.8,1074.1,351.2,1042.6,212.6z"/>
		</g>
	</g>
	<g>
		<g>
			<path fill="#0D1272" d="M1323.3,631.8c0-24-24.5-77.5-133.1-77.5c-261.9,0-400.1,54.8-248.3,371.2c6.6-0.3,25.5-0.8,33.4-1
				C866.9,564.3,1140,682.3,1254,675.4C1300.9,672.4,1323.3,655.8,1323.3,631.8z"/>
		</g>
		<g>
			<path fill="#0091D1" d="M945.2,937.5c-2.8,5.6-21.4,11.7-29.3,7.1c-8.2-4.6-19.9,5.1-5.6,13.8c14,8.7,39.5,4.6,45.6-3.3
				c0,3.1,0,6.6,0,6.6l24.5,0.3l-2.3-24.5H945.2z"/>
		</g>
		<g>
			<g>
				<g>
					<path fill="#192782" d="M1323.3,631.8c0-24-45.9-77.5-133.1-77.5c-267.5,0-417.6,56.9-302.4,371.2c6.6-0.3,25.5-0.8,33.4-1
						C804,571.1,1175.2,680,1254,675.2C1300.9,672.4,1323.3,655.8,1323.3,631.8z"/>
				</g>
				<path fill="#0091D1" d="M888.3,937.5c-2.8,5.6-21.4,11.7-29.3,7.1c-8.2-4.6-19.9,5.1-5.6,13.8c14,8.7,39.5,4.6,45.6-3.3
					c0,3.1,0,6.6,0,6.6l24.5,0.3l-2.3-24.5H888.3z"/>
			</g>
			<g>

				<animateTransform
                             attributeName="transform"
                             type="rotate"
                             from="0"
                             to="0.8 0 0"
                             dur="1s"
                             begin="2.3s"
                             repeatCount="1"/>

                             <animateTransform
                                                          attributeName="transform"
                                                          type="rotate"
                                                          from="0.8 0 0"
                                                          to="0"
                                                          dur="0.6s"
                                                          begin="3.3s"
                                                          repeatCount="1"/>

				<g>
					<path fill="#B6E1E9" d="M950.8,90.8c-7.9-15-31.4-39-57.1-30.6c-22.7,7.4-34.9,18.4-37,37.5c-2,19.1-2.5,35.2-2.5,35.2
						l12.2-4.1c0,0,1.3,6.9,2,9.7s3.1,3.3,6.4,3.3c-2,1.3-3.8,3.6-3.1,6.6c0.8,4.1,3.6,5.4,4.6,6.6c25.5,32.6,66.3,53.5,94.1,69.1
						l66.5-71.4C998.5,152.7,968.4,124.9,950.8,90.8z"/>
				</g>
				<g>
					<path fill="#0071BC" d="M866.9,102.5c0,3.1,2.5,5.4,5.4,5.1c3.1,0,5.4-2.5,5.1-5.4c0-3.1-2.5-5.4-5.4-5.1
						C869,97.4,866.7,99.7,866.9,102.5z"/>
					<path fill="#0071BC" d="M878.4,98.9c0,3.1,2.5,5.4,5.4,5.1c2.8,0,5.4-2.5,5.1-5.4c0-3.1-2.5-5.4-5.4-5.1
						C880.7,93.6,878.4,95.9,878.4,98.9z"/>
					<path fill="#0071BC" d="M927.6,54.8c-4.3-10.7-19.4-14.8-29.1-8.2s-20.1,7.1-21.2,1.5c-6.4,10.7,1.5,24.2,12.5,26.8
						c11,2.5,34.4-5.4,38.5-7.1c0,6.4,16.1,25.2,22.2,22.9C956.9,77.3,944.4,50,927.6,54.8z"/>
				</g>
			</g>

			<g id = "body">
			<path fill="#192782" d="M1036.7,152.7c-26,28-43.1,46.4-66.5,71.4c102.8,59.4,145.1,173.9,117,370.7c81.6,16.1,176.2,37,236.1,37
				C1367.4,396.7,1301.7,155,1036.7,152.7z"/>

				<animateTransform
                             attributeName="transform"
                             type="rotate"
                             from="0"
                             to="0.8 0 0"
                             dur="1s"
                             begin="2.3s"
                             repeatCount="1"/>

                             <animateTransform
                                                          attributeName="transform"
                                                          type="rotate"
                                                          from="0.8 0 0"
                                                          to="0"
                                                          dur="0.6s"
                                                          begin="3.3s"
                                                          repeatCount="1"/>
				</g>


<g>
<animateTransform
                             attributeName="transform"
                             type="rotate"
                             from="0"
                             to="0.8 0 0"
                             dur="1s"
                             begin="2.3s"
                             repeatCount="1"/>

                             <animateTransform
                                                          attributeName="transform"
                                                          type="rotate"
                                                          from="0.8 0 0"
                                                          to="0"
                                                          dur="0.6s"
                                                          begin="3.3s"
                                                          repeatCount="1"/>

			<path fill="#0071BC" d="M1006.1,219.8c-1.8,1.5-4.6,3.8-6.4,5.4c12.5,40.8,5.9,199.4-8.4,290.2c8.2,10.2,21.7,41.3,21.7,41.3
				l30.9-38.8C1042.1,432.2,1036.7,264.2,1006.1,219.8z"/>
			<polygon fill="#0071BC" points="994.7,197.9 984.2,209.1 993.4,230.2 1013,214.2 			"/>
			</g>
		</g>
		<g>

		<animateTransform
                     attributeName="transform"
                     type="rotate"
                     from="0"
                     to="0 0 0"
                     dur="1s"
                     begin="2.3s"
                     repeatCount="1"/>
			<path fill="#0D1272" d="M1127,226.9c-13.3-57.9-83.6-38.5-72.4,11.5c31.5,138.1-6.7,250.7-167.3,223.3l-11.7,53.4
				C1107.5,574.8,1160.2,372.6,1127,226.9z"/>
		</g>
	</g>
	<path fill="#0071BC" d="M1384.5,698.9c0,19.4-15.8,35.2-35.2,35.2h-287.1c-19.4,0-35.2-15.8-35.2-35.2l0,0
		c0-19.4,15.8-35.2,35.2-35.2h287.4C1369,663.7,1384.5,679.5,1384.5,698.9L1384.5,698.9z"/>
	<rect x="1167.3" y="734.1" fill="#0071BC" width="60.2" height="41.6"/>
	<rect x="1183.1" y="775.6" fill="#B6E1E9" width="28.6" height="114"/>
	<g>
		<rect x="1025" y="886.8" fill="#B6E1E9" width="18.9" height="36.2"/>
		<rect x="1188.4" y="886.8" fill="#B6E1E9" width="18.9" height="36.2"/>
		<polygon fill="#B6E1E9" points="1183.1,889.6 1043.9,904.9 1043.9,886.8 1183.1,862.6 		"/>
		<circle fill="#0071BC" cx="1034.4" cy="944.9" r="19.1"/>
		<circle fill="#0071BC" cx="1197.9" cy="944.9" r="19.1"/>
	</g>
	<g>
		<rect x="1350.9" y="886.8" fill="#B6E1E9" width="18.9" height="36.2"/>
		<polygon fill="#B6E1E9" points="1211.7,889.6 1350.9,904.9 1350.9,886.8 1211.7,862.6 		"/>
		<circle fill="#0071BC" cx="1360.3" cy="944.9" r="19.1"/>
	</g>
</g>
<line fill="none" stroke="#CCCCCC" stroke-miterlimit="10" x1="73.2" y1="965.3" x2="1526.5" y2="965.3"/>
<g id="Hand_right">
 <!--animateTransform
         attributeName="transform"
         type="rotate"
         from="0 900 280"
         to="-35 900 280"
         dur="0.3s"
         begin="2.4s"
         repeatCount="4"
          /-->

           <animateTransform
                    attributeName="transform"
                    type="rotate"
                    from="0 900 300"
                    to="-30 900 300"
                    dur="0.3s"
                    begin="2s"
                    repeatCount="4"
                     />
	<path fill="#B6E1E9" d="M707.9,332.9c-13.6-12.1-43-1.5-53.3,5.2s-2.5,19.5,6.2,14.7s23.5-12.5,33.1-4.8
		C702.3,354.8,718.9,342.8,707.9,332.9z"/>
	<path fill="#B6E1E9" d="M717.7,342.7c-15.4-9.6-42.7,6.1-51.8,14.6c-9.1,8.4,1.1,19.6,8.6,13.4c7.8-6.2,20.8-16.3,31.7-10.6
		C716,365.4,730.3,350.5,717.7,342.7z"/>
	<g>
		<path fill="#B6E1E9" d="M745.2,357.6L724.8,395c0,0-10.1-5.8-24.4-14.8c-14-9-9.7-33.1-12.6-43.5c-2.9-10.5-22.9-8.3-32.8-6.7
			s-13-13.2-0.9-15.8c12-2.8,43.3-2.9,52.2,13.1C715.1,342.9,729.2,347.6,745.2,357.6z"/>
		<path fill="#B6E1E9" d="M730,378.8c0.5,2.3,0.2,4.3-1.1,6.3c-1.3,1.9-3,3.1-5.2,3.6l-29.8,6.8c-4.5,1-8.9-1.6-9.9-6.1
			c-1-4.5,1.6-8.9,6.1-9.9l29.8-6.8C724.4,371.7,729,374.5,730,378.8z"/>
	</g>
	<path fill="#0D1272" d="M745.1,357.4l-20.3,37.3c65.9,52.9,119.4,83.2,162.4,96.6l4.9-62.9C856.7,426.6,808.2,405.2,745.1,357.4z"
		/>
</g>
<g id="Hand_left">
<animateTransform
         attributeName="transform"
         type="rotate"
         from="0 900 400"
         to="-10 900 400"
         dur="0.2s"
         begin="2.3s"
         repeatCount="5"
          />
	<g>
		<path fill="#B6E1E9" d="M730.7,435c0.5,2,0.2,4.3-1,6.1c-1,1.8-3.1,3.3-5.1,3.8l-29.6,7.3c-4.3,1-8.9-1.6-9.9-6.1
			c-0.5-2-0.2-4.3,1-6.1c1-1.8,3.1-3.3,5.1-3.8l29.6-7.3C725.1,427.9,729.7,430.4,730.7,435z"/>
		<path fill="#B6E1E9" d="M745.5,413.4l-19.7,37.4c0,0-10.2-5.9-24.4-14.6s-10.1-32.9-13.1-43.4c-3-10.5-22.9-8-32.9-6.2
			c-9.7,1.8-13-13-1.2-15.8c12-3,43.4-3.4,52.2,12.4C715.5,399,729.5,403.7,745.5,413.4z"/>
		<path fill="#B6E1E9" d="M708.1,389.3c-13.7-12-43.1-0.9-53.3,6c-10.2,6.9-2.1,19.6,6.3,14.6c8.7-4.8,23.2-12.7,32.9-5.3
			C702.7,411.2,719.3,399.1,708.1,389.3z"/>
		<path fill="#B6E1E9" d="M718,399.1c-15.5-9.5-42.6,6.8-51.5,15.1c-8.9,8.4,1.2,19.6,8.9,13.3c7.7-6.4,20.7-16.5,31.6-10.9
			C716.4,421.5,730.8,406.7,718,399.1z"/>
	</g>
	<path fill="#0D1272" d="M745.5,413.4l-19.7,37.4c57.7,32.7,108.3,53.6,152.3,65.1l10.3-54.2C848.6,454.8,801.3,439.3,745.5,413.4z"
		/>
</g>
<rect x="254" y="484.2" fill="#B6E1E9" width="523.5" height="28.6"/>
<rect x="556.8" y="448.7" fill="#0D1272" width="19.1" height="36.2"/>
<rect x="543.6" y="447.9" transform="matrix(-0.9839 -0.1785 0.1785 -0.9839 1166.8975 1021.783)" fill="#601A7A" width="171.6" height="20.9"/>
<rect x="301.9" y="499.7" fill="#B6E1E9" width="46.4" height="464.3"/>
<g>
	<rect x="475.5" y="45.9" fill="#601A7A" width="35.7" height="336.1"/>
	<path fill="#0D1272" d="M454.9,72.9c0,34.9,0,241.2,0,281.7l20.7,27.3c0-35.4,0-300.4,0-336.1L454.9,72.9z"/>
	<polygon fill="#0D1272" points="513.8,484.2 351.6,484.2 411.5,253.9 454.9,253.9 454.9,275.4 428.1,275.4 379.4,462.5 
		513.8,462.5 	"/>
</g>
</svg>