<?xml version="1.0" encoding="utf-8"?>
<!-- Generator: Adobe Illustrator 19.0.0, SVG Export Plug-In . SVG Version: 6.00 Build 0)  -->
<svg version="1.1" 
     xmlns="http://www.w3.org/2000/svg" 
     xmlns:xlink="http://www.w3.org/1999/xlink" 
     x="0px" y="0px"
	 viewBox="-21 638.6 916 607.4" style="enable-background:new -21 638.6 916 607.4;">
<style type="text/css">
	.st0{fill:#0091D1;}
	.st1{fill:#FFFFFF;}
	.st2{fill:#B6E1E9;}
	.st3{fill:#0D1272;}
	.st4{fill:url(#XMLID_3_);}
</style>
<g id="Cape" transform="translate(-10,-110)">
    <animateMotion dur="1s" repeatCount="indefinite" >
        <mpath xlink:href="#theMotionPath"/>
    </animateMotion>
        <path d="M10,110 A120,120 -59 0,1 13 120 A120,120 -45 0,1 10,110" fill="none" id="theMotionPath"/>
	<g>
		<g>
			<path id="XMLID_144_" class="st0" d="M760,902.8c72,274.2-400.2,307.4-453.2,333.9c15.9-33.3,38-105.7-79.7-125.1
				c-117.7-19.4-136.8-57.3-126.7-106.2c10.1-48.9,0-84.4-27.2-102.7c-32.2,6.1-68,21-94.1,29.5c24.7-47.9,88.1-95.9,214.8-63.1
				c129.4,33.6,259.2-33,283-62.2c41.2,0,195.3,0,235.8,0C729,825.2,749.6,863.2,760,902.8z">            
            </path>
			<path id="XMLID_143_" class="st1" d="M193.8,869.2c54.2,14.1,108.6,10.5,155.1-0.5c-8.6,6.5-18.1,11.6-28.6,14.7
				c-74,21.9-154.7-1.7-204.5-4.1C66,876.9,1.3,909.6-21,932.3C3.7,884.4,67.1,836.4,193.8,869.2z"/>
		</g>
		<path id="XMLID_142_" class="st1" d="M324,1230.9c100.7-35.8,315.1-87.1,380.7-151.1c95.2-92.8,31.7-207.1,11.1-269l0,0
			c15.8,19.3,34.4,55,44.2,92C826.9,1157.5,424,1204.3,324,1230.9z"/>
	</g>
</g>
<g id="Leg-Left">
	<g>
		<path id="XMLID_133_" class="st2" d="M599.3,1159.4c-0.2,10.1-11.4,78.9-15.1,86.6c-14.4,0-100.2,0-116.7,0
			c3.7-34.2,25-125.9,41.9-145C526.4,1081.9,599.6,1141.6,599.3,1159.4z"/>
		<path id="XMLID_132_" class="st1" d="M496.2,1246c-13.1,0-23.9,0-28.7,0c3.7-34.2,25-125.9,41.9-145c5.3-5.9,15.9-4.3,28.1,1.4
			c-1.3,3.2-2.7,6.4-4.3,9.6C517.2,1145.4,500.3,1215.4,496.2,1246z"/>
		<path id="XMLID_104_" class="st1" d="M564,1177.2c-0.6,16.7-5.4,46.9-10.4,68.8c-6.5,0-13.6,0-20.8,0
			C541.7,1228.4,559.1,1192.9,564,1177.2z"/>
	</g>
</g>
<g id="Leg-Right">
	<g>
		<path id="XMLID_141_" class="st2" d="M599.3,1159.4c0.2,10.1,11.4,78.9,15.1,86.6c14.4,0,101.6,0,118,0
			c-3.7-34.2-23.4-123.5-40.4-142.6C675.1,1084.3,599,1141.6,599.3,1159.4z"/>
		<path id="XMLID_139_" class="st1" d="M665.3,1103.3c11.7-4.6,21.7-5.5,26.7,0c17,19.1,36.7,108.4,40.4,142.6c-3.1,0-8.8,0-16.1,0
			c-8.5-46-32.9-101.4-49.3-132L665.3,1103.3z"/>
		<path id="XMLID_8_" class="st1" d="M644.6,1187.9c5.8,21.7,11.9,43.7,18.6,58.1c-5.2,0-10.3,0-15.1,0
			C645.5,1229.2,642.5,1204.6,644.6,1187.9z"/>
	</g>
</g>
<g id="Body">
	<g>
		<g>
			<g>
				<path id="XMLID_94_" class="st2" d="M340.1,863.7c3.8-7.2,17.9-25.4,30.8-29.4c13-4,30-2.5,42.2-1.1
					c6.9-11.2,21.5-24.3,31.1-26.8c12.9-3.4,32.7-2.4,51.4,0c24.4,3.1,68.4,8.4,100.6,8.4c32.2,0,92.8-9,105.5-11.7
					c30.6-6.6,60.1,3.3,81.5,33.2c20.1-4,34.2-3.4,42.9,1.3c8.7,4.7,36.3,32.5,41,53.2c3.7,16.5-19.2,34.3-49.7,31.3s-52-5-62-6.7
					c-9.7,16.8-33.5,47.3-57.7,63.7c-6,34.9-14.1,77.4-16.4,93.5c-2.3,16.1-158.6,15.1-161.6-2s-12.4-69.1-16.1-88.2
					c-21.8-19.8-54.3-54.6-67.7-76.7C405.7,905.7,326.2,890.2,340.1,863.7z"/>
				<path id="XMLID_93_" class="st1" d="M436,905.6h16.8c0,0,43.9,54.7,67.9,56.7c2.7,4.7,8.6,13.8,8.6,13.8l-19,3.6
					c0,0,22.8,87.6,31.9,100c-13-2.2-21.7-5.3-22.4-9.2c-3-17.1-12.4-69.1-16.1-88.2C481.9,962.5,449.4,927.7,436,905.6
					c-0.5,0-1,0-1.6,0l0,0H436z"/>
				<path id="XMLID_92_" class="st1" d="M665.9,1019.6c0,0,0.8,7.4,3.3,17.4c10.5-16.1,12.6-65,12.6-65l2-3.4c0,0,3.7,2.1,9,3.4
					c8-5.4,27.5-44.9,30.8-61.4H780l-4.7,7.3c-8.7-0.9-15.4-1.7-19.9-2.5c-9.7,16.8-33.5,47.3-57.7,63.7
					c-6,34.9-14.1,77.4-16.4,93.5c-0.5,3.6-8.8,6.3-21.3,8.2c0-0.1,0-0.2,0-0.2C660.1,1073.9,665.9,1019.6,665.9,1019.6z"/>
				<path id="XMLID_91_" class="st1" d="M797.5,847.9c-9.1-2.1-43.8-1.7-52.7,0c3.7-2.4,8.7-5.7,14.1-8.4
					c-22.2-30-47.9-33.8-84.5-31.9l0,0c12.8-1.8,23-3.5,27.4-4.5c30.6-6.6,60.1,3.3,81.5,33.2c20.1-4,34.2-3.4,42.9,1.3
					s36.3,32.5,41,53.2c1.9,8.3-3,16.9-12.1,23c-3.3-11.1-22.4-23.7-25.9-34.2C823.1,861.5,807.3,850.2,797.5,847.9z"/>
				<path id="XMLID_90_" class="st1" d="M340.1,863.7c3.8-7.2,17.9-25.4,30.8-29.4c13-4,30-2.5,42.2-1.1
					c6.9-11.2,21.5-24.3,31.1-26.8c12.9-3.4,32.7-2.4,51.4,0c1.4,0.2,13,4.7,14.6,4.8c-17.8-2-68.1-6.6-85.8,24.6
					c6.8,2,11.6,3.7,14.4,4.9c-13.2-1.8-45.1-3.9-53.8-3.2c-8.7,0.7-26.7,5.9-38.2,30.9C344.6,873.3,336.5,870.6,340.1,863.7z"/>
				<path id="XMLID_89_" class="st1" d="M522.8,997.2c2.2,17,13.2,24.8,30.2,21.5C542.2,1015.7,529.2,1008.3,522.8,997.2z"/>
				<path id="XMLID_88_" class="st1" d="M532.9,1027.4c1.3,13.7,11.9,19.4,29,15.8C551.3,1041.5,538.7,1036.1,532.9,1027.4z"/>
			</g>
			<path id="XMLID_87_" class="st0" d="M611.7,818.4l44.3-29.2l11.1-1.7l4.7,6l13.7,1l11.5,9.4C683.9,810.7,639.9,818.4,611.7,818.4
				z"/>
			<polygon id="XMLID_86_" class="st1" points="667,787.5 656,789.2 628.7,810.8 			"/>
			<path id="XMLID_85_" class="st1" d="M671.7,793.6l13.7,1c0,0-35.2,14.9-51.3,18.4C646.5,808.5,671.7,793.6,671.7,793.6z"/>
			<path id="XMLID_84_" class="st0" d="M581.3,818.4L516,789.2l-13.6-1.7l-5.7,6.4l-13.9,1.3l-8.9,9.2
				C494.9,810.8,543.8,818.4,581.3,818.4z"/>
			<path id="XMLID_83_" class="st1" d="M516,789.2c0,0,33.9,17.3,45.6,22c-14.2-4.2-52.5-19-59.2-23.7
				C508.2,788.3,516,789.2,516,789.2z"/>
			<path id="XMLID_82_" class="st1" d="M496.7,793.9l-13.9,1.3c13.5,5.9,50,13.8,64.6,16C534.3,808.1,503.4,796.9,496.7,793.9z"/>
		</g>
		<path id="XMLID_81_" class="st1" d="M447.4,864.3c-4.5,6.1-26.2,17.8-26.2,17.8l17.9,2.4C439.2,884.4,446.8,872.5,447.4,864.3z"/>
	</g>
</g>
  <g transform="translate(590,0)" >  
            <animateTransform attributeName="transform"
                      type="translate"
                      from="590 0" to="0 0"
                      begin="1s" dur="1s"
                      fill="freeze"
            />  
      
<g id="Body-Inner" transform="scale(0.01,1)">
      <animateTransform attributeName="transform"
                      type="scale"
                      from="0.01 1" to="1 1"
                      begin="1s" dur="1s"
                      fill="freeze"
            />   

     <g id="logot">
		<path id="XMLID_106_" class="st1" d="M615.7,824.2c17,5.6,75.5,34.1,82.3,40.6c6.7,6.5-4.3,5-11.9,0.8
			C678.5,861.5,630.5,830.9,615.7,824.2z" stroke-width="9"/>
		<g>
			<path id="XMLID_54_" class="st1" d="M550,827.3c-12.3,9.8-43.4,31.1-49,37.7c-5.6,6.6-13.2,2.8-4.4-4.1
				C505.3,853.9,535.3,835.4,550,827.3z" stroke-width="9"/>
			<g>
				<path id="XMLID_111_" class="st1" d="M593.9,821.1c25.5,4.7,88.8,48.9,94.2,56.7c5.4,7.8,4,37.6,2.7,44.2
					c-1.3,6.6-60.7,116.4-87.8,148.4c-32.2-34.8-96.2-143.7-100.2-153.9s-3.3-39.3,1.7-47C513.1,856.2,568.1,829.3,593.9,821.1z" stroke-width="9"/>
				<path id="XMLID_108_" class="st3" d="M643.7,830.9c13.6,6.9,59.4,29.1,65.9,39.6s5.6,31.5-0.4,44.8s-49.8,94.7-70.9,120.6
					c23.5-24.8,68.8-107.5,74.3-120.6c5.5-13.1,10.2-34.5,0.6-46.4C703.6,857.1,660.3,837.4,643.7,830.9z"/>
				<path id="XMLID_105_" class="st3" d="M615.7,824.2c21.7,9.9,70.9,43.3,74.9,51.9c4,8.6,8.3,32.4,6,42.1
					c-2.2,9.8-65.7,125.1-84.9,145.7c21.7-19.8,86.3-129.1,89-145.7c2.7-16.5,6.5-32.6,1.8-43.2
					C697.8,864.3,639.9,833.6,615.7,824.2z"/>
				<path id="XMLID_61_" class="st3" d="M550,827.3c-10.5,7.6-53.4,31.9-55.7,40.7c-2.2,8.8,0.7,45.4,1.6,50.2
					c0.9,4.8,61,99.3,85.4,132.4c-25.7-31.8-89.4-123.4-92.8-132.4c-3.4-9-7.8-46.9-5.7-52.6C484.8,859.9,534.2,833.3,550,827.3z"/>
				<path id="XMLID_5_" class="st3" d="M593.9,821.1l22.6,22.5l8.4-9.4c1.8,1,3.6,2,5.5,3.1c-2.5,2.7-9.8,10.6-13.2,15.4
					C612.5,845.5,593.9,821.1,593.9,821.1z"/>
				<path id="XMLID_4_" class="st3" d="M557.3,836.2c1.9-0.9,3.8-1.8,5.7-2.7l8.3,10.1l22.6-22.5c0,0-18.5,24.5-23.3,31.5
					C567.4,848.1,560.4,839.8,557.3,836.2z"/>

					<linearGradient id="XMLID_3_" gradientUnits="userSpaceOnUse" x1="565.6028" y1="-372.2101" x2="633.8028" y2="-372.2101" gradientTransform="matrix(1 0 0 -1 0 561.2)">
					<stop  offset="0" style="stop-color:#0E1770"/>
					<stop  offset="1" style="stop-color:#1792CF"/>
				</linearGradient>

			</g>
		</g>

	</g>
</g>
    </g>
<g id="Logo" opacity = "0"><animate attributeName="opacity" from="0" to="1" dur="0.05s" fill="freeze" begin="1.22s"/><path id="XMLID_1_" class="st4" d="M619.6,917c1.5-1.4,4.8-4.6,7.8-7.5c0.5-0.5,1.2-0.9,1.8-0.9c2.2-0.2,4.5,2,4.5,2s-3.4-6.2-8.5-7.2c-2.4-0.4-5.2,0.7-8.2,3.4c-3.5,2.9-10.3,5.4-12,6.1c-0.9,0.4-39.5,12-39.5,12l30.9,0.3l-26.6,38.3l44.8-36.3l-11,3.2C603.7,930.4,618.7,917.9,619.6,917z"/></g>
<g id="Underwear">
	<g>
		<path id="XMLID_60_" class="st0" d="M681.1,1072.5c4.7,8.4,9.4,24.5,10.9,30.8c-17.3,4-69.1,33.9-92.7,56
			c-24.3-25.5-75.8-54.7-89.9-58.3c1.3-8.4,5-23.5,10.1-30.5C548,1077.9,653,1078.6,681.1,1072.5z"/>
		<path id="XMLID_59_" class="st1" d="M660.4,1075.1L660.4,1075.1c8.7-0.6,15.9-1.5,20.8-2.5c4.7,8.4,9.4,24.5,10.9,30.8
			c-5.5,1.3-14.5,5.2-25,10.6l0,0L660.4,1075.1z"/>
		<path id="XMLID_58_" class="st1" d="M519.5,1070.5c4.5,1.2,11,2.2,18.8,3l0.7,0.4l-5.8,38c-10.5-5.7-19.2-9.7-23.8-10.9
			C510.8,1092.6,514.5,1077.6,519.5,1070.5z"/>
	</g>
</g>
<g id="Head">
	<g>
		<path id="XMLID_131_" class="st1" d="M636,778.6c0,0,24.1,16.2,29.6,21.9c-15.7,8.9-35.6,18-73.4,18s-64-7.9-77.4-14.9
			c11-13.6,26.4-24.5,31.3-26.5C551,775,625.9,771.6,636,778.6z"/>
		<path id="XMLID_130_" class="st1" d="M575.2,818.4c11.7,0,27.7,0,38.9,0s26.9-13.8,26.9-13.8l-14.6-63.4h-69.2l-16.6,62.3
			C540.6,803.5,557.2,818.4,575.2,818.4z"/>
		<path id="XMLID_129_" class="st3" d="M575.2,818.4c-18,0-34.6-14.9-34.6-14.9l16.6-62.3h68.4l2.2,31.4l-9.3,45.2
			c-1.5,0.4-2.9,0.6-4.3,0.6C602.9,818.4,586.9,818.4,575.2,818.4z"/>
		<path id="XMLID_128_" class="st1" d="M618.9,777.8l-15.8,40.6c-3.6,0-7.3,0-10.9,0l4-36L618.9,777.8z"/>
		<path id="XMLID_127_" class="st1" d="M570.7,818.1l-12.4-40.3l23,40.6c-2.1,0-4.2,0-6.1,0C573.7,818.4,572.2,818.3,570.7,818.1z"
			/>
		<path id="XMLID_126_" class="st1" d="M624.8,666.2l7.9,32.5l-4,59.5c0,0-12.5,19.5-17,21.6c-4.5,2-39.7,2.3-44,0
			c-4.2-2.3-14.4-22.7-14.4-22.7l-5.2-56.6c0,0,4.5-24.7,7.9-35.6C573.4,662.7,607.6,663.1,624.8,666.2z"/>
		<path id="XMLID_125_" class="st3" d="M550.9,705.6c0,0-3.2-7.5-6.1-7.8c-2.9-0.3-3.7,4.3-3.7,4.3l1.6,17.8c0,0,7.4,10,8.9,11
			C553,732,550.9,705.6,550.9,705.6z"/>
		<path id="XMLID_124_" class="st1" d="M630.8,705.6c0,0,3.2-7.5,6.1-7.8c2.9-0.3,3.7,4.3,3.7,4.3l-1.6,17.8c0,0-7.4,10-8.9,11
			C628.6,732,630.8,705.6,630.8,705.6z"/>
		<path id="XMLID_123_" class="st3" d="M611.8,779.7c-4.5,2-39.7,2.3-44,0c-4.2-2.3-14.4-22.7-14.4-22.7l-5.2-56.6
			c0,0,4.5-24.7,7.9-35.6c8.6-1,21.5-1.4,34.4-1.2l3.1,38.9l27.9-6.2l5.3,11l-31,4.3h-4.4l-2,18.3l1.6,14.3l-7.5,0.6l-2.7,3.6
			l4.2,6.3l7.2,0.2l6.5-0.6l1.9,3.4l-8.7,0.6l-4.6,3.1l-2.1,9.4l0.6,5.7H606l8.3-1.7l7.4-6.5l0,0C618.2,773.5,614,778.7,611.8,779.7
			z"/>
		<path id="XMLID_122_" class="st3" d="M608.7,743.8l1.2,0.4l2,4.5l-0.9,2.5l-1.5-2.1c0,0-13-2.3-19.4-2.4c-7-0.1-14.2,0.4-17.9,0.2
			c-1.8,1-4.5,2-4.5,2l-1.5-2.8l3.9-2.4l1.1,1L591,744l18.3,3L608.7,743.8z"/>
		<polygon id="XMLID_121_" class="st3" points="587.4,704.9 585.7,730.4 589.5,732.7 596.1,732.7 593.5,736.5 587.4,738
			581.8,732.5 		"/>
		<polygon id="XMLID_120_" class="st3" points="585.2,718.1 560.8,719.3 553.9,712.9 555.4,707.2 563.6,703.8 586.4,709.3
			586.4,712.9 		"/>
		<polygon id="XMLID_119_" class="st1" points="597.1,718.1 621.5,719.3 628.3,712.9 626.8,707.2 618.6,703.8 595.8,709.3
			595.8,712.9 		"/>
		<path id="XMLID_118_" class="st1" d="M560.7,725c4.4,14.4,7.1,43.8,6.5,53.8c0,0.2,0,0.3,0,0.5c-0.8-0.6-1.7-1.7-2.7-3
			c0-0.3,0-0.5,0-0.8C564.8,768.3,563.2,739.8,560.7,725z"/>
		<path id="XMLID_117_" class="st3" d="M619,725c-2.5,14.8-4.1,43.3-3.8,50.5c0,0.5,0,0.9,0,1.4c-1,1.1-1.9,2-2.7,2.5
			c0-0.2,0-0.3,0-0.5C611.9,768.8,614.6,739.4,619,725z"/>
		<polygon id="XMLID_116_" class="st1" points="580.6,717.5 559.7,717.5 572.1,739.8 575.6,738.4 		"/>
		<polygon id="XMLID_115_" class="st1" points="591.5,698.4 592.7,705 590.4,706.3 589.9,704.3 589.9,697.8 		"/>
		<polygon id="XMLID_114_" class="st1" points="587.7,699 587.7,705.1 587.1,705.8 586.1,705.1 586.5,699 		"/>
		<polygon id="XMLID_113_" class="st3" points="629.6,650.9 632.7,698.7 631.5,715.3 629.6,716 629.6,697.8 623.2,674.4
			592.2,677.3 558.5,674.2 550.6,699 550.6,712 549.3,712.4 548.2,700.4 552.1,650.9 579.3,638.6 602.3,638.6 		"/>
		<polygon id="XMLID_112_" class="st1" points="610.2,647.6 608.2,663.8 595.8,670.8 603.1,663.2 604.5,647.2 596.1,641.1
			579.3,638.6 602.3,638.6 629.6,650.9 632,687.1 625,651.4 		"/>
		<polygon id="XMLID_27_" class="st1" points="588.7,784.2 589.8,786.1 590.1,790.9 587.2,790.9 587.6,786.1 		"/>
	</g>
</g>
<g id="Arm-Left" transform="translate(80,0)">
    <animateTransform attributeName="transform"
                      type="translate"
                      from="80 0" to="0 0"
                      begin="1s" dur="1s"
                      fill="freeze"
            />  
	<g>
		<path id="XMLID_32_" class="st2" d="M447,874.3c7.2-6.1,20.1-22.6,22.7-23.6c2.6-0.9,22.7-4.4,25.6-4.1c2.9,0.2,8.6,19.8,8.6,19.8
			L447,874.3z"/>
		<path id="XMLID_31_" class="st1" d="M469.7,850.7c2.6-0.9,22.7-4.4,25.6-4.1c2.9,0.2,8.6,19.8,8.6,19.8l-5.1,0.7
			c-1.7-4.7-4.2-15.6-6.2-15.9c-1.9-0.3-20,2.5-22,2.8c-2,0.3-16.4,15.7-23.3,20.2l-0.4,0.1C454.1,868.1,467.1,851.6,469.7,850.7z"
			/>
		<path class="st2" d="M513.6,877.7c3.9-2.5,4.2-9.6,0.1-12.9c-3.7-3-19.8-10.3-24.7-10.3c-4.9,0-34.1,15-42,19.8
			c-4.7,2.3-17.7,2.3-27.2-1.6c-9.6-3.9-49.3-23.6-69.2-23.5c-19.9,0.2-36.1,22.3-39.6,26.8s-8.1,10.5-9.9,12.1
			c-2.7,2.4-1.8,10.9,2,12.7c3.9,1.8,13.9,14.7,20.9,20c10.9,8.2,29.8,14.4,53.9,10.1c27.1-4.9,52.9-20.5,71.1-17.3
			c0.1,0,0.2,0,0.3,0c6.1,1.9,41.2,8.1,44.7,7.9c3.5-0.2,12.7-2,16.2-3.1c3.5-1.1,5.3-11,1.4-11.9c5.7-2.2,4.8-13,1.8-13.9
			C519.9,891.1,519.9,879,513.6,877.7z"/>
		<path id="XMLID_30_" class="st1" d="M509.2,909.2c-3.2-0.3-9.1,0.9-11.6,1.8c0.5-1.4,1-4,0.8-5.9c2.8,0,9.7,0,12.4,0
			s3.4-10.3,0.5-10.3c-2.8,0-11.6,1.4-13.7,1.5c0.5-2.4,0.6-4.4,0.3-6.6c2.7,0.2,10.3,0.7,14.4,0.7c4.1,0,3.5-9.6-0.3-9.5
			c-3.8,0.2-11.7,1.2-14.5,1.7c0.3-2.6,0.3-5.1,0-7.4c2.6,0.2,11.6,0.7,14.6,0.7c3-0.1,2.7-4.5-1.9-7.7c-5.2-3.6-19.1-8-21.8-8
			c-2.2,0-21.9,6.4-32.9,9c11.8-6.3,29.7-15,33.4-15c4.9,0,21,7.3,24.7,10.3c4.1,3.3,3.8,10.4-0.1,12.9c6.3,1.3,6.3,13.4-0.2,14.9
			c3,0.9,3.9,11.7-1.8,13.9c3.9,0.9,2.1,10.8-1.4,11.9c-0.4,0.1-0.9,0.3-1.4,0.4C511,917.9,512.3,909.5,509.2,909.2z"/>
		<path id="XMLID_29_" class="st1" d="M303.1,900.9c-3.9-1.8-4.7-10.3-2-12.7c1.8-1.6,6.4-7.5,9.9-12.1c3.5-4.5,19.6-26.7,39.6-26.8
			c19.9-0.2,59.7,19.6,69.2,23.5c9.6,3.9,22.5,3.9,27.2,1.6c-6.6,4.3-19.2,4.3-31.5,0c-12.3-4.3-61.3-19.7-75.6-10.4
			c-14.3,9.3-18.1,17.1-19.5,19.6c6.3,0.9,16.8,2.5,23.5,3.1c-7.6,0.2-24.8,1.9-29.1,3.2c-4.2,1.3-4.5,10.8-0.2,11.4
			c4.2,0.6,15.6,0,15.6,0s-8.1,2.5-11.2,3.7c1.4,3.9,0.1,8.6,3.5,14.7C315.7,913.9,306.7,902.6,303.1,900.9z"/>
	</g>
</g>
<g id="Arm-Right" transform="translate(-80,0)">
         <animateTransform attributeName="transform"
                      type="translate"
                      from="-80 0" to="0 0"
                      begin="1s" dur="1s"
                      fill="freeze"
            /> 
	<g>
		<path id="XMLID_107_" class="st2" d="M742.5,878.1c-8.4-7.4-24.5-21.8-27.5-22.8s-19.7-6-22.9-6s-9.2,21.1-9.2,21.1L742.5,878.1z"
			/>
		<g>
			<path class="st2" d="M892.6,902.2c-4.3-1.3-22.4-19.8-39.2-31.5c-16.7-11.7-38.8-9.4-53.6-4c-14.7,5.4-41.7,16.4-57.3,11.4
				c-6.4-4.7-34.2-13.3-42.7-13.2c-8.9,0-21,1.5-24.3,3c-3.6,1.6-3.6,10.4-1.3,11.7c-3.7,1-3.7,11.9,0.3,13
				c-1.9,1.5-1.8,10.4,1.7,12.3c-1.9,1.6-2,9.1,0.7,11.1c2.6,2,10.3,5.9,15.2,6c4.9,0.1,39.7-5.7,45.3-6.7
				c11.4,5.7,27.5,15.4,48.6,25.8c21.1,10.4,53.3,9,63.7,4s33.2-22.1,39.2-23.8S897,903.5,892.6,902.2z"/>
			<path id="XMLID_20_" class="st1" d="M694.6,899.6c-1.5-1.9-3.1-2.5-6.2-3.1c-2.5-0.4-10,0-11.3,0.4c-1.3,0.3-2.7,6.5-1.3,7.9
				c-3.2-2.2-3.2-10.7-1.4-12.1c1.6,0.4,21.2,2,21.2,2L694.6,899.6z"/>
			<path id="XMLID_19_" class="st1" d="M676.1,904.9c1.8,0.5,16.8,3.8,16.8,3.8l-1.1,5c-1.1-2.2-2.8-2.9-4.6-3.5
				c-1.8-0.6-8.1-1.2-9.4-1.1c-1.3,0.2-2.4,4.4-0.6,7c-0.1-0.1-0.2-0.2-0.3-0.2C674.1,914,674.2,906.5,676.1,904.9z"/>
			<path id="XMLID_18_" class="st1" d="M696.5,885.7c0,0-2-2.1-6.6-2.5c-4.6-0.4-11.3-0.3-13.5,0.6c-2.1,0.8-3.7,8.5-2.1,8.9
				c-4-1.1-4-12-0.3-13c2.4,0.2,20.5,1.5,22.8,1.6C697.1,882.3,696.5,885.7,696.5,885.7z"/>
			<path id="XMLID_17_" class="st1" d="M697.4,869.2c-3.4,0.5-15.7,0.9-20.3,2.9c-2.7,1.2-4,6.2-3.2,7.3c-2.1-1.8-1.9-9.9,1.6-11.6
				c3.3-1.5,15.4-3,24.3-3c3.6,0,16.5,3.3,23.9,5.4C719.6,869.1,700.8,868.7,697.4,869.2z"/>
			<path id="XMLID_16_" class="st1" d="M692,849.2c3.2,0,19.9,5,22.9,6s19.1,15.4,27.5,22.8c15.6,5,42.6-6,57.3-11.4
				c14.8-5.4,36.9-7.7,53.6,4c16.8,11.7,34.9,30.2,39.2,31.5c4.4,1.3,2.3,17.4-3.7,19.1c-0.5,0.1-1.1,0.4-1.7,0.7
				c-5.4,1.1-10.7,0.7-16.8-0.3c5.3-1.1,13.1-2.1,16.9-3.7c3.8-1.6,3.8-12.2,0.4-13.5c-3.4-1.3-20.2-4.2-20.2-4.2s12.8-0.4,18.2,0
				c-5.4-2.7-30.9-15.8-46.5-20.8s-33.7-3.8-57.4,0c8.9,1.1,55.2,8.7,64.6,12.3c-14.8-2.2-74.4-8.7-83.8-8.3
				c-9.4,0.4-18,0.3-23.1-3.3c-0.4-0.3-25.5-19.8-26.9-20.5c-1.7-0.8-18.4-5.4-19.8-5.3c-1.6,0.1-3.4,2.6-5,6.2l-1.6-0.9
				C688.2,854.3,690.5,849.2,692,849.2z"/>
			<path id="XMLID_15_" class="st1" d="M771,917.4c23.1,7,63.3,11,82.5,9C834,923.7,791.1,919.8,771,917.4z"/>
		</g>
	</g>
</g>
<g id="Tie">
	<g>
		<polygon id="XMLID_10_" class="st0" points="608.5,836.8 593.9,821.1 579.7,836.5 585.6,851.6 603.5,851.4 		"/>
		<g transform="translate(-10,-110)">
                   <animateMotion dur="1s" repeatCount="indefinite" >
        <mpath xlink:href="#theMotionPath2"/>
    </animateMotion>   
             <path d="M10,110 A120,120 -59 0,1 10 120 A120,120 -5 0,1 10,110" fill="none" id="theMotionPath2"/>

			<path id="XMLID_7_" class="st0" d="M590.8,847.9c1.1,19.1-19.4,30.2-41.6-6.2c-16.5-26.9-45.2-56.7-53-60.3
				c-5.3,1-10.5,2.1-10.5,2.1s2.6,6.2,3.6,9.7c13,6.4,36.2,31.5,53,53.5c25.2,33,53.8,34.4,54,1.3
				C596.2,834.3,589.9,833.5,590.8,847.9z"/>
            			<path id="XMLID_9_" class="st0" d="M589,850.7c1.4,27.3-17.6,41.9-50.7,1.3c-28-34.3-77.4-66.4-113.5-71
				c-22.6,6.5-36,10.6-36,10.6s15,14.2,21.7,20c27.2-1.8,84.9,20.5,117.2,53.1c39.7,40.1,75.2,30.5,72.1-13.4
				C598.3,830.9,587.8,829.4,589,850.7z"/>
		</g>
	</g>
</g>
    


</svg>