<?xml version="1.0" encoding="utf-8"?>
<!-- Generator: Adobe Illustrator 19.0.1, SVG Export Plug-In . SVG Version: 6.00 Build 0)  -->
<svg version="1.1" id="Layer_1" xmlns="http://www.w3.org/2000/svg" xmlns:xlink="http://www.w3.org/1999/xlink" x="0px" y="0px"
	 viewBox="-454.4 94.9 1301.4 372.1" style="enable-background:new -454.4 94.9 1301.4 372.1;" xml:space="preserve">
<style type="text/css">
	.st0{fill:#B6E1E9;}
	.st1{fill:#FFFFFF;}
	.st2{fill:#80CAD9;enable-background:new    ;}
	.st3{fill:#0071BC;}
	.st4{fill:#192782;}
	.st5{fill:#D6EEF3;}
	.st6{fill:#0094B3;}
	.st7{fill:#0091D1;}
	.st8{fill:#B7B7B7;}
	.st9{fill:#B7B7B7;enable-background:new    ;}
	.st10{fill:#601A7A;}
	.st11{fill:#85577F;}
</style>

<g>
    <g>
        <animateTransform attributeName="transform"
          type="translate"
          from="-500 0" to="0 0"
          dur="1s"
          fill="freeze"
                        />

        <g id="XMLID_605_">
        	<polygon id="XMLID_611_" class="st0" points="509,128.4 696.5,94.9 778.8,139.2 778.8,189.1 799.1,200.2 799.1,260 822.1,272.6
        		822.1,333.6 847,346.9 847,431.1 791.8,431.2 765.2,467 637.1,467 509,351.4 	"/>
        	<g id="XMLID_606_">
        		<polygon id="XMLID_610_" class="st1" points="784.5,308.6 822.1,328.8 822.1,333.6 782.5,312.3 		"/>
        		<polygon id="XMLID_609_" class="st1" points="764.4,236.3 799.1,255.2 799.1,260 762.4,239.9 		"/>
        		<polygon id="XMLID_608_" class="st1" points="748.5,167.7 778.8,184.3 778.8,189.1 746.5,171.3 		"/>
        		<polygon id="XMLID_607_" class="st1" points="678,431.2 791.8,431.2 788.7,435.4 678,435.4 		"/>
        	</g>
        </g>
        <rect id="XMLID_604_" x="-454.4" y="128.4" class="st0" width="969.7" height="223"/>
        <g id="XMLID_600_">
        	<path id="XMLID_602_" class="st1" d="M375.5,336l-11.2-41.1c-18.7-17.5-30.4-42-30.4-69.2c0-2.4,0-11.8,0-14.2
        		c-0.1-29.3,13.4-55.6,34.7-73.3l3.1-9.9h124l3.1,9.9c21.2,17.6,34.6,43.7,34.6,72.9c0,2.4,0,11.8,0,14.2
        		c0,27.2-11.5,51.7-30.2,69.3l-11.1,41.2l-18,4.4v11.3h-80.8v-11.1L375.5,336z"/>
        	<path id="XMLID_601_" class="st2" d="M375.5,336l-11.2-41.1c-18.7-17.5-30.4-42-30.4-69.2c0-2.4,0-11.8,0-14.2
        		c-0.1-29.3,13.4-55.6,34.7-73.3l3.1-9.9h124l3.1,9.9c21.2,17.6,34.6,43.7,34.6,72.9c0,2.4,0,11.8,0,14.2
        		c0,27.2-11.5,51.7-30.2,69.3l-11.1,41.2l-18,4.4v11.3h-80.8v-11.1L375.5,336z"/>
        </g>
        <g id="XMLID_3_">
        	<g id="XMLID_594_">
        		<g id="XMLID_596_">
        			<polygon id="XMLID_598_" class="st3" points="474,131.9 474,111.6 492,115.6 503.3,148.9 			"/>
        			<polygon id="XMLID_597_" class="st3" points="393.4,131.9 393.4,111.6 375.3,115.6 364.1,148.9 			"/>
        		</g>
        		<rect id="XMLID_595_" x="393.4" y="100" class="st4" width="80.6" height="27.3"/>
        	</g>
        	<path id="XMLID_592_" class="st4" d="M333.9,217.2c0.1,49.7,44.9,89.8,100,89.7s99.7-40.5,99.6-90.1c-0.1-49.7-44.9-89.8-100-89.7
        		C378.4,127.2,333.8,167.6,333.9,217.2z"/>
        	<g id="XMLID_583_">
        		<g id="XMLID_589_">
        			<polygon id="XMLID_591_" class="st4" points="492.2,319.8 474.2,323.9 474.2,310.9 492.2,306.9 			"/>
        			<polygon id="XMLID_590_" class="st4" points="503.4,281.2 492.2,319.8 492.2,306.9 503.4,268.2 			"/>
        		</g>
        		<polygon id="XMLID_588_" class="st5" points="474.1,285.3 474.2,310.9 492.2,306.9 503.4,268.2 		"/>
        		<g id="XMLID_585_">
        			<polygon id="XMLID_587_" class="st4" points="375.5,320.1 393.6,324.1 393.5,311.1 375.5,307.1 			"/>
        			<polygon id="XMLID_586_" class="st4" points="364.2,281.4 375.5,320.1 375.5,307.1 364.2,268.5 			"/>
        		</g>
        		<polygon id="XMLID_584_" class="st5" points="393.5,285.4 393.5,311.1 375.5,307.1 364.2,268.5 		"/>
        	</g>
        	<g id="XMLID_580_">
        		<polygon id="XMLID_582_" class="st6" points="470.1,141.5 474,134.8 469.8,132.3 466,139.1 		"/>
        		<polygon id="XMLID_581_" class="st6" points="397.4,268 401.3,261.2 397.1,258.8 393.3,265.6 		"/>
        	</g>
        	<g id="XMLID_301_">

        			<ellipse id="XMLID_579_" transform="matrix(1.924061e-03 1 -1 1.924061e-03 636.2966 -230.4717)" class="st4" cx="433.6" cy="203.5" rx="84.1" ry="93.4"/>

        			<ellipse id="XMLID_578_" transform="matrix(1.924651e-03 1 -1 1.924651e-03 636.2965 -230.4721)" class="st1" cx="433.6" cy="203.5" rx="75.4" ry="83.7"/>
        		<path id="XMLID_575_" class="st4" d="M433.6,274.7c-21.1,0-40.9-7.4-55.8-20.8s-23.1-31.3-23.2-50.3c0-9.6,2.1-18.9,6.2-27.7
        			c4-8.5,9.6-16.1,16.9-22.7c14.9-13.5,34.7-20.9,55.8-21h0.2c21.1,0,40.9,7.4,55.8,20.8c14.9,13.4,23.1,31.3,23.2,50.3
        			c0,9.6-2.1,18.9-6.2,27.7c-4,8.5-9.6,16.1-16.9,22.7c-14.9,13.5-34.7,20.9-55.8,21L433.6,274.7L433.6,274.7z M433.7,132.8h-0.2
        			c-21,0-40.7,7.4-55.5,20.8c-14.8,13.4-22.9,31.2-22.9,50c0.1,38.9,35.3,70.6,78.5,70.6h0.2c21,0,40.7-7.4,55.5-20.8
        			c14.8-13.4,22.9-31.2,22.9-50C512.1,164.4,476.9,132.8,433.7,132.8L433.7,132.8z"/>

        			<ellipse id="XMLID_574_" transform="matrix(1.924680e-03 1 -1 1.924680e-03 636.2965 -230.4721)" class="st7" cx="433.6" cy="203.5" rx="61.2" ry="68"/>
        		<path id="XMLID_571_" class="st3" d="M433.6,252.6c-30.7,0-55.7-22-55.8-49c0-13.1,5.8-25.4,16.3-34.7
        			c10.5-9.3,24.5-14.4,39.4-14.5h0.1c30.7,0,55.7,22,55.8,49c0,13.1-5.8,25.4-16.3,34.7s-24.5,14.4-39.4,14.5H433.6L433.6,252.6z
        			 M433.7,155h-0.1c-14.8,0-28.6,5.1-39.1,14.3c-10.4,9.2-16.2,21.4-16.1,34.3c0.1,26.7,24.8,48.5,55.3,48.5h0.1
        			c14.8,0,28.6-5.1,39.1-14.3c10.4-9.2,16.2-21.4,16.1-34.3C488.9,176.7,464.1,155,433.7,155L433.7,155z"/>
        		<path id="XMLID_568_" class="st3" d="M433.6,240.2c-11.6,0-22.5-3.8-30.7-10.8c-8.2-6.9-12.7-16.1-12.7-25.8s4.5-18.8,12.6-25.8
        			c8.2-7,19.1-10.9,30.7-10.9h0.1c11.6,0,22.5,3.9,30.7,10.9c8.1,6.9,12.6,16.1,12.6,25.7c0,9.7-4.5,18.8-12.6,25.8
        			C456.1,236.3,445.2,240.2,433.6,240.2L433.6,240.2L433.6,240.2z M433.7,167.4L433.7,167.4c-11.6,0-22.4,3.9-30.5,10.8
        			c-8,6.9-12.4,15.9-12.4,25.4c0,19.9,19.3,36.1,42.8,36.1h0.1c23.6,0,42.8-16.3,42.8-36.2C476.5,183.5,457.3,167.4,433.7,167.4
        			L433.7,167.4z"/>
        		<path id="XMLID_565_" class="st3" d="M433.6,227.8c-7.9,0-15.7-2.6-21.6-7c-6-4.6-9.4-10.7-9.4-17.2c0-6.4,3.3-12.5,9.2-17.1
        			c5.9-4.6,13.6-7.2,21.7-7.2h0.1c7.9,0,15.8,2.6,21.6,7c6,4.6,9.3,10.7,9.3,17.1s-3.3,12.5-9.2,17.1
        			C449.5,225.2,441.8,227.7,433.6,227.8L433.6,227.8L433.6,227.8z M433.7,179.8L433.7,179.8c-8.1,0-15.7,2.5-21.5,7.1
        			c-5.8,4.5-9,10.5-9,16.7c0,6.3,3.3,12.3,9.2,16.8c5.7,4.4,13.5,6.9,21.3,6.9h0.1c8,0,15.6-2.5,21.4-7.1c5.8-4.5,9-10.5,9-16.7
        			c0-6.3-3.3-12.2-9.1-16.7C449.2,182.3,441.5,179.8,433.7,179.8L433.7,179.8z"/>
        		<g id="XMLID_479_">
        			<g id="XMLID_799_">

        				<g id="XMLID_800_">
        					<path id="XMLID_803_" class="st8" d="M435.4,202.9c-0.6-0.9-1.8-1.2-2.8-0.7s-1.3,1.6-0.7,2.5c0.6,0.9,1.8,1.2,2.8,0.7
        						S436,203.7,435.4,202.9z"/>
        					<g id="XMLID_801_">
        						<path id="XMLID_802_" class="st8" d="M434.3,203.4c-0.2-0.3-0.7-0.4-1-0.2c-0.4,0.2-0.5,0.6-0.3,0.9c0.2,0.3,0.7,0.4,1,0.2
        							C434.4,204.2,434.5,203.8,434.3,203.4z"/>
        					</g>
        				</g>
        			</g>
        		</g>
        		<g id="XMLID_386_">
        			<g id="XMLID_406_">
        				<g id="XMLID_476_">
        					<polygon id="XMLID_478_" class="st4" points="425.3,278.6 425.8,274.1 425.3,274.1 424.8,278.5 					"/>
        					<polygon id="XMLID_477_" class="st4" points="442,133 442.5,128.5 442,128.5 441.5,132.9 					"/>
        				</g>
        				<g id="XMLID_473_">
        					<polygon id="XMLID_475_" class="st4" points="416.6,277.4 417.6,273 417.2,272.9 416.2,277.3 					"/>
        					<polygon id="XMLID_474_" class="st4" points="450.1,134.1 451.1,129.8 450.7,129.7 449.7,134 					"/>
        				</g>
        				<g id="XMLID_470_">
        					<polygon id="XMLID_472_" class="st4" points="408.1,275.4 409.7,271.1 409.2,271 407.7,275.2 					"/>
        					<polygon id="XMLID_471_" class="st4" points="458.1,136.1 459.6,131.8 459.2,131.7 457.6,135.9 					"/>
        				</g>
        				<g id="XMLID_467_">
        					<polygon id="XMLID_469_" class="st4" points="399.9,272.6 402,268.5 401.5,268.3 399.5,272.4 					"/>
        					<polygon id="XMLID_468_" class="st4" points="465.8,138.7 467.8,134.6 467.4,134.4 465.4,138.5 					"/>
        				</g>
        				<g id="XMLID_464_">
        					<polygon id="XMLID_466_" class="st4" points="384.7,264.8 387.7,261.1 387.3,260.9 384.4,264.5 					"/>
        					<polygon id="XMLID_465_" class="st4" points="480,146.2 482.9,142.5 482.6,142.3 479.7,145.9 					"/>
        				</g>
        				<g id="XMLID_461_">
        					<polygon id="XMLID_463_" class="st4" points="377.9,259.8 381.2,256.5 380.9,256.2 377.6,259.5 					"/>
        					<polygon id="XMLID_462_" class="st4" points="486.4,150.8 489.7,147.5 489.4,147.2 486.1,150.5 					"/>
        				</g>
        				<g id="XMLID_458_">
        					<polygon id="XMLID_460_" class="st4" points="371.7,254.3 375.4,251.3 375.1,250.9 371.4,253.9 					"/>
        					<polygon id="XMLID_459_" class="st4" points="492.2,156.1 495.9,153.1 495.6,152.7 491.9,155.7 					"/>
        				</g>
        				<g id="XMLID_455_">
        					<polygon id="XMLID_457_" class="st4" points="366.1,248.2 370.2,245.5 369.9,245.1 365.9,247.8 					"/>
        					<polygon id="XMLID_456_" class="st4" points="497.4,161.9 501.4,159.2 501.2,158.9 497.2,161.5 					"/>
        				</g>
        				<g id="XMLID_452_">
        					<polygon id="XMLID_454_" class="st4" points="357.3,234.5 361.9,232.7 361.7,232.3 357.2,234.1 					"/>
        					<polygon id="XMLID_453_" class="st4" points="505.6,174.7 510.1,172.9 510,172.5 505.5,174.3 					"/>
        				</g>
        				<g id="XMLID_449_">
        					<polygon id="XMLID_451_" class="st4" points="354.2,227.2 358.9,225.8 358.7,225.4 354,226.8 					"/>
        					<polygon id="XMLID_450_" class="st4" points="508.6,181.7 513.3,180.3 513.2,179.8 508.4,181.2 					"/>
        				</g>
        				<g id="XMLID_446_">
        					<polygon id="XMLID_448_" class="st4" points="351.9,219.6 356.7,218.6 356.6,218.2 351.8,219.1 					"/>
        					<polygon id="XMLID_447_" class="st4" points="510.7,188.8 515.5,187.9 515.5,187.4 510.6,188.4 					"/>
        				</g>
        				<g id="XMLID_443_">
        					<polygon id="XMLID_445_" class="st4" points="350.4,211.8 355.4,211.3 355.3,210.9 350.4,211.3 					"/>
        					<polygon id="XMLID_444_" class="st4" points="512,196.2 516.9,195.7 516.9,195.2 511.9,195.7 					"/>
        				</g>
        				<g id="XMLID_440_">
        					<polygon id="XMLID_442_" class="st4" points="355.3,196.5 355.3,196 350.4,195.6 350.4,196 					"/>
        					<polygon id="XMLID_441_" class="st4" points="516.9,211.5 516.9,211 512,210.6 512,211 					"/>
        				</g>
        				<g id="XMLID_437_">
        					<polygon id="XMLID_439_" class="st4" points="356.6,189.1 356.6,188.7 351.8,187.8 351.7,188.2 					"/>
        					<polygon id="XMLID_438_" class="st4" points="515.5,219.3 515.6,218.8 510.8,217.9 510.7,218.3 					"/>
        				</g>
        				<g id="XMLID_434_">
        					<polygon id="XMLID_436_" class="st4" points="358.7,182 358.8,181.5 354.1,180.1 353.9,180.6 					"/>
        					<polygon id="XMLID_435_" class="st4" points="513.2,226.9 513.4,226.4 508.7,225.1 508.5,225.5 					"/>
        				</g>
        				<g id="XMLID_431_">
        					<polygon id="XMLID_433_" class="st4" points="361.6,175 361.7,174.6 357.2,172.8 357,173.2 					"/>
        					<polygon id="XMLID_432_" class="st4" points="510.1,234.3 510.3,233.8 505.7,232 505.6,232.4 					"/>
        				</g>
        				<g id="XMLID_428_">
        					<polygon id="XMLID_430_" class="st4" points="369.7,162.1 370,161.7 366,159.1 365.7,159.5 					"/>
        					<polygon id="XMLID_429_" class="st4" points="501.3,247.9 501.6,247.5 497.6,244.9 497.3,245.3 					"/>
        				</g>
        				<g id="XMLID_425_">
        					<polygon id="XMLID_427_" class="st4" points="374.9,156.3 375.2,156 371.5,153 371.2,153.3 					"/>
        					<polygon id="XMLID_426_" class="st4" points="495.8,254 496.1,253.7 492.4,250.7 492.1,251.1 					"/>
        				</g>
        				<g id="XMLID_422_">
        					<polygon id="XMLID_424_" class="st4" points="380.7,151 381,150.7 377.7,147.4 377.4,147.7 					"/>
        					<polygon id="XMLID_423_" class="st4" points="489.6,259.6 489.9,259.3 486.6,256 486.3,256.3 					"/>
        				</g>
        				<g id="XMLID_419_">
        					<polygon id="XMLID_421_" class="st4" points="387.1,146.3 387.4,146.1 384.5,142.4 384.2,142.7 					"/>
        					<polygon id="XMLID_420_" class="st4" points="482.8,264.6 483.1,264.3 480.2,260.7 479.9,261 					"/>
        				</g>
        				<g id="XMLID_416_">
        					<polygon id="XMLID_418_" class="st4" points="401.3,138.9 401.7,138.7 399.7,134.6 399.3,134.8 					"/>
        					<polygon id="XMLID_417_" class="st4" points="467.6,272.4 468,272.2 466,268.2 465.6,268.4 					"/>
        				</g>
        				<g id="XMLID_413_">
        					<polygon id="XMLID_415_" class="st4" points="409,136.2 409.4,136 407.9,131.8 407.4,131.9 					"/>
        					<polygon id="XMLID_414_" class="st4" points="459.4,275.3 459.9,275.1 458.3,270.9 457.9,271 					"/>
        				</g>
        				<g id="XMLID_410_">
        					<polygon id="XMLID_412_" class="st4" points="416.9,134.2 417.4,134.1 416.3,129.7 415.9,129.8 					"/>
        					<polygon id="XMLID_411_" class="st4" points="451,277.3 451.4,277.2 450.4,272.8 449.9,272.9 					"/>
        				</g>
        				<g id="XMLID_407_">
        					<polygon id="XMLID_409_" class="st4" points="425.1,133 425.5,132.9 425,128.5 424.5,128.5 					"/>
        					<polygon id="XMLID_408_" class="st4" points="442.3,278.5 442.8,278.5 442.2,274 441.8,274.1 					"/>
        				</g>
        			</g>
        			<g id="XMLID_387_">
        				<g id="XMLID_403_">
        					<polygon id="XMLID_405_" class="st4" points="512.4,204.7 517.4,204.7 517.4,202 512.4,202 					"/>
        					<polygon id="XMLID_404_" class="st4" points="350,205 354.9,205 354.9,202.3 349.9,202.3 					"/>
        				</g>
        				<g id="XMLID_400_">
        					<polygon id="XMLID_402_" class="st4" points="505.6,242.3 506.8,239.9 502.6,237.6 501.3,240.1 					"/>
        					<polygon id="XMLID_401_" class="st4" points="364.8,169.4 366,166.9 361.7,164.7 360.5,167.2 					"/>
        				</g>
        				<g id="XMLID_397_">
        					<polygon id="XMLID_399_" class="st4" points="474.5,269.5 476.8,268 474.3,264.1 472,265.6 					"/>
        					<polygon id="XMLID_398_" class="st4" points="393,142.9 395.3,141.4 392.8,137.5 390.5,139 					"/>
        				</g>
        				<g id="XMLID_394_">
        					<polygon id="XMLID_396_" class="st4" points="432.4,278.9 435.2,278.9 435.2,274.5 432.4,274.5 					"/>
        					<polygon id="XMLID_395_" class="st4" points="432.1,132.6 434.9,132.6 434.9,128.1 432.1,128.1 					"/>
        				</g>
        				<g id="XMLID_391_">
        					<polygon id="XMLID_393_" class="st4" points="393.1,269.6 395.6,265.8 393.2,264.3 390.8,268.2 					"/>
        					<polygon id="XMLID_392_" class="st4" points="474.1,142.7 476.5,138.9 474.2,137.4 471.8,141.2 					"/>
        				</g>
        				<g id="XMLID_388_">
        					<polygon id="XMLID_390_" class="st4" points="361.9,242.6 366.2,240.3 364.9,237.9 360.6,240.1 					"/>
        					<polygon id="XMLID_389_" class="st4" points="502.4,169.1 506.7,166.9 505.4,164.4 501.1,166.7 					"/>
        				</g>
        			</g>
        		</g>
        		<g id="XMLID_383_">
        			<polygon id="XMLID_385_" class="st4" points="356.8,206 364.6,205.9 364.6,201.4 356.8,201.4 			"/>
        			<polygon id="XMLID_384_" class="st4" points="502.7,205.7 510.5,205.7 510.5,201.1 502.7,201.1 			"/>
        		</g>
        		<g id="XMLID_380_">
        			<polygon id="XMLID_382_" class="st4" points="372.7,174.6 374.9,170.5 368.1,167 366,171.1 			"/>
        			<polygon id="XMLID_381_" class="st4" points="499.2,240 501.3,236 494.6,232.5 492.4,236.5 			"/>
        		</g>
        		<g id="XMLID_377_">
        			<polygon id="XMLID_379_" class="st4" points="397.1,150.9 401,148.5 397,142.4 393.2,144.9 			"/>
        			<polygon id="XMLID_378_" class="st4" points="470.3,264.6 474.1,262.2 470.2,256.1 466.3,258.6 			"/>
        		</g>
        		<g id="XMLID_374_">
        			<polygon id="XMLID_376_" class="st4" points="470,150.8 473.9,144.7 470,142.2 466.1,148.3 			"/>
        			<polygon id="XMLID_375_" class="st4" points="397.3,264.8 401.2,258.7 397.3,256.2 393.4,262.3 			"/>
        		</g>
        		<g id="XMLID_371_">
        			<polygon id="XMLID_373_" class="st4" points="431.2,141.3 435.8,141.3 435.8,134.3 431.2,134.3 			"/>
        			<polygon id="XMLID_372_" class="st4" points="431.5,272.8 436.1,272.7 436.1,265.7 431.5,265.7 			"/>
        		</g>
        		<g id="XMLID_368_">
        			<polygon id="XMLID_370_" class="st4" points="494.4,174.3 501.2,170.8 499.1,166.7 492.3,170.3 			"/>
        			<polygon id="XMLID_369_" class="st4" points="368.2,240.3 375,236.8 372.9,232.7 366.1,236.2 			"/>
        		</g>

        	</g>

        	<path id="XMLID_16_" class="st3" d="M333.9,204c0.1,49.7,44.9,89.8,100,89.7s99.7-40.5,99.6-90.1c-0.1-49.7-44.9-89.8-100-89.7
        		S333.8,154.4,333.9,204z M344.2,204c-0.1-44.5,39.9-80.7,89.3-80.8c49.4-0.1,89.5,35.9,89.6,80.4s-39.9,80.7-89.3,80.8
        		S344.3,248.5,344.2,204z"/>
        	<path id="XMLID_13_" class="st10" d="M340.3,201.4c0.1,46.5,42,84,93.5,83.9c51.6-0.1,93.3-37.8,93.2-84.3s-42-84-93.5-83.9
        		C381.9,117.2,340.2,155,340.3,201.4z M349.9,201.4c-0.1-41.7,37.3-75.5,83.6-75.6c46.2-0.1,83.8,33.6,83.9,75.3
        		c0.1,41.7-37.3,75.5-83.6,75.6C387.6,276.7,350,243.1,349.9,201.4z"/>

        	<polygon id="XMLID_6_" class="st9" points="462.8,241 461.7,241.2 460.2,238.9 461.2,238.6 	"/>

        	<rect id="XMLID_4_" x="393.4" y="295.5" class="st4" width="80.8" height="67.6"/>
        </g>
        		<g id="XMLID_302_">
        			<g id="XMLID_339_">
        				<path id="XMLID_340_" class="st8" d="M429.8,197.5c1-0.5,2-0.8,3.1-0.9l0.9,0.6c1.4,0,2.9,0.4,4.1,1.3c1.4,1,2.2,2.3,2.5,3.7
        					l3.5,3l-3.7,2.2c-0.6,0.9-1.5,1.6-2.6,2.2c-0.7,0.3-1.3,0.6-2,0.7l-1.5-0.8c-1.6,0.1-3.2-0.3-4.6-1.3c-1.2-0.9-2-2-2.4-3.3
        					l-3.4-2.5l3.2-2.2C427.5,199.1,428.5,198.1,429.8,197.5z"/>
        			</g>
        		</g>

                <g class="hou-sha" transform="rotate(-27 430 203)">
                        <animateTransform attributeName="transform"
                        attributeType="XML"
                        type="rotate"
                        from="-27 430 203"
                        to="0 430 203"
                        begin="2.55s"
                        dur="1s"
                        fill="freeze" />

                        <g id="XMLID_816_">
                            <g id="XMLID_817_">
                                <g id="XMLID_825_">
                                    <polygon id="XMLID_826_" class="st8" points="464.1,184.9 471.2,186.4 469.1,192.6 437.2,211.5 421.1,217.7 416.5,214.9
                                        416.1,210 430.1,200.4                           "/>
                                </g>
                                <g id="XMLID_820_">
                                    <g id="XMLID_823_">
                                        <path id="XMLID_824_" class="st8" d="M425,210.5c0.6,0.9,1.3,1.7,2.1,2.3l-5.6,2.2l-2.3-1.4l-0.2-2.5l4.9-3.3
                                            C424,208.7,424.4,209.6,425,210.5z"/>
                                    </g>
                                    <g id="XMLID_821_">
                                        <path id="XMLID_822_" class="st8" d="M442.4,201.4c-0.7-1.1-1.6-2-2.7-2.7l24.8-11.3l3.4,0.7l-1,3l-23.2,13.7
                                            C443.5,203.7,443.1,202.5,442.4,201.4z"/>
                                    </g>
                                </g>
                                <g id="XMLID_818_">
                                    <path id="XMLID_819_" class="st8" d="M429.8,200c-3.7,1.9-5,6.2-2.8,9.5c2.1,3.3,6.9,4.5,10.6,2.5c3.7-1.9,5-6.2,2.8-9.5
                                        C438.2,199.2,433.5,198,429.8,200z"/>
                                </g>
                            </g>
                        </g>
                </g>
                <g class="min-sha">
                    <animateTransform attributeName="transform"
                        attributeType="XML"
                        type="rotate"
                        from="54 433 200"
                        to="320 433 200"
                        dur="2.3s"
                        repeatCount="1" />
                    <animateTransform attributeName="transform"
                        attributeType="XML"
                        type="rotate"
                        from="320 433 200"
                        to="360 433 200"
                        begin="2.3s"
                        dur="1.4s"
                        repeatCount="1" />

                    <g id="XMLID_805_">
                        <g id="XMLID_806_">
                            <g id="XMLID_814_">
                                <polygon id="XMLID_815_" class="st8" points="384.7,174.4 382.9,168.7 389.5,168.9 437.1,200.6 449.7,211.5 449.2,215.6
                                    444.9,217 430.2,208.5 							"/>
                            </g>
                            <g id="XMLID_809_">
                                <g id="XMLID_812_">
                                    <path id="XMLID_813_" class="st8" d="M427.6,200.2c-0.6,0.7-1,1.4-1.3,2.2L387,173l-0.6-1.8l2.1,0.1l41,27.3
                                        C428.8,199,428.1,199.6,427.6,200.2z"/>
                                </g>
                                <g id="XMLID_810_">
                                    <path id="XMLID_811_" class="st8" d="M439.8,208.9c0.5-0.5,0.8-1.1,1.1-1.7l6.1,5.2l-0.2,1.4l-1.5,0.5l-7.1-4.1
                                        C438.8,209.8,439.3,209.4,439.8,208.9z"/>
                                </g>
                            </g>
                            <g id="XMLID_807_">
                                <path id="XMLID_808_" class="st8" d="M429.5,209.4c3,2.1,7.2,1.6,9.6-1c2.3-2.7,1.8-6.5-1.2-8.6c-3-2.1-7.2-1.6-9.6,1
                                    C426,203.4,426.5,207.3,429.5,209.4z"/>
                            </g>
                        </g>
                    </g>
                </g>
                <g class="sec-sha" transform="rotate(-147 434.7 200)">
                          <path id="XMLID_311_" class="st8" d="M431.9,201.2c-0.4-0.6-0.4-1.2-0.1-1.7l-7.9-12l5.1,3.4l4.7,7.5c0.7,0,1.3,0.4,1.6,0.9
                            c0.4,0.6,0.4,1.2,0,1.8l5.9,9.4l-3.6-2.1l-4.2-6.3C432.9,202.1,432.2,201.8,431.9,201.2z"/>
                        <polygon id="XMLID_804_" class="st8" points="461.5,246.1 463.7,249.5 466.7,254.4 466.7,255.1 466,254.8 423.5,190.3
                                424.3,189.2 425.8,189.2                     "/>
                    <animateTransform attributeName="transform"
                        attributeType="XML"
                        type="rotate"
                        from="-147 433.7 197"
                        to="215 433.7 197"
                        dur="1.7s"
                        fill="freeze" />
                    <animateTransform attributeName="transform"
                        attributeType="XML"
                        type="rotate"
                        from="215 433.7 197"
                        to="260 433.7 197"
                        begin="1.7s"
                        dur="0.28s"
                        fill="freeze" />
                    <animateTransform attributeName="transform"
                        attributeType="XML"
                        type="rotate"
                        from="260 433.7 197"
                        to="310 433.7 197"
                        begin="1.98s"
                        dur="0.6s"
                        fill="freeze" />
                    <animateTransform attributeName="transform"
                        attributeType="XML"
                        type="rotate"
                        from="310 433.7 197"
                        to="330 433.7 197"
                        begin="2.58s"
                        dur="0.62s"
                        fill="freeze" />
                    <animateTransform attributeName="transform"
                        attributeType="XML"
                        type="rotate"
                        from="330 433.7 197"
                        to="340 433.7 197"
                        begin="3.2s"
                        dur="0.5s"
                        fill="freeze" />
                </g>
                <g class="humans-sha" transform="rotate(-20,430,200)"  fill-opacity="0.0">

                        <animateTransform attributeName="transform"
                            attributeType="XML"
                            type="rotate"
                            from="-5 430 200"
                            to="0 430 200"
                            begin="3s"
                            dur="0.3s"
                            fill="freeze" />
                        <animate attributeName="fill-opacity"
                            attributeType="XML"
                            begin="3s"
                            dur="0.5s"
                            fill="freeze"
                            from="0"
                            to="1"/>

                <polygon id="XMLID_10_" class="st9" points="410.8,178.8 412,179.6 403.6,184.2 400.6,182     "/>
                <path id="XMLID_7_" class="st9" d="M400.8,186.4c-1.9,0.9-6.9,3.8-8.2,4.6c-1.8,1.1-1.1,2.1,0.9,1.4c1.5-0.5,10.5-3.7,10.5-3.7
                L400.8,186.4z"/>
                        <g id="XMLID_303_" transform="translate(0,5)">
                        <path id="XMLID_309_" class="st9" d="M475.5,241.4c0.3-0.1,1.1,0.1,0.4,0.6c-0.6,0.4-12.3,7.5-12.3,7.5l-2.2-3.4
                            C461.5,246.1,474.9,241.6,475.5,241.4z"/>

                    </g>
                <path id="XMLID_5_" class="st9" d="M460.4,246.3l2.2,3.3c0,0-10.5,2-12,2.4c-1.2,0.3-1.3-0.4-0.4-0.9
                C451.2,250.6,460.4,246.3,460.4,246.3z"/>
        </g>

                <g class="hou" transform="rotate(-27 430 203)">
                        <animateTransform attributeName="transform"
                        attributeType="XML"
                        type="rotate"
                        from="-27 430 203"
                        to="0 430 203"
                        begin="2.55s"
                        dur="1s"
                        fill="freeze" />

                    <g id="XMLID_343_">
                        <g id="XMLID_642_">
                            <g id="XMLID_670_">
                                <polygon id="XMLID_671_" class="st1" points="464.1,182.4 471.2,183.9 469.1,190.1 437.2,209 421.1,215.2 416.5,212.4
                                    416.1,207.5 430.1,198                       "/>
                            </g>
                            <g id="XMLID_645_">
                                <g id="XMLID_668_">
                                    <path id="XMLID_669_" class="st7" d="M424.9,208c0.6,0.9,1.3,1.7,2.1,2.3l-5.6,2.2l-2.3-1.4l-0.2-2.5l4.9-3.3
                                        C424,206.2,424.4,207.2,424.9,208z"/>
                                </g>
                                <g id="XMLID_656_">
                                    <path id="XMLID_667_" class="st7" d="M442.4,198.9c-0.7-1.1-1.6-2-2.7-2.7l24.8-11.3l3.4,0.7l-1,3l-23.2,13.7
                                        C443.5,201.2,443.1,200,442.4,198.9z"/>
                                </g>
                            </g>
                            <g id="XMLID_643_">
                                <path id="XMLID_644_" class="st1" d="M429.8,197.5c-3.7,1.9-5,6.2-2.8,9.5c2.1,3.3,6.9,4.5,10.6,2.5c3.7-1.9,5-6.2,2.8-9.5
                                    C438.2,196.7,433.5,195.5,429.8,197.5z"/>
                            </g>
                        </g>
                    </g>
                </g>
                <g class="min">
                    <animateTransform attributeName="transform"
                        attributeType="XML"
                        type="rotate"
                        from="54 433 200"
                        to="320 433 200"
                        dur="2.3s"
                        repeatCount="1" />
                    <animateTransform attributeName="transform"
                        attributeType="XML"
                        type="rotate"
                        from="320 433 200"
                        to="360 433 200"
                        begin="2.3s"
                        dur="1.4s"
                        repeatCount="1" />


                    <g id="XMLID_314_">
        				<g id="XMLID_631_">
        					<g id="XMLID_639_">
        						<polygon id="XMLID_640_" class="st1" points="384.7,170.1 382.9,164.4 389.5,164.6 437.1,196.3 449.7,207.1 449.2,211.2
        							444.9,212.6 430.2,204.2 						"/>
        					</g>
        					<g id="XMLID_634_">
        						<g id="XMLID_637_">
        							<path id="XMLID_638_" class="st7" d="M427.5,195.9c-0.6,0.7-1,1.4-1.3,2.2L387,168.7l-0.6-1.8l2.1,0.1l41,27.3
        								C428.8,194.7,428.1,195.2,427.5,195.9z"/>
        						</g>
        						<g id="XMLID_635_">
        							<path id="XMLID_636_" class="st7" d="M439.8,204.5c0.5-0.5,0.8-1.1,1.1-1.7l6.1,5.2l-0.2,1.4l-1.5,0.5l-7.1-4.1
        								C438.8,205.5,439.3,205.1,439.8,204.5z"/>
        						</g>
        					</g>
        					<g id="XMLID_632_">
        						<path id="XMLID_633_" class="st1" d="M429.4,205.1c3,2.1,7.2,1.6,9.6-1c2.3-2.7,1.8-6.5-1.2-8.6c-3-2.1-7.2-1.6-9.6,1
        							C426,199.1,426.5,203,429.4,205.1z"/>
        					</g>
        				</g>
            		</g>
                </g>
        <g transform="translate(-1,3)">
                <g class="sec" transform="rotate(-147 434.7 200.1)">
                    <polygon id="XMLID_308_" class="st10" points="466.7,247.3 466.6,247.9 466,247.7 423.5,183.2 424.2,182.1 425.7,182               "/>

                                        <path id="XMLID_307_" class="st10" d="M435.4,195.7c-0.6-0.9-1.8-1.2-2.8-0.7s-1.3,1.6-0.7,2.5c0.6,0.9,1.8,1.2,2.8,0.7
                            C435.6,197.7,436,196.6,435.4,195.7z"/>
                        <path id="XMLID_304_" class="st1" d="M434.3,196.3c-0.2-0.3-0.7-0.4-1-0.2c-0.4,0.2-0.5,0.6-0.3,0.9s0.7,0.4,1,0.2
                            C434.4,197,434.5,196.6,434.3,196.3z"/>

                    <animateTransform attributeName="transform"
                        attributeType="XML"
                        type="rotate"
                        from="-147 433.7 197"
                        to="215 433.7 197"
                        dur="1.7s"
                        fill="freeze" />
                    <animateTransform attributeName="transform"
                        attributeType="XML"
                        type="rotate"
                        from="215 433.7 197"
                        to="260 433.7 197"
                        begin="1.7s"
                        dur="0.28s"
                        fill="freeze" />
                     <animateTransform attributeName="transform"
                        attributeType="XML"
                        type="rotate"
                        from="260 433.7 197"
                        to="310 433.7 197"
                        begin="1.98s"
                        dur="0.6s"
                        fill="freeze" />
                    <animateTransform attributeName="transform"
                        attributeType="XML"
                        type="rotate"
                        from="310 433.7 197"
                        to="330 433.7 197"
                        begin="2.58s"
                        dur="0.62s"
                        fill="freeze" />
                    <animateTransform attributeName="transform"
                        attributeType="XML"
                        type="rotate"
                        from="330 433.7 197"
                        to="340 433.7 197"
                        begin="3.2s"
                        dur="0.5s"
                        fill="freeze" />
<!--


-->
<!--
                  <animateTransform attributeName="transform"
                        attributeType="XML"
                        type="rotate"
                        from="310 433.7 197"
                        to="330 433.7 197"
                        begin="2.11s"
                        dur="0.29s"
                        fill="freeze" />
                    <animateTransform attributeName="transform"
                        attributeType="XML"
                        type="rotate"
                        from="330 433.7 197"
                        to="350 433.7 197"
                        begin="2.4s"
                        dur="0.45s"
                        fill="freeze" />
-->



<!--                          -147 434.7 200.1 455.7 190.1-->
                </g>
        </g>

                <g class="humans" transform="rotate(-20,430,200)"  fill-opacity="0.0">

                        <animateTransform attributeName="transform"
                            attributeType="XML"
                            type="rotate"
                            from="-5 430 200"
                            to="0 430 200"
                            begin="3s"
                            dur="0.3s"
                            fill="freeze" />
                        <animate attributeName="fill-opacity"
                            attributeType="XML"
                            begin="3s"
                            dur="0.5s"
                            fill="freeze"
                            from="0"
                            to="1"/>

                        <path id="XMLID_134_" class="st9" d="M392.1,229.1c0.3,0.2,8.7,3,10.6,4.2s7.9,5.2,9.4,6c1.5,0.9,1,1.3-0.6,0.8s-9.6-3-12.4-4.5
                c-2.7-1.5-6.9-5.9-7.3-6.3C391.4,228.9,392.1,229.1,392.1,229.1z"/>
            <path id="XMLID_133_" class="st9" d="M451.8,176.3c-0.4-0.1-9.2-0.3-11.3-0.9c-2.1-0.6-9.1-2.6-10.7-3c-1.7-0.4-1.4-1,0.4-1
                c1.7,0,10.1,0,13.1,0.7c3,0.6,8.4,3.6,8.8,3.9C452.5,176.3,451.8,176.3,451.8,176.3z"/>
            <g id="XMLID_229_">
                <g id="XMLID_299_">
                    <path id="XMLID_300_" class="st10" d="M400.2,169.8c-1.5-0.5-0.8-2.5,0.6-1.9c4.6,1.8,10.2-0.6,8.8-5.3l0.8-0.1
                        C412.5,167.5,406.6,171.9,400.2,169.8z"/>
                </g>
                <g id="XMLID_289_">
                    <g id="XMLID_297_">
                        <path id="XMLID_298_" class="st1" d="M410.5,162.2c0,0.1,0,0.1-0.1,0.2l-0.8,0.1c-0.1,0-0.1,0-0.2-0.1l-0.1-0.5
                            c0-0.1,0-0.1,0.1-0.2l0.8-0.1c0.1,0,0.1,0,0.2,0.1L410.5,162.2z"/>
                    </g>
                    <g id="XMLID_291_">
                        <g id="XMLID_292_">
                            <path id="XMLID_296_" class="st1" d="M410.4,161.5c0-0.1-0.1-0.1-0.1-0.1c-0.1,0-0.1,0.1-0.1,0.1l0.1,0.3
                                c0,0.1,0.1,0.1,0.1,0.1c0.1,0,0.1-0.1,0.1-0.1L410.4,161.5z"/>
                            <path id="XMLID_295_" class="st1" d="M409.5,161.7c0-0.1-0.1-0.1-0.1-0.1c-0.1,0-0.1,0.1-0.1,0.1l0.1,0.3
                                c0,0.1,0.1,0.1,0.1,0.1c0.1,0,0.1-0.1,0.1-0.1L409.5,161.7z"/>
                            <path id="XMLID_294_" class="st1" d="M409.8,161.6c0-0.1-0.1-0.1-0.1-0.1c-0.1,0-0.1,0.1-0.1,0.1l0.1,0.3
                                c0,0.1,0.1,0.1,0.1,0.1c0.1,0,0.1-0.1,0.1-0.1L409.8,161.6z"/>
                            <path id="XMLID_293_" class="st1" d="M410.1,161.6c0-0.1-0.1-0.1-0.1-0.1c-0.1,0-0.1,0.1-0.1,0.1l0.1,0.3
                                c0,0.1,0.1,0.1,0.1,0.1c0.1,0,0.1-0.1,0.1-0.1L410.1,161.6z"/>
                        </g>
                    </g>
                    <path id="XMLID_290_" class="st1" d="M409.3,162.1c-0.1,0-0.1,0-0.2,0c0,0.1,0,0.1,0,0.2l0.3,0.2c0.1,0,0.1,0,0.2,0
                        c0-0.1,0-0.1,0-0.2L409.3,162.1z"/>
                </g>
                <g id="XMLID_285_">
                    <g id="XMLID_287_">
                        <path id="XMLID_288_" class="st10" d="M397.7,178.8c0.2,5.8-7.2,11.3-9.7,3.6c0.2-0.1,0.9-0.3,1.2-0.4c1.8,5.3,6,1.4,5.6-3
                            C394.5,176.5,397.6,176.1,397.7,178.8z"/>
                    </g>
                    <path id="XMLID_286_" class="st10" d="M387.8,182c-0.2-0.2-0.9-0.1-1.1,0.1c-0.2,0.3-0.9,0.2-0.6-0.3c0.4-0.5,1.5-0.8,1.8-0.6
                        c0-0.1-0.1-0.2-0.1-0.2l0.8-0.3l0.2,0.9L387.8,182z"/>
                </g>
                <g id="XMLID_281_">
                    <g id="XMLID_283_">
                        <path id="XMLID_284_" class="st10" d="M397,176.4c2.3-1.1,7.2-2.7,13.8-2c0,0.2-0.1,0.9-0.1,1.1c-6.5-0.2-8.7,1.9-12.9,3.9
                            c-1,0.5-3,0.7-3.1-0.5C394.5,177.4,396.1,176.8,397,176.4z"/>
                    </g>
                    <path id="XMLID_282_" class="st10" d="M411.2,174.5c0.2-0.1,0.4-0.7,0.3-1c-0.1-0.3,0.2-0.7,0.5-0.2s0.1,1.3-0.2,1.5
                        c0.1,0,0.2,0,0.2,0l-0.1,0.8l-0.8-0.1L411.2,174.5z"/>
                </g>
                <g id="XMLID_274_">
                    <g id="XMLID_279_">
                        <path id="XMLID_280_" class="st1" d="M398.7,164.8c0.1-0.6,0.1-1.7,1-2c0.8-0.2,1.3-0.2,1.7,0.3c0.4,0.5,0.8,0.9,0.8,0.9
                            l-0.4,0.1c0,0,0.1,0.2,0.1,0.3c0,0-0.6-0.1-0.7,0.5c-0.1,0.5,0.3,0.3,0.6,0.4c0.2,0-0.1,0.3-0.1,0.3c-0.3,0.6-0.5,1.2-0.9,2.1
                            l-3.1-1.2C398.1,166.2,398.5,165.6,398.7,164.8z"/>
                    </g>
                    <g id="XMLID_275_">
                        <circle id="XMLID_278_" class="st10" cx="401.1" cy="163.6" r="0.2"/>
                        <circle id="XMLID_277_" class="st10" cx="400.7" cy="163.7" r="0.2"/>
                        <path id="XMLID_276_" class="st10" d="M398.7,163.3c-0.1-0.4,0.2-0.8,0.6-0.8s0.7-0.2,0.6-0.4c0.4,0.2,0.4,0.7,0.2,1
                            c-0.3,0.3-1.1,0.5-1.2,0.6c0.1,0.2,0,1-0.2,1.1C398.3,164.5,398.1,163.5,398.7,163.3z"/>
                    </g>
                </g>
                <g id="XMLID_272_">
                    <path id="XMLID_273_" class="st10" d="M397.7,166.7c1.2,0.5,2,0.8,3.1,1.2c-0.7,2.6-0.2,6.1,0.7,9c-1.9,0.5-4.9,1.8-6.8,2.1
                        C394.4,175,394.8,170.1,397.7,166.7z"/>
                </g>
                <polygon id="XMLID_271_" class="st1" points="399.7,167.4 400.2,167.6 400.2,168.4 399.4,168.2        "/>
                <path id="XMLID_242_" class="st1" d="M399.7,168.3c0.1,0,0.2,0,0.3,0.1c-0.1,2.9-0.5,4.5-4.8,5.6c-0.4-0.2-1.2-0.7-1.2-0.7
                    l0.8-0.9C398.2,171.9,399.3,170.7,399.7,168.3z"/>
                <g id="XMLID_240_">
                    <path id="XMLID_241_" class="st10" d="M397.7,166.7c1.5,0.5,0.8,2.5-0.6,1.9c-4.6-1.8-10.2,0.6-8.8,5.3l-0.8,0.1
                        C385.5,169,391.4,164.6,397.7,166.7z"/>
                </g>
                <g id="XMLID_230_">
                    <g id="XMLID_238_">
                        <path id="XMLID_239_" class="st1" d="M387.5,174.2c0-0.1,0-0.1,0.1-0.2l0.8-0.1c0.1,0,0.1,0,0.2,0.1l0.1,0.5
                            c0,0.1,0,0.1-0.1,0.2l-0.8,0.1c-0.1,0-0.1,0-0.2-0.1L387.5,174.2z"/>
                    </g>
                    <g id="XMLID_232_">
                        <g id="XMLID_233_">
                            <path id="XMLID_237_" class="st1" d="M387.6,174.9c0,0.1,0.1,0.1,0.1,0.1c0.1,0,0.1-0.1,0.1-0.1l-0.1-0.3
                                c0-0.1-0.1-0.1-0.1-0.1c-0.1,0-0.1,0.1-0.1,0.1L387.6,174.9z"/>
                            <path id="XMLID_236_" class="st1" d="M388.4,174.8c0,0.1,0.1,0.1,0.1,0.1c0.1,0,0.1-0.1,0.1-0.1l-0.1-0.3
                                c0-0.1-0.1-0.1-0.1-0.1c-0.1,0-0.1,0.1-0.1,0.1L388.4,174.8z"/>
                            <path id="XMLID_235_" class="st1" d="M388.2,174.8c0,0.1,0.1,0.1,0.1,0.1c0.1,0,0.1-0.1,0.1-0.1l-0.1-0.3
                                c0-0.1-0.1-0.1-0.1-0.1c-0.1,0-0.1,0.1-0.1,0.1L388.2,174.8z"/>
                            <path id="XMLID_234_" class="st1" d="M387.9,174.9c0,0.1,0.1,0.1,0.1,0.1c0.1,0,0.1-0.1,0.1-0.1l-0.1-0.3
                                c0-0.1-0.1-0.1-0.1-0.1c-0.1,0-0.1,0.1-0.1,0.1L387.9,174.9z"/>
                        </g>
                    </g>
                    <path id="XMLID_231_" class="st1" d="M388.7,174.4c0.1,0,0.1,0,0.2,0c0-0.1,0-0.1,0-0.2l-0.3-0.2c-0.1,0-0.1,0-0.2,0
                        c0,0.1,0,0.1,0,0.2L388.7,174.4z"/>
                </g>
            </g>
            <g id="XMLID_178_">
                <g id="XMLID_222_">
                    <g id="XMLID_224_">
                        <g id="XMLID_225_">
                            <g id="XMLID_226_">
                                <g id="XMLID_227_">
                                    <path id="XMLID_228_" class="st10" d="M451.9,152.6c-4.4-4.6-11.1-5.5-14.6-1.4l0.6,0.7c2.7-2.5,7.9-2.5,12.2,2.5
                                        C451.3,155.7,453,153.8,451.9,152.6z"/>
                                </g>
                            </g>
                        </g>
                    </g>
                    <path id="XMLID_223_" class="st1" d="M437.1,151.2c0.1-0.1,0.2-0.1,0.2,0l0.6,0.7c0.1,0.1,0.1,0.2,0,0.2l-0.4,0.4
                        c-0.1,0.1-0.2,0.1-0.2,0l-0.6-0.7c-0.1-0.1-0.1-0.2,0-0.2L437.1,151.2z"/>
                </g>
                <path id="XMLID_221_" class="st1" d="M464.4,154.3c0-0.1-0.1-0.1-0.2,0c-0.1,0-0.1,0.1,0,0.2l0.3,0.4c0,0.1,0.1,0.1,0.2,0
                    c0.1,0,0.1-0.1,0-0.2L464.4,154.3z"/>
                <g id="XMLID_215_">
                    <g id="XMLID_216_">
                        <path id="XMLID_220_" class="st1" d="M436.5,151.7c-0.1,0-0.1,0.1,0,0.2c0,0.1,0.1,0.1,0.2,0l0.3-0.2c0.1,0,0.1-0.1,0-0.2
                            c0-0.1-0.1-0.1-0.2,0L436.5,151.7z"/>
                        <path id="XMLID_219_" class="st1" d="M437.1,152.5c-0.1,0-0.1,0.1,0,0.2c0,0.1,0.1,0.1,0.2,0l0.3-0.2c0.1,0,0.1-0.1,0-0.2
                            c0-0.1-0.1-0.1-0.2,0L437.1,152.5z"/>
                        <path id="XMLID_218_" class="st1" d="M436.9,152.2c-0.1,0-0.1,0.1,0,0.2c0,0.1,0.1,0.1,0.2,0l0.3-0.2c0.1,0,0.1-0.1,0-0.2
                            c0-0.1-0.1-0.1-0.2,0L436.9,152.2z"/>
                        <path id="XMLID_217_" class="st1" d="M436.7,152c-0.1,0-0.1,0.1,0,0.2c0,0.1,0.1,0.1,0.2,0l0.3-0.2c0.1,0,0.1-0.1,0-0.2
                            c0-0.1-0.1-0.1-0.2,0L436.7,152z"/>
                    </g>
                </g>
                <path id="XMLID_213_" class="st1" d="M437.7,152.5c0,0.1,0.1,0.1,0.1,0.1c0.1,0,0.1-0.1,0.1-0.1V152c0-0.1-0.1-0.1-0.1-0.1
                    c-0.1,0-0.1,0.1-0.1,0.1V152.5z"/>
                <g id="XMLID_203_">
                    <g id="XMLID_206_">
                        <g id="XMLID_211_">
                            <path id="XMLID_212_" class="st1" d="M454.2,150.9c0.1-0.5,0.7-1.5,1.6-1.4c0.8,0.1,1.2,0.4,1.4,0.9c0.2,0.6,0.3,1.1,0.3,1.1
                                h-0.4c0,0,0,0.2,0,0.3c0,0.1-0.5-0.2-0.7,0.3s0.2,0.5,0.3,0.7c0.1,0.1-0.1,0.2-0.1,0.2c-0.1,0.3-1.1,1.1-2.6,1.9l-2.2-2.3
                                C452.5,152.3,454.1,151.5,454.2,150.9z"/>
                        </g>
                        <g id="XMLID_207_">
                            <circle id="XMLID_210_" class="st10" cx="456.8" cy="150.7" r="0.2"/>
                            <circle id="XMLID_209_" class="st10" cx="456.4" cy="150.7" r="0.2"/>
                            <path id="XMLID_208_" class="st10" d="M454.7,149.6c0.1-0.4,0.5-0.6,0.9-0.5c0.4,0.1,0.7,0.1,0.7-0.1c0.3,0.3,0.1,0.8-0.2,0.9
                                c-0.3,0.2-1.1,0.1-1.3,0c0,0.2-0.3,0.9-0.6,0.9C453.9,150.5,454.1,149.5,454.7,149.6z"/>
                        </g>
                    </g>
                    <g id="XMLID_204_">
                        <path id="XMLID_205_" class="st10" d="M451.9,152.6c0.9,0.9,1.4,1.5,2.2,2.3c-3.5,3.5-5,5.4-6.5,9.7c-2.4-1.1-4.8-2.5-6.8-3.6
                            C444.4,154.3,447.4,153.3,451.9,152.6z"/>
                    </g>
                </g>
                <g id="XMLID_199_">
                    <g id="XMLID_201_">
                        <polygon id="XMLID_202_" class="st1" points="452.5,154.2 453.2,154.8 453.4,154.2 453,153.8              "/>
                    </g>
                    <path id="XMLID_200_" class="st1" d="M452.7,154.4c0.1,0,0.2,0.1,0.2,0.2c-1.5,2.5-5.5,2-8.5,0.5c-0.2-0.4-0.4-1.4-0.4-1.4
                        l1.6-0.3C447.4,155.1,451.2,156.5,452.7,154.4z"/>
                </g>
                <g id="XMLID_196_">
                    <g id="XMLID_197_">
                        <path id="XMLID_198_" class="st10" d="M451.1,155.5c-1.5-1.5,0.6-3.1,1.9-1.7c3.4,3.6,10,8.4,11.5,1.1l0.9,0.2
                            C464.2,164.4,455.2,159.8,451.1,155.5z"/>
                    </g>
                </g>
                <g id="XMLID_189_">
                    <g id="XMLID_190_">
                        <path id="XMLID_195_" class="st1" d="M465.8,154.2c0-0.1,0-0.1-0.1-0.2c-0.1,0-0.1,0-0.2,0.1l-0.1,0.4c0,0.1,0,0.1,0.1,0.2
                            c0.1,0,0.1,0,0.2-0.1L465.8,154.2z"/>
                        <path id="XMLID_194_" class="st1" d="M465.6,155c0,0.1-0.1,0.1-0.2,0.1l-0.9-0.2c-0.1,0-0.1-0.1-0.1-0.2l0.1-0.6
                            c0-0.1,0.1-0.1,0.2-0.1l0.9,0.2c0.1,0,0.1,0.1,0.1,0.2L465.6,155z"/>
                        <path id="XMLID_193_" class="st1" d="M464.8,154c0-0.1,0-0.1-0.1-0.2c-0.1,0-0.1,0-0.2,0.1l-0.1,0.4c0,0.1,0,0.1,0.1,0.2
                            c0.1,0,0.1,0,0.2-0.1L464.8,154z"/>
                        <path id="XMLID_192_" class="st1" d="M465.2,154.1c0-0.1,0-0.1-0.1-0.2c-0.1,0-0.1,0-0.2,0.1l-0.1,0.4c0,0.1,0,0.1,0.1,0.2
                            c0.1,0,0.1,0,0.2-0.1L465.2,154.1z"/>
                        <path id="XMLID_191_" class="st1" d="M465.5,154.1c0-0.1,0-0.1-0.1-0.2c-0.1,0-0.1,0-0.2,0.1l-0.1,0.4c0,0.1,0,0.1,0.1,0.2
                            c0.1,0,0.1,0,0.2-0.1L465.5,154.1z"/>
                    </g>
                </g>
                <g id="XMLID_185_">
                    <path id="XMLID_188_" class="st10" d="M451.6,174.9c0.1,0.2,0.7,0.3,1,0.1c0.2-0.2,0.7,0.1,0.2,0.4c-0.4,0.3-1.3,0.3-1.5,0.1
                        c0,0.1,0,0.2,0,0.2l-0.8,0.1V175L451.6,174.9z"/>
                    <g id="XMLID_186_">
                        <path id="XMLID_187_" class="st10" d="M444.1,160.3c4.9,1.9,11.1,5.9,7.5,14.1c-0.2,0-0.8,0.1-1.1,0.1c2.9-7.4-3.3-9-8-11.1
                            C439.3,162,441,159.1,444.1,160.3z"/>
                    </g>
                </g>
                <g id="XMLID_179_">
                    <path id="XMLID_182_" class="st10" d="M428.8,167.4c-0.2,0.1-0.5,0.6-0.4,0.9c0.1,0.3-0.3,0.6-0.5,0.1s0.1-1.3,0.4-1.4
                        c-0.1,0-0.2,0-0.2,0l0.2-0.8l0.8,0.2L428.8,167.4z"/>
                    <g id="XMLID_180_">
                        <path id="XMLID_181_" class="st10" d="M444.8,164.3c-3.9,4.1-7.4,5.3-15.6,3.1c0.1-0.2,0.2-0.8,0.3-1.1
                            c6.3,1.6,9.2-0.5,12.5-4.3C443.6,160.2,447.3,161.8,444.8,164.3z"/>
                    </g>
                </g>
            </g>
            <g id="XMLID_135_">
                <g id="XMLID_175_">
                    <g id="XMLID_176_">
                        <path id="XMLID_177_" class="st10" d="M456.3,224.8c1.7-0.2,2.3,2.3,0.8,2.4c-4.5,0.4-11.4,0.9-15,1.9l-0.4-0.8
                            C446,226.5,450.9,225.5,456.3,224.8z"/>
                    </g>
                </g>
                <g id="XMLID_165_">
                    <g id="XMLID_172_">
                        <g id="XMLID_173_">
                            <path id="XMLID_174_" class="st1" d="M441.5,228.3c0.1,0,0.2,0,0.2,0.1l0.4,0.8c0,0.1,0,0.2-0.1,0.2l-0.5,0.3
                                c-0.1,0-0.2,0-0.2-0.1l-0.4-0.8c0-0.1,0-0.2,0.1-0.2L441.5,228.3z"/>
                        </g>
                    </g>
                    <path id="XMLID_171_" class="st1" d="M441.7,229.6c0,0.1,0,0.1,0.1,0.2c0.1,0,0.1,0,0.2-0.1l0.1-0.4c0-0.1,0-0.1-0.1-0.2
                        c-0.1,0-0.1,0-0.2,0.1L441.7,229.6z"/>
                    <g id="XMLID_166_">
                        <path id="XMLID_170_" class="st1" d="M441.2,229.5c-0.1,0-0.1,0.1,0,0.2c0,0.1,0.1,0.1,0.2,0l0.2-0.1c0.1,0,0.1-0.1,0-0.2
                            c0-0.1-0.1-0.1-0.2,0L441.2,229.5z"/>
                        <path id="XMLID_169_" class="st1" d="M441.1,229.2c-0.1,0-0.1,0.1,0,0.2c0,0.1,0.1,0.1,0.2,0l0.2-0.1c0.1,0,0.1-0.1,0-0.2
                            c0-0.1-0.1-0.1-0.2,0L441.1,229.2z"/>
                        <path id="XMLID_168_" class="st1" d="M440.9,229c-0.1,0-0.1,0.1,0,0.2c0,0.1,0.1,0.1,0.2,0l0.2-0.1c0.1,0,0.1-0.1,0-0.2
                            c0-0.1-0.1-0.1-0.2,0L440.9,229z"/>
                        <path id="XMLID_167_" class="st1" d="M440.8,228.7c-0.1,0-0.1,0.1,0,0.2c0,0.1,0.1,0.1,0.2,0l0.2-0.1c0.1,0,0.1-0.1,0-0.2
                            c0-0.1-0.1-0.1-0.2,0L440.8,228.7z"/>
                    </g>
                </g>
                <g id="XMLID_136_">
                    <g id="XMLID_161_">
                        <g id="XMLID_163_">
                            <path id="XMLID_164_" class="st10" d="M462.2,234.2c2.8,8.8,12.2,8.9,15.3,0.7c-0.2-0.1-0.9-0.2-1.1-0.3
                                c-2.6,6.1-9.5,6.1-10.1-0.1C465.9,230.7,461.1,230.6,462.2,234.2z"/>
                        </g>
                        <path id="XMLID_162_" class="st10" d="M477.6,234.5c0.2-0.2,0.8-0.2,1.1,0c0.2,0.2,0.9,0.1,0.5-0.3c-0.4-0.4-1.5-0.6-1.7-0.4
                            c0-0.1,0.1-0.2,0.1-0.2l-0.8-0.2l-0.2,0.8L477.6,234.5z"/>
                    </g>
                    <g id="XMLID_157_">
                        <g id="XMLID_159_">
                            <path id="XMLID_160_" class="st10" d="M464.8,232c-6.3-0.9-10.8-0.7-17.5,2.8c0.1,0.2,0.4,0.8,0.6,1c5.9-2.4,8.9-1.9,16.9-1
                                C467.2,235,467.4,232.4,464.8,232z"/>
                        </g>
                        <path id="XMLID_158_" class="st10" d="M446.9,235c-0.2,0-0.7-0.5-0.7-0.8s-0.5-0.5-0.5,0c0,0.6,0.5,1.3,0.8,1.4
                            c-0.1,0-0.2,0.1-0.2,0.1l0.4,0.8l0.7-0.5L446.9,235z"/>
                    </g>
                    <g id="XMLID_150_">
                        <g id="XMLID_155_">
                            <path id="XMLID_156_" class="st1" d="M455.2,222.7c-0.3-0.9-0.9-1.5-1.8-1.3c-0.8,0.2-1.3,0.5-1.4,1.1
                                c-0.1,0.7-0.2,1.2-0.2,1.2l0.4-0.1c0,0,0,0.2,0,0.3s0.8-0.4,0.9,0.1s-0.5,0.4-0.6,0.6c-0.1,0.1,0.1,0.2,0.1,0.2
                                c0.2,0.3,1.6,0.9,2.5,1.5l2-2.8C456,223.3,455.4,223.2,455.2,222.7z"/>
                        </g>
                        <g id="XMLID_151_">
                            <circle id="XMLID_154_" class="st10" cx="452.4" cy="222.7" r="0.2"/>
                            <circle id="XMLID_153_" class="st10" cx="452.8" cy="222.6" r="0.2"/>
                            <path id="XMLID_152_" class="st10" d="M454.5,221.3c-0.1-0.4-0.6-0.6-1-0.4s-0.7,0.2-0.7,0c-0.3,0.3,0,0.8,0.3,1
                                c0.4,0.1,1.2,0,1.4-0.1c0,0.2,0.5,0.9,0.7,0.9C455.4,222.2,455.1,221.2,454.5,221.3z"/>
                        </g>
                    </g>
                    <g id="XMLID_148_">
                        <path id="XMLID_149_" class="st10" d="M457.1,223.6c-0.8,1.1-1.3,1.8-2,2.8c1.9,1.4,5,1.9,4.4,7.3c2.8,0.2,5,0.7,7.5,0.9
                            C469.2,226.4,461.4,221.7,457.1,223.6z"/>
                    </g>
                    <polygon id="XMLID_147_" class="st1" points="455.8,225.3 455.5,225.8 455.9,226.4 456.5,225.8            "/>
                    <g id="XMLID_140_">
                        <path id="XMLID_146_" class="st1" d="M474.3,228.4c0-0.1-0.1-0.2-0.1-0.2l-1-0.1c-0.1,0-0.2,0.1-0.2,0.1l-0.1,0.7
                            c0,0.1,0.1,0.2,0.1,0.2l1,0.1c0.1,0,0.2-0.1,0.2-0.1L474.3,228.4z"/>
                        <path id="XMLID_145_" class="st1" d="M473.5,229.1c0,0.1-0.1,0.1-0.2,0.1l0,0c-0.1,0-0.1-0.1-0.1-0.2l0.1-0.6
                            c0-0.1,0.1-0.1,0.2-0.1l0,0c0.1,0,0.1,0.1,0.1,0.2L473.5,229.1z"/>
                        <path id="XMLID_144_" class="st1" d="M473.2,229.1c0,0.1-0.1,0.1-0.2,0.1l0,0c-0.1,0-0.1-0.1-0.1-0.2l0.1-0.6
                            c0-0.1,0.1-0.1,0.2-0.1l0,0c0.1,0,0.1,0.1,0.1,0.2L473.2,229.1z"/>
                        <path id="XMLID_143_" class="st1" d="M473.9,229.2c0,0.1-0.1,0.1-0.2,0.1l0,0c-0.1,0-0.1-0.1-0.1-0.2l0.1-0.6
                            c0-0.1,0.1-0.1,0.2-0.1l0,0c0.1,0,0.1,0.1,0.1,0.2L473.9,229.2z"/>
                        <path id="XMLID_142_" class="st1" d="M474.2,229.2c0,0.1-0.1,0.1-0.2,0.1l0,0c-0.1,0-0.1-0.1-0.1-0.2l0.1-0.6
                            c0-0.1,0.1-0.1,0.2-0.1l0,0c0.1,0,0.1,0.1,0.1,0.2L474.2,229.2z"/>
                        <path id="XMLID_141_" class="st1" d="M472.9,228.7c-0.1,0.1-0.2,0.1-0.2,0l0,0c-0.1-0.1-0.1-0.2,0-0.2l0.3-0.4
                            c0.1-0.1,0.2-0.1,0.2,0l0,0c0.1,0.1,0.1,0.2,0,0.2L472.9,228.7z"/>
                    </g>
                    <g id="XMLID_138_">
                        <path id="XMLID_139_" class="st10" d="M457.1,223.6c-1.2,1.8,1,3.3,2.1,1.6c3.5-5.6,16.2-3.3,14,2.9l1,0.1
                            C477.4,221.6,462.2,216.3,457.1,223.6z"/>
                    </g>
                    <path id="XMLID_137_" class="st1" d="M456.3,226c-0.1,0.1-0.1,0.2-0.2,0.2c1.7,2.4,7.1,0.9,10.6,0.6c0.3-0.3,1-1.3,1-1.3l-1.4-1
                        C463.8,225.6,458,227.9,456.3,226z"/>
                </g>
            </g>
            <g id="XMLID_19_">
                <g id="XMLID_20_">
                    <g id="XMLID_121_">
                        <path id="XMLID_132_" class="st10" d="M397.5,208.4c-6.3,6.3-10.8,5-9.1-3.2h1c-0.9,5.5,0.8,7.9,5.9,1.7
                            C396.8,205.1,398.9,206.9,397.5,208.4z"/>
                    </g>
                    <g id="XMLID_66_">
                        <g id="XMLID_97_">
                            <g id="XMLID_112_">
                                <g id="XMLID_119_">
                                    <path id="XMLID_120_" class="st1" d="M393.7,202.1c0.4-0.4,1-0.6,1.6-0.3c0.7,0.3,0.9,0.6,0.7,1.6c-0.1,0.5,0.7,0.9,1.3,0.9
                                        l-2.2,2.6c-0.7-0.5-2.1-1.3-2.1-2.5c0-0.2-0.1-0.2,0-0.3c0.1-0.1,0.6,0.2,0.7-0.5c0.1-0.3-0.7-0.4-0.6-0.4
                                        c0-0.1,0.1-0.3,0.1-0.3l-0.4-0.1C393,202.8,393.3,202.4,393.7,202.1z"/>
                                </g>
                                <circle id="XMLID_116_" class="st10" cx="394" cy="202.5" r="0.2"/>
                                <circle id="XMLID_113_" class="st10" cx="394.3" cy="202.6" r="0.2"/>
                            </g>
                            <path id="XMLID_98_" class="st10" d="M396.3,202.2c0.1-0.3-0.1-0.6-0.4-0.6s-0.5-0.2-0.4-0.3c-0.3,0.1-0.4,0.5-0.2,0.7
                                c0.2,0.2,0.8,0.5,0.9,0.5c-0.1,0.1-0.1,0.8,0.1,0.8C396.5,203.2,396.7,202.4,396.3,202.2z"/>
                        </g>
                        <path id="XMLID_96_" class="st10" d="M395.3,206.9c0,0,2.7,4.8,2.7,10.1c2.7,0,5.8,0,7.5,0c0-6.2-3.2-12.7-8.1-12.7
                            C397.1,204.7,395.3,206.9,395.3,206.9z"/>
                        <g id="XMLID_72_">
                            <path id="XMLID_95_" class="st10" d="M413.3,217.9l0.6,0.5c0.1-0.1,0.5,0.1,0.6,0.3s0.4,0.2,0.3-0.2c-0.1-0.3-0.6-0.6-0.8-0.6
                                c0-0.1,0.1-0.1,0.1-0.1l-0.4-0.3L413.3,217.9z"/>
                            <g id="XMLID_83_">
                                <path id="XMLID_94_" class="st10" d="M399.2,217c1,6.4,9.8,8.9,14.5,1.6c-0.1-0.1-0.4-0.4-0.6-0.5c-4.1,5.3-9.7,3.7-10.6-1.1
                                    C402.1,214.6,398.9,214.6,399.2,217z"/>
                            </g>
                        </g>
                        <g id="XMLID_67_">
                            <path id="XMLID_71_" class="st10" d="M391.6,228.4c-0.1,0-0.4-0.2-0.6-0.4c-0.1-0.2-0.5-0.2-0.3,0.1c0.2,0.4,0.5,0.7,0.8,0.7
                                l-0.1,0.1l0.4,0.4l0.4-0.4L391.6,228.4z"/>
                            <g id="XMLID_68_">
                                <path id="XMLID_70_" class="st10" d="M401,216.4c-2.3,2.4-7.3,8.3-9.2,11.8c0.1,0.1,0,0,0.5,0.5c2.3-3.2,8.6-8.9,12-11.8
                                    C406.1,215.4,402.6,214.7,401,216.4z"/>
                            </g>
                        </g>
                    </g>
                    <g id="XMLID_37_">
                        <path id="XMLID_65_" class="st1" d="M410.9,211.9c0,0.1-0.1,0.2-0.2,0.2s-0.2-0.1-0.2-0.2v-0.5c0-0.1,0.1-0.2,0.2-0.2
                            s0.2,0.1,0.2,0.2V211.9z"/>
                        <g id="XMLID_56_">
                            <g id="XMLID_58_">
                                <g id="XMLID_59_">
                                    <path id="XMLID_60_" class="st11" d="M410.8,212c-0.1-0.1-0.1-0.2,0-0.3l1-1c0.1-0.1,0.2-0.1,0.3,0c0.1,0.1,0.1,0.2,0,0.3
                                        l-1,1C411,212.1,410.9,212.1,410.8,212z"/>
                                </g>
                            </g>
                            <path id="XMLID_57_" class="st11" d="M411.3,213.1l0.2-0.2l-0.6-0.6c0,0,0-0.1,0-0.2l1.3-1.3c0,0,0.1-0.1,0.2,0l0.6,0.6
                                l0.2-0.2l-0.6-0.6c-0.1-0.1-0.4-0.1-0.5,0l-1.3,1.3c-0.2,0.2-0.2,0.4,0,0.5L411.3,213.1L411.3,213.1z"/>
                        </g>
                        <g id="XMLID_44_">
                            <path id="XMLID_53_" class="st11" d="M416.6,212.4c0.2,0.2,0.2,0.5,0,0.7l-3.3,3.3c-0.2,0.2-0.5,0.2-0.7,0l-2.2-2.2
                                c-0.2-0.2-0.2-0.5,0-0.7l3.3-3.3c0.2-0.2,0.5-0.2,0.7,0L416.6,212.4z"/>
                            <path id="XMLID_50_" class="st10" d="M413.7,210.2l-3.3,3.3c-0.2,0.2-0.2,0.5,0,0.7l0.9,0.9l4.1-4.1l-0.9-0.9
                                C414.2,210,413.9,210,413.7,210.2z"/>
                            <g id="XMLID_45_">
                                <path id="XMLID_49_" class="st7" d="M412.9,212.9c-0.1,0.1-0.1,0.4,0,0.5l0.2,0.2c0.1,0.1,0.4,0.1,0.5,0s0.1-0.4,0-0.5
                                    l-0.2-0.2C413.3,212.7,413.1,212.7,412.9,212.9z"/>
                                <path id="XMLID_46_" class="st10" d="M413.3,213.1c-0.1-0.1-0.1-0.1-0.2,0s-0.1,0.1,0,0.2h0.1l0.1,0.1h0.1v-0.1L413.3,213.1
                                    C413.4,213.2,413.4,213.1,413.3,213.1z"/>
                            </g>
                        </g>
                        <g id="XMLID_38_">
                            <path id="XMLID_43_" class="st1" d="M412.3,211.1c0.1,0.1,0.1,0.2,0,0.2c-0.1,0.1-0.2,0.1-0.2,0l-0.3-0.3
                                c-0.1-0.1-0.1-0.2,0-0.2c0.1-0.1,0.2-0.1,0.2,0L412.3,211.1z"/>
                            <path id="XMLID_42_" class="st1" d="M411.6,210.5c-0.1-0.1-0.2-0.1-0.3,0l-0.7,0.7c-0.1,0.1-0.1,0.2,0,0.3l0.5,0.5
                                c0.1,0.1,0.2,0.1,0.3,0l0.7-0.7c0.1-0.1,0.1-0.2,0-0.3L411.6,210.5z"/>
                            <path id="XMLID_41_" class="st1" d="M411.5,211.9c0.1,0.1,0.1,0.2,0,0.2c-0.1,0.1-0.2,0.1-0.2,0l-0.3-0.3
                                c-0.1-0.1-0.1-0.2,0-0.2c0.1-0.1,0.2-0.1,0.2,0L411.5,211.9z"/>
                            <path id="XMLID_40_" class="st1" d="M411.8,211.7c0.1,0.1,0.1,0.2,0,0.2c-0.1,0.1-0.2,0.1-0.2,0l-0.3-0.3
                                c-0.1-0.1-0.1-0.2,0-0.2c0.1-0.1,0.2-0.1,0.2,0L411.8,211.7z"/>
                            <path id="XMLID_39_" class="st1" d="M412,211.4c0.1,0.1,0.1,0.2,0,0.2c-0.1,0.1-0.2,0.1-0.2,0l-0.3-0.3c-0.1-0.1-0.1-0.2,0-0.2
                                c0.1-0.1,0.2-0.1,0.2,0L412,211.4z"/>
                        </g>
                    </g>
                    <g id="XMLID_35_">
                        <path id="XMLID_36_" class="st10" d="M397.5,204.2c4.3,0,9.7,1.5,13.9,6.2l-0.7,0.7c-4-4.1-9.5-4.4-13.1-4.4
                            C396.2,206.9,396.9,204.9,397.5,204.2z"/>
                    </g>
                    <g id="XMLID_25_">
                        <g id="XMLID_33_">
                            <path id="XMLID_34_" class="st1" d="M388.2,205.1c0,0.1,0.1,0.2,0.2,0.2h1c0.1,0,0.2-0.1,0.2-0.2v-0.7c0-0.1-0.1-0.2-0.2-0.2
                                h-1c-0.1,0-0.2,0.1-0.2,0.2V205.1z"/>
                        </g>
                        <path id="XMLID_32_" class="st1" d="M389.7,204.6c0.1-0.1,0.2-0.1,0.2,0c0.1,0.1,0.1,0.2,0,0.2l-0.4,0.4c-0.1,0.1-0.2,0.1-0.2,0
                            c-0.1-0.1-0.1-0.2,0-0.2L389.7,204.6z"/>
                        <g id="XMLID_27_">
                            <path id="XMLID_31_" class="st1" d="M388.2,204.1c0-0.1,0.1-0.2,0.2-0.2s0.2,0.1,0.2,0.2v0.3c0,0.1-0.1,0.2-0.2,0.2
                                s-0.2-0.1-0.2-0.2V204.1z"/>
                            <path id="XMLID_30_" class="st1" d="M389.3,204.1c0-0.1,0.1-0.2,0.2-0.2s0.2,0.1,0.2,0.2v0.3c0,0.1-0.1,0.2-0.2,0.2
                                s-0.2-0.1-0.2-0.2V204.1z"/>
                            <path id="XMLID_29_" class="st1" d="M388.9,204.1c0-0.1,0.1-0.2,0.2-0.2s0.2,0.1,0.2,0.2v0.3c0,0.1-0.1,0.2-0.2,0.2
                                s-0.2-0.1-0.2-0.2V204.1z"/>
                            <path id="XMLID_28_" class="st1" d="M388.5,204.1c0-0.1,0.1-0.2,0.2-0.2s0.2,0.1,0.2,0.2v0.3c0,0.1-0.1,0.2-0.2,0.2
                                s-0.2-0.1-0.2-0.2V204.1z"/>
                        </g>
                        <path id="XMLID_26_" class="st1" d="M389.8,204.6c0.1,0,0.2,0.1,0.2,0.2s-0.1,0.2-0.2,0.2h-0.4c-0.1,0-0.2-0.1-0.2-0.2
                            s0.1-0.2,0.2-0.2H389.8z"/>
                    </g>
                    <g id="XMLID_21_">
                        <g id="XMLID_23_">
                            <path id="XMLID_24_" class="st1" d="M396.3,206.7c-0.3-0.3-0.6,0.1-0.4,0.4c1.9,2.2,4.3,3.1,6.4,3.9c0.4-0.3,1.1-0.7,1.1-0.7
                                s-0.5-0.8-0.7-1C400.5,208.8,398,208.5,396.3,206.7z"/>
                        </g>
                        <polygon id="XMLID_22_" class="st1" points="395.9,206.2 395.5,206.7 395.9,207.2 396.5,206.6                 "/>
                    </g>
                </g>
            </g>
                </g>

    </g>
</g>
</svg>