<svg id="svg4656" xmlns:rdf="http://www.w3.org/1999/02/22-rdf-syntax-ns#" xmlns="http://www.w3.org/2000/svg" height="45.42mm" width="101.36mm" version="1.1" xmlns:cc="http://creativecommons.org/ns#" xmlns:dc="http://purl.org/dc/elements/1.1/" viewBox="0 0 359.16626 160.9375">
 <g id="layer1" transform="translate(-157.56 -491.89)">
  <path id="path500" d="m469.33 577.48c0.89125-0.69125 1.9262-1.0262 3.3738-1.0138 6.0012 0 6.0012 16.108 0 16.108-1.5138 0.0263-2.5612-0.58375-3.3738-1.515v-13.579zm47.396 20.352h-3.9588-43.438v-3.9888c1.0638 0.85625 2.3825 1.3862 4.14 1.3575 8.6812 0 8.6812-21.784 0-21.784-1.7088-0.015-3.015 0.2875-4.14 0.9025v-6.0188c0-3.3338-25-3.3338-25 0v29.531h-16.796v-1.0162h-5.1825v-3.7188c0-8.375-21.355-8.375-21.355 0v3.7188h-5.65v1.0162h-16.016v-1.0262c0-4.585-15.449-7.2062-33.125-7.8675v-15.794h63.438v-81.25h-145v81.25h63.438v15.794c-17.676 0.66125-33.125 3.2825-33.125 7.8675v1.0262h-55.729v-12.761h-34.584v12.761h-4.375v-26.875h-2.1088l5.0175-13.428 0.04-4.51-2.9262 3.43-4.0275 10.776 3.635-16.345-3.0088-0.66875-4.6138 20.745h-0.56625l2.3775-17.041-0.94125-4.4088-2.1112 3.9838-2.4362 17.466h-2.9912l0.71-17.604-1.3688-4.2962-1.71 4.1725-0.60375 14.945-2.6188-15.202-2.2388-3.915-0.79875 4.4375 2.1688 12.584-5.8575-9.49-2.6225 1.6188 7.8675 12.75h-2.0738v26.875h-14.942-3.9575v10h3.9575v45h351.25v-45h3.9588v-10z" fill="#0071bc"/>
 </g>
</svg>
