<?xml version="1.0" encoding="utf-8"?>
<!-- Generator: Adobe Illustrator 16.0.0, SVG Export Plug-In . SVG Version: 6.00 Build 0)  -->
<!DOCTYPE svg PUBLIC "-//W3C//DTD SVG 1.1//EN" "http://www.w3.org/Graphics/SVG/1.1/DTD/svg11.dtd">
<svg version="1.1" id="Слой_1" xmlns="http://www.w3.org/2000/svg" xmlns:xlink="http://www.w3.org/1999/xlink" x="0px" y="0px"
	 width="90px" height="90px" viewBox="0 0 90 90" enable-background="new 0 0 90 90" xml:space="preserve">
<g>
	<path fill="#FFFFFF" d="M88.988,44.988c0,24.056-19.501,43.557-43.557,43.557c-24.055,0-43.557-19.501-43.557-43.557
		c0-24.055,19.502-43.557,43.557-43.557C69.487,1.432,88.988,20.934,88.988,44.988"/>
	<path fill="#333333" d="M65.599,31.798l-1.697-8.049c-0.155-0.737-0.884-1.202-1.613-1.052c-0.736,0.155-1.206,0.877-1.052,1.612
		l0.788,3.736c-7.023-7.052-18.019-8.979-27.085-4.46c-9.657,4.816-14.771,15.526-12.436,26.046
		c0.142,0.634,0.705,1.065,1.328,1.065c0.098,0,0.197-0.01,0.297-0.033c0.733-0.162,1.197-0.889,1.033-1.623
		c-2.064-9.297,2.455-18.762,10.992-23.019c8.342-4.157,18.522-2.143,24.675,4.726l-4.325,0.037
		c-0.752,0.007-1.356,0.955-1.35,1.708c0.007,0.747,0.614,1.684,1.361,1.684h0.012l7.751-0.402c0.408-0.004,0.793-0.358,1.048-0.676
		C65.584,32.781,65.683,32.196,65.599,31.798"/>
	<path fill="#333333" d="M68.286,39.415c-0.165-0.731-0.886-1.184-1.628-1.027c-0.734,0.167-1.193,0.896-1.028,1.629
		c2.108,9.327-2.405,18.827-10.976,23.1c-8.108,4.044-17.827,2.339-24.072-4.076l4.294-0.037c0.752-0.005,1.356-0.348,1.351-1.099
		c-0.006-0.748-0.615-1.078-1.361-1.078h-0.012l-7.753-0.208c-0.408,0.004-0.794,0.054-1.05,0.372
		c-0.256,0.317-0.356,0.667-0.271,1.066l1.697,8.017c0.137,0.642,0.702,1.063,1.332,1.063c0.093,0,0.187-0.017,0.281-0.037
		c0.736-0.155,1.207-0.882,1.052-1.616l-0.808-3.835c4.413,4.166,10.188,6.378,16.064,6.378c3.547-0.001,7.131-0.807,10.471-2.472
		C65.565,60.719,70.672,49.971,68.286,39.415"/>
	<path fill="#FFFFFF" d="M66.023,31.707l-1.695-8.049c-0.2-0.944-1.162-1.587-2.13-1.388c-0.969,0.206-1.592,1.16-1.388,2.13
		l0.5,2.373c-4.349-3.866-10.098-6.06-15.985-6.06c-3.664,0-7.323,0.859-10.579,2.483C24.908,28.102,19.7,39.01,22.08,49.727
		c0.181,0.814,0.918,1.406,1.752,1.406c0.131,0,0.264-0.014,0.391-0.043c0.469-0.104,0.869-0.384,1.127-0.789
		s0.342-0.885,0.238-1.354c-2.021-9.102,2.403-18.367,10.761-22.534c2.768-1.379,5.875-2.107,8.985-2.107
		c5.475,0,10.703,2.181,14.496,6.016L56.5,30.35c-0.481,0.004-0.956,0.271-1.303,0.733c-0.304,0.402-0.482,0.919-0.479,1.383
		c0.009,0.965,0.795,2.085,1.829,2.085h0.001l7.732-0.371c0.632-0.005,1.139-0.517,1.385-0.822
		C66.034,32.9,66.125,32.182,66.023,31.707 M64.988,32.811c-0.246,0.307-0.521,0.496-0.731,0.498l-7.742,0.371
		c-0.472,0-0.919-0.688-0.925-1.222c-0.002-0.274,0.113-0.601,0.303-0.853c0.184-0.243,0.408-0.383,0.614-0.385l5.291-0.047
		l-0.644-0.717c-3.999-4.463-9.766-7.024-15.82-7.024c-3.245,0-6.486,0.761-9.373,2.201c-8.717,4.346-13.332,14.01-11.224,23.501
		c0.054,0.242,0.011,0.49-0.123,0.698c-0.132,0.208-0.338,0.353-0.58,0.407c-0.474,0.104-0.995-0.216-1.104-0.704
		c-2.292-10.323,2.727-20.835,12.204-25.561c3.138-1.563,6.662-2.391,10.191-2.391c6.133,0,12.106,2.467,16.391,6.769l1.039,1.042
		l-1.092-5.175c-0.105-0.5,0.216-0.992,0.714-1.098c0.487-0.101,0.996,0.229,1.098,0.715l1.697,8.05
		C65.234,32.18,65.147,32.611,64.988,32.811"/>
	<path fill="#FFFFFF" d="M45.398,68.46L45.398,68.46c-5.665,0-11.07-1.979-15.365-5.604l0.535,2.535
		c0.204,0.971-0.418,1.929-1.388,2.133c-0.117,0.023-0.24,0.046-0.373,0.046c-0.859,0-1.582-0.58-1.757-1.41l-1.697-8.021
		c-0.108-0.514,0.016-1.012,0.357-1.438c0.386-0.479,0.943-0.545,1.387-0.549l7.767,0.177c1.068,0,1.79,0.619,1.796,1.54
		c0.006,0.489-0.194,0.914-0.56,1.193c-0.314,0.243-0.737,0.373-1.221,0.377l-3.236-0.07c3.723,3.44,8.682,5.297,13.77,5.297h0.001
		c3.117,0,6.246-0.641,9.045-2.037c8.391-4.184,12.811-13.433,10.746-22.565c-0.217-0.967,0.391-1.907,1.356-2.125
		c1.012-0.216,1.936,0.421,2.148,1.369c2.431,10.751-2.771,21.705-12.647,26.63C52.764,67.583,49.074,68.459,45.398,68.46
		 M28.619,60.374l1.013,0.957c4.276,4.035,9.876,6.257,15.767,6.257c3.543,0,7.096-0.839,10.275-2.425
		c9.517-4.744,14.527-15.293,12.188-25.65c-0.111-0.491-0.605-0.804-1.113-0.698c-0.492,0.112-0.805,0.607-0.692,1.106
		c2.152,9.522-2.456,19.125-11.208,23.487c-2.919,1.457-6.182,2.129-9.434,2.129h-0.001c-5.67,0-11.189-2.23-15.144-6.292
		l-0.711-0.681l5.314-0.021c0.277-0.003,0.922-0.063,0.916-0.68c-0.004-0.609-0.647-0.67-0.924-0.67l-7.775-0.173
		c-0.368,0.003-0.574,0.069-0.7,0.225c-0.181,0.225-0.239,0.451-0.185,0.712l1.698,8.021c0.101,0.477,0.53,0.804,1.099,0.692
		c0.498-0.105,0.818-0.6,0.713-1.101L28.619,60.374z"/>
	<path fill="#333333" d="M55.735,43.01L43.469,55.276c-0.328,0.328-0.894,0.332-1.227,0l-0.736-0.736L55,41.047l0.735,0.736
		C56.06,42.105,56.078,42.667,55.735,43.01 M35.128,46.936l12.267-12.268c0.322-0.322,0.899-0.327,1.227,0l3.68,3.681L38.807,51.841
		l-3.679-3.679C34.81,47.843,34.793,47.27,35.128,46.936 M56.717,40.802l-7.114-7.115c-0.981-0.981-2.207-0.982-3.188,0
		L34.146,45.953c-0.984,0.984-0.981,2.209,0,3.189l7.115,7.114c0.979,0.979,2.207,0.982,3.189,0l12.266-12.266
		C57.695,43.013,57.7,41.785,56.717,40.802"/>
</g>
</svg>
