<?xml version="1.0" encoding="utf-8"?>
<!-- Generator: Adobe Illustrator 16.0.0, SVG Export Plug-In . SVG Version: 6.00 Build 0)  -->
<!DOCTYPE svg PUBLIC "-//W3C//DTD SVG 1.1//EN" "http://www.w3.org/Graphics/SVG/1.1/DTD/svg11.dtd">
<svg version="1.1" id="Слой_1" xmlns="http://www.w3.org/2000/svg" xmlns:xlink="http://www.w3.org/1999/xlink" x="0px" y="0px"
	 width="90px" height="90px" viewBox="0 0 90 90" enable-background="new 0 0 90 90" xml:space="preserve">
<g>
	<path fill="#FFFFFF" d="M89.047,44.988c0,24.056-19.501,43.557-43.557,43.557c-24.055,0-43.557-19.501-43.557-43.557
		c0-24.055,19.502-43.557,43.557-43.557C69.546,1.432,89.047,20.934,89.047,44.988"/>
	<path fill="#333333" d="M58.501,47.008c-3.94,0-7.148,3.208-7.148,7.148c0,0.607,0.493,1.102,1.1,1.102s1.101-0.494,1.101-1.102
		c0-2.729,2.22-4.948,4.948-4.948c0.607,0,1.101-0.492,1.101-1.099C59.602,47.502,59.108,47.008,58.501,47.008"/>
	<path fill="#333333" d="M34.394,47.008c-3.941,0-7.148,3.208-7.148,7.148c0,0.607,0.491,1.102,1.1,1.102
		c0.606,0,1.1-0.494,1.1-1.102c0-2.729,2.221-4.948,4.949-4.948c0.607,0,1.101-0.492,1.101-1.099
		C35.494,47.502,35.001,47.008,34.394,47.008"/>
	<path fill="#333333" d="M57.471,61.712c-4.68,0-8.485-3.807-8.485-8.486c0-2.268,0.884-4.399,2.485-6.001
		c1.603-1.604,3.734-2.486,6-2.486c2.269,0,4.399,0.882,6.002,2.486c0.595,0.595,1.092,1.266,1.479,1.988l0.059,0.115
		c0.618,1.19,0.948,2.518,0.948,3.897C65.958,57.905,62.15,61.712,57.471,61.712 M40.922,45.813c-1.978-1.98-4.612-3.07-7.412-3.07
		c-1.771,0-3.438,0.444-4.9,1.223l6.726-13.682c0.814-1.747,2.899-2.504,4.644-1.69c1.223,0.57,2.016,1.812,2.018,3.166v2.146
		c-0.975,0.376-1.877,0.909-2.653,1.594c-0.167,0.145-0.282,0.345-0.323,0.563l-0.999,5.241c-0.075,0.394,0.1,0.78,0.425,1.002
		c-0.003,0.002-0.006,0.005-0.008,0.007l3.559,2.452v2.321C41.672,46.642,41.32,46.211,40.922,45.813 M33.51,61.712
		c-4.68,0-8.486-3.807-8.486-8.486c0-4.681,3.807-8.487,8.486-8.487c2.268,0,4.399,0.882,6.002,2.486
		c1.604,1.602,2.484,3.733,2.484,6.001C41.996,57.905,38.189,61.712,33.51,61.712 M50.066,36.791l0.471,2.457
		c-1.521-0.815-3.247-1.249-5.047-1.249c-1.796,0-3.525,0.434-5.046,1.249l0.468-2.457c1.254-0.994,2.865-1.536,4.578-1.536
		S48.816,35.797,50.066,36.791 M40.686,41.442c1.389-0.933,3.053-1.446,4.805-1.446c1.753,0,3.417,0.514,4.806,1.446l-2.619,1.799
		h-4.372L40.686,41.442z M48.991,31.763c0.003-1.355,0.792-2.598,2.014-3.167c1.745-0.814,3.831-0.058,4.651,1.707l6.711,13.65
		c-1.492-0.789-3.162-1.211-4.896-1.211c-2.799,0-5.434,1.09-7.412,3.07c-0.397,0.398-0.749,0.829-1.073,1.273v-2.321l3.563-2.45
		c-0.003-0.002-0.005-0.004-0.009-0.007c0.322-0.224,0.498-0.61,0.424-1l-0.998-5.242c-0.042-0.219-0.156-0.416-0.322-0.564
		c-0.781-0.684-1.68-1.217-2.654-1.593C48.988,33.908,48.991,31.791,48.991,31.763 M66.988,48.839
		c-0.012-0.021-0.014-0.044-0.024-0.065c-2.392-4.825-9.507-19.335-9.507-19.335c-1.28-2.744-4.554-3.934-7.296-2.656
		c-1.894,0.883-3.126,2.79-3.167,4.879c-0.003,0.033-0.006,1.716-0.006,1.716c-0.491-0.075-0.99-0.12-1.498-0.12
		c-0.507,0-1.006,0.045-1.497,0.12c0,0,0.003-1.683,0-1.714c-0.039-2.091-1.279-3.995-3.169-4.878
		c-2.743-1.279-6.018-0.088-7.288,2.637c0,0-9.54,19.427-9.555,19.461c-0.55,1.35-0.955,2.792-0.955,4.343
		c0,5.779,4.704,10.482,10.483,10.482s10.483-4.703,10.483-10.482v-7.987h2.995v7.987c0,5.779,4.703,10.482,10.482,10.482
		c5.781,0,10.483-4.703,10.483-10.482C67.954,51.684,67.588,50.209,66.988,48.839"/>
</g>
</svg>
