<?xml version="1.0" encoding="utf-8"?>
<!-- Generator: Adobe Illustrator 16.0.0, SVG Export Plug-In . SVG Version: 6.00 Build 0)  -->
<!DOCTYPE svg PUBLIC "-//W3C//DTD SVG 1.1//EN" "http://www.w3.org/Graphics/SVG/1.1/DTD/svg11.dtd">
<svg version="1.1" id="Слой_1" xmlns="http://www.w3.org/2000/svg" xmlns:xlink="http://www.w3.org/1999/xlink" x="0px" y="0px"
	 width="90px" height="90px" viewBox="0 0 90 90" enable-background="new 0 0 90 90" xml:space="preserve">
<g>
	<path fill="#FFFFFF" d="M88.583,44.988c0,24.056-19.501,43.557-43.557,43.557c-24.055,0-43.557-19.501-43.557-43.557
		c0-24.055,19.502-43.557,43.557-43.557C69.082,1.432,88.583,20.934,88.583,44.988"/>
	<path d="M44.93,67.462c-2.128-0.746-15.92-6.01-15.92-17.491V28.506c8.014-0.287,14.098-4.234,15.92-5.573
		c1.82,1.339,7.906,5.286,15.918,5.576v21.465C60.851,61.452,47.058,66.719,44.93,67.462 M64.418,25.051h-0.982
		c-10.129,0-17.783-6.177-17.861-6.24l-0.127-0.104l-0.515-0.424h-0.005l-0.516,0.424l-0.13,0.104
		c-0.079,0.061-7.729,6.24-17.857,6.24h-0.981v25.402c0,14.964,19.294,21.182,19.484,21.242c0.191-0.061,19.486-6.278,19.486-21.242
		L64.418,25.051z"/>
	<path fill="none" stroke="#FFFFFF" stroke-width="1.5" stroke-miterlimit="10" d="M45.025,67.462
		c-2.127-0.746-15.92-6.01-15.92-17.491V28.506c8.015-0.287,14.098-4.234,15.92-5.573c1.82,1.339,7.906,5.286,15.919,5.576v21.465
		C60.947,61.452,47.154,66.719,45.025,67.462z M64.514,25.051h-0.982c-10.129,0-17.782-6.177-17.861-6.24l-0.126-0.104l-0.515-0.424
		h-0.006l-0.516,0.424l-0.13,0.104c-0.079,0.061-7.729,6.24-17.856,6.24h-0.982v25.402c0,14.964,19.295,21.182,19.484,21.242
		c0.191-0.061,19.487-6.278,19.487-21.242L64.514,25.051z"/>
	<text transform="matrix(0.7071 -0.7071 0.7071 0.7071 38.1226 58.0264)"><tspan x="0" y="0" fill="#333333" font-family="'Lato-Black'" font-size="11.8036">RIS</tspan><tspan x="19.245" y="-0.001" fill="#333333" font-family="'Lato-Black'" font-size="11.8036">K</tspan></text>
</g>
</svg>
