<?xml version="1.0" encoding="utf-8"?>
<!-- Generator: Adobe Illustrator 16.0.0, SVG Export Plug-In . SVG Version: 6.00 Build 0)  -->
<!DOCTYPE svg PUBLIC "-//W3C//DTD SVG 1.1//EN" "http://www.w3.org/Graphics/SVG/1.1/DTD/svg11.dtd">
<svg version="1.1" id="Слой_1" xmlns="http://www.w3.org/2000/svg" xmlns:xlink="http://www.w3.org/1999/xlink" x="0px" y="0px"
	 width="90px" height="90px" viewBox="0 0 90 90" enable-background="new 0 0 90 90" xml:space="preserve">
<g>
	<path fill="#FFFFFF" d="M88.518,44.988c0,24.056-19.501,43.557-43.557,43.557c-24.055,0-43.557-19.501-43.557-43.557
		c0-24.055,19.502-43.557,43.557-43.557C69.017,1.432,88.518,20.934,88.518,44.988"/>
	<path fill="#333333" d="M21.349,26.299c-0.548,0-1.003,0.455-1.003,1.003v29.904c0,0.546,0.455,1.003,1.003,1.003h47.226
		c0.547,0,1.003-0.457,1.003-1.003V27.302c0-0.548-0.456-1.003-1.003-1.003H21.349z M68.574,60.031H21.349
		c-1.551,0-2.827-1.275-2.827-2.825V27.302c0-1.55,1.276-2.826,2.827-2.826h47.226c1.55,0,2.827,1.276,2.827,2.826v29.904
		C71.401,58.756,70.124,60.031,68.574,60.031"/>
	<rect x="44.049" y="59.12" fill="#333333" width="1.823" height="5.469"/>
	<rect x="34.933" y="63.678" fill="#333333" width="20.058" height="1.824"/>
	<path fill="#333333" d="M46.36,46.601l-0.333-0.769c0.011,0.002,0.02,0.007,0.029,0.007h0.512L46.36,46.601z M58.134,36.689
		c0.175,0.045,0.362-0.006,0.489-0.136c0.127-0.129,0.175-0.317,0.127-0.491l-0.531-1.899c-0.048-0.174-0.187-0.31-0.362-0.355
		c-0.179-0.046-0.362,0.006-0.489,0.136l-1.379,1.407c-0.128,0.13-0.177,0.316-0.128,0.492c0.048,0.176,0.187,0.312,0.361,0.355
		l0.268,0.069l-2.329,9.058l-3.652-9.196c-0.103-0.267-0.363-0.444-0.667-0.429c-0.293,0.015-0.538,0.216-0.618,0.496l-2.535,9.221
		h-0.631c-0.07,0-0.131,0.038-0.168,0.091l-1.819-4.215c-0.092-0.213-0.282-0.362-0.511-0.399c-0.02-0.002-0.062-0.006-0.082-0.009
		c-0.259-0.011-0.506,0.129-0.628,0.358l-2.222,4.173h-0.708c-0.116,0-0.211,0.093-0.211,0.21c0,0.116,0.095,0.211,0.211,0.211
		h0.485l-0.75,1.409l-1.125-1.943c-0.095-0.164-0.255-0.28-0.433-0.32c-0.183-0.044-0.385-0.004-0.54,0.101l-0.479,0.334h-0.229
		c-0.116,0-0.21,0.095-0.21,0.21c0,0.029,0.007,0.057,0.016,0.081l-5.472,3.772c-0.307,0.212-0.384,0.634-0.17,0.944
		c0.103,0.151,0.267,0.254,0.447,0.282c0.174,0.029,0.349-0.01,0.494-0.111l5.769-3.979l1.368,2.364
		c0.102,0.176,0.278,0.296,0.479,0.329c0.031,0.005,0.089,0.009,0.12,0.009c0.245-0.004,0.469-0.143,0.586-0.359l3.109-5.838
		l2.494,5.785c0.093,0.213,0.283,0.364,0.512,0.399c0.056,0.009,0.109,0.011,0.156,0.007c0.288-0.021,0.531-0.22,0.607-0.497
		l2.839-10.314l2.744,6.911h-0.54c-0.117,0-0.21,0.095-0.21,0.21c0,0.117,0.093,0.211,0.21,0.211h0.707l0.762,1.922
		c0.088,0.221,0.288,0.381,0.521,0.42c0.052,0.009,0.103,0.012,0.151,0.009c0.293-0.018,0.542-0.222,0.614-0.508l0.472-1.84h0.719
		c0.116,0,0.211-0.095,0.211-0.211c0-0.117-0.095-0.21-0.211-0.21h-0.608l2.267-8.813L58.134,36.689z"/>
	<path fill="#333333" d="M28.518,45.417h-0.422c-0.117,0-0.211,0.095-0.211,0.211c0,0.117,0.094,0.211,0.211,0.211h0.422
		c0.116,0,0.211-0.094,0.211-0.211C28.729,45.512,28.634,45.417,28.518,45.417"/>
	<path fill="#333333" d="M33.779,45.839h0.876c0.116,0,0.211-0.094,0.211-0.211c0-0.116-0.095-0.211-0.211-0.211h-0.876
		c-0.117,0-0.211,0.095-0.211,0.211C33.568,45.745,33.662,45.839,33.779,45.839"/>
	<path fill="#333333" d="M43.865,45.417h-0.876c-0.117,0-0.211,0.095-0.211,0.211c0,0.117,0.094,0.211,0.211,0.211h0.876
		c0.117,0,0.211-0.094,0.211-0.211C44.076,45.512,43.982,45.417,43.865,45.417"/>
	<path fill="#333333" d="M31.799,45.628c0-0.116-0.094-0.211-0.211-0.211h-0.88c-0.116,0-0.21,0.095-0.21,0.211
		c0,0.117,0.094,0.211,0.21,0.211h0.877C31.705,45.839,31.799,45.745,31.799,45.628"/>
	<path fill="#333333" d="M50.004,45.417h-0.877c-0.116,0-0.21,0.095-0.21,0.211c0,0.117,0.094,0.211,0.21,0.211h0.877
		c0.117,0,0.21-0.094,0.21-0.211C50.214,45.512,50.121,45.417,50.004,45.417"/>
	<path fill="#333333" d="M59.214,45.417h-0.876c-0.117,0-0.211,0.095-0.211,0.211c0,0.117,0.094,0.211,0.211,0.211h0.876
		c0.116,0,0.211-0.094,0.211-0.211C59.425,45.512,59.33,45.417,59.214,45.417"/>
	<path fill="#333333" d="M61.827,45.417h-0.422c-0.116,0-0.211,0.095-0.211,0.211c0,0.117,0.095,0.211,0.211,0.211h0.422
		c0.116,0,0.21-0.094,0.21-0.211C62.037,45.512,61.943,45.417,61.827,45.417"/>
</g>
</svg>
