<?xml version="1.0" encoding="utf-8"?>
<!-- Generator: Adobe Illustrator 16.0.0, SVG Export Plug-In . SVG Version: 6.00 Build 0)  -->
<!DOCTYPE svg PUBLIC "-//W3C//DTD SVG 1.1//EN" "http://www.w3.org/Graphics/SVG/1.1/DTD/svg11.dtd">
<svg version="1.1" id="Слой_1" xmlns="http://www.w3.org/2000/svg" xmlns:xlink="http://www.w3.org/1999/xlink" x="0px" y="0px"
	 width="55px" height="55px" viewBox="0 0 55 55" enable-background="new 0 0 55 55" xml:space="preserve">
<g>
	<path fill="none" stroke="#0071BC" stroke-width="2" stroke-linecap="round" stroke-miterlimit="10" d="M29.812,18.233
		c-0.961-7.069-7.02-12.517-14.352-12.517c-8,0-14.485,6.485-14.485,14.485c0,6.088,3.761,11.29,9.081,13.433V44.54
		c0,0,0.861,4.292,5.404,4.292s6.17-4.292,6.17-4.292V33.293c2.743-1.295,5.017-3.421,6.489-6.055"/>
	
		<line fill="none" stroke="#0071BC" stroke-width="2" stroke-linecap="round" stroke-miterlimit="10" x1="10.055" y1="36.492" x2="21.629" y2="36.492"/>
	
		<line fill="none" stroke="#0071BC" stroke-width="2" stroke-linecap="round" stroke-miterlimit="10" x1="10.055" y1="40.248" x2="21.629" y2="40.248"/>
	
		<line fill="none" stroke="#0071BC" stroke-width="2" stroke-linecap="round" stroke-miterlimit="10" x1="10.055" y1="44.004" x2="21.629" y2="44.004"/>
	
		<polyline fill="none" stroke="#0071BC" stroke-width="2" stroke-linecap="round" stroke-linejoin="round" stroke-miterlimit="10" points="
		54.026,19.135 39.606,19.135 29.812,26.203 39.271,33.043 54.026,33.043 	"/>
	
		<line fill="none" stroke="#0071BC" stroke-width="2" stroke-linecap="round" stroke-linejoin="round" stroke-miterlimit="10" x1="37.122" y1="20.929" x2="37.122" y2="31.489"/>
</g>
</svg>
