<?xml version="1.0" encoding="utf-8"?>
<!-- Generator: Adobe Illustrator 16.0.0, SVG Export Plug-In . SVG Version: 6.00 Build 0)  -->
<!DOCTYPE svg PUBLIC "-//W3C//DTD SVG 1.1//EN" "http://www.w3.org/Graphics/SVG/1.1/DTD/svg11.dtd">
<svg version="1.1" id="Слой_1" xmlns="http://www.w3.org/2000/svg" xmlns:xlink="http://www.w3.org/1999/xlink" x="0px" y="0px"
	 width="55px" height="55px" viewBox="0 0 55 55" enable-background="new 0 0 55 55" xml:space="preserve">
<g>
	<polyline fill="none" stroke="#0071BC" stroke-width="2" stroke-linecap="round" stroke-miterlimit="10" points="18.394,8.18 
		18.394,4.587 5.291,4.587 5.291,10.575 1.031,10.575 1.031,42.381 4.806,42.381 	"/>
	<polyline fill="none" stroke="#0071BC" stroke-width="2" stroke-linecap="round" stroke-miterlimit="10" points="46.082,14.168 
		46.082,10.575 22.169,10.575 	"/>
	<polyline fill="none" stroke="#0071BC" stroke-width="2" stroke-linecap="round" stroke-miterlimit="10" points="22.169,11.792 
		22.169,8.18 9.066,8.18 9.066,14.168 4.806,14.168 4.806,45.974 8.742,45.974 	"/>
	<polyline fill="none" stroke="#0071BC" stroke-width="2" stroke-linecap="round" stroke-miterlimit="10" points="49.857,17.781 
		49.857,14.168 26.105,14.168 	"/>
	<polygon fill="none" stroke="#0071BC" stroke-width="2" stroke-linecap="round" stroke-miterlimit="10" points="26.105,17.781 
		26.105,11.792 13,11.792 13,17.781 8.742,17.781 8.742,49.587 53.793,49.587 53.793,17.781 	"/>
</g>
</svg>
