<?xml version="1.0" encoding="utf-8"?>
<!-- Generator: Adobe Illustrator 16.0.0, SVG Export Plug-In . SVG Version: 6.00 Build 0)  -->
<!DOCTYPE svg PUBLIC "-//W3C//DTD SVG 1.1//EN" "http://www.w3.org/Graphics/SVG/1.1/DTD/svg11.dtd">
<svg version="1.1" id="Слой_1" xmlns="http://www.w3.org/2000/svg" xmlns:xlink="http://www.w3.org/1999/xlink" x="0px" y="0px"
	 width="55px" height="55px" viewBox="0 0 55 55" enable-background="new 0 0 55 55" xml:space="preserve">
<g>
	<path fill="none" stroke="#0071BC" stroke-width="2" stroke-linecap="round" stroke-miterlimit="10" d="M17.509,8.805
		c0,3.606-2.924,6.53-6.53,6.53s-6.53-2.924-6.53-6.53s2.924-6.53,6.53-6.53"/>
	<polyline fill="none" stroke="#0071BC" stroke-width="2" stroke-linecap="round" stroke-miterlimit="10" points="8.959,6.591 
		10.979,8.805 15.526,2.631 	"/>
	
		<line fill="none" stroke="#0071BC" stroke-width="2" stroke-linecap="round" stroke-miterlimit="10" x1="23.124" y1="5.719" x2="50.375" y2="5.719"/>
	
		<line fill="none" stroke="#0071BC" stroke-width="2" stroke-linecap="round" stroke-miterlimit="10" x1="23.124" y1="10.934" x2="44.266" y2="10.934"/>
	<path fill="none" stroke="#0071BC" stroke-width="2" stroke-linecap="round" stroke-miterlimit="10" d="M17.509,27.274
		c0,3.606-2.924,6.53-6.53,6.53s-6.53-2.924-6.53-6.53s2.924-6.53,6.53-6.53"/>
	<polyline fill="none" stroke="#0071BC" stroke-width="2" stroke-linecap="round" stroke-miterlimit="10" points="8.959,25.061 
		10.979,27.274 15.526,21.102 	"/>
	
		<line fill="none" stroke="#0071BC" stroke-width="2" stroke-linecap="round" stroke-miterlimit="10" x1="23.124" y1="24.188" x2="50.375" y2="24.188"/>
	
		<line fill="none" stroke="#0071BC" stroke-width="2" stroke-linecap="round" stroke-miterlimit="10" x1="23.124" y1="29.402" x2="44.266" y2="29.402"/>
	
		<line fill="none" stroke="#0071BC" stroke-width="2" stroke-linecap="round" stroke-miterlimit="10" x1="23.124" y1="42.657" x2="50.375" y2="42.657"/>
	
		<line fill="none" stroke="#0071BC" stroke-width="2" stroke-linecap="round" stroke-miterlimit="10" x1="23.124" y1="47.873" x2="44.266" y2="47.873"/>
	
		<circle fill="none" stroke="#0071BC" stroke-width="2" stroke-linecap="round" stroke-miterlimit="10" cx="10.979" cy="45.744" r="6.53"/>
</g>
</svg>
