<svg xmlns="http://www.w3.org/2000/svg" id="Layer_1" viewBox="0 0 352.4 175"><style>.st0{fill:#FFFFFF;} .st1{fill:#0071BC;} .st2{enable-background:new ;} .st3{fill:#0D1272;} .st4{fill:#1C2893;} .st5{fill:#0171BB;} .st6{fill:#7FC9D8;} .st7{fill:#84CBDA;} .st8{fill:#0190D0;}</style><path d="M0 0h352.4v149H0z" class="st0"/><path d="M0 104.6h352.4V175H0z" class="st1"/><g class="st2"><path d="M166.8 29.2L156.7 54h-5l-2.3-15.6c0-.3-.1-.5-.1-.8 0-.3-.1-.6-.1-.9l-.3.9c-.1.3-.2.6-.3.8L142.5 54h-5l-4-24.8h4.4c.5 0 .9.1 1.1.3.3.2.5.5.5.9l1.7 13.3c0 .4.1.9.1 1.3 0 .5.1 1 .1 1.5.2-.5.3-1 .5-1.5s.4-.9.5-1.3l5.1-13.3c.1-.1.2-.3.3-.4l.4-.4.6-.3c.2-.1.4-.1.6-.1h1.3c.5 0 .9.1 1.1.3s.5.5.6.9l1.9 13.3c.1.4.1.8.2 1.3s.1 1 .2 1.5c.2-.5.3-1 .5-1.5.1-.5.3-.9.4-1.3l4.9-13.3c0-.2.1-.3.3-.5.1-.1.3-.3.5-.4l.6-.3c.2-.1.4-.1.7-.1h4.2zM173.7 51c-.7 1-1.5 1.8-2.4 2.4-.9.6-1.9.9-2.9.9-.6 0-1.2-.1-1.8-.4s-1.1-.6-1.6-1.2c-.5-.5-.8-1.2-1.1-2s-.4-1.7-.4-2.8c0-1.6.3-3.1.9-4.5.6-1.4 1.4-2.7 2.4-3.8 1-1.1 2.3-1.9 3.7-2.6 1.4-.6 3-1 4.7-1 .8 0 1.7.1 2.5.2s1.7.3 2.5.6l-2.1 17.1h-2.8c-.3 0-.6 0-.8-.1-.2-.1-.4-.2-.5-.3s-.2-.3-.3-.5c-.1-.2-.1-.4-.1-.7V51zm.8-11.3c-.9 0-1.6.2-2.4.6-.7.4-1.3.9-1.8 1.6-.5.7-.9 1.4-1.2 2.3-.3.9-.4 1.8-.4 2.8 0 .6 0 1 .1 1.4.1.4.2.7.4 1 .2.2.3.4.5.5.2.1.4.2.7.2.4 0 .8-.1 1.1-.4.4-.3.7-.7 1-1.2.3-.5.6-1.1.9-1.8.3-.7.5-1.4.7-2.1l.6-4.9h-.2zM188.1 39.3c.9-1.1 1.8-2 2.8-2.5s2.1-.8 3.1-.8c.7 0 1.4.1 2 .4.6.3 1.1.7 1.5 1.3.4.6.7 1.3.9 2.1s.2 1.8.1 2.9l-1.3 11.2h-5.3l1.3-11.2c.1-.5.1-.9.1-1.2 0-.3-.1-.6-.2-.8-.1-.2-.2-.3-.4-.4-.2-.1-.4-.1-.6-.1-.4 0-.8.1-1.2.4s-.8.6-1.2 1-.7 1-1 1.6c-.3.6-.6 1.3-.7 2l-1 8.7h-5.3l2.1-17.6h2.7c.5 0 1 .1 1.3.4.3.3.5.7.5 1.2v1.4zM201.6 50.1v-.3-.5s0-.5.1-.8.1-.8.2-1.4l.9-7.2h-1.4c-.2 0-.4-.1-.6-.3-.2-.2-.2-.4-.2-.8l.2-2.1 2.7-.5L205 32c.2-.5.6-.8 1.2-.8h2.9l-.6 5.2h3.9L212 40h-3.9l-.8 6.9c-.1.5-.1.8-.1 1.1 0 .3-.1.5-.1.6v.4c0 .3.1.6.2.8s.4.3.7.3c.2 0 .3 0 .5-.1.1 0 .2-.1.3-.1.1-.1.2-.1.3-.1.1 0 .2-.1.3-.1.2 0 .3 0 .3.1.1.1.1.2.2.3l1.2 2.5c-.7.5-1.5.9-2.3 1.1s-1.6.4-2.4.4c-.7 0-1.3-.1-1.8-.3-.5-.2-1-.5-1.4-.8-.4-.4-.7-.8-.9-1.3-.6-.4-.7-.9-.7-1.6zM221.3 50.1v-.3-.5c0-.2 0-.5.1-.8 0-.3.1-.8.2-1.4l.9-7.2h-1.4c-.2 0-.4-.1-.6-.3-.2-.2-.2-.4-.2-.8l.2-2.1 2.7-.5 1.5-4.3c.2-.5.6-.8 1.2-.8h2.9l-.6 5.2h3.9l-.4 3.6h-3.9l-.9 6.9c-.1.5-.1.8-.1 1.1 0 .3-.1.5-.1.6v.4c0 .3.1.6.2.8.2.2.4.3.7.3.2 0 .3 0 .5-.1.1 0 .2-.1.3-.1.1-.1.2-.1.3-.1.1 0 .2-.1.3-.1.2 0 .3 0 .3.1.1.1.2.2.2.3l1.2 2.5c-.7.5-1.5.9-2.3 1.1-.8.3-1.6.4-2.4.4-.7 0-1.3-.1-1.8-.3-.5-.2-1-.5-1.4-.8-.4-.4-.7-.8-.9-1.3-.4-.3-.6-.8-.6-1.5zM239.3 54.2c-1 0-1.9-.2-2.8-.5-.9-.3-1.6-.8-2.2-1.4s-1.1-1.4-1.5-2.3c-.4-.9-.5-2-.5-3.2 0-1.6.3-3 .8-4.3s1.2-2.4 2.1-3.4c.9-1 1.9-1.7 3-2.2 1.1-.5 2.4-.8 3.6-.8 1 0 1.9.2 2.8.5.8.3 1.6.8 2.2 1.4.6.6 1.1 1.4 1.5 2.3.4.9.5 2 .5 3.2 0 1.5-.3 3-.8 4.3-.5 1.3-1.2 2.4-2.1 3.4-.9 1-1.9 1.7-3 2.2s-2.4.8-3.6.8zm.4-3.9c.6 0 1.1-.2 1.6-.5.5-.4.9-.8 1.2-1.5.3-.6.6-1.3.7-2.2.2-.8.3-1.7.3-2.6 0-1.3-.2-2.2-.5-2.7s-.9-.8-1.7-.8c-.6 0-1.1.2-1.6.5-.5.4-.9.8-1.2 1.5s-.6 1.3-.7 2.2-.3 1.7-.3 2.6c0 1.3.2 2.2.5 2.7.4.5 1 .8 1.7.8zM264 39.1c.8-1 1.6-1.7 2.6-2.2.9-.5 1.9-.8 2.9-.8.7 0 1.4.1 2 .4.6.3 1.1.7 1.6 1.2.4.5.8 1.2 1 2.1.2.8.4 1.9.4 3 0 1.5-.2 3-.7 4.4-.5 1.4-1.1 2.6-1.9 3.7-.8 1.1-1.7 1.9-2.7 2.5s-2.1.9-3.3.9c-.9 0-1.6-.2-2.3-.5s-1.2-.8-1.7-1.3l-.1.2c-.2.5-.4.8-.6 1-.2.2-.7.3-1.2.3h-2.9l3.1-25.4h5.2L264 39.1zm-1.3 10.5c.3.3.7.5 1.1.6.4.1.8.2 1.2.2.6 0 1.2-.2 1.7-.6s1-.9 1.3-1.6.7-1.4.9-2.3c.2-.8.3-1.7.3-2.6 0-1.1-.2-1.9-.5-2.4s-.8-.8-1.3-.8c-.4 0-.8.1-1.2.4s-.8.7-1.2 1.2c-.4.5-.7 1.1-1 1.7-.3.7-.6 1.4-.8 2.1l-.5 4.1zM290.9 50.7c-.6.6-1.2 1.1-1.8 1.6-.6.4-1.2.8-1.8 1.1s-1.3.5-2 .6c-.7.1-1.5.2-2.3.2-1 0-2-.2-2.9-.5-.9-.4-1.6-.9-2.3-1.5s-1.1-1.4-1.5-2.4-.5-1.9-.5-3.1c0-.9.1-1.9.3-2.8.2-.9.5-1.7.9-2.5s.9-1.5 1.4-2.2 1.2-1.2 1.9-1.7 1.5-.8 2.3-1.1c.8-.3 1.7-.4 2.7-.4.9 0 1.8.1 2.5.4.7.3 1.3.6 1.8 1.1.5.4.9.9 1.1 1.5s.4 1.1.4 1.6c0 .8-.2 1.5-.5 2.2s-.9 1.3-1.7 1.8c-.8.5-1.8 1-3.2 1.3-1.3.4-3 .6-5 .8 0 1.2.3 2.1.8 2.6.5.6 1.2.8 2.2.8.5 0 .9 0 1.2-.1l.9-.3s.5-.3.7-.4c.2-.1.4-.3.6-.4l.6-.3c.2-.1.4-.1.7-.1.2 0 .3 0 .5.1s.3.2.4.3l1.6 1.8zm-5.8-11.1c-.9 0-1.6.3-2.3 1-.7.7-1.1 1.7-1.5 2.9 1.1-.2 2-.4 2.7-.5.7-.2 1.2-.4 1.6-.6s.6-.5.8-.7c.1-.2.2-.5.2-.8s-.1-.6-.3-.8c-.4-.3-.7-.5-1.2-.5z" class="st3"/></g><g class="st2"><path d="M167.7 82.1c-.7 1-1.5 1.8-2.4 2.4-.9.6-1.9.9-2.9.9-.6 0-1.2-.1-1.8-.4s-1.1-.6-1.6-1.2c-.5-.5-.8-1.2-1.1-2s-.4-1.7-.4-2.8c0-1.6.3-3.1.9-4.5.6-1.4 1.4-2.7 2.4-3.8 1-1.1 2.3-1.9 3.7-2.6 1.4-.6 3-1 4.7-1 .8 0 1.7.1 2.5.2s1.7.3 2.5.6l-2 17.1h-2.8c-.3 0-.6 0-.8-.1-.2-.1-.4-.2-.5-.3s-.2-.3-.3-.5c-.1-.2-.1-.4-.1-.7v-1.3zm.8-11.3c-.9 0-1.6.2-2.4.6-.7.4-1.3.9-1.8 1.6-.5.7-.9 1.4-1.2 2.3-.3.9-.4 1.8-.4 2.8 0 .6 0 1 .1 1.4.1.4.2.7.4 1 .2.2.3.4.5.5.2.1.4.2.7.2.4 0 .8-.1 1.1-.4.4-.3.7-.7 1-1.2.3-.5.6-1.1.9-1.8.3-.7.5-1.4.7-2.1l.6-4.9h-.2zM182.1 70.4c.8-1.1 1.8-2 2.8-2.5 1-.5 2.1-.8 3.1-.8.7 0 1.4.1 2 .4.6.3 1.1.7 1.5 1.3.4.6.7 1.3.9 2.1s.2 1.8.1 2.9L191.1 85h-5.3l1.3-11.2c.1-.5.1-.9.1-1.2 0-.3-.1-.6-.2-.8-.1-.2-.2-.3-.4-.4s-.4-.1-.6-.1c-.4 0-.8.1-1.2.4-.4.2-.8.6-1.2 1-.4.4-.7 1-1 1.6-.3.6-.6 1.3-.7 2l-1 8.7h-5.3l2.1-17.6h2.7c.5 0 1 .1 1.3.4s.5.7.5 1.2v1.4zM207.4 85h-5.6l3-24.8h5.6l-3 24.8zM227.1 65.2c-.2.3-.4.5-.6.6-.2.1-.4.2-.7.2-.3 0-.5-.1-.8-.3l-.9-.6c-.3-.2-.7-.4-1.1-.6-.4-.2-.9-.3-1.5-.3-.5 0-1 .1-1.4.2-.4.1-.7.4-1 .6s-.5.6-.6.9c-.1.4-.2.7-.2 1.2s.1.8.4 1.1.6.6 1 .8.9.4 1.4.6c.5.2 1.1.4 1.6.6.6.2 1.1.5 1.6.8.5.3 1 .7 1.4 1.1.4.4.8 1 1 1.6s.4 1.4.4 2.2c0 1.2-.2 2.4-.6 3.5-.4 1.1-1 2.1-1.9 2.9-.8.8-1.8 1.5-2.9 2s-2.4.7-3.9.7c-.7 0-1.4-.1-2.2-.2-.7-.2-1.4-.4-2.1-.7s-1.3-.6-1.8-1c-.6-.4-1-.8-1.4-1.3l2-2.6c.2-.2.4-.4.6-.5.2-.1.5-.2.7-.2.3 0 .6.1.9.3.3.2.6.5 1 .7.4.3.8.5 1.3.7.5.2 1.1.3 1.8.3 1 0 1.8-.3 2.4-.8.6-.6.8-1.4.8-2.5 0-.5-.1-.9-.4-1.3s-.6-.6-1-.8c-.4-.2-.9-.4-1.4-.6-.5-.2-1.1-.4-1.6-.6-.6-.2-1.1-.4-1.6-.7-.5-.3-1-.6-1.4-1.1-.4-.4-.7-1-1-1.6s-.4-1.5-.4-2.4c0-1.1.2-2.2.6-3.2.4-1 1-1.9 1.8-2.7.8-.8 1.7-1.4 2.8-1.9s2.3-.7 3.7-.7c.7 0 1.4.1 2 .2.7.1 1.3.4 1.9.6s1.1.6 1.6.9c.5.4.9.7 1.2 1.2l-1.5 2.7zM253.9 71.1c0 1.3-.2 2.6-.5 3.8-.3 1.2-.8 2.4-1.3 3.4-.6 1.1-1.3 2-2.1 2.9s-1.7 1.6-2.7 2.2c-1 .6-2.1 1.1-3.3 1.4s-2.4.5-3.7.5c-1.6 0-3.1-.3-4.4-.9-1.3-.6-2.4-1.4-3.3-2.3-.9-1-1.6-2.2-2.1-3.5-.5-1.3-.7-2.8-.7-4.3 0-1.3.2-2.6.5-3.8s.8-2.4 1.3-3.4 1.3-2 2.1-2.9c.8-.9 1.7-1.6 2.7-2.2 1-.6 2.1-1.1 3.3-1.4s2.4-.5 3.7-.5c1.6 0 3.1.3 4.4.9 1.3.6 2.4 1.4 3.3 2.4.9 1 1.6 2.2 2.1 3.5s.7 2.6.7 4.2zm-5.7.1c0-1-.1-1.9-.4-2.8-.2-.8-.6-1.5-1.1-2.1-.5-.6-1-1.1-1.7-1.4-.7-.3-1.5-.5-2.3-.5-1.1 0-2.1.2-3 .7-.9.5-1.7 1.1-2.3 2-.6.8-1.1 1.9-1.4 3.1s-.5 2.5-.5 4c0 1 .1 1.9.4 2.8s.6 1.5 1 2.1c.5.6 1 1 1.7 1.4.7.3 1.5.5 2.3.5 1.1 0 2.1-.2 3.1-.7s1.7-1.1 2.3-2 1.1-1.9 1.5-3.1c.2-1.2.4-2.6.4-4zM256.9 62.6c.4-.4.9-.7 1.4-1s1-.6 1.6-.8 1.1-.4 1.8-.5c.6-.1 1.3-.2 2-.2 1 0 1.8.1 2.5.4.7.3 1.3.6 1.8 1.1.5.5.8 1 1.1 1.6.2.6.4 1.2.4 1.9 0 1-.1 1.8-.4 2.4-.2.7-.6 1.2-.9 1.7-.4.5-.8.9-1.2 1.2s-.9.7-1.3 1c-.4.3-.8.7-1.2 1.1s-.6.8-.8 1.3l-.7 2.4h-3.5v-2.7c0-.6.1-1.1.4-1.6.3-.5.6-.9 1-1.3s.8-.7 1.3-1.1.9-.7 1.3-1c.4-.4.7-.7 1-1.2.3-.4.4-.9.4-1.4 0-.6-.2-1.1-.5-1.5-.3-.4-.8-.5-1.6-.5-.5 0-1 .1-1.4.2s-.7.3-1 .4c-.3.2-.5.3-.7.4-.2.1-.4.2-.6.2-.3 0-.5 0-.6-.1-.1-.1-.2-.3-.4-.5l-1.2-1.9zm.8 19.8c0-.4.1-.8.2-1.1.2-.4.4-.7.6-.9.3-.3.6-.5.9-.6.4-.2.8-.2 1.2-.2.4 0 .8.1 1.2.2.4.2.7.4 1 .6.3.3.5.6.6.9.2.4.2.7.2 1.1s-.1.8-.2 1.1c-.2.4-.4.7-.6.9-.3.3-.6.5-1 .6-.4.1-.8.2-1.2.2-.4 0-.8-.1-1.2-.2-.4-.1-.7-.4-.9-.6-.3-.3-.5-.6-.6-.9-.1-.3-.2-.7-.2-1.1z" class="st3"/></g><path d="M130.7 86.8h8.1c.4 0 .9-.1 1.3.2v3.9h-1.3c-.5.4-1.1.4-1.7.4H63.8c-.6 0-1.2 0-1.7-.4-1.5.1-1.2 0-1.2-1.2v-2.1c-.1-.7.2-.9.9-.9h19.3l49.6.1z" class="st4"/><path d="M62.2 104.6h76.5v-1.9c0-3.9 0-7.8.1-11.7H62.2V104.6z" class="st3"/><path d="M95.9 86.9H81.1V66.5c0-.6-.2-.9-.6-1.3-8.2-7-12.6-16-14.4-26.5-.8-4.9-1.1-9.7-.7-14.7 0-.3-.1-.8.5-.8 1.5-.6 3.1-.5 4.6 0 .3 0 .7 0 1.1.1.1 1.2 0 2.4 0 3.5.2 5.8 1.7 11.2 4.3 16.3 1.7 3.4 4.4 6 7.5 8.3 1.4 1 3.3 1.6 5 1.7.4.4-.2.8-.3 1.3-.2 1.6.2 2.9 1.3 4.1 1.1 1.2 2.5 2.1 3.9 3 .6.4 1 .1 1.4-.3.4-.4.8-.9 1.5-.7 1.3.7 1.7 1.8 1.6 3.3-.5 5.8-.8 11.5-1.2 17.3-.1 1.4-.2 2.8-.2 4.1 0 .7-.1 1.2-.5 1.7zM115.8 86.8h-13.7c-.3-.3-.4-.6-.4-.9-.1-2.9-.3-5.7-.5-8.6-.2-3.1-.3-6.2-.6-9.3-.1-1.6-.1-3.2-.3-4.8-.2-1.4.7-2.1 1.8-2.7.6-.2 1 .2 1.4.6.6.7 1.2.7 1.9.2 1.6-1.1 3.4-1.9 4.8-3.3.9-1 1.4-2.1 1.2-3.4-.1-.3-.2-.7.2-1 1.4.4 2.5 1.2 3.5 2.3 7.9 8.7 12.8 18.9 15.6 30.3.1.2.1.5.1.7h-8.4c-.5-.4-.6-1-.9-1.6-1.5-3.8-3.3-7.4-5.5-11.1v11.3c0 .4.1.9-.2 1.3z" class="st5"/><path d="M110.3 35.7c.1 1.7-.5 3.3-.7 4.9-.5 2.7-.8 5.4-.8 8.2 0 .8 0 1.6.5 2.3l.3 1.5c.4 1.9.1 2.6-1.7 3.4-2.7 1.1-5.5 1.3-8.3 1.3-2 .1-4-.1-5.9-.5-.7-.1-1.3-.3-2-.6-2-.9-2.7-2.7-1.7-4.7v-6.8c0-.8-.2-1.2-1-1.4-1.1-.3-1.1-.4-.9-1.5.6-2.3 1.2-4.6 1.7-6.9.5-2.2 1.4-4.3 2.9-6 .1-.1.1-.3.1-.4.2-.1.5 0 .7 0 3.4 1.3 6.9 1.6 10.5 1.7 1.6.1 1.7.1 1.9 1.6.2 1.4 1.1 2.2 2.2 2.9.7.4 1.5.6 2.2 1z" class="st6"/><path d="M110.3 35.7c-2.4 0-4.8-2.1-4.8-4.4 0-.8-.3-.9-.9-.9-3.1 0-6.2-.4-9.2-1.1-.9-.2-1.7-.5-2.5-1-1.2-.8-2-1.9-2-3.4.5-.1 1 .2 1.5.3 1.5.4 2.9.4 4.3-.2 1.7-.7 3.6-1.1 5.4-1.4.9-.1 1.8-.2 2.7 0 1.7.3 3 1.2 3.3 3.1.1.5.3.6.7.7 1.9.5 2.8 2.1 2.7 4.4-.2 1.3-.7 2.6-1.2 3.9z" class="st3"/><path d="M70.6 23.3H66c-.2-2-.5-3.9-1.2-5.8-.2-.4-.7-1-.1-1.3.7-.3.8.4 1.1.9.1.3.1.6.5.8.2-.7-.3-1.4-.2-2 0-.3-.1-.7.4-.8s.6.3.6.6c.2.8.3 1.6.6 2.4v-2.7c0-.3-.1-.7.5-.8.5 0 .6.4.6.7.1.8-.1 1.6.3 2.4 0-.6 0-1.1.1-1.7 0-.4.2-.7.6-.6.4 0 .5.3.5.7 0 .5 0 1.1-.2 1.6-.1.4-.1.8 0 1.2.5-.3.6-.8.9-1.2.2-.2.5-.4.8-.2.3.2.3.5.2.8-.3.6-.6 1.3-.9 1.8-.5.8-.7 1.6-.4 2.5-.1.2-.2.4-.1.7z" class="st7"/><path d="M95.9 60.6c.9-1.2 2.1-2.2 3.1-3.3.2-.2.3-.2.5-.1.3.8 1 1.2 1.6 1.8.5.5 1.1 1 1.5 1.6l-1.9 2.2s1.5 22.9 1.5 24H96c.3-2.2 1.8-24.2 1.8-24.2l-1.9-2zM98.2 37.6c0 .9-.6 1.5-1.5 1.5-.8 0-1.5-.7-1.5-1.4 0-.8.7-1.5 1.5-1.5.9 0 1.5.6 1.5 1.4zM94.3 37.7c0 .9-.7 1.5-1.5 1.5s-1.4-.7-1.5-1.5c0-.8.7-1.5 1.5-1.5s1.4.7 1.5 1.5z" class="st3"/><path d="M99.6 57c2.3-.1 4.5-.2 6.7-.8.7-.2 1.5-.5 2.1-.8 1-.6 1.1-2.3.9-4.3 1.2.5 1.8 1.4 2.3 2.5.2 1.3.5 2.7-.5 3.8-.8 1-1.7 1.9-2.8 2.5-1.1.6-2.2 1.3-3.2 1.9-.6.4-.9.3-1.4-.2-.3-.4-3.7-2.9-4.3-4.4l.2-.2z" class="st8"/><path d="M99.6 57v.2c-1.2 1.1-4.5 4.2-5 4.6-.3.3-.5.4-.9.2-1.8-1.2-3.7-2.2-5-4.1-.8-1.2-1-2.4-.7-3.8.1-.7 1.5-2.7 1.9-2.7v2.3c0 .7.3 1.2.9 1.6 1.4.9 3 1.1 4.6 1.4 1.3.3 2.7.2 4.2.3z" class="st8"/><g><path d="M296.9 164.8c-.4 0-.8-.2-1.1-.5l-.2-.2c-.1-.1-.1-.2-.1-.3 0-.1-.1-.2-.1-.3v-.3c0-.4.2-.8.5-1.1.6-.6 1.6-.6 2.2 0 .3.3.5.7.5 1.1v.3c0 .1 0 .2-.1.3 0 .1-.1.2-.1.3-.1.1-.1.2-.2.2-.1.1-.2.1-.2.2-.1.1-.2.1-.3.1-.1 0-.2.1-.3.1-.3.1-.4.1-.5.1zM289.1 163.3c0-.9.7-1.5 1.6-1.5.9 0 1.5.7 1.5 1.5 0 .9-.7 1.5-1.5 1.5-.9 0-1.6-.6-1.6-1.5zm-6.1 0c0-.9.7-1.5 1.5-1.5.9 0 1.5.7 1.5 1.5 0 .9-.7 1.5-1.5 1.5s-1.5-.6-1.5-1.5zm-6.2 0c0-.9.7-1.5 1.5-1.5.9 0 1.5.7 1.5 1.5 0 .9-.7 1.5-1.5 1.5s-1.5-.6-1.5-1.5zm-6.1 0c0-.9.7-1.5 1.5-1.5.9 0 1.5.7 1.5 1.5 0 .9-.7 1.5-1.5 1.5s-1.5-.6-1.5-1.5zm-6.2 0c0-.9.7-1.5 1.5-1.5.9 0 1.5.7 1.5 1.5 0 .9-.7 1.5-1.5 1.5s-1.5-.6-1.5-1.5zm-6.2 0c0-.9.7-1.5 1.5-1.5.9 0 1.6.7 1.6 1.5 0 .9-.7 1.5-1.6 1.5-.8 0-1.5-.6-1.5-1.5zm-6.1 0c0-.9.7-1.5 1.6-1.5.9 0 1.5.7 1.5 1.5 0 .9-.7 1.5-1.5 1.5-.9 0-1.6-.6-1.6-1.5zm-6.2 0c0-.9.7-1.5 1.5-1.5.9 0 1.5.7 1.5 1.5 0 .9-.7 1.5-1.5 1.5s-1.5-.6-1.5-1.5zm-6.1 0c0-.9.7-1.5 1.5-1.5.9 0 1.6.7 1.6 1.5 0 .9-.7 1.5-1.6 1.5-.8 0-1.5-.6-1.5-1.5zm-6.2 0c0-.9.7-1.5 1.5-1.5.9 0 1.6.7 1.6 1.5 0 .9-.7 1.5-1.6 1.5-.8 0-1.5-.6-1.5-1.5zm-6.2 0c0-.9.7-1.5 1.5-1.5.9 0 1.6.7 1.6 1.5 0 .9-.7 1.5-1.6 1.5-.7 0-1.5-.6-1.5-1.5zm-6.1 0c0-.9.7-1.5 1.5-1.5.9 0 1.6.7 1.6 1.5 0 .9-.7 1.5-1.6 1.5-.8 0-1.5-.6-1.5-1.5zm-6.2 0c0-.9.7-1.5 1.6-1.5.8 0 1.5.7 1.5 1.5 0 .9-.7 1.5-1.5 1.5-.9 0-1.6-.6-1.6-1.5zm-6.1 0c0-.9.7-1.5 1.6-1.5.8 0 1.5.7 1.5 1.5 0 .9-.7 1.5-1.5 1.5-.9 0-1.6-.6-1.6-1.5zm-6.2 0c0-.9.7-1.5 1.6-1.5.8 0 1.5.7 1.5 1.5 0 .9-.7 1.5-1.5 1.5-.9 0-1.6-.6-1.6-1.5zm-6.1 0c0-.9.7-1.5 1.6-1.5.9 0 1.5.7 1.5 1.5 0 .9-.7 1.5-1.5 1.5-.9 0-1.6-.6-1.6-1.5zm-6.2 0c0-.9.7-1.5 1.6-1.5.9 0 1.6.7 1.6 1.5 0 .9-.7 1.5-1.6 1.5-.9 0-1.6-.6-1.6-1.5zm-6.2 0c0-.9.7-1.5 1.6-1.5.9 0 1.5.7 1.5 1.5 0 .9-.7 1.5-1.5 1.5-.9 0-1.6-.6-1.6-1.5zm-6.1 0c0-.9.7-1.5 1.5-1.5.9 0 1.5.7 1.5 1.5 0 .9-.7 1.5-1.5 1.5s-1.5-.6-1.5-1.5zm-6.2 0c0-.9.7-1.5 1.6-1.5.9 0 1.5.7 1.5 1.5 0 .9-.7 1.5-1.5 1.5-.9 0-1.6-.6-1.6-1.5zm-6.1 0c0-.9.7-1.5 1.5-1.5.9 0 1.6.7 1.6 1.5 0 .9-.7 1.5-1.6 1.5-.9 0-1.5-.6-1.5-1.5zm-6.2 0c0-.9.7-1.5 1.5-1.5.9 0 1.6.7 1.6 1.5 0 .9-.7 1.5-1.6 1.5-.8 0-1.5-.6-1.5-1.5zm-6.2 0c0-.9.7-1.5 1.6-1.5.9 0 1.5.7 1.5 1.5 0 .9-.7 1.5-1.5 1.5-.9 0-1.6-.6-1.6-1.5zm-6.1 0c0-.9.7-1.5 1.5-1.5.9 0 1.5.7 1.5 1.5 0 .9-.7 1.5-1.5 1.5s-1.5-.6-1.5-1.5zm-6.2 0c0-.9.7-1.5 1.5-1.5.9 0 1.6.7 1.6 1.5 0 .9-.7 1.5-1.6 1.5-.8 0-1.5-.6-1.5-1.5zm-6.1 0c0-.9.7-1.5 1.6-1.5.9 0 1.5.7 1.5 1.5 0 .9-.7 1.5-1.5 1.5-1 0-1.6-.6-1.6-1.5zm-6.2 0c0-.9.7-1.5 1.5-1.5.9 0 1.6.7 1.6 1.5 0 .9-.7 1.5-1.6 1.5-.8 0-1.5-.6-1.5-1.5zm-6.2 0c0-.9.7-1.5 1.5-1.5.9 0 1.6.7 1.6 1.5 0 .9-.7 1.5-1.6 1.5-.8 0-1.5-.6-1.5-1.5zm-6.1 0c0-.9.7-1.5 1.6-1.5.9 0 1.6.7 1.6 1.5 0 .9-.7 1.5-1.6 1.5-.9 0-1.6-.6-1.6-1.5zm-6.2 0c0-.9.7-1.5 1.5-1.5.9 0 1.6.7 1.6 1.5 0 .9-.7 1.5-1.6 1.5-.8 0-1.5-.6-1.5-1.5zm-6.1 0c0-.9.7-1.5 1.6-1.5.9 0 1.5.7 1.5 1.5 0 .9-.7 1.5-1.5 1.5-.9 0-1.6-.6-1.6-1.5zm-6.2 0c0-.9.7-1.5 1.6-1.5.9 0 1.6.7 1.6 1.5 0 .9-.7 1.5-1.6 1.5-.9 0-1.6-.6-1.6-1.5zm-6.2 0c0-.9.7-1.5 1.6-1.5.9 0 1.6.7 1.6 1.5 0 .9-.7 1.5-1.6 1.5-.9 0-1.6-.6-1.6-1.5zm-6.1 0c0-.9.7-1.5 1.6-1.5.9 0 1.5.7 1.5 1.5 0 .9-.7 1.5-1.5 1.5-.9 0-1.6-.6-1.6-1.5zm-6.2 0c0-.9.7-1.5 1.6-1.5.9 0 1.5.7 1.5 1.5 0 .9-.7 1.5-1.5 1.5-.9 0-1.6-.6-1.6-1.5zm-6.1 0c0-.9.7-1.5 1.5-1.5.9 0 1.6.7 1.6 1.5 0 .9-.7 1.5-1.6 1.5-.8 0-1.5-.6-1.5-1.5zm-6.2 0c0-.9.7-1.5 1.6-1.5.9 0 1.5.7 1.5 1.5 0 .9-.7 1.5-1.5 1.5-.9 0-1.6-.6-1.6-1.5zm-6.1 0c0-.9.7-1.5 1.5-1.5.9 0 1.5.7 1.5 1.5 0 .9-.7 1.5-1.5 1.5-.9 0-1.5-.6-1.5-1.5zM56.7 164.8h-.3c-.1 0-.2 0-.3-.1-.1 0-.2-.1-.3-.1-.1-.1-.2-.1-.2-.2l-.2-.2c-.1-.1-.1-.2-.1-.3 0-.1-.1-.2-.1-.3v-.3-.3c0-.1.1-.2.1-.3 0-.1.1-.2.1-.3.1-.1.1-.2.2-.2.6-.6 1.6-.6 2.2 0l.2.2c.1.1.1.2.1.3 0 .1.1.2.1.3v.6c0 .1 0 .2-.1.3 0 .1-.1.2-.1.3-.1.1-.1.2-.2.2-.3.3-.7.4-1.1.4zM55.1 157.4c0-.9.7-1.5 1.5-1.5.9 0 1.6.7 1.6 1.5 0 .9-.7 1.6-1.6 1.6-.8 0-1.5-.7-1.5-1.6zm0-5.9c0-.9.7-1.6 1.5-1.6.9 0 1.6.7 1.6 1.6 0 .9-.7 1.5-1.6 1.5-.8.1-1.5-.6-1.5-1.5zm0-5.8c0-.9.7-1.6 1.5-1.6.9 0 1.6.7 1.6 1.6 0 .9-.7 1.5-1.6 1.5-.8 0-1.5-.7-1.5-1.5zm0-5.9c0-.9.7-1.5 1.5-1.5.9 0 1.6.7 1.6 1.5 0 .9-.7 1.5-1.6 1.5-.8 0-1.5-.7-1.5-1.5zm0-5.9c0-.9.7-1.5 1.5-1.5.9 0 1.6.7 1.6 1.5 0 .9-.7 1.5-1.6 1.5-.8.1-1.5-.6-1.5-1.5zm0-5.9c0-.9.7-1.5 1.5-1.5.9 0 1.6.7 1.6 1.5 0 .9-.7 1.5-1.6 1.5-.8.1-1.5-.6-1.5-1.5zm0-5.8c0-.9.7-1.5 1.5-1.5.9 0 1.6.7 1.6 1.5 0 .9-.7 1.5-1.6 1.5-.8 0-1.5-.7-1.5-1.5zM56.7 118c-.4 0-.8-.2-1.1-.5-.3-.3-.4-.7-.4-1.1v-.3c0-.1.1-.2.1-.3 0-.1.1-.2.1-.3.1-.1.1-.2.2-.2.6-.6 1.6-.6 2.2 0 .1.1.1.2.2.2.1.1.1.2.1.3 0 .1.1.2.1.3v.3c0 .4-.2.8-.5 1.1s-.6.5-1 .5zM289.1 116.4c0-.9.7-1.5 1.6-1.5.9 0 1.5.7 1.5 1.5 0 .9-.7 1.6-1.5 1.6-.9 0-1.6-.7-1.6-1.6zm-6.1 0c0-.9.7-1.5 1.5-1.5.9 0 1.5.7 1.5 1.5 0 .9-.7 1.6-1.5 1.6s-1.5-.7-1.5-1.6zm-6.2 0c0-.9.7-1.5 1.5-1.5.9 0 1.6.7 1.6 1.5 0 .9-.7 1.6-1.6 1.6-.8 0-1.5-.7-1.5-1.6zm-6.1 0c0-.9.7-1.5 1.5-1.5.9 0 1.5.7 1.5 1.5 0 .9-.7 1.6-1.5 1.6s-1.5-.7-1.5-1.6zm-6.2 0c0-.9.7-1.5 1.5-1.5.9 0 1.6.7 1.6 1.5 0 .9-.7 1.6-1.6 1.6-.8 0-1.5-.7-1.5-1.6zm-6.2 0c0-.9.7-1.5 1.5-1.5.9 0 1.6.7 1.6 1.5 0 .9-.7 1.6-1.6 1.6-.8 0-1.5-.7-1.5-1.6zm-6.1 0c0-.9.7-1.5 1.6-1.5.9 0 1.6.7 1.6 1.5 0 .9-.7 1.6-1.6 1.6-.9 0-1.6-.7-1.6-1.6zm-6.2 0c0-.9.7-1.5 1.5-1.5.9 0 1.6.7 1.6 1.5 0 .9-.7 1.6-1.6 1.6-.8 0-1.5-.7-1.5-1.6zm-6.1 0c0-.9.7-1.5 1.6-1.5.9 0 1.5.7 1.5 1.5 0 .9-.7 1.6-1.5 1.6-.9 0-1.6-.7-1.6-1.6zm-6.2 0c0-.9.7-1.5 1.6-1.5.9 0 1.5.7 1.5 1.5 0 .9-.7 1.6-1.5 1.6-.9 0-1.6-.7-1.6-1.6zm-6.2 0c0-.9.7-1.5 1.6-1.5.9 0 1.6.7 1.6 1.5 0 .9-.7 1.6-1.6 1.6-.8 0-1.6-.7-1.6-1.6zm-6.1 0c0-.9.7-1.5 1.6-1.5.8 0 1.5.7 1.5 1.5 0 .9-.7 1.6-1.5 1.6-.9 0-1.6-.7-1.6-1.6zm-6.2 0c0-.9.7-1.5 1.6-1.5.8 0 1.5.7 1.5 1.5 0 .9-.7 1.6-1.5 1.6-.9 0-1.6-.7-1.6-1.6zm-6.1 0c0-.9.7-1.5 1.6-1.5.8 0 1.5.7 1.5 1.5 0 .9-.7 1.6-1.5 1.6-.9 0-1.6-.7-1.6-1.6zm-6.2 0c0-.9.7-1.5 1.6-1.5.8 0 1.5.7 1.5 1.5 0 .9-.7 1.6-1.5 1.6-.9 0-1.6-.7-1.6-1.6zm-6.1 0c0-.9.7-1.5 1.5-1.5.9 0 1.5.7 1.5 1.5 0 .9-.7 1.6-1.5 1.6s-1.5-.7-1.5-1.6zm-6.2 0c0-.9.7-1.5 1.5-1.5.9 0 1.6.7 1.6 1.5 0 .9-.7 1.6-1.6 1.6-.8 0-1.5-.7-1.5-1.6zm-6.2 0c0-.9.7-1.5 1.6-1.5.9 0 1.5.7 1.5 1.5 0 .9-.7 1.6-1.5 1.6-.9 0-1.6-.7-1.6-1.6zm-6.1 0c0-.9.7-1.5 1.5-1.5.9 0 1.5.7 1.5 1.5 0 .9-.7 1.6-1.5 1.6s-1.5-.7-1.5-1.6zm-6.2 0c0-.9.7-1.5 1.6-1.5.9 0 1.5.7 1.5 1.5 0 .9-.7 1.6-1.5 1.6-.9 0-1.6-.7-1.6-1.6zm-6.1 0c0-.9.7-1.5 1.5-1.5.9 0 1.6.7 1.6 1.5 0 .9-.7 1.6-1.6 1.6-.9 0-1.5-.7-1.5-1.6zm-6.2 0c0-.9.7-1.5 1.5-1.5.9 0 1.6.7 1.6 1.5 0 .9-.7 1.6-1.6 1.6-.8 0-1.5-.7-1.5-1.6zm-6.2 0c0-.9.7-1.5 1.6-1.5.9 0 1.5.7 1.5 1.5 0 .9-.7 1.6-1.5 1.6-.9 0-1.6-.7-1.6-1.6zm-6.1 0c0-.9.7-1.5 1.5-1.5.9 0 1.5.7 1.5 1.5 0 .9-.7 1.6-1.5 1.6s-1.5-.7-1.5-1.6zm-6.2 0c0-.9.7-1.5 1.5-1.5.9 0 1.6.7 1.6 1.5 0 .9-.7 1.6-1.6 1.6-.8 0-1.5-.7-1.5-1.6zm-6.1 0c0-.9.7-1.5 1.6-1.5.9 0 1.6.7 1.6 1.5 0 .9-.7 1.6-1.6 1.6-.9 0-1.6-.7-1.6-1.6zm-6.2 0c0-.9.7-1.5 1.5-1.5.9 0 1.6.7 1.6 1.5 0 .9-.7 1.6-1.6 1.6-.8 0-1.5-.7-1.5-1.6zm-6.2 0c0-.9.7-1.5 1.6-1.5.9 0 1.5.7 1.5 1.5 0 .9-.7 1.6-1.5 1.6-.9 0-1.6-.7-1.6-1.6zm-6.1 0c0-.9.7-1.5 1.6-1.5.9 0 1.6.7 1.6 1.5 0 .9-.7 1.6-1.6 1.6-.9 0-1.6-.7-1.6-1.6zm-6.2 0c0-.9.7-1.5 1.6-1.5.9 0 1.6.7 1.6 1.5 0 .9-.7 1.6-1.6 1.6-.9 0-1.6-.7-1.6-1.6zm-6.1 0c0-.9.7-1.5 1.6-1.5.9 0 1.5.7 1.5 1.5 0 .9-.7 1.6-1.5 1.6-.9 0-1.6-.7-1.6-1.6zm-6.2 0c0-.9.7-1.5 1.6-1.5.9 0 1.6.7 1.6 1.5 0 .9-.7 1.6-1.6 1.6-.9 0-1.6-.7-1.6-1.6zm-6.2 0c0-.9.7-1.5 1.6-1.5.9 0 1.6.7 1.6 1.5 0 .9-.7 1.6-1.6 1.6-.9 0-1.6-.7-1.6-1.6zm-6.1 0c0-.9.7-1.5 1.6-1.5.9 0 1.5.7 1.5 1.5 0 .9-.7 1.6-1.5 1.6-.9 0-1.6-.7-1.6-1.6zm-6.2 0c0-.9.7-1.5 1.5-1.5.9 0 1.5.7 1.5 1.5 0 .9-.7 1.6-1.5 1.6s-1.5-.7-1.5-1.6zm-6.1 0c0-.9.7-1.5 1.5-1.5.9 0 1.6.7 1.6 1.5 0 .9-.7 1.6-1.6 1.6-.8 0-1.5-.7-1.5-1.6zm-6.2 0c0-.9.7-1.5 1.6-1.5.9 0 1.5.7 1.5 1.5 0 .9-.7 1.6-1.5 1.6-.9 0-1.6-.7-1.6-1.6zm-6.1 0c0-.9.7-1.5 1.5-1.5.9 0 1.5.7 1.5 1.5 0 .9-.7 1.6-1.5 1.6-.9 0-1.5-.7-1.5-1.6zM296.9 118c-.4 0-.8-.2-1.1-.5-.1-.1-.1-.2-.2-.2-.1-.1-.1-.2-.1-.3 0-.1-.1-.2-.1-.3v-.3-.3c0-.1 0-.2.1-.3 0-.1.1-.2.1-.3.1-.1.1-.2.2-.2.4-.4.9-.5 1.4-.4.1 0 .2 0 .3.1.1 0 .2.1.3.1.1.1.2.1.2.2.1.1.1.2.2.2.1.1.1.2.1.3 0 .1.1.2.1.3v.6c0 .1 0 .2-.1.3 0 .1-.1.2-.1.3-.1.1-.1.2-.2.2-.3.3-.7.5-1.1.5zM295.3 157.4c0-.9.7-1.5 1.5-1.5.9 0 1.6.7 1.6 1.5s-.7 1.5-1.6 1.5c-.8.1-1.5-.6-1.5-1.5zm0-5.9c0-.9.7-1.6 1.5-1.6.9 0 1.6.7 1.6 1.6 0 .8-.7 1.5-1.6 1.5-.8.1-1.5-.6-1.5-1.5zm0-5.8c0-.9.7-1.5 1.5-1.5.9 0 1.6.7 1.6 1.5 0 .9-.7 1.5-1.6 1.5-.8 0-1.5-.7-1.5-1.5zm0-5.9c0-.9.7-1.5 1.5-1.5.9 0 1.6.7 1.6 1.5 0 .9-.7 1.5-1.6 1.5-.8.1-1.5-.6-1.5-1.5zm0-5.9c0-.9.7-1.5 1.5-1.5.9 0 1.6.7 1.6 1.5 0 .9-.7 1.6-1.6 1.6-.8 0-1.5-.7-1.5-1.6zm0-5.8c0-.9.7-1.5 1.5-1.5.9 0 1.6.7 1.6 1.5 0 .9-.7 1.6-1.6 1.6-.8-.1-1.5-.8-1.5-1.6zm0-5.9c0-.9.7-1.6 1.5-1.6.9 0 1.6.7 1.6 1.6 0 .9-.7 1.5-1.6 1.5-.8.1-1.5-.6-1.5-1.5z" class="st0"/></g><g class="st2"><path d="M76.5 133.7l-.7 5.5h6.4l-.5 3.6h-6.4l-1 8.2h-4.7l2.6-20.9h12.4l-.5 3.6h-7.6zM89.5 151h-4.7l2.6-20.9h4.7L89.5 151zM112.9 130.2l-2.6 20.9h-2.4c-.4 0-.7-.1-.9-.2-.2-.1-.4-.3-.6-.6l-7.4-13c0 .6-.1 1-.1 1.5L97.4 151h-4.1l2.6-20.9h3c.1 0 .3 0 .4.1.1.1.2.1.3.2.1.1.2.2.3.4l7.3 12.9c0-.3.1-.7.1-1 0-.3.1-.6.1-.9l1.4-11.8 4.1.2zM133 139.3c0 1.1-.1 2.2-.4 3.2-.3 1-.6 2-1.1 2.8-.5.9-1.1 1.7-1.7 2.4-.7.7-1.5 1.3-2.3 1.8-.8.5-1.8.9-2.8 1.1s-2 .4-3.1.4h-7.5l2.6-20.9h7.5c1.4 0 2.6.2 3.7.7 1.1.5 2 1.1 2.8 1.9.8.8 1.3 1.8 1.8 2.9.3 1.2.5 2.4.5 3.7zm-4.8.1c0-.8-.1-1.6-.3-2.3-.2-.7-.5-1.3-.9-1.8s-.9-.9-1.4-1.1c-.6-.3-1.2-.4-1.9-.4h-2.8l-1.7 13.7h2.8c1 0 1.8-.2 2.6-.6.8-.4 1.4-.9 2-1.6.5-.7 1-1.5 1.2-2.5.3-1 .4-2.1.4-3.4zM160.7 139.4c0 1.1-.1 2.2-.4 3.2-.3 1-.6 2-1.1 2.9-.5.9-1.1 1.7-1.8 2.4s-1.5 1.3-2.3 1.8c-.9.5-1.8.9-2.8 1.2-1 .3-2 .4-3.1.4-1.4 0-2.6-.3-3.7-.7-1.1-.5-2-1.1-2.8-2-.8-.8-1.3-1.8-1.7-3-.4-1.1-.6-2.4-.6-3.7 0-1.1.1-2.2.4-3.2.3-1 .6-2 1.1-2.9.5-.9 1.1-1.7 1.8-2.4s1.5-1.3 2.3-1.8c.9-.5 1.8-.9 2.8-1.2 1-.3 2-.4 3.2-.4 1.4 0 2.6.2 3.7.7 1.1.5 2 1.1 2.8 2s1.3 1.8 1.7 3 .5 2.4.5 3.7zm-4.8.1c0-.9-.1-1.6-.3-2.3-.2-.7-.5-1.3-.9-1.8s-.9-.9-1.4-1.2c-.6-.3-1.2-.4-1.9-.4-1 0-1.8.2-2.6.6-.8.4-1.4.9-1.9 1.7-.5.7-.9 1.6-1.2 2.6-.3 1-.4 2.1-.4 3.3 0 .9.1 1.6.3 2.3s.5 1.3.9 1.8.9.9 1.4 1.2c.6.3 1.2.4 2 .4 1 0 1.8-.2 2.6-.6.8-.4 1.4-.9 1.9-1.7.5-.7.9-1.6 1.2-2.6.2-.9.3-2 .3-3.3zM170.6 147.6c.6 0 1.1-.1 1.6-.3.5-.2.9-.5 1.3-1 .4-.4.7-.9.9-1.5.2-.6.4-1.3.5-2l1.6-12.4h4.7l-1.6 12.4c-.2 1.3-.5 2.4-1 3.5s-1.2 2-2 2.7c-.8.8-1.8 1.4-2.8 1.8-1.1.4-2.3.6-3.6.6-1.3 0-2.4-.2-3.4-.7-1-.4-1.8-1-2.4-1.8-.6-.8-1.1-1.7-1.3-2.8s-.3-2.2-.1-3.5l1.5-12.4h4.7l-1.6 12.4c-.1.7-.1 1.4 0 2 .1.6.3 1.1.5 1.5.3.4.6.7 1 1 .4.4.9.5 1.5.5zM198 134.2h-5.3l-2.2 17.2h-4.6l2.1-17.2h-5.3l.5-3.7h15.3l-.5 3.7zM227.8 130.6l-2.6 20.9h-4.1l1.5-12.1c0-.3.1-.5.1-.9.1-.3.1-.6.2-1l-6.3 10.8c-.2.3-.5.6-.8.7-.3.2-.6.2-1 .2h-.6c-.4 0-.7-.1-.9-.2-.3-.2-.5-.4-.6-.7l-3.6-10.8v.9c0 .3 0 .6-.1.8l-1.5 12.2h-4.1l2.6-20.9h4.1c.1 0 .3.1.4.1.1 0 .2.1.3.2.1.1.2.2.3.4l3.6 11 .3.9s.2.6.2.9c.1-.3.3-.6.5-.9.2-.3.3-.6.5-.9l6.4-11c.1-.2.3-.3.4-.4.1-.1.2-.2.3-.2.1 0 .2-.1.4-.1h.5l3.6.1zM249.4 139.7c0 1.1-.1 2.2-.4 3.2-.3 1-.6 2-1.1 2.9-.5.9-1.1 1.7-1.8 2.4s-1.5 1.3-2.3 1.8c-.9.5-1.8.9-2.8 1.2-1 .3-2 .4-3.1.4-1.4 0-2.6-.3-3.7-.7-1.1-.5-2-1.1-2.8-2-.8-.8-1.3-1.8-1.7-3-.4-1.1-.6-2.4-.6-3.7 0-1.1.1-2.2.4-3.2s.6-2 1.1-2.9c.5-.9 1.1-1.7 1.8-2.4s1.5-1.3 2.3-1.8c.9-.5 1.8-.9 2.8-1.2 1-.3 2-.4 3.2-.4 1.4 0 2.6.3 3.7.7 1.1.5 2 1.1 2.8 2 .8.8 1.3 1.8 1.7 3 .3 1.2.5 2.4.5 3.7zm-4.7.1c0-.9-.1-1.6-.3-2.3-.2-.7-.5-1.3-.9-1.8s-.9-.9-1.5-1.2c-.6-.3-1.2-.4-1.9-.4-1 0-1.8.2-2.6.6-.8.4-1.4.9-1.9 1.7-.5.7-.9 1.6-1.2 2.6-.3 1-.4 2.1-.4 3.3 0 .9.1 1.6.3 2.3.2.7.5 1.3.9 1.8s.9.9 1.4 1.2c.6.3 1.2.4 2 .4 1 0 1.8-.2 2.6-.6.8-.4 1.4-.9 1.9-1.7.5-.7.9-1.6 1.2-2.6.2-1 .4-2.1.4-3.3zM259.7 130.7c1.3 0 2.4.1 3.3.4.9.3 1.6.7 2.2 1.1.6.5 1 1 1.2 1.7.3.7.4 1.4.4 2.1 0 .8-.1 1.5-.3 2.2-.2.7-.5 1.3-.9 1.9-.4.6-.9 1.1-1.4 1.5s-1.2.8-1.9 1.1c.3.2.5.4.8.6.2.2.4.5.6.9l3 7.4h-4.2c-.4 0-.7-.1-1-.2-.3-.2-.5-.4-.6-.7l-2.2-6.2c-.1-.3-.3-.4-.4-.6-.2-.1-.4-.2-.8-.2h-1l-1 7.8h-4.6l2.6-20.9 6.2.1zm-1.2 9.8c.7 0 1.2-.1 1.7-.3.5-.2.8-.5 1.1-.8.3-.3.5-.7.6-1.2.1-.5.2-.9.2-1.4 0-.4-.1-.7-.2-1.1-.1-.3-.3-.6-.5-.8-.2-.2-.5-.4-.9-.5-.4-.1-.8-.2-1.3-.2h-1.7l-.8 6.4 1.8-.1zM275.2 134.3l-.6 5h5.9l-.5 3.5h-5.9l-.7 5.2h7.8l-.5 3.6h-12.5l2.6-20.9h12.4l-.5 3.6h-7.5z" class="st0"/></g></svg>
