<?xml version="1.0" encoding="utf-8"?>
<!-- Generator: Adobe Illustrator 18.0.0, SVG Export Plug-In . SVG Version: 6.00 Build 0)  -->
<!DOCTYPE svg PUBLIC "-//W3C//DTD SVG 1.1//EN" "http://www.w3.org/Graphics/SVG/1.1/DTD/svg11.dtd">
<svg version="1.1" id="Слой_1" xmlns="http://www.w3.org/2000/svg" xmlns:xlink="http://www.w3.org/1999/xlink" x="0px" y="0px"
	 viewBox="0 0 388.4 268.2" enable-background="new 0 0 388.4 268.2" xml:space="preserve">
<g>
	
		<rect x="119.1" y="109" transform="matrix(0.4944 -0.8693 0.8693 0.4944 -37.4509 164.0559)" fill="#FFFFFF" width="6.4" height="10.4"/>
	<g>
		<g>
			<g>
				<g>
					<path fill="#FFFFFF" d="M120.2,115.9c0.6-0.2,0.9-0.8,0.8-1.4l-1.7-6.1c-0.2-0.6-0.8-0.9-1.4-0.8l-3.2,0.9
						c-0.6,0.2-0.9,0.8-0.8,1.3l1.7,6.1c0.2,0.6,0.8,0.9,1.4,0.8L120.2,115.9z"/>
					<path fill="#1072BA" d="M116.1,117.8c0,0-3.9-14.3-4-14.4l1.3-0.4l0,0l-0.2-1.4c0.3,0,1.2-0.1,1.6,1.2l3.9,14.2L116.1,117.8
						L116.1,117.8z"/>
					<g>
						<path fill="#FFFFFF" d="M114.4,110.8c0.6-0.2,1.2,0.2,1.3,0.7c0.2,0.6-0.2,1.2-0.7,1.3l-2.3,0.6c-0.6,0.2-1.2-0.2-1.3-0.7h0
							c-0.2-0.6,0.2-1.2,0.7-1.3L114.4,110.8z"/>
						<path fill="#FFFFFF" d="M113.9,108.8c0.6-0.2,1.2,0.2,1.3,0.7c0.2,0.6-0.2,1.2-0.7,1.3l-2.3,0.6c-0.6,0.2-1.2-0.2-1.3-0.7l0,0
							c-0.2-0.6,0.2-1.2,0.7-1.3L113.9,108.8z"/>
						<path fill="#FFFFFF" d="M116.3,113.6c0.2,0.6-0.2,1.2-0.7,1.3l-1.7,0.5c-0.6,0.2-1.2-0.2-1.3-0.7c-0.2-0.6,0.2-1.2,0.7-1.3
							l1.7-0.5C115.6,112.7,116.2,113.1,116.3,113.6z"/>
						<path fill="#FFFFFF" d="M115.6,114.9c0.6-0.2,1.2,0.2,1.3,0.7c0.2,0.6-0.2,1.2-0.7,1.3l-0.9,0.2c-0.6,0.2-1.2-0.2-1.3-0.7
							c-0.2-0.6,0.2-1.2,0.8-1.3L115.6,114.9z"/>
					</g>
					<path fill="#FFFFFF" d="M119.2,109.2c-0.3,0.5-0.9,0.7-1.5,0.4l-3.1-1.8c-0.5-0.3-0.7-0.9-0.4-1.5c0.3-0.5,0.9-0.7,1.5-0.4
						l3.1,1.8C119.3,108,119.5,108.7,119.2,109.2z"/>
				</g>
			</g>
		</g>
	</g>
</g>
<path fill="#28296B" d="M186.1,262.4c-0.6,1.1-3.4,1.7-5.6,1.4c-1.7-0.3-4,1.6-1.1,2.6c3.7,1.2,7.5,0.8,8.7-0.7c0,0.6,0,1.3,0,1.3
	l4.6,0l-0.5-4.6H186.1z"/>
<path fill="#28296B" d="M226.3,262.3c-0.6,1-3.5,1.7-5.6,1.3c-1.7-0.3-4.1,1.5-1.1,2.6c3.7,1.3,7.5,1,8.7-0.5c0,0.6,0,1.3,0,1.3
	l4.6,0.1l-0.4-4.6L226.3,262.3z"/>
<path fill="#1072BA" d="M158.7,77.4c1.2,29.5,1.8,63,1.8,63s-22.8-11.2-40.2-21.6l4.1-9.3c12.3,4.9,22.6,8.1,22.6,8.1
	s-2.7-19.1-5.8-38.2C145.9,79,155.7,77.7,158.7,77.4z"/>
<g>
	<path fill="#1072BA" d="M185.3,156.2c-1.1,36.7-2.5,72.9,0.7,103.9c1.6,0,0,0,6.4,0c0.5-33.5,12.4-71.3,22-103.9
		C220,136.7,185.9,136,185.3,156.2z"/>
</g>
<g>
	<path fill="#1072BA" d="M210.7,156.8c5.5,40.9,13.4,72,16.1,103.1c1.6,0,0,0,6.4,0.1c1-33.5,1.6-65,6.6-103.4
		C242.3,136.5,208,136.8,210.7,156.8z"/>
</g>
<path fill="#1072BA" d="M141.2,79.5c8.8,11.9,39.7,49,41.3,82.3c14.5-3,47-7.3,59.8-7.3c-2.5-59.9-56.2-112.1-56.2-112.1L141.2,79.5
	z"/>
<g>
	<path fill="#FFFFFF" d="M157.1,73.6c-2.5-2.7-5.7-0.2-3.7,2.4c5.9,7.5,14.2,34.8,10.7,73.6c2.9,3.1,7.4,7.9,7.4,7.9
		s5.8-5.5,7.7-7.6C177,106.1,165.7,82.8,157.1,73.6z"/>
</g>
<polygon fill="#FFFFFF" points="154.2,68.6 150,72 152.4,76.8 157.8,72.9 "/>
<g>
	<g>
		<path fill="#FFFFFF" d="M132,60.5c-1.3-3.5-0.8-7.3,2.5-10.6c3.7-3.7,6.2-3.9,11.3-0.5c2.8,1.9,15.5,8,19,10.4l-17.2,14.3
			c-1.8-1.7-4.2-3.6-6.5-5.3c-1-0.1-1.9-0.7-1.8-1.5c-0.7,0.1-1.3,0-1.6-0.8c-0.2-0.5-1.2-1.5-1.2-1.5l-1.8,1.8
			C134.6,66.8,133.3,64,132,60.5z"/>
	</g>
	<circle fill="#0F91D1" cx="135.1" cy="60" r="1"/>
	<path fill="#0F91D1" d="M135.8,58.8c0.3,0.5,0.9,0.7,1.4,0.4c0.5-0.3,0.7-0.9,0.4-1.4c-0.3-0.5-0.9-0.7-1.4-0.4
		C135.8,57.7,135.6,58.3,135.8,58.8z"/>
</g>
<path fill="#1072BA" d="M139.5,45.8c-1.5-1.3-4-0.7-4.9,1c-0.9,1.7-2.4,2.6-3,1.8c-0.1,2.1,2.1,3.5,3.9,3c1.8-0.5,4.7-3.4,5.2-4
	c0.5,1,4.3,2.5,5.1,1.7C145.6,47,141.7,43.8,139.5,45.8z"/>
<g>
	<g>
		<path fill="#1072BA" d="M194.9,41c40.7,18.4,62.6,44.2,75.6,89.6l-6.6,2.2c-17.9-38-51.3-64-78.5-71.4
			C174.7,58.4,183.5,35.8,194.9,41z"/>
	</g>
	<g>
		<path fill="#FFFFFF" d="M264.8,132.9c0.6,0.3,0.8,1,0.5,1.6l-1.7,3.4c-0.3,0.6-1,0.8-1.6,0.5l0,0c-0.6-0.3-0.8-1-0.5-1.6l1.7-3.4
			C263.5,132.8,264.2,132.6,264.8,132.9z"/>
		<g>
			<path fill="#FFFFFF" d="M258.4,139.7c0.4-0.8,1.2-1.4,2.1-1.6l15.2-4.5c1.7-0.5,3.5,0.4,4,2l2.1,7.3l-2.1,0.6l-2.1-7.3
				c-0.2-0.5-0.8-0.7-1.3-0.5l-15.2,4.5c-0.5,0.2-1,0.7-0.9,1.2l2.1,7.3l-2.1,0.6l-2.1-7.3C257.9,141.2,258,140.4,258.4,139.7
				L258.4,139.7z"/>
		</g>
		<g>
			<path fill="#FFFFFF" d="M302.5,165.6c0.7,2.3-0.7,4.8-3,5.5l-38.8,11.4c-2.3,0.7-4.8-0.7-5.5-3l-7.4-25.2c-0.7-2.3,0.7-4.8,3-5.5
				l38.8-11.4c2.3-0.7,4.8,0.6,5.5,3L302.5,165.6z"/>
		</g>
		<g>
			<g>
				<path fill="#FFFFFF" d="M272.1,131.4c-0.2-0.6-0.9-1-1.5-0.8l-6.6,2.2c-0.6,0.2-1,0.9-0.8,1.5l1.1,3.4c0.2,0.6,0.9,1,1.5,0.8
					l6.6-2.2c0.6-0.2,1-0.9,0.8-1.5L272.1,131.4z"/>
				<g>
					<path fill="#FFFFFF" d="M266.5,137c-0.2-0.6,0.1-1.3,0.7-1.5c0.6-0.2,1.3,0.1,1.5,0.7l0.7,2.3c0.2,0.6-0.1,1.3-0.7,1.5l0,0
						c-0.6,0.2-1.3-0.1-1.5-0.7L266.5,137z"/>
					<path fill="#FFFFFF" d="M264.3,137.8c-0.2-0.6,0.1-1.3,0.7-1.5c0.6-0.2,1.3,0.1,1.5,0.7l0.7,2.3c0.2,0.6-0.1,1.3-0.7,1.5l0,0
						c-0.6,0.2-1.3-0.1-1.5-0.7L264.3,137.8z"/>
					<path fill="#FFFFFF" d="M269.5,134.8c0.6-0.2,1.3,0.1,1.5,0.7l0.7,2.3c0.2,0.6-0.1,1.3-0.7,1.5l0,0c-0.6,0.2-1.3-0.1-1.5-0.7
						l-0.7-2.3C268.5,135.7,268.9,135,269.5,134.8z"/>
					<path fill="#FFFFFF" d="M271,135.6c-0.2-0.6,0.1-1.3,0.7-1.5c0.6-0.2,1.3,0.1,1.5,0.7l0.7,2.3c0.2,0.6-0.1,1.3-0.7,1.5
						c-0.6,0.2-1.3-0.1-1.5-0.7L271,135.6z"/>
				</g>
			</g>
		</g>
	</g>
</g>
<g>
	<circle fill="#FFFFFF" cx="109.1" cy="87.3" r="16.4"/>
	<path fill="#1072BA" d="M109.1,104.4L109.1,104.4c-7.6,0-14.4-5.2-16.4-12.5c-1.2-4.4-0.6-9,1.6-13c2.3-4,5.9-6.8,10.3-8
		c1.5-0.4,3-0.6,4.5-0.6c7.6,0,14.4,5.2,16.4,12.5c2.5,9.1-2.9,18.5-11.9,21C112.2,104.2,110.6,104.4,109.1,104.4L109.1,104.4z
		 M109.1,71.7c-1.4,0-2.8,0.2-4.2,0.6c-4,1.1-7.4,3.7-9.5,7.4c-2.1,3.6-2.6,7.9-1.5,11.9c1.9,6.8,8.1,11.5,15.1,11.5h0
		c1.4,0,2.8-0.2,4.2-0.6c8.3-2.3,13.2-10.9,11-19.3C122.4,76.4,116.2,71.7,109.1,71.7L109.1,71.7z"/>
</g>
<path fill="#1072BA" d="M98,83.2c-0.1,0-0.2,0-0.3-0.1c-0.4-0.2-0.5-0.6-0.4-0.9c1.2-2.8,3.3-5.1,6-6.4c0.3-0.2,0.8,0,0.9,0.3
	c0.2,0.3,0,0.8-0.3,0.9c-2.4,1.2-4.3,3.2-5.4,5.7C98.5,83.1,98.2,83.2,98,83.2L98,83.2z"/>
<polyline fill="none" points="329.7,0.3 329.7,210.1 62.2,210.1 62.2,0.3 "/>
<line fill="none" stroke="#676767" stroke-miterlimit="10" x1="0" y1="209.5" x2="386" y2="209.5"/>
</svg>
