<?xml version="1.0" encoding="utf-8"?>
<!-- Generator: Adobe Illustrator 18.0.0, SVG Export Plug-In . SVG Version: 6.00 Build 0)  -->
<!DOCTYPE svg PUBLIC "-//W3C//DTD SVG 1.1//EN" "http://www.w3.org/Graphics/SVG/1.1/DTD/svg11.dtd">
<svg version="1.1" id="Слой_1" xmlns="http://www.w3.org/2000/svg" xmlns:xlink="http://www.w3.org/1999/xlink" x="0px" y="0px"
	 viewBox="0 0 388.4 159" enable-background="new 0 0 388.4 159" xml:space="preserve">
<path fill="#FFFFFF" d="M203.7,104.9"/>
<g>
	<path fill="#FFFFFF" d="M241.8,53.7c0,7.5-6.1,13.6-13.6,13.6c-7.5,0-13.6-6.1-13.6-13.6V43.2l-4-36.5h19.2l12.1,36.7L241.8,53.7
		L241.8,53.7z"/>
	<path fill="#FFFFFF" d="M148.7,43.4L148.7,43.4l12.1-36.7H180l-4,36.5v10.5c0,7.5-6.1,13.6-13.6,13.6c-7.5,0-13.6-6.1-13.6-13.6
		V43.4"/>
	<path fill="#1072BA" d="M241.6,54.3c0,7.5-6.1,13.6-13.6,13.6c-7.5,0-13.6-6.1-13.6-13.6V43.8l-4-36.4h19.1l12,36.6L241.6,54.3
		L241.6,54.3z M203.8,105h-74.9V75.5c7.2,0,13.4-4,16.6-10c3.2,5.9,9.4,10,16.6,10c7.2,0,13.4-4,16.6-10c3.2,5.9,9.4,10,16.6,10
		c3.1,0,5.9-0.8,8.5-2.1L203.8,105L203.8,105z M148.9,44l12-36.6H180l-4,36.4v10.5c0,7.5-6.1,13.6-13.6,13.6s-13.6-6.1-13.6-13.6
		L148.9,44L148.9,44z M256.2-0.2H134.3L110,42v14.6c0,7.3,4.2,13.6,10.2,16.7v85.5h91.7V65.5c3.2,5.9,9.4,10,16.6,10
		c7.2,0,13.4-4,16.6-10c3.2,5.9,9.4,10,16.6,10v83.4h8.6V73.4c6.1-3.1,10.2-9.4,10.2-16.7V42L256.2-0.2z"/>
</g>
<line fill="none" stroke="#676767" stroke-miterlimit="10" x1="0" y1="157.5" x2="388" y2="157.5"/>
</svg>
